<svg width="134" height="57" viewBox="0 0 134 57" fill="none" xmlns="http://www.w3.org/2000/svg">
<mask id="path-1-inside-1_250_2053" fill="white">
<path fill-rule="evenodd" clip-rule="evenodd" d="M64.9019 1.5C66.0566 -0.500002 68.9434 -0.499998 70.0981 1.5L71.5415 4H122C128.627 4 134 9.37258 134 16V40C134 46.6274 128.627 52 122 52H72.1188L70.0981 55.5C68.9434 57.5 66.0566 57.5 64.9019 55.5L62.8812 52H12C5.37258 52 0 46.6274 0 40V16C0 9.37258 5.37258 4 12 4H63.4585L64.9019 1.5Z"/>
</mask>
<path fill-rule="evenodd" clip-rule="evenodd" d="M64.9019 1.5C66.0566 -0.500002 68.9434 -0.499998 70.0981 1.5L71.5415 4H122C128.627 4 134 9.37258 134 16V40C134 46.6274 128.627 52 122 52H72.1188L70.0981 55.5C68.9434 57.5 66.0566 57.5 64.9019 55.5L62.8812 52H12C5.37258 52 0 46.6274 0 40V16C0 9.37258 5.37258 4 12 4H63.4585L64.9019 1.5Z" fill="#0A0A0A"/>
<path d="M70.0981 1.5L70.9641 1L70.9641 1L70.0981 1.5ZM64.9019 1.5L64.0359 0.999998L64.0359 0.999998L64.9019 1.5ZM71.5415 4L70.6754 4.5L70.9641 5H71.5415V4ZM72.1188 52V51H71.5414L71.2528 51.5L72.1188 52ZM70.0981 55.5L70.9641 56L70.9641 56L70.0981 55.5ZM64.9019 55.5L64.0359 56L64.0359 56L64.9019 55.5ZM62.8812 52L63.7472 51.5L63.4585 51H62.8812V52ZM63.4585 4V5H64.0359L64.3246 4.5L63.4585 4ZM70.9641 1C69.4245 -1.66666 65.5755 -1.66667 64.0359 0.999998L65.7679 2C66.5377 0.666667 68.4622 0.666666 69.2321 2L70.9641 1ZM72.4075 3.5L70.9641 1L69.2321 2L70.6754 4.5L72.4075 3.5ZM122 3H71.5415V5H122V3ZM135 16C135 8.8203 129.18 3 122 3V5C128.075 5 133 9.92487 133 16H135ZM135 40V16H133V40H135ZM122 53C129.18 53 135 47.1797 135 40H133C133 46.0751 128.075 51 122 51V53ZM72.1188 53H122V51H72.1188V53ZM70.9641 56L72.9848 52.5L71.2528 51.5L69.232 55L70.9641 56ZM64.0359 56C65.5755 58.6667 69.4245 58.6667 70.9641 56L69.2321 55C68.4622 56.3333 66.5377 56.3333 65.7679 55L64.0359 56ZM62.0152 52.5L64.0359 56L65.7679 55L63.7472 51.5L62.0152 52.5ZM12 53H62.8812V51H12V53ZM-1 40C-1 47.1797 4.8203 53 12 53V51C5.92487 51 1 46.0751 1 40H-1ZM-1 16V40H1V16H-1ZM12 3C4.8203 3 -1 8.8203 -1 16H1C1 9.92487 5.92487 5 12 5V3ZM63.4585 3H12V5H63.4585V3ZM64.0359 0.999998L62.5925 3.5L64.3246 4.5L65.7679 2L64.0359 0.999998Z" fill="white" mask="url(#path-1-inside-1_250_2053)"/>
<path d="M35.0528 32.232H30.6048L29.5648 35H27.6288L31.9808 23.8H32.8288C33.4048 23.8 33.8048 24.0827 34.0288 24.648L38.0288 35H36.0768L35.0528 32.232ZM31.1328 30.664H34.5248L32.8448 26.12H32.8288L31.1328 30.664ZM40.5578 35C40.1524 35 39.8218 34.8773 39.5658 34.632C39.3098 34.376 39.1818 34.0507 39.1818 33.656V23.8H44.4778C45.4698 23.8 46.2644 24.04 46.8618 24.52C47.4698 24.9893 47.7738 25.6133 47.7738 26.392V27.208C47.7738 27.5813 47.6831 27.9333 47.5017 28.264C47.3204 28.5947 47.0698 28.8613 46.7498 29.064V29.08C47.2724 29.2507 47.6884 29.5387 47.9978 29.944C48.3178 30.3493 48.4778 30.808 48.4778 31.32V32.12C48.4778 33.0053 48.1738 33.7093 47.5658 34.232C46.9578 34.744 46.1364 35 45.1018 35H40.5578ZM44.5738 28.584C44.9684 28.584 45.2884 28.456 45.5338 28.2C45.7791 27.944 45.9018 27.6133 45.9018 27.208V26.552C45.9018 26.2107 45.7631 25.9387 45.4858 25.736C45.2191 25.5333 44.8618 25.432 44.4138 25.432H41.0538V28.584H44.5738ZM44.9418 33.368C45.4644 33.368 45.8698 33.2507 46.1578 33.016C46.4564 32.7813 46.6058 32.456 46.6058 32.04V31.32C46.6058 30.9573 46.4778 30.6693 46.2218 30.456C45.9658 30.232 45.6244 30.12 45.1978 30.12H41.0538V33.368H44.9418ZM53.8484 35.128C53.0377 35.128 52.323 34.9573 51.7044 34.616C51.0857 34.264 50.6057 33.7733 50.2644 33.144C49.923 32.504 49.7524 31.768 49.7524 30.936V27.864C49.7524 27.032 49.923 26.3013 50.2644 25.672C50.6057 25.032 51.0857 24.5413 51.7044 24.2C52.323 23.848 53.0377 23.672 53.8484 23.672H55.5444C56.355 23.672 57.0697 23.848 57.6884 24.2C58.3177 24.5413 58.803 25.032 59.1444 25.672C59.4857 26.3013 59.6564 27.032 59.6564 27.864V30.936C59.6564 31.768 59.4857 32.504 59.1444 33.144C58.803 33.7733 58.3177 34.264 57.6884 34.616C57.0697 34.9573 56.355 35.128 55.5444 35.128H53.8484ZM55.5444 33.48C56.2057 33.48 56.7444 33.24 57.1604 32.76C57.5764 32.28 57.7844 31.6507 57.7844 30.872V27.928C57.7844 27.1493 57.5764 26.52 57.1604 26.04C56.755 25.56 56.2164 25.32 55.5444 25.32H53.8644C53.1924 25.32 52.6484 25.56 52.2324 26.04C51.827 26.52 51.6244 27.1493 51.6244 27.928V30.872C51.6244 31.6507 51.827 32.28 52.2324 32.76C52.6484 33.24 53.1924 33.48 53.8644 33.48H55.5444ZM65.2379 35.128C64.4912 35.128 63.8299 34.968 63.2539 34.648C62.6779 34.3173 62.2299 33.8587 61.9099 33.272C61.6005 32.6747 61.4459 31.9867 61.4459 31.208V23.8H63.3179V31.176C63.3179 31.8693 63.4939 32.4293 63.8459 32.856C64.1979 33.272 64.6619 33.48 65.2379 33.48H66.9499C67.5365 33.48 68.0059 33.272 68.3579 32.856C68.7205 32.4293 68.9019 31.8693 68.9019 31.176V23.8H70.7739V31.208C70.7739 31.9867 70.6139 32.6747 70.2939 33.272C69.9739 33.8587 69.5259 34.3173 68.9499 34.648C68.3739 34.968 67.7072 35.128 66.9499 35.128H65.2379ZM75.6369 25.416H72.0849V23.8H81.0609V25.416H77.5089V35H75.6369V25.416ZM90.6285 35.128C89.8818 35.128 89.2205 34.968 88.6445 34.648C88.0685 34.3173 87.6205 33.8587 87.3005 33.272C86.9912 32.6747 86.8365 31.9867 86.8365 31.208V23.8H88.7085V31.176C88.7085 31.8693 88.8845 32.4293 89.2365 32.856C89.5885 33.272 90.0525 33.48 90.6285 33.48H92.3405C92.9272 33.48 93.3965 33.272 93.7485 32.856C94.1112 32.4293 94.2925 31.8693 94.2925 31.176V23.8H96.1645V31.208C96.1645 31.9867 96.0045 32.6747 95.6845 33.272C95.3645 33.8587 94.9165 34.3173 94.3405 34.648C93.7645 34.968 93.0978 35.128 92.3405 35.128H90.6285ZM101.476 35.128C100.366 35.128 99.4915 34.808 98.8515 34.168C98.2115 33.528 97.8915 32.6533 97.8915 31.544H99.7315C99.7315 32.1413 99.8862 32.616 100.196 32.968C100.516 33.3093 100.953 33.48 101.508 33.48H103.284C103.806 33.48 104.228 33.368 104.548 33.144C104.868 32.9093 105.028 32.6053 105.028 32.232V31.528C105.028 31.24 104.916 31 104.692 30.808C104.468 30.616 104.148 30.4827 103.732 30.408L100.82 29.912C99.9128 29.7627 99.2142 29.464 98.7235 29.016C98.2435 28.568 98.0035 27.9973 98.0035 27.304V26.424C98.0035 25.88 98.1475 25.4 98.4355 24.984C98.7342 24.568 99.1502 24.248 99.6835 24.024C100.217 23.7893 100.836 23.672 101.54 23.672H103.348C104.009 23.672 104.59 23.8107 105.092 24.088C105.604 24.3547 105.998 24.7387 106.276 25.24C106.553 25.7413 106.692 26.3173 106.692 26.968H104.868C104.868 26.4773 104.724 26.0827 104.436 25.784C104.158 25.4747 103.796 25.32 103.348 25.32H101.54C101.038 25.32 100.633 25.432 100.324 25.656C100.025 25.8693 99.8755 26.1627 99.8755 26.536V27.112C99.8755 27.4107 99.9822 27.6613 100.196 27.864C100.409 28.056 100.718 28.184 101.124 28.248L104.036 28.76C104.953 28.92 105.657 29.2187 106.148 29.656C106.649 30.0827 106.9 30.632 106.9 31.304V32.344C106.9 32.888 106.75 33.3733 106.452 33.8C106.153 34.216 105.731 34.5413 105.188 34.776C104.644 35.0107 104.02 35.128 103.316 35.128H101.476Z" fill="#00F981"/>
</svg>
