<svg width="630" height="626" viewBox="0 0 630 626" fill="none" xmlns="http://www.w3.org/2000/svg">
<g clip-path="url(#clip0_278_3542)">
<path d="M305.76 80.7267L303.648 82.9404L304.389 83.6492L306.501 81.4355L305.76 80.7267Z" fill="white"/>
<path d="M80.4772 318.78L79.7383 318.073L83.8864 313.716L84.6254 314.423L80.4772 318.78ZM88.7736 310.066L88.0346 309.36L92.1828 305.003L92.9217 305.709L88.7736 310.066ZM97.0699 301.353L96.3309 300.646L100.479 296.29L101.218 296.996L97.0699 301.353ZM105.366 292.639L104.627 291.933L108.775 287.576L109.514 288.283L105.366 292.639ZM113.663 283.926L112.924 283.219L117.072 278.863L117.811 279.569L113.663 283.926ZM121.959 275.212L121.22 274.506L125.368 270.149L126.107 270.856L121.959 275.212ZM130.255 266.499L129.516 265.793L133.664 261.436L134.403 262.142L130.255 266.499ZM138.551 257.786L137.813 257.079L141.961 252.722L142.7 253.429L138.551 257.786ZM146.848 249.089L146.109 248.383L150.257 244.026L150.996 244.732L146.848 249.089ZM155.144 240.376L154.405 239.669L158.553 235.312L159.292 236.019L155.144 240.376ZM163.44 231.662L162.702 230.956L166.85 226.599L167.589 227.306L163.44 231.662ZM171.737 222.949L170.998 222.242L175.146 217.886L175.885 218.592L171.737 222.949ZM180.033 214.235L179.294 213.529L183.442 209.172L184.181 209.879L180.033 214.235ZM188.329 205.522L187.591 204.816L191.739 200.459L192.478 201.165L188.329 205.522ZM196.626 196.809L195.887 196.102L200.035 191.745L200.774 192.452L196.626 196.809ZM204.922 188.095L204.183 187.389L208.331 183.032L209.07 183.739L204.922 188.095ZM213.218 179.382L212.479 178.675L216.628 174.319L217.367 175.025L213.218 179.382ZM221.515 170.668L220.776 169.962L224.924 165.605L225.663 166.312L221.515 170.668ZM229.811 161.955L229.072 161.249L233.22 156.892L233.959 157.598L229.811 161.955ZM238.107 153.242L237.368 152.535L241.517 148.178L242.256 148.885L238.107 153.242ZM246.404 144.528L245.665 143.822L249.813 139.465L250.552 140.172L246.404 144.528ZM254.7 135.815L253.961 135.108L258.109 130.752L258.848 131.458L254.7 135.815ZM262.996 127.101L262.257 126.395L266.406 122.038L267.145 122.745L262.996 127.101ZM271.293 118.388L270.554 117.681L274.702 113.325L275.441 114.031L271.293 118.388ZM279.589 109.675L278.85 108.968L282.998 104.611L283.737 105.318L279.589 109.675ZM287.885 100.961L287.146 100.255L291.295 95.898L292.033 96.6045L287.885 100.961ZM296.182 92.2478L295.443 91.5413L299.591 87.1846L300.33 87.8911L296.182 92.2478Z" fill="url(#paint0_linear_278_3542)"/>
<path d="M76.5482 326.5L72.9375 325.205L75.591 322.43L76.3299 323.136L74.7513 324.768L76.9009 325.542L76.5482 326.5Z" fill="white"/>
<path d="M507.671 480.617L501.844 478.532L502.179 477.573L508.007 479.659L507.671 480.617ZM496.016 476.462L490.188 474.377L490.524 473.418L496.352 475.504L496.016 476.462ZM484.361 472.291L478.533 470.205L478.886 469.246L484.713 471.332L484.378 472.291H484.361ZM472.706 468.119L466.878 466.033L467.214 465.075L473.042 467.16L472.689 468.119H472.706ZM461.05 463.947L455.223 461.862L455.559 460.903L461.386 462.989L461.05 463.947ZM449.395 459.776L443.568 457.69L443.904 456.731L449.731 458.817L449.379 459.776H449.395ZM437.74 455.621L431.913 453.535L432.265 452.576L438.093 454.662L437.74 455.621ZM426.085 451.449L420.257 449.363L420.593 448.405L426.421 450.49L426.085 451.449ZM414.43 447.278L408.602 445.192L408.955 444.233L414.783 446.319L414.447 447.278H414.43ZM402.775 443.106L396.947 441.02L397.283 440.061L403.111 442.147L402.758 443.106H402.775ZM391.12 438.951L385.292 436.865L385.628 435.906L391.455 437.992L391.103 438.951H391.12ZM379.464 434.779L373.637 432.694L373.973 431.735L379.8 433.821L379.464 434.779ZM367.809 430.608L361.982 428.522L362.334 427.563L368.162 429.649L367.826 430.608H367.809ZM356.154 426.453L350.326 424.367L350.662 423.408L356.49 425.494L356.154 426.453ZM344.499 422.281L338.671 420.195L339.007 419.237L344.835 421.322L344.499 422.281ZM332.844 418.11L327.016 416.024L327.352 415.065L333.18 417.151L332.844 418.11ZM321.189 413.938L315.361 411.852L315.697 410.893L321.524 412.979L321.189 413.938ZM309.533 409.783L303.706 407.697L304.042 406.738L309.869 408.824L309.533 409.783ZM297.878 405.611L292.051 403.526L292.387 402.567L298.214 404.653L297.878 405.611ZM286.223 401.457L280.396 399.371L280.731 398.412L286.559 400.498L286.223 401.457ZM274.568 397.285L268.74 395.199L269.076 394.24L274.904 396.326L274.568 397.285ZM262.913 393.113L257.085 391.027L257.438 390.069L263.265 392.154L262.93 393.113H262.913ZM251.258 388.958L245.43 386.873L245.766 385.914L251.593 388L251.258 388.958ZM239.602 384.787L233.775 382.701L234.111 381.742L239.938 383.828L239.602 384.787ZM227.947 380.615L222.12 378.529L222.456 377.57L228.283 379.656L227.947 380.615ZM216.292 376.443L210.465 374.357L210.8 373.399L216.628 375.485L216.275 376.443H216.292ZM204.637 372.288L198.809 370.203L199.145 369.244L204.973 371.33L204.637 372.288ZM192.982 368.117L187.154 366.031L187.49 365.072L193.318 367.158L192.982 368.117ZM181.327 363.945L175.499 361.859L175.852 360.9L181.679 362.986L181.343 363.945H181.327ZM169.672 359.773L163.844 357.688L164.18 356.729L170.007 358.815L169.672 359.773ZM158.016 355.602L152.189 353.516L152.525 352.557L158.352 354.643L158.016 355.602ZM146.361 351.43L140.534 349.344L140.869 348.385L146.697 350.471L146.361 351.43ZM134.706 347.258L128.878 345.173L129.214 344.214L135.042 346.3L134.706 347.258ZM123.051 343.104L117.223 341.018L117.559 340.059L123.387 342.145L123.051 343.104ZM111.396 338.932L105.568 336.846L105.904 335.887L111.732 337.973L111.396 338.932ZM99.7406 334.76L93.913 332.674L94.2489 331.716L100.076 333.801L99.7406 334.76ZM88.0854 330.589L82.2578 328.503L82.5937 327.544L88.4213 329.63L88.0854 330.589Z" fill="url(#paint1_linear_278_3542)"/>
<path d="M519.025 484.672L513.5 482.703L513.853 481.745L514.088 481.829L513.886 481.66L514.541 480.887L519.025 484.672Z" fill="white"/>
<path d="M509.214 477.707L504.545 473.754L505.2 472.98L509.869 476.933L509.214 477.707ZM499.877 469.784L495.208 465.831L495.863 465.057L500.532 469.01L499.877 469.784ZM490.539 461.878L485.87 457.925L486.525 457.151L491.194 461.104L490.539 461.878ZM481.202 453.955L476.533 450.002L477.188 449.228L481.857 453.181L481.202 453.955ZM471.864 446.049L467.195 442.096L467.85 441.322L472.519 445.275L471.864 446.049ZM462.526 438.126L457.858 434.173L458.513 433.4L463.181 437.353L462.526 438.126ZM453.189 430.22L448.52 426.267L449.175 425.494L453.844 429.447L453.189 430.22ZM443.851 422.298L439.183 418.345L439.837 417.571L444.506 421.524L443.851 422.298ZM434.514 414.392L429.845 410.439L430.5 409.665L435.169 413.618L434.514 414.392ZM425.176 406.486L420.507 402.533L421.162 401.759L425.831 405.712L425.176 406.486ZM415.839 398.563L411.17 394.61L411.825 393.836L416.494 397.789L415.839 398.563ZM406.501 390.657L401.832 386.704L402.487 385.93L407.156 389.883L406.501 390.657ZM397.163 382.734L392.495 378.781L393.15 378.007L397.818 381.96L397.163 382.734ZM387.826 374.828L383.157 370.875L383.812 370.101L388.481 374.054L387.826 374.828ZM378.488 366.905L373.82 362.952L374.475 362.179L379.143 366.132L378.488 366.905ZM369.151 358.999L364.482 355.046L365.137 354.273L369.806 358.226L369.151 358.999ZM359.813 351.077L355.144 347.124L355.799 346.35L360.468 350.303L359.813 351.077ZM350.476 343.171L345.807 339.218L346.462 338.444L351.131 342.397L350.476 343.171ZM341.138 335.248L336.469 331.295L337.124 330.521L341.793 334.474L341.138 335.248ZM331.801 327.342L327.132 323.389L327.787 322.615L332.456 326.568L331.801 327.342ZM322.463 319.419L317.794 315.466L318.449 314.692L323.118 318.645L322.463 319.419ZM313.125 311.513L308.457 307.56L309.112 306.786L313.78 310.739L313.125 311.513ZM303.788 303.607L299.119 299.654L299.774 298.88L304.443 302.833L303.788 303.607ZM294.45 295.701L289.782 291.748L290.436 290.974L295.105 294.927L294.45 295.701ZM285.113 287.795L280.444 283.842L281.099 283.068L285.768 287.021L285.113 287.795ZM275.775 279.889L271.106 275.936L271.761 275.162L276.43 279.115L275.775 279.889ZM266.438 271.983L261.769 268.03L262.424 267.256L267.093 271.209L266.438 271.983ZM257.1 264.077L252.431 260.124L253.086 259.35L257.755 263.303L257.1 264.077ZM247.762 256.171L243.094 252.218L243.749 251.444L248.417 255.397L247.762 256.171ZM238.425 248.248L233.756 244.295L234.411 243.521L239.08 247.474L238.425 248.248ZM229.087 240.342L224.419 236.389L225.074 235.615L229.742 239.568L229.087 240.342ZM219.75 232.419L215.081 228.466L215.736 227.693L220.405 231.646L219.75 232.419ZM210.412 224.513L205.743 220.56L206.398 219.787L211.067 223.74L210.412 224.513ZM201.075 216.591L196.406 212.638L197.061 211.864L201.73 215.817L201.075 216.591ZM191.737 208.685L187.068 204.732L187.723 203.958L192.392 207.911L191.737 208.685ZM182.4 200.762L177.731 196.809L178.386 196.035L183.055 199.988L182.4 200.762ZM173.062 192.856L168.393 188.903L169.048 188.129L173.717 192.082L173.062 192.856ZM163.724 184.95L159.056 180.997L159.711 180.223L164.379 184.176L163.724 184.95ZM154.387 177.027L149.718 173.074L150.373 172.3L155.042 176.253L154.387 177.027ZM145.049 169.121L140.381 165.168L141.035 164.394L145.704 168.347L145.049 169.121ZM135.712 161.215L131.043 157.262L131.698 156.488L136.367 160.441L135.712 161.215Z" fill="url(#paint2_linear_278_3542)"/>
<path d="M125.3 153.915L123.016 149.02L127.13 152.502L126.458 153.292L125.904 152.821L126.223 153.477L125.3 153.915Z" fill="white"/>
<path d="M311.514 552.36L308.928 546.826L309.852 546.389L312.438 551.923L311.514 552.36ZM306.342 541.292L303.755 535.758L304.679 535.32L307.265 540.854L306.342 541.292ZM301.169 530.223L298.583 524.689L299.506 524.252L302.093 529.786L301.169 530.223ZM295.996 519.155L293.41 513.621L294.334 513.183L296.92 518.718L295.996 519.155ZM290.824 508.087L288.238 502.552L289.161 502.115L291.748 507.649L290.824 508.087ZM285.651 497.018L283.065 491.484L283.989 491.047L286.575 496.581L285.651 497.018ZM280.479 485.95L277.892 480.416L278.816 479.978L281.402 485.512L280.479 485.95ZM275.306 474.881L272.72 469.347L273.643 468.91L276.23 474.444L275.306 474.881ZM270.133 463.813L267.547 458.279L268.471 457.841L271.057 463.376L270.133 463.813ZM264.961 452.745L262.375 447.21L263.298 446.773L265.884 452.307L264.961 452.745ZM259.788 441.676L257.202 436.142L258.126 435.705L260.712 441.239L259.788 441.676ZM254.616 430.608L252.029 425.074L252.953 424.636L255.539 430.17L254.616 430.608ZM249.443 419.539L246.857 414.005L247.78 413.568L250.367 419.102L249.443 419.539ZM244.27 408.471L241.684 402.937L242.608 402.5L245.194 408.034L244.27 408.471ZM239.098 397.403L236.511 391.869L237.435 391.431L240.021 396.965L239.098 397.403ZM233.925 386.334L231.339 380.8L232.263 380.363L234.849 385.897L233.925 386.334ZM228.753 375.266L226.166 369.732L227.09 369.294L229.676 374.829L228.753 375.266ZM223.58 364.198L220.994 358.663L221.917 358.226L224.504 363.76L223.58 364.198ZM218.407 353.129L215.821 347.595L216.745 347.158L219.331 352.692L218.407 353.129ZM213.235 342.061L210.648 336.527L211.572 336.089L214.158 341.623L213.235 342.061ZM208.062 330.992L205.476 325.458L206.399 325.021L208.986 330.555L208.062 330.992ZM202.89 319.924L200.303 314.39L201.227 313.952L203.813 319.487L202.89 319.924ZM197.717 308.856L195.131 303.321L196.054 302.884L198.641 308.418L197.717 308.856ZM192.544 297.787L189.958 292.253L190.882 291.816L193.468 297.35L192.544 297.787ZM187.372 286.719L184.785 281.185L185.709 280.747L188.295 286.282L187.372 286.719ZM182.199 275.65L179.613 270.116L180.536 269.679L183.123 275.213L182.199 275.65ZM177.026 264.582L174.44 259.048L175.364 258.611L177.95 264.145L177.026 264.582ZM171.854 253.514L169.268 247.98L170.191 247.542L172.778 253.076L171.854 253.514ZM166.681 242.445L164.095 236.911L165.019 236.474L167.605 242.008L166.681 242.445ZM161.509 231.377L158.922 225.843L159.846 225.405L162.432 230.94L161.509 231.377ZM156.336 220.309L153.75 214.774L154.673 214.337L157.26 219.871L156.336 220.309ZM151.163 209.24L148.577 203.706L149.501 203.269L152.087 208.803L151.163 209.24ZM145.991 198.172L143.405 192.638L144.328 192.2L146.915 197.734L145.991 198.172ZM140.818 187.103L138.232 181.569L139.156 181.132L141.742 186.666L140.818 187.103ZM135.646 176.035L133.059 170.501L133.983 170.064L136.569 175.598L135.646 176.035ZM130.473 164.967L127.887 159.432L128.81 158.995L131.397 164.529L130.473 164.967Z" fill="url(#paint3_linear_278_3542)"/>
<path d="M315.831 561.612L314.102 557.878L315.025 557.457L315.865 559.274L316.755 557.474L317.662 557.928L315.831 561.612Z" fill="white"/>
<path d="M320.383 552.477L319.477 552.023L322.18 546.573L323.087 547.027L320.367 552.477H320.383ZM325.808 541.56L324.901 541.106L327.605 535.656L328.512 536.11L325.791 541.56H325.808ZM331.232 530.643L330.326 530.189L333.046 524.739L333.953 525.193L331.232 530.643ZM336.657 519.726L335.75 519.272L338.454 513.822L339.361 514.276L336.657 519.726ZM342.082 508.81L341.175 508.355L343.878 502.905L344.785 503.359L342.065 508.81H342.082ZM347.506 497.892L346.599 497.438L349.32 491.988L350.227 492.442L347.523 497.892H347.506ZM352.931 486.975L352.024 486.521L354.728 481.071L355.634 481.525L352.914 486.975H352.931ZM358.355 476.059L357.448 475.604L360.169 470.154L361.076 470.608L358.355 476.059ZM363.78 465.141L362.873 464.687L365.593 459.237L366.5 459.691L363.796 465.141H363.78ZM369.204 454.225L368.297 453.77L371.018 448.32L371.925 448.774L369.204 454.225ZM374.629 443.308L373.722 442.853L376.442 437.403L377.349 437.857L374.645 443.308H374.629ZM380.053 432.391L379.146 431.936L381.867 426.486L382.774 426.94L380.07 432.391H380.053ZM385.478 421.474L384.571 421.019L387.291 415.569L388.198 416.023L385.478 421.474ZM390.902 410.557L389.995 410.102L392.716 404.652L393.623 405.107L390.919 410.557H390.902ZM396.327 399.64L395.42 399.185L398.14 393.735L399.047 394.189L396.327 399.64ZM401.751 388.723L400.844 388.268L403.565 382.818L404.472 383.273L401.751 388.723ZM407.176 377.806L406.269 377.351L408.99 371.901L409.896 372.356L407.193 377.806H407.176ZM412.6 366.889L411.693 366.434L414.414 360.984L415.321 361.439L412.6 366.889ZM418.025 355.972L417.118 355.517L419.822 350.067L420.729 350.522L418.025 355.972ZM423.449 345.055L422.542 344.6L425.263 339.15L426.17 339.605L423.466 345.055H423.449ZM428.874 334.138L427.967 333.683L430.688 328.233L431.594 328.688L428.874 334.138ZM434.298 323.221L433.391 322.766L436.095 317.316L437.002 317.771L434.298 323.221ZM439.723 312.304L438.816 311.849L441.537 306.399L442.444 306.854L439.74 312.304H439.723ZM445.147 301.387L444.24 300.932L446.961 295.482L447.868 295.937L445.147 301.387ZM450.572 290.47L449.665 290.016L452.386 284.565L453.293 285.02L450.572 290.47ZM455.996 279.553L455.09 279.099L457.81 273.648L458.717 274.103L455.996 279.553ZM461.421 268.636L460.514 268.182L463.235 262.731L464.142 263.186L461.421 268.636ZM466.845 257.719L465.939 257.265L468.659 251.814L469.566 252.269L466.845 257.719ZM472.27 246.802L471.363 246.348L474.084 240.897L474.991 241.352L472.287 246.802H472.27ZM477.694 235.885L476.788 235.431L479.508 229.98L480.415 230.435L477.694 235.885ZM483.119 224.968L482.212 224.514L484.933 219.063L485.84 219.518L483.119 224.968ZM488.544 214.051L487.637 213.597L490.34 208.146L491.247 208.601L488.527 214.051H488.544ZM493.968 203.134L493.061 202.68L495.782 197.229L496.689 197.684L493.968 203.134ZM499.393 192.217L498.486 191.763L501.206 186.312L502.113 186.767L499.409 192.217H499.393ZM504.817 181.3L503.91 180.846L506.631 175.395L507.538 175.85L504.817 181.3ZM510.242 170.383L509.335 169.929L512.055 164.479L512.962 164.933L510.242 170.383ZM515.666 159.466L514.759 159.012L517.463 153.562L518.37 154.016L515.649 159.466H515.666Z" fill="url(#paint4_linear_278_3542)"/>
<path d="M521.073 148.734L520.166 148.28L520.25 148.095L520.099 148.229L519.41 147.489L523.693 143.452L521.073 148.734Z" fill="white"/>
<path d="M144.448 501.762L143.742 501.022L148.209 496.816L148.898 497.556L144.431 501.762H144.448ZM153.399 493.351L152.693 492.611L157.161 488.406L157.849 489.146L153.382 493.351H153.399ZM162.333 484.94L161.645 484.2L166.112 479.995L166.817 480.735L162.35 484.94H162.333ZM171.285 476.53L170.579 475.79L175.047 471.584L175.752 472.325L171.285 476.53ZM180.236 468.102L179.547 467.362L184.015 463.157L184.703 463.897L180.236 468.102ZM189.17 459.692L188.482 458.952L192.949 454.746L193.638 455.486L189.17 459.692ZM198.122 451.281L197.433 450.541L201.9 446.336L202.606 447.076L198.139 451.281H198.122ZM207.073 442.854L206.384 442.113L210.852 437.908L211.54 438.648L207.073 442.854ZM216.024 434.443L215.319 433.703L219.786 429.498L220.492 430.238L216.024 434.443ZM224.976 426.032L224.27 425.292L228.738 421.087L229.426 421.827L224.959 426.032H224.976ZM233.91 417.622L233.222 416.882L237.689 412.676L238.377 413.416L233.91 417.622ZM242.861 409.211L242.156 408.471L246.623 404.266L247.312 405.006L242.845 409.211H242.861ZM251.796 400.801L251.107 400.06L255.575 395.855L256.263 396.595L251.796 400.801ZM260.747 392.39L260.059 391.65L264.526 387.444L265.231 388.185L260.764 392.39H260.747ZM269.699 383.979L269.01 383.239L273.477 379.034L274.166 379.774L269.699 383.979ZM278.65 375.569L277.961 374.829L282.429 370.623L283.117 371.363L278.65 375.569ZM287.601 367.158L286.896 366.418L291.363 362.213L292.052 362.953L287.584 367.158H287.601ZM296.536 358.731L295.847 357.99L300.314 353.785L301.02 354.525L296.552 358.731H296.536ZM305.487 350.32L304.798 349.58L309.266 345.375L309.971 346.115L305.504 350.32H305.487ZM314.438 341.909L313.733 341.169L318.2 336.964L318.889 337.704L314.421 341.909H314.438ZM323.39 333.499L322.684 332.759L327.151 328.553L327.857 329.293L323.39 333.499ZM332.341 325.071L331.635 324.331L336.103 320.126L336.808 320.866L332.341 325.071ZM341.275 316.661L340.587 315.92L345.054 311.715L345.759 312.455L341.292 316.661H341.275ZM350.227 308.25L349.521 307.51L353.988 303.305L354.694 304.045L350.227 308.25ZM359.178 299.839L358.473 299.099L362.94 294.894L363.645 295.634L359.178 299.839ZM368.129 291.429L367.424 290.689L371.891 286.483L372.596 287.223L368.129 291.429ZM377.064 283.018L376.375 282.278L380.842 278.073L381.548 278.813L377.081 283.018H377.064ZM386.015 274.608L385.31 273.867L389.777 269.662L390.465 270.402L385.998 274.608H386.015ZM394.966 266.197L394.261 265.457L398.728 261.251L399.434 261.992L394.966 266.197ZM403.918 257.786L403.212 257.046L407.68 252.841L408.385 253.581L403.918 257.786ZM412.852 249.376L412.147 248.635L416.614 244.43L417.319 245.17L412.852 249.376ZM421.803 240.965L421.098 240.225L425.565 236.02L426.271 236.76L421.803 240.965ZM430.738 232.554L430.049 231.814L434.517 227.609L435.222 228.349L430.755 232.554H430.738ZM439.689 224.127L439.001 223.387L443.468 219.181L444.156 219.922L439.689 224.127ZM448.641 215.716L447.935 214.976L452.402 210.771L453.091 211.511L448.624 215.716H448.641ZM457.575 207.306L456.87 206.566L461.337 202.36L462.042 203.1L457.575 207.306ZM466.526 198.895L465.821 198.155L470.288 193.95L470.994 194.69L466.526 198.895ZM475.461 190.484L474.772 189.744L479.24 185.539L479.928 186.279L475.461 190.484ZM484.412 182.074L483.707 181.334L488.174 177.128L488.863 177.868L484.395 182.074H484.412ZM493.363 173.663L492.658 172.923L497.125 168.718L497.831 169.458L493.363 173.663ZM502.298 165.253L501.609 164.512L506.077 160.307L506.782 161.047L502.315 165.253H502.298ZM511.249 156.842L510.561 156.102L515.028 151.896L515.733 152.637L511.266 156.842H511.249Z" fill="url(#paint5_linear_278_3542)"/>
<path d="M136.184 509.549L137.981 504.654L138.938 505.008L138.619 505.849L139.291 505.226L139.979 505.966L136.184 509.549Z" fill="white"/>
<path d="M141.055 499.221L140.098 498.868L142.214 493.098L143.171 493.452L141.055 499.221ZM145.287 487.682L144.33 487.329L146.446 481.559L147.403 481.912L145.287 487.682ZM149.519 476.142L148.562 475.789L150.678 470.02L151.635 470.373L149.519 476.142ZM153.751 464.603L152.794 464.25L154.91 458.48L155.867 458.833L153.751 464.603ZM157.983 453.064L157.026 452.71L159.142 446.941L160.1 447.294L157.983 453.064ZM162.216 441.524L161.258 441.171L163.374 435.401L164.332 435.755L162.216 441.524ZM166.448 429.985L165.49 429.632L167.607 423.862L168.564 424.215L166.448 429.985ZM170.68 418.429L169.723 418.075L171.839 412.306L172.796 412.659L170.68 418.429ZM174.912 406.889L173.955 406.536L176.071 400.766L177.028 401.12L174.912 406.889ZM179.144 395.35L178.187 394.997L180.303 389.227L181.26 389.58L179.144 395.35ZM183.376 383.811L182.419 383.457L184.535 377.688L185.492 378.041L183.376 383.811ZM187.608 372.271L186.651 371.918L188.767 366.148L189.724 366.502L187.608 372.271ZM191.841 360.732L190.883 360.379L192.999 354.609L193.957 354.962L191.841 360.732ZM196.073 349.192L195.115 348.839L197.231 343.07L198.189 343.423L196.073 349.192ZM200.305 337.653L199.348 337.3L201.464 331.53L202.421 331.883L200.305 337.653ZM204.537 326.114L203.58 325.76L205.696 319.991L206.653 320.344L204.537 326.114ZM208.769 314.574L207.812 314.221L209.928 308.451L210.885 308.805L208.769 314.574ZM213.001 303.035L212.044 302.682L214.16 296.912L215.117 297.265L213.001 303.035ZM217.233 291.496L216.276 291.142L218.392 285.373L219.349 285.726L217.233 291.496ZM221.465 279.956L220.508 279.603L222.624 273.833L223.582 274.187L221.465 279.956ZM225.698 268.417L224.74 268.064L226.856 262.294L227.814 262.647L225.698 268.417ZM229.93 256.877L228.972 256.524L231.089 250.755L232.046 251.108L229.93 256.877ZM234.162 245.338L233.205 244.985L235.321 239.215L236.278 239.568L234.162 245.338ZM238.394 233.799L237.437 233.445L239.553 227.676L240.51 228.029L238.394 233.799ZM242.626 222.242L241.669 221.889L243.785 216.12L244.742 216.473L242.626 222.242ZM246.858 210.703L245.901 210.35L248.017 204.58L248.974 204.933L246.858 210.703ZM251.09 199.164L250.133 198.81L252.249 193.041L253.206 193.394L251.09 199.164ZM255.322 187.624L254.365 187.271L256.481 181.501L257.439 181.855L255.322 187.624ZM259.555 176.085L258.597 175.732L260.713 169.962L261.671 170.315L259.555 176.085ZM263.787 164.546L262.829 164.192L264.946 158.423L265.903 158.776L263.787 164.546ZM268.019 153.006L267.062 152.653L269.178 146.883L270.135 147.237L268.019 153.006ZM272.251 141.467L271.294 141.114L273.41 135.344L274.367 135.697L272.251 141.467ZM276.483 129.927L275.526 129.574L277.642 123.805L278.599 124.158L276.483 129.927ZM280.715 118.388L279.758 118.035L281.874 112.265L282.831 112.618L280.715 118.388ZM284.947 106.849L283.99 106.495L286.106 100.726L287.064 101.079L284.947 106.849ZM289.18 95.3093L288.222 94.9561L290.338 89.1864L291.296 89.5396L289.18 95.3093ZM293.412 83.77L292.454 83.4167L294.571 77.647L295.528 78.0003L293.412 83.77ZM297.644 72.2138L296.687 71.8605L298.803 66.0908L299.76 66.4441L297.644 72.2138Z" fill="url(#paint6_linear_278_3542)"/>
<path d="M301.977 60.5397L301.02 60.1864L302.329 56.6035L305.134 59.194L304.446 59.9509L302.766 58.3866L301.977 60.5397Z" fill="white"/>
<path d="M553.553 290.251L549.102 286.13L549.791 285.373L554.241 289.494L553.553 290.251ZM544.652 282.026L540.201 277.921L540.89 277.164L545.34 281.285L544.652 282.042V282.026ZM535.751 273.8L531.3 269.679L531.989 268.922L536.439 273.043L535.751 273.8ZM526.85 265.574L522.399 261.453L523.088 260.696L527.538 264.817L526.85 265.574ZM517.949 257.349L513.498 253.228L514.187 252.471L518.637 256.592L517.949 257.349ZM509.048 249.123L504.597 245.002L505.286 244.245L509.736 248.366L509.048 249.106V249.123ZM500.147 240.898L495.697 236.793L496.385 236.036L500.836 240.141L500.147 240.898ZM491.246 232.672L486.796 228.551L487.484 227.794L491.935 231.915L491.246 232.672ZM482.345 224.446L477.895 220.342L478.583 219.585L483.034 223.706L482.345 224.446ZM473.444 216.221L468.994 212.116L469.682 211.359L474.133 215.464L473.444 216.221ZM464.543 207.995L460.093 203.874L460.781 203.134L465.232 207.238L464.543 207.995ZM455.642 199.77L451.192 195.648L451.881 194.891L456.331 199.013L455.642 199.77ZM446.742 191.544L442.291 187.423L442.98 186.666L447.43 190.77L446.742 191.527V191.544ZM437.841 183.318L433.39 179.197L434.079 178.44L438.529 182.561L437.841 183.318ZM428.94 175.093L424.489 170.988L425.178 170.232L429.628 174.336L428.94 175.093ZM420.039 166.867L415.588 162.763L416.277 162.006L420.727 166.127L420.039 166.867ZM411.138 158.642L406.687 154.52L407.376 153.764L411.826 157.885L411.138 158.642ZM402.237 150.416L397.786 146.295L398.475 145.538L402.925 149.642L402.237 150.399V150.416ZM393.336 142.19L388.886 138.069L389.574 137.312L394.025 141.434L393.336 142.19ZM384.435 133.965L379.985 129.861L380.673 129.104L385.124 133.225L384.435 133.965ZM375.534 125.739L371.084 121.618L371.772 120.861L376.223 124.982L375.534 125.739ZM366.633 117.514L362.183 113.409L362.871 112.652L367.322 116.774L366.633 117.514ZM357.732 109.288L353.282 105.167L353.97 104.41L358.421 108.531L357.732 109.288ZM348.831 101.063L344.381 96.9581L345.07 96.2012L349.52 100.322L348.831 101.063ZM339.931 92.8369L335.48 88.7157L336.169 87.9588L340.619 92.08L339.931 92.8369ZM331.03 84.6113L326.579 80.4901L327.268 79.75L331.718 83.8544L331.03 84.6113ZM322.129 76.3858L317.678 72.2646L318.367 71.5076L322.817 75.6288L322.129 76.3858ZM313.228 68.1602L308.777 64.0558L309.466 63.2988L313.916 67.42L313.228 68.177V68.1602Z" fill="url(#paint7_linear_278_3542)"/>
<path d="M560.504 299.166L559.513 298.964L560.033 296.239L557.984 294.355L558.69 293.615L561.125 295.869L560.504 299.166Z" fill="white"/>
<path d="M525.89 482.367L524.883 482.182L526.042 476.076L527.032 476.261L525.874 482.367H525.89ZM528.191 470.155L527.184 469.97L528.342 463.863L529.35 464.048L528.191 470.155ZM530.509 457.942L529.501 457.757L530.66 451.651L531.668 451.836L530.509 457.942ZM532.826 445.73L531.819 445.545L532.978 439.439L533.985 439.624L532.826 445.73ZM535.127 433.518L534.136 433.333L535.295 427.227L536.303 427.412L535.144 433.518H535.127ZM537.445 421.306L536.437 421.121L537.596 415.015L538.587 415.2L537.428 421.306H537.445ZM539.746 409.093L538.755 408.908L539.914 402.802L540.921 402.987L539.762 409.093H539.746ZM542.063 396.881L541.056 396.696L542.214 390.59L543.222 390.775L542.063 396.881ZM544.364 384.669L543.356 384.484L544.515 378.378L545.523 378.563L544.364 384.669ZM546.665 372.457L545.657 372.272L546.816 366.166L547.824 366.351L546.665 372.457ZM548.982 360.245L547.975 360.06L549.134 353.953L550.124 354.138L548.966 360.245H548.982ZM551.283 348.032L550.276 347.847L551.434 341.741L552.442 341.926L551.283 348.032ZM553.601 335.82L552.593 335.635L553.752 329.529L554.76 329.714L553.601 335.82ZM555.902 323.608L554.911 323.423L556.07 317.317L557.077 317.502L555.918 323.608H555.902ZM558.219 311.396L557.212 311.211L558.37 305.104L559.378 305.29L558.219 311.396Z" fill="url(#paint8_linear_278_3542)"/>
<path d="M523.893 492.998L521.895 488.843L522.801 488.406L523.456 489.768L523.742 488.288L524.733 488.473L523.893 492.998Z" fill="white"/>
<path d="M519.225 483.326L516.572 477.808L517.479 477.371L520.132 482.888L519.225 483.326ZM513.901 472.291L511.248 466.774L512.172 466.336L514.825 471.854L513.901 472.308V472.291ZM508.578 461.256L505.924 455.739L506.848 455.302L509.501 460.819L508.594 461.273L508.578 461.256ZM503.254 450.221L500.6 444.704L501.507 444.25L504.161 449.767L503.237 450.221H503.254ZM497.93 439.17L495.277 433.653L496.2 433.215L498.854 438.733L497.93 439.17ZM492.606 428.118L489.953 422.601L490.877 422.164L493.53 427.681L492.623 428.118H492.606ZM487.283 417.084L484.629 411.566L485.536 411.129L488.19 416.646L487.266 417.084H487.283ZM481.959 406.049L479.305 400.532L480.229 400.094L482.883 405.612L481.959 406.049ZM476.635 395.014L473.982 389.497L474.905 389.059L477.559 394.577L476.652 395.031L476.635 395.014ZM471.311 383.963L468.658 378.445L469.565 378.008L472.218 383.525L471.295 383.963H471.311ZM465.988 372.911L463.334 367.394L464.258 366.956L466.911 372.474L465.988 372.911ZM460.664 361.876L458.01 356.359L458.934 355.922L461.588 361.439L460.681 361.876H460.664ZM455.34 350.842L452.687 345.324L453.61 344.887L456.264 350.404L455.34 350.842ZM450.016 339.807L447.363 334.289L448.287 333.852L450.94 339.369L450.016 339.807ZM444.693 328.772L442.039 323.255L442.963 322.817L445.616 328.335L444.709 328.789L444.693 328.772ZM439.369 317.72L436.715 312.203L437.622 311.766L440.276 317.283L439.352 317.72H439.369ZM434.045 306.686L431.392 301.168L432.315 300.731L434.969 306.248L434.045 306.686ZM428.721 295.651L426.068 290.134L426.992 289.696L429.645 295.214L428.721 295.651ZM423.398 284.616L420.744 279.099L421.668 278.662L424.321 284.179L423.398 284.616ZM418.074 273.582L415.42 268.064L416.344 267.627L418.998 273.144L418.074 273.582ZM412.75 262.547L410.097 257.029L411.02 256.575L413.674 262.093L412.75 262.547ZM407.426 251.495L404.773 245.978L405.697 245.54L408.35 251.058L407.426 251.495ZM402.103 240.46L399.449 234.943L400.373 234.506L403.026 240.023L402.103 240.46ZM396.779 229.409L394.125 223.892L395.049 223.454L397.703 228.972L396.779 229.409ZM391.455 218.374L388.802 212.857L389.725 212.419L392.379 217.937L391.455 218.374ZM386.131 207.339L383.478 201.822L384.402 201.385L387.055 206.902L386.131 207.356V207.339ZM380.808 196.288L378.154 190.771L379.078 190.333L381.731 195.851L380.808 196.288ZM375.484 185.253L372.83 179.736L373.737 179.298L376.391 184.816L375.467 185.253H375.484ZM370.16 174.218L367.507 168.701L368.43 168.264L371.084 173.781L370.16 174.218ZM364.836 163.167L362.183 157.649L363.107 157.212L365.76 162.729L364.836 163.167ZM359.513 152.132L356.859 146.615L357.766 146.177L360.419 151.695L359.496 152.132H359.513ZM354.189 141.097L351.535 135.58L352.459 135.143L355.112 140.66L354.189 141.097ZM348.865 130.046L346.212 124.528L347.135 124.091L349.789 129.608L348.865 130.046ZM343.541 119.011L340.888 113.494L341.812 113.056L344.465 118.574L343.541 119.011ZM338.218 107.976L335.564 102.459L336.488 102.022L339.141 107.539L338.218 107.976ZM332.894 96.9416L330.24 91.4242L331.164 90.9868L333.817 96.5042L332.911 96.9416H332.894ZM327.57 85.9068L324.917 80.3895L325.823 79.9521L328.477 85.4695L327.553 85.9068H327.57ZM322.246 74.8721L319.593 69.3547L320.516 68.9174L323.17 74.4347L322.263 74.8721H322.246ZM316.923 63.8205L314.269 58.3031L315.193 57.8658L317.846 63.3832L316.939 63.8205H316.923ZM311.599 52.7858L308.945 47.2684L309.852 46.8311L312.506 52.3484L311.582 52.7858H311.599Z" fill="url(#paint9_linear_278_3542)"/>
<path d="M305.219 41.7171L305.051 36.2334L307.419 41.162L306.495 41.6162L306.226 41.0275L306.243 41.6835L305.219 41.7171Z" fill="white"/>
<path d="M322.869 575.254L322.668 569.181L323.692 569.148L323.894 575.22L322.869 575.254ZM322.466 563.126L322.264 557.053L323.289 557.02L323.49 563.092L322.466 563.126ZM322.063 550.998L321.861 544.925L322.886 544.891L323.087 550.964L322.063 550.998ZM321.66 538.869L321.458 532.797L322.483 532.763L322.684 538.836L321.66 538.869ZM321.257 526.741L321.055 520.669L322.08 520.635L322.281 526.691L321.257 526.725V526.741ZM320.854 514.613L320.652 508.558L321.677 508.524L321.878 514.596L320.854 514.63V514.613ZM320.451 502.485L320.249 496.413L321.274 496.379L321.475 502.435L320.451 502.468V502.485ZM320.048 490.357L319.846 484.284L320.871 484.251L321.072 490.307L320.048 490.34V490.357ZM319.645 478.229L319.443 472.173L320.468 472.14L320.669 478.212L319.645 478.246V478.229ZM319.242 466.101L319.04 460.045L320.064 460.011L320.266 466.067L319.242 466.101ZM318.838 453.973L318.637 447.917L319.661 447.883L319.863 453.956L318.838 453.989V453.973ZM318.435 441.844L318.234 435.772L319.258 435.738L319.46 441.794L318.435 441.828V441.844ZM318.032 429.716L317.831 423.661L318.855 423.627L319.057 429.683L318.032 429.716ZM317.629 417.588L317.428 411.533L318.452 411.499L318.654 417.571L317.629 417.605V417.588ZM317.226 405.46L317.025 399.388L318.049 399.354L318.251 405.41L317.226 405.443V405.46ZM316.823 393.332L316.622 387.26L317.646 387.226L317.848 393.298L316.823 393.332ZM316.42 381.204L316.219 375.148L317.243 375.115L317.445 381.17L316.42 381.204ZM316.017 369.076L315.816 363.003L316.84 362.97L317.041 369.042L316.017 369.076ZM315.614 356.948L315.412 350.875L316.437 350.842L316.638 356.914L315.614 356.948ZM315.211 344.819L315.009 338.747L316.034 338.713L316.235 344.769L315.211 344.803V344.819ZM314.808 332.691L314.606 326.636L315.631 326.602L315.832 332.658L314.808 332.691ZM314.405 320.563L314.203 314.491L315.228 314.457L315.429 320.513L314.405 320.546V320.563ZM314.002 308.435L313.8 302.379L314.825 302.346L315.026 308.401L314.002 308.435ZM313.599 296.307L313.397 290.251L314.422 290.218L314.623 296.29L313.599 296.324V296.307ZM313.196 284.179L312.994 278.106L314.019 278.073L314.22 284.128L313.196 284.162V284.179ZM312.793 272.051L312.591 265.995L313.615 265.961L313.817 272.034L312.793 272.068V272.051ZM312.39 259.923L312.188 253.867L313.212 253.833L313.414 259.889L312.39 259.923ZM311.986 247.795L311.785 241.722L312.809 241.688L313.011 247.761L311.986 247.795ZM311.583 235.666L311.382 229.594L312.406 229.56L312.608 235.633L311.583 235.666ZM311.18 223.538L310.979 217.466L312.003 217.432L312.205 223.488L311.18 223.521V223.538ZM310.777 211.41L310.576 205.355L311.6 205.321L311.802 211.393L310.777 211.427V211.41ZM310.374 199.282L310.173 193.226L311.197 193.193L311.399 199.248L310.374 199.282ZM309.971 187.154L309.77 181.081L310.794 181.048L310.996 187.12L309.971 187.154ZM309.568 175.026L309.367 168.97L310.391 168.936L310.593 174.992L309.568 175.026ZM309.165 162.898L308.963 156.842L309.988 156.808L310.189 162.864L309.165 162.898ZM308.762 150.77L308.56 144.697L309.585 144.663L309.786 150.719L308.762 150.753V150.77ZM308.359 138.641L308.157 132.569L309.182 132.535L309.383 138.591L308.359 138.625V138.641ZM307.956 126.513L307.754 120.441L308.762 120.407L308.963 126.463L307.939 126.496L307.956 126.513ZM307.553 114.385L307.351 108.313L308.376 108.279L308.577 114.352L307.57 114.385H307.553ZM307.15 102.257L306.948 96.1846L307.973 96.1509L308.174 102.223L307.15 102.257ZM306.747 90.1289L306.545 84.0565L307.553 84.0228L307.754 90.0785L306.73 90.1121L306.747 90.1289ZM306.344 78.0008L306.142 71.9452L307.167 71.9115L307.368 77.984L306.344 78.0176V78.0008ZM305.941 65.8727L305.739 59.817L306.747 59.7834L306.948 65.839L305.941 65.8727ZM305.537 53.7446L305.336 47.6889L306.36 47.6553L306.562 53.7109L305.537 53.7446Z" fill="url(#paint10_linear_278_3542)"/>
<path d="M324.196 585.06L320.602 583.933L320.904 582.957L323.137 583.664L323.07 581.326L324.078 581.292L324.196 585.06Z" fill="white"/>
<path d="M314.858 582.15L309.114 580.35L309.416 579.375L315.16 581.158L314.858 582.133V582.15ZM303.37 578.567L297.627 576.784L297.929 575.809L303.673 577.608L303.37 578.584V578.567ZM291.866 574.984L286.123 573.184L286.425 572.209L292.169 573.992L291.866 574.967V574.984ZM280.362 571.401L274.619 569.618L274.921 568.643L280.665 570.426L280.362 571.401ZM268.858 567.818L263.115 566.035L263.417 565.06L269.161 566.843L268.858 567.818ZM257.371 564.235L251.628 562.436L251.93 561.46L257.673 563.26L257.371 564.235ZM245.867 560.653L240.124 558.853L240.426 557.877L246.169 559.677L245.867 560.653ZM234.363 557.07L228.619 555.27L228.922 554.294L234.665 556.094L234.363 557.07ZM222.876 553.487L217.132 551.687L217.435 550.711L223.178 552.494L222.876 553.47V553.487ZM211.372 549.904L205.628 548.104L205.931 547.128L211.674 548.911L211.372 549.887V549.904ZM199.868 546.321L194.124 544.538L194.427 543.562L200.17 545.362L199.868 546.338V546.321ZM188.381 542.738L182.637 540.955L182.939 539.979L188.683 541.762L188.381 542.738ZM176.877 539.155L171.133 537.372L171.435 536.396L177.179 538.196L176.877 539.172V539.155ZM165.373 535.572L159.629 533.772L159.931 532.797L165.675 534.58L165.373 535.555V535.572ZM153.869 531.989L148.125 530.206L148.427 529.23L154.171 531.014L153.869 531.989Z" fill="url(#paint11_linear_278_3542)"/>
<path d="M142.414 528.406L139.173 527.38L138.938 523.999L139.945 523.915L140.13 526.623L142.716 527.431L142.414 528.406Z" fill="white"/>
<path d="M138.516 517.926L138.097 511.854L139.121 511.787L139.541 517.859L138.516 517.926ZM137.677 505.798L137.257 499.743L138.281 499.675L138.701 505.748L137.677 505.815V505.798ZM136.837 493.67L136.417 487.598L137.442 487.53L137.861 493.603L136.854 493.67H136.837ZM135.997 481.542L135.577 475.47L136.585 475.402L137.005 481.458L135.997 481.525V481.542ZM135.158 469.414L134.738 463.341L135.762 463.274L136.182 469.347L135.158 469.414ZM134.318 457.286L133.898 451.213L134.906 451.146L135.326 457.218L134.318 457.286ZM133.478 445.158L133.058 439.085L134.083 439.018L134.503 445.09L133.495 445.158H133.478ZM132.639 433.03L132.219 426.957L133.226 426.89L133.646 432.962L132.622 433.03H132.639ZM131.799 420.901L131.379 414.829L132.387 414.762L132.806 420.834L131.782 420.901H131.799ZM130.959 408.773L130.539 402.701L131.564 402.634L131.984 408.706L130.959 408.773ZM130.136 396.645L129.716 390.573L130.741 390.505L131.161 396.578L130.153 396.645H130.136ZM129.296 384.517L128.877 378.445L129.901 378.377L130.321 384.45L129.296 384.517ZM128.457 372.389L128.037 366.316L129.045 366.249L129.464 372.322L128.44 372.389H128.457ZM127.617 360.261L127.197 354.188L128.205 354.121L128.625 360.194L127.6 360.261H127.617ZM126.777 348.133L126.357 342.06L127.382 341.993L127.802 348.065L126.794 348.133H126.777ZM125.938 336.005L125.518 329.932L126.542 329.865L126.962 335.937L125.954 336.005H125.938ZM125.098 323.876L124.678 317.804L125.703 317.737L126.122 323.809L125.115 323.876H125.098ZM124.258 311.748L123.838 305.676L124.846 305.609L125.266 311.681L124.258 311.748ZM123.419 299.62L122.999 293.548L124.023 293.48L124.443 299.553L123.435 299.62H123.419ZM122.579 287.492L122.159 281.42L123.167 281.352L123.586 287.425L122.579 287.492ZM121.739 275.364L121.319 269.291L122.327 269.224L122.747 275.297L121.722 275.364H121.739ZM120.899 263.236L120.48 257.163L121.504 257.096L121.924 263.152L120.899 263.219V263.236ZM120.06 251.108L119.64 245.035L120.647 244.968L121.067 251.04L120.043 251.108H120.06ZM119.22 238.98L118.8 232.907L119.825 232.84L120.244 238.912L119.237 238.98H119.22ZM118.38 226.851L117.96 220.779L118.985 220.712L119.405 226.784L118.38 226.851ZM117.541 214.723L117.121 208.651L118.128 208.584L118.548 214.656L117.524 214.723H117.541ZM116.701 202.595L116.281 196.523L117.305 196.455L117.725 202.528L116.701 202.595ZM115.861 190.467L115.441 184.395L116.449 184.327L116.869 190.4L115.844 190.467H115.861ZM115.021 178.339L114.602 172.267L115.626 172.199L116.046 178.272L115.038 178.339H115.021Z" fill="url(#paint12_linear_278_3542)"/>
<path d="M114.35 166.076L114.098 162.527L117.641 162.241L117.725 163.25L115.189 163.469L115.374 166.009L114.35 166.076Z" fill="white"/>
<path d="M123.857 162.746L123.773 161.72L129.903 161.216L129.987 162.242L123.857 162.746ZM136.117 161.737L136.033 160.728L142.163 160.223L142.247 161.232L136.117 161.737ZM148.377 160.728L148.293 159.718L154.423 159.214L154.507 160.24L148.377 160.745V160.728ZM160.637 159.718L160.553 158.692L166.683 158.188L166.767 159.197L160.637 159.702V159.718ZM172.896 158.709L172.812 157.7L178.942 157.195L179.026 158.205L172.896 158.709ZM185.156 157.7L185.072 156.674L191.202 156.169L191.286 157.195L185.156 157.7ZM197.416 156.691L197.332 155.681L203.462 155.177L203.546 156.186L197.416 156.691ZM209.676 155.681L209.592 154.672L215.722 154.167L215.806 155.177L209.676 155.681ZM221.935 154.672L221.851 153.646L227.981 153.141L228.065 154.151L221.935 154.655V154.672ZM234.195 153.663L234.111 152.654L240.241 152.149L240.325 153.175L234.195 153.68V153.663ZM246.455 152.654L246.371 151.627L252.501 151.123L252.585 152.132L246.455 152.637V152.654ZM258.715 151.644L258.631 150.618L264.761 150.114L264.845 151.123L258.715 151.627V151.644ZM270.974 150.635L270.89 149.626L277.02 149.121L277.104 150.147L270.974 150.652V150.635ZM283.234 149.626L283.15 148.616L289.28 148.112L289.364 149.121L283.234 149.626ZM295.494 148.616L295.41 147.607L301.54 147.102L301.624 148.129L295.494 148.633V148.616ZM307.754 147.607L307.67 146.581L313.8 146.076L313.884 147.086L307.754 147.59V147.607ZM320.013 146.598L319.929 145.589L326.059 145.084L326.143 146.093L320.013 146.598ZM332.273 145.589L332.189 144.563L338.319 144.058L338.403 145.084L332.273 145.589ZM344.533 144.579L344.449 143.57L350.579 143.065L350.663 144.075L344.533 144.579ZM356.793 143.57L356.709 142.561L362.839 142.056L362.923 143.065L356.793 143.57ZM369.052 142.561L368.968 141.535L375.098 141.03L375.182 142.039L369.052 142.544V142.561ZM381.312 141.551L381.228 140.542L387.358 140.038L387.442 141.064L381.312 141.568V141.551ZM393.572 140.542L393.488 139.533L399.618 139.028L399.702 140.054L393.572 140.559V140.542ZM405.832 139.533L405.748 138.507L411.878 138.002L411.962 139.011L405.832 139.516V139.533ZM418.091 138.524L418.007 137.514L424.137 137.01L424.221 138.036L418.091 138.54V138.524ZM430.351 137.514L430.267 136.488L436.397 135.984L436.481 136.993L430.351 137.498V137.514ZM442.611 136.505L442.527 135.496L448.657 134.991L448.741 136.017L442.611 136.522V136.505ZM454.871 135.496L454.787 134.47L460.917 133.965L461.001 134.991L454.871 135.496ZM467.13 134.487L467.046 133.477L473.176 132.973L473.26 133.982L467.13 134.487ZM479.39 133.477L479.306 132.451L485.436 131.947L485.52 132.973L479.39 133.477ZM491.65 132.468L491.566 131.459L497.696 130.954L497.78 131.963L491.65 132.468Z" fill="url(#paint13_linear_278_3542)"/>
<path d="M508.057 133.578L506.714 131.19L504.01 131.425L503.926 130.399L507.285 130.13L508.93 133.09L508.057 133.578Z" fill="white"/>
<path d="M594.582 288.485L591.694 283.321L592.584 282.816L595.472 287.98L594.582 288.468V288.485ZM588.805 278.157L585.916 272.993L586.807 272.505L589.695 277.669L588.805 278.173V278.157ZM583.028 267.828L580.139 262.664L581.029 262.16L583.918 267.324L583.028 267.812V267.828ZM577.251 257.5L574.362 252.336L575.252 251.831L578.141 256.996L577.251 257.483V257.5ZM571.49 247.172L568.602 242.008L569.492 241.503L572.38 246.667L571.49 247.155V247.172ZM565.713 236.844L562.824 231.68L563.715 231.175L566.603 236.339L565.713 236.844ZM559.936 226.515L557.047 221.351L557.937 220.847L560.826 226.011L559.936 226.515ZM554.159 216.187L551.27 211.023L552.16 210.535L555.049 215.699L554.159 216.204V216.187ZM548.381 205.859L545.493 200.695L546.383 200.19L549.272 205.354L548.381 205.859ZM542.604 195.531L539.716 190.367L540.606 189.862L543.494 195.026L542.604 195.531ZM536.844 185.202L533.955 180.038L534.845 179.534L537.734 184.698L536.844 185.186V185.202ZM531.067 174.874L528.178 169.71L529.068 169.205L531.957 174.37L531.067 174.874ZM525.289 164.546L522.401 159.382L523.291 158.894L526.18 164.058L525.289 164.563V164.546ZM519.529 154.218L516.64 149.054L517.531 148.549L520.419 153.713L519.529 154.218ZM513.752 143.889L510.863 138.725L511.753 138.221L514.642 143.385L513.752 143.889Z" fill="url(#paint14_linear_278_3542)"/>
<path d="M596.443 296.946L596.309 295.937L598.593 295.651L597.467 293.649L598.357 293.145L600.222 296.475L596.443 296.946Z" fill="white"/>
<path d="M67.7125 363.541L67.5781 362.532L73.5904 361.775L73.7248 362.784L67.7125 363.541ZM79.7371 362.027L79.6028 361.018L85.6151 360.261L85.7326 361.27L79.7203 362.027H79.7371ZM91.7449 360.513L91.6106 359.504L97.6229 358.747L97.7573 359.756L91.7449 360.513ZM103.753 358.999L103.635 357.99L109.648 357.233L109.782 358.243L103.77 358.999H103.753ZM115.777 357.486L115.643 356.476L121.655 355.719L121.773 356.729L115.761 357.486H115.777ZM127.785 355.972L127.651 354.962L133.663 354.205L133.798 355.215L127.785 355.972ZM139.81 354.458L139.676 353.448L145.688 352.692L145.822 353.701L139.81 354.458ZM151.818 352.944L151.7 351.935L157.712 351.178L157.847 352.187L151.835 352.944H151.818ZM163.842 351.43L163.708 350.421L169.72 349.664L169.855 350.673L163.842 351.43ZM175.85 349.916L175.716 348.907L181.728 348.15L181.863 349.159L175.85 349.916ZM187.858 348.402L187.74 347.393L193.753 346.636L193.887 347.645L187.875 348.402H187.858ZM199.883 346.888L199.748 345.879L205.761 345.122L205.895 346.131L199.883 346.888ZM211.891 345.374L211.773 344.365L217.785 343.608L217.92 344.617L211.907 345.374H211.891ZM223.915 343.86L223.781 342.851L229.793 342.094L229.911 343.103L223.898 343.86H223.915ZM235.923 342.346L235.789 341.337L241.801 340.58L241.935 341.59L235.923 342.346ZM247.948 340.833L247.813 339.823L253.826 339.066L253.943 340.076L247.931 340.833H247.948ZM259.955 339.319L259.838 338.309L265.85 337.552L265.985 338.562L259.972 339.319H259.955ZM271.98 337.805L271.846 336.795L277.858 336.038L277.992 337.048L271.98 337.805ZM283.988 336.291L283.854 335.282L289.866 334.525L290 335.534L283.988 336.291ZM295.996 334.777L295.878 333.768L301.891 333.011L302.025 334.02L296.013 334.777H295.996ZM308.02 333.263L307.886 332.254L313.898 331.497L314.016 332.506L308.004 333.263H308.02ZM320.028 331.749L319.894 330.74L325.906 329.983L326.041 330.992L320.028 331.749ZM332.036 330.235L331.918 329.226L337.931 328.469L338.048 329.478L332.036 330.235ZM344.061 328.721L343.926 327.712L349.939 326.955L350.073 327.964L344.061 328.721ZM356.069 327.207L355.934 326.198L361.946 325.441L362.081 326.45L356.069 327.207ZM368.076 325.693L367.942 324.684L373.954 323.927L374.072 324.936L368.06 325.693H368.076ZM380.101 324.18L379.967 323.17L385.979 322.413L386.113 323.423L380.101 324.18ZM392.109 322.666L391.974 321.656L397.987 320.899L398.121 321.909L392.109 322.666ZM404.117 321.152L403.999 320.142L410.011 319.385L410.146 320.395L404.133 321.152H404.117ZM416.141 319.638L416.007 318.628L422.019 317.872L422.154 318.881L416.141 319.638ZM428.149 318.124L428.015 317.115L434.027 316.358L434.161 317.367L428.149 318.124ZM440.157 316.61L440.039 315.601L446.052 314.844L446.186 315.853L440.174 316.61H440.157ZM452.182 315.096L452.047 314.087L458.06 313.33L458.194 314.339L452.182 315.096ZM464.189 313.582L464.072 312.573L470.084 311.816L470.219 312.825L464.206 313.582H464.189ZM476.214 312.068L476.08 311.059L482.092 310.302L482.226 311.311L476.214 312.068ZM488.222 310.554L488.104 309.545L494.117 308.788L494.251 309.797L488.239 310.554H488.222ZM500.247 309.04L500.112 308.031L506.125 307.274L506.259 308.283L500.247 309.04ZM512.254 307.526L512.12 306.517L518.132 305.76L518.25 306.77L512.238 307.526H512.254ZM524.279 306.013L524.145 305.003L530.157 304.246L530.291 305.256L524.279 306.013ZM536.287 304.499L536.169 303.489L542.182 302.732L542.316 303.742L536.304 304.499H536.287ZM548.295 302.985L548.177 301.975L554.189 301.219L554.324 302.228L548.311 302.985H548.295ZM560.319 301.471L560.185 300.462L566.197 299.705L566.332 300.714L560.319 301.471ZM572.327 299.957L572.193 298.948L578.205 298.191L578.339 299.2L572.327 299.957ZM584.335 298.443L584.217 297.434L590.23 296.677L590.364 297.686L584.352 298.443H584.335Z" fill="url(#paint15_linear_278_3542)"/>
<path d="M59.4341 367.175L57.8555 363.76L61.5838 363.289L61.7181 364.298L59.3669 364.601L60.3578 366.737L59.4341 367.175Z" fill="white"/>
<path d="M120.883 499.625L118.313 494.108L119.237 493.687L121.79 499.204L120.866 499.625H120.883ZM115.76 488.59L113.191 483.073L114.115 482.636L116.667 488.153L115.744 488.59H115.76ZM110.638 477.555L108.069 472.038L108.992 471.601L111.545 477.118L110.621 477.539L110.638 477.555ZM105.516 466.521L102.963 461.003L103.887 460.583L106.44 466.1L105.516 466.538V466.521ZM100.394 455.486L97.8411 449.969L98.7648 449.531L101.318 455.049L100.394 455.486ZM95.2716 444.451L92.7021 438.934L93.6258 438.497L96.1785 444.014L95.2548 444.451H95.2716ZM90.1494 433.417L87.5967 427.899L88.5203 427.479L91.0731 432.996L90.1494 433.433V433.417ZM85.0272 422.382L82.4576 416.864L83.3813 416.427L85.934 421.944L85.0104 422.382H85.0272ZM79.9049 411.347L77.3354 405.83L78.2591 405.409L80.8118 410.926L79.8881 411.364L79.9049 411.347ZM74.7827 400.312L72.2132 394.795L73.1369 394.374L75.6896 399.892L74.7659 400.329L74.7827 400.312ZM69.6605 389.278L67.091 383.76L68.0147 383.323L70.5674 388.84L69.6437 389.261L69.6605 389.278ZM64.5383 378.243L61.9688 372.725L62.8924 372.288L65.4619 377.805L64.5383 378.243Z" fill="url(#paint16_linear_278_3542)"/>
<path d="M124.731 507.901L123.438 505.142L124.361 504.705L125.654 507.481L124.731 507.901Z" fill="white"/>
<path d="M350.761 577.726L350.375 576.784L352.693 575.808L353.079 576.75L350.761 577.726ZM358.722 574.395L358.335 573.453L363.978 571.098L364.365 572.04L358.722 574.395ZM369.991 569.686L369.604 568.743L375.247 566.389L375.633 567.331L369.991 569.686ZM381.259 564.976L380.873 564.034L386.516 561.679L386.902 562.621L381.259 564.976ZM392.528 560.266L392.142 559.324L397.785 556.969L398.171 557.911L392.528 560.266ZM403.797 555.556L403.411 554.614L409.054 552.259L409.44 553.201L403.797 555.556ZM415.066 550.846L414.68 549.904L420.323 547.549L420.709 548.491L415.066 550.846ZM426.335 546.136L425.949 545.194L431.592 542.839L431.978 543.781L426.335 546.136ZM437.604 541.426L437.218 540.484L442.861 538.129L443.247 539.071L437.604 541.426ZM448.873 536.716L448.487 535.774L454.129 533.419L454.516 534.361L448.873 536.716ZM460.142 532.006L459.755 531.064L465.398 528.709L465.785 529.651L460.142 532.006ZM471.411 527.296L471.024 526.354L476.667 523.999L477.053 524.941L471.411 527.296ZM482.68 522.586L482.293 521.644L487.936 519.289L488.322 520.231L482.68 522.586ZM493.948 517.876L493.562 516.934L499.205 514.579L499.591 515.521L493.948 517.876ZM505.217 513.166L504.831 512.224L510.474 509.869L510.86 510.811L505.217 513.166ZM516.486 508.456L516.1 507.514L521.743 505.159L522.129 506.101L516.486 508.456Z" fill="url(#paint17_linear_278_3542)"/>
<path d="M518.823 479.002L517.883 478.615L520.167 472.946L521.107 473.333L518.807 479.002H518.823ZM523.408 467.665L522.468 467.278L524.768 461.609L525.709 461.996L523.425 467.665H523.408ZM527.993 456.327L527.052 455.94L529.336 450.271L530.277 450.658L527.993 456.327ZM532.578 444.99L531.637 444.603L533.921 438.934L534.862 439.321L532.578 444.99ZM537.146 433.652L536.205 433.265L538.489 427.596L539.43 427.983L537.129 433.652H537.146ZM541.731 422.314L540.79 421.928L543.074 416.259L544.015 416.646L541.731 422.314ZM546.299 410.977L545.358 410.59L547.642 404.921L548.583 405.308L546.282 410.977H546.299ZM550.883 399.639L549.943 399.253L552.227 393.584L553.167 393.971L550.883 399.639ZM555.451 388.302L554.511 387.915L556.795 382.246L557.735 382.633L555.435 388.302H555.451ZM560.036 376.964L559.096 376.577L561.38 370.909L562.32 371.296L560.036 376.964ZM564.621 365.627L563.681 365.24L565.965 359.571L566.905 359.958L564.621 365.627ZM569.206 354.289L568.265 353.902L570.549 348.234L571.49 348.621L569.206 354.289ZM573.791 342.952L572.85 342.565L575.134 336.896L576.075 337.283L573.791 342.952ZM578.375 331.614L577.435 331.227L579.719 325.559L580.659 325.946L578.375 331.614Z" fill="url(#paint18_linear_278_3542)"/>
<path d="M481.369 116.084L480.513 115.663L480.966 114.755L481.823 115.175L481.369 116.084ZM475.038 112.972L469.546 110.28L470 109.372L475.491 112.063L475.038 112.972ZM464.071 107.589L458.58 104.897L459.033 103.972L464.525 106.664L464.071 107.572V107.589ZM453.105 102.206L447.613 99.5147L448.067 98.6063L453.558 101.298L453.105 102.223V102.206ZM442.138 96.8233L436.646 94.1319L437.1 93.2235L442.592 95.9149L442.138 96.8233ZM431.172 91.4405L425.68 88.7491L426.133 87.8407L431.625 90.5321L431.172 91.4405ZM420.205 86.0577L414.713 83.3663L415.167 82.4579L420.658 85.1493L420.205 86.0745V86.0577ZM409.238 80.6749L403.747 77.9835L404.2 77.0751L409.692 79.7665L409.238 80.6749ZM398.272 75.2921L392.78 72.6007L393.234 71.6923L398.725 74.3837L398.272 75.2921ZM387.305 69.9093L381.813 67.2179L382.267 66.3095L387.759 69.0009L387.305 69.9261V69.9093ZM376.339 64.5265L370.864 61.8351L371.317 60.9267L376.809 63.6181L376.355 64.5265H376.339ZM365.372 59.1437L359.88 56.4523L360.334 55.5439L365.825 58.2353L365.372 59.1437ZM354.405 53.7609L348.914 51.0695L349.367 50.1443L354.859 52.8357L354.405 53.7609ZM343.439 48.3781L337.947 45.6867L338.401 44.7783L343.892 47.4697L343.439 48.3781ZM332.472 42.9953L326.98 40.3039L327.434 39.3955L332.926 42.0869L332.472 42.9953Z" fill="url(#paint19_linear_278_3542)"/>
<path d="M61.1475 321.723L60.207 321.336L62.491 315.668L63.4315 316.038L61.1475 321.723ZM65.7155 310.369L64.775 309.982L67.0591 304.313L67.9995 304.683L65.7155 310.369ZM70.2835 299.015L69.3431 298.628L71.6271 292.959L72.5675 293.346L70.2835 299.015ZM74.8516 287.66L73.9111 287.273L76.1951 281.605L77.1356 281.991L74.8516 287.66ZM79.4196 276.306L78.4791 275.919L80.7631 270.25L81.7036 270.637L79.4196 276.306ZM83.9876 264.952L83.0471 264.581L85.3311 258.913L86.2716 259.3L83.9876 264.968V264.952ZM88.5388 253.597L87.5983 253.227L89.8823 247.558L90.8228 247.945L88.5388 253.614V253.597ZM93.1068 242.243L92.1664 241.873L94.4504 236.187L95.3908 236.574L93.1068 242.243ZM97.6748 230.888L96.7344 230.502L99.0184 224.833L99.9589 225.22L97.6748 230.888ZM102.243 219.534L101.302 219.164L103.586 213.479L104.527 213.849L102.243 219.534ZM106.794 208.18L105.854 207.793L108.138 202.124L109.078 202.494L106.794 208.18ZM111.362 196.825L110.422 196.439L112.706 190.77L113.646 191.157L111.362 196.825ZM115.93 185.471L114.99 185.084L117.274 179.415L118.214 179.802L115.93 185.471ZM120.498 174.117L119.558 173.747L121.842 168.078L122.782 168.465L120.498 174.134V174.117ZM125.066 162.779L124.126 162.392L126.41 156.724L127.35 157.111L125.066 162.779ZM129.634 151.425L128.694 151.038L130.978 145.369L131.918 145.739L129.634 151.425ZM134.185 140.071L133.245 139.684L135.529 134.015L136.469 134.385L134.185 140.071ZM139.627 129.927L139.123 129.036L144.447 126.025L144.95 126.916L139.627 129.927ZM150.257 123.905L149.754 123.014L155.061 120.003L155.564 120.894L150.241 123.905H150.257ZM160.888 117.883L160.384 116.992L165.708 113.981L166.212 114.872L160.888 117.883ZM171.519 111.861L171.015 110.97L176.339 107.959L176.843 108.85L171.519 111.861ZM182.15 105.839L181.646 104.948L186.969 101.937L187.473 102.828L182.15 105.839ZM192.78 99.8173L192.276 98.9258L197.6 95.9148L198.104 96.8063L192.78 99.8173ZM203.411 93.7953L202.907 92.9038L208.231 89.8928L208.735 90.7843L203.428 93.7953H203.411ZM214.042 87.7733L213.538 86.8818L218.845 83.8708L219.349 84.7623L214.025 87.7733H214.042ZM224.672 81.7513L224.169 80.8598L229.492 77.8488L229.996 78.7403L224.672 81.7513ZM235.303 75.7293L234.799 74.8378L240.123 71.8268L240.627 72.7183L235.32 75.7293H235.303ZM245.934 69.7073L245.43 68.8158L250.737 65.8048L251.241 66.6963L245.917 69.7073H245.934ZM256.565 63.6853L256.061 62.7938L261.384 59.7828L261.888 60.6743L256.565 63.6853ZM267.195 57.6633L266.691 56.7717L272.015 53.7607L272.519 54.6523L267.195 57.6633Z" fill="url(#paint20_linear_278_3542)"/>
<path fill-rule="evenodd" clip-rule="evenodd" d="M189.724 506.371C189.724 533.958 167.404 556.313 139.862 556.313C112.319 556.313 90 533.958 90 506.371C90 478.784 112.319 456.429 139.862 456.429C167.404 456.429 189.724 478.784 189.724 506.371Z" fill="url(#paint21_linear_278_3542)"/>
<path fill-rule="evenodd" clip-rule="evenodd" d="M99.707 332.8C99.707 360.37 77.3876 382.742 49.8451 382.742C22.3027 382.742 0 360.387 0 332.8C0 305.213 22.3195 282.857 49.8619 282.857C77.4044 282.857 99.7238 305.213 99.7238 332.8H99.707Z" fill="url(#paint22_linear_278_3542)"/>
<path fill-rule="evenodd" clip-rule="evenodd" d="M155.7 145.773C155.7 173.36 133.381 195.716 105.838 195.716C78.296 195.716 55.9766 173.36 55.9766 145.773C55.9766 118.187 78.296 95.8311 105.838 95.8311C133.381 95.8311 155.7 118.187 155.7 145.773Z" fill="url(#paint23_linear_278_3542)"/>
<path d="M105.803 190.818C130.565 190.818 150.661 170.767 150.689 146.034C150.717 121.3 130.667 101.25 105.905 101.25C81.1436 101.25 61.0475 121.3 61.0193 146.034C60.9911 170.767 81.0416 190.818 105.803 190.818Z" fill="#071A32"/>
<path d="M94.5661 333.094C94.5661 308.334 74.5138 288.249 49.7928 288.249C25.0718 288.249 5.01953 308.334 5.01953 333.094C5.01953 357.855 25.0718 377.94 49.7928 377.94C74.5138 377.94 94.5661 357.855 94.5661 333.094Z" fill="#071A32"/>
<path fill-rule="evenodd" clip-rule="evenodd" d="M374.544 575.478C374.544 603.048 352.225 625.404 324.682 625.404C297.14 625.404 274.82 603.048 274.82 575.478C274.82 547.908 297.14 525.536 324.682 525.536C352.225 525.536 374.544 547.892 374.544 575.478Z" fill="url(#paint24_linear_278_3542)"/>
<path d="M331.757 619.74C356.165 615.772 372.74 592.736 368.778 568.289C364.816 543.841 341.818 527.24 317.41 531.208C293.002 535.177 276.427 558.212 280.389 582.66C284.351 607.107 307.349 623.709 331.757 619.74Z" fill="#071A32"/>
<path d="M302.988 589.652C300.4 585.67 299.011 581.022 299.011 576.161C299.011 569.529 301.593 563.294 306.283 558.604C310.973 553.915 317.208 551.332 323.84 551.332C328.701 551.332 333.348 552.721 337.331 555.309C337.833 554.292 338.613 553.436 339.57 552.838C334.961 549.716 329.53 548.036 323.84 548.036C316.327 548.036 309.265 550.962 303.953 556.274C298.64 561.586 295.715 568.649 295.715 576.161C295.715 581.851 297.394 587.282 300.517 591.891C301.114 590.934 301.971 590.155 302.988 589.652Z" fill="url(#paint25_linear_278_3542)"/>
<path d="M347.787 561.396C347.153 562.327 346.266 563.071 345.227 563.533C347.471 567.317 348.668 571.647 348.668 576.162C348.668 582.794 346.086 589.029 341.396 593.718C336.706 598.408 330.471 600.991 323.839 600.991C319.325 600.991 314.995 599.793 311.211 597.55C310.749 598.589 310.004 599.475 309.074 600.109C313.468 602.83 318.542 604.287 323.839 604.287C331.352 604.287 338.415 601.361 343.727 596.049C349.039 590.737 351.964 583.674 351.964 576.162C351.964 570.864 350.508 565.791 347.787 561.396Z" fill="url(#paint26_linear_278_3542)"/>
<path d="M340 557.987C340 559.515 341.243 560.758 342.771 560.758C344.298 560.758 345.541 559.515 345.541 557.987C345.541 556.46 344.298 555.217 342.771 555.217C341.243 555.217 340 556.46 340 557.987Z" fill="url(#paint27_linear_278_3542)"/>
<path d="M308.436 595.094C308.436 593.566 307.193 592.323 305.665 592.323C304.137 592.323 302.895 593.566 302.895 595.094C302.895 596.621 304.137 597.864 305.665 597.864C307.193 597.864 308.436 596.621 308.436 595.094Z" fill="url(#paint28_linear_278_3542)"/>
<path d="M315.241 590.762C314.135 588.109 313.363 584.901 312.975 581.427C311.612 580.646 310.58 579.352 310.144 577.81H303.406C303.77 582.356 305.623 586.489 308.477 589.719C309.226 590.568 310.045 591.354 310.923 592.069C313.136 593.869 315.73 595.218 318.564 595.973C317.405 594.84 316.249 593.18 315.241 590.762Z" fill="white"/>
<path d="M332.44 561.561C333.922 565.114 334.804 569.663 334.968 574.513H344.275C343.935 570.261 342.292 566.37 339.747 563.242C339.032 562.364 338.246 561.545 337.397 560.796C335.051 558.723 332.229 557.178 329.117 556.349C330.276 557.482 331.432 559.142 332.44 561.561Z" fill="white"/>
<path d="M310.144 574.514C310.58 572.971 311.612 571.677 312.975 570.896C313.363 567.422 314.135 564.215 315.241 561.562C316.249 559.143 317.405 557.483 318.564 556.35C310.321 558.547 304.105 565.765 303.406 574.514H310.144Z" fill="white"/>
<path d="M334.968 577.81C334.804 582.659 333.922 587.208 332.44 590.762C331.432 593.18 330.276 594.84 329.117 595.974C337.36 593.776 343.576 586.559 344.275 577.81H334.968Z" fill="white"/>
<path d="M323.842 557.308C320.383 557.308 317.446 562.666 316.395 570.111C318.985 570.286 321.134 572.095 321.818 574.514H331.672C331.324 564.873 327.951 557.308 323.842 557.308Z" fill="white"/>
<path d="M323.842 595.016C327.951 595.016 331.324 587.45 331.672 577.81H321.818C321.134 580.228 318.985 582.037 316.395 582.212C317.446 589.657 320.383 595.016 323.842 595.016Z" fill="white"/>
<path d="M315.978 573.391C314.45 573.391 313.207 574.634 313.207 576.161C313.207 577.689 314.45 578.932 315.978 578.932C317.505 578.932 318.748 577.689 318.748 576.161C318.748 574.634 317.505 573.391 315.978 573.391Z" fill="white"/>
<path fill-rule="evenodd" clip-rule="evenodd" d="M348.829 49.9423C348.829 77.5123 326.51 99.8846 298.967 99.8846C271.425 99.8846 249.105 77.5291 249.105 49.9423C249.105 22.3554 271.442 0 298.967 0C326.493 0 348.829 22.3554 348.829 49.9423Z" fill="url(#paint29_linear_278_3542)"/>
<path d="M343.472 49.6667C343.472 24.9059 323.42 4.82129 298.699 4.82129C273.978 4.82129 253.926 24.9059 253.926 49.6667C253.926 74.4276 273.978 94.5122 298.699 94.5122C323.42 94.5122 343.472 74.4276 343.472 49.6667Z" fill="#071A32"/>
<path d="M298.927 73.0581C302.069 73.0581 304.616 70.5112 304.616 67.3694C304.616 64.2276 302.069 61.6807 298.927 61.6807C295.785 61.6807 293.238 64.2276 293.238 67.3694C293.238 70.5112 295.785 73.0581 298.927 73.0581Z" fill="white"/>
<path d="M327.764 38.5306C319.566 30.3329 309.023 26.585 298.926 26.585C288.829 26.585 278.287 30.3329 270.089 38.5306C267.823 40.7989 267.833 44.3112 270.067 46.5547C272.857 49.3757 276.51 48.2528 278.146 46.5624C283.699 41.0168 291.078 37.9627 298.926 37.9627C306.774 37.9627 314.154 41.0168 319.707 46.5624C321.342 48.2528 324.995 49.3757 327.785 46.5547C330.019 44.3113 330.03 40.799 327.764 38.5306Z" fill="white"/>
<path d="M315.356 50.9368C310.652 46.2349 304.583 44.1318 298.927 44.1318C293.27 44.1318 287.201 46.2347 282.498 50.9368C280.203 53.2312 280.249 56.7598 282.521 59.0076C284.777 61.2479 288.286 61.2385 290.541 58.9834C292.781 56.7437 295.759 55.5102 298.927 55.5102C302.094 55.5102 305.072 56.7437 307.312 58.9834C309.567 61.2385 313.077 61.2479 315.332 59.0076C317.604 56.7598 317.65 53.2312 315.356 50.9368Z" fill="white"/>
<path d="M304.614 67.3694C304.614 64.2327 302.062 61.6807 298.926 61.6807V73.0581C302.062 73.0581 304.614 70.5061 304.614 67.3694Z" fill="url(#paint30_linear_278_3542)"/>
<path d="M327.785 46.5547C330.019 44.3112 330.029 40.799 327.764 38.5306C319.566 30.3329 309.023 26.585 298.926 26.585V37.9629C306.774 37.9629 314.153 41.0169 319.706 46.5625C321.342 48.2529 324.995 49.3758 327.785 46.5547Z" fill="url(#paint31_linear_278_3542)"/>
<path d="M315.332 59.0076C317.603 56.7598 317.649 53.2312 315.355 50.9368C310.651 46.2347 304.582 44.1318 298.926 44.1318V55.5102C302.093 55.5102 305.071 56.7437 307.311 58.9834C309.566 61.2385 313.076 61.2479 315.332 59.0076Z" fill="url(#paint32_linear_278_3542)"/>
<path fill-rule="evenodd" clip-rule="evenodd" d="M557.759 133.578C557.759 161.148 535.439 183.52 507.897 183.52C480.355 183.52 458.035 161.165 458.035 133.578C458.035 105.991 480.355 83.6357 507.897 83.6357C535.439 83.6357 557.759 105.991 557.759 133.578Z" fill="url(#paint33_linear_278_3542)"/>
<path d="M552.402 133.578C552.402 108.817 532.35 88.7324 507.629 88.7324C482.908 88.7324 462.855 108.817 462.855 133.578C462.855 158.339 482.908 178.423 507.629 178.423C532.35 178.423 552.402 158.339 552.402 133.578Z" fill="#071A32"/>
<path d="M503.71 107.197C503.321 107.197 502.957 107.385 502.731 107.701L489.687 125.963C489.52 126.197 489.43 126.477 489.43 126.764C489.43 127.526 490.047 128.144 490.809 128.144H497.626V156.376H504.912V108.399C504.912 107.735 504.374 107.197 503.71 107.197Z" fill="white"/>
<path d="M515.222 156.376C515.611 156.376 515.975 156.188 516.201 155.872L529.245 137.611C529.412 137.377 529.502 137.096 529.502 136.809C529.502 136.047 528.884 135.429 528.122 135.429H521.305V107.197H514.02V155.174C514.02 155.838 514.558 156.376 515.222 156.376Z" fill="url(#paint34_linear_278_3542)"/>
<path fill-rule="evenodd" clip-rule="evenodd" d="M630.079 305.461C630.079 333.031 607.76 355.403 580.217 355.403C552.675 355.403 530.355 333.047 530.355 305.461C530.355 277.874 552.675 255.535 580.217 255.535C607.76 255.535 630.079 277.891 630.079 305.461Z" fill="url(#paint35_linear_278_3542)"/>
<path d="M611.728 337.621C629.214 320.107 629.214 291.713 611.728 274.2C594.243 256.686 565.895 256.686 548.409 274.2C530.924 291.713 530.924 320.107 548.409 337.621C565.895 355.134 594.243 355.134 611.728 337.621Z" fill="#071A32"/>
<path d="M573.26 298.785C571.151 298.785 569.441 300.494 569.441 302.604V313.74C569.441 315.848 571.151 317.559 573.26 317.559H573.829C575.937 317.559 577.647 315.849 577.647 313.74V302.604C577.647 300.495 575.937 298.785 573.829 298.785H573.26Z" fill="white"/>
<path d="M585.775 317.559H586.344C588.453 317.559 590.162 315.849 590.162 313.741V296.239C590.162 294.131 588.453 292.421 586.344 292.421H585.775C583.667 292.421 581.957 294.13 581.957 296.239V313.741C581.957 315.849 583.667 317.559 585.775 317.559Z" fill="url(#paint36_linear_278_3542)"/>
<path d="M598.86 317.559C600.969 317.559 602.678 315.85 602.678 313.741V287.33C602.678 285.222 600.969 283.512 598.86 283.512H598.29C596.182 283.512 594.473 285.221 594.473 287.33V313.741C594.473 315.849 596.182 317.559 598.29 317.559L598.86 317.559Z" fill="url(#paint37_linear_278_3542)"/>
<path d="M562.068 303.346H561.499C559.39 303.346 557.68 305.055 557.68 307.164V313.741C557.68 315.849 559.39 317.559 561.499 317.559H562.068C564.176 317.559 565.886 315.85 565.886 313.741V307.164C565.886 305.055 564.176 303.346 562.068 303.346Z" fill="white"/>
<path d="M528.792 528.992C556.33 528.992 578.654 506.632 578.654 479.05C578.654 451.467 556.33 429.107 528.792 429.107C501.254 429.107 478.93 451.467 478.93 479.05C478.93 506.632 501.254 528.992 528.792 528.992Z" fill="url(#paint38_linear_278_3542)"/>
<path d="M573.355 478.776C573.355 503.553 553.304 523.623 528.552 523.623C503.8 523.623 483.75 503.553 483.75 478.776C483.75 453.999 503.8 433.929 528.552 433.929C553.304 433.929 573.355 453.999 573.355 478.776Z" fill="#071A32"/>
<path d="M527.946 469.664C524.995 469.664 522.594 472.065 522.594 475.016C522.594 477.461 524.242 479.527 526.486 480.164V496.814C526.486 497.62 527.14 498.273 527.946 498.273C528.752 498.273 529.406 497.62 529.406 496.814V480.164C531.649 479.527 533.298 477.461 533.298 475.016C533.298 472.065 530.897 469.664 527.946 469.664Z" fill="white"/>
<path d="M521.193 467.213C520.623 466.643 519.699 466.643 519.129 467.213C514.603 471.738 514.603 479.063 519.129 483.589C519.699 484.159 520.623 484.159 521.193 483.589C521.763 483.019 521.763 482.095 521.193 481.525C517.808 478.141 517.808 472.662 521.193 469.277C521.763 468.707 521.763 467.783 521.193 467.213Z" fill="url(#paint39_linear_278_3542)"/>
<path d="M536.761 467.213C536.191 466.643 535.267 466.643 534.697 467.213C534.127 467.783 534.127 468.707 534.697 469.277C538.074 472.654 538.074 478.148 534.697 481.525C534.127 482.095 534.127 483.019 534.697 483.589C535.267 484.159 536.191 484.159 536.761 483.589C541.276 479.074 541.276 471.728 536.761 467.213Z" fill="url(#paint40_linear_278_3542)"/>
<path d="M516.787 464.873C517.357 464.303 517.357 463.378 516.787 462.808C516.217 462.238 515.293 462.238 514.723 462.808C507.78 469.752 507.78 481.049 514.723 487.992C515.293 488.562 516.217 488.563 516.787 487.992C517.357 487.423 517.357 486.498 516.787 485.928C510.982 480.123 510.982 470.678 516.787 464.873Z" fill="url(#paint41_linear_278_3542)"/>
<path d="M541.168 462.808C540.598 462.238 539.673 462.238 539.103 462.808C538.533 463.378 538.533 464.303 539.103 464.873C544.908 470.678 544.908 480.123 539.103 485.928C538.533 486.498 538.533 487.422 539.103 487.992C539.673 488.563 540.598 488.563 541.168 487.992C548.111 481.049 548.111 469.752 541.168 462.808Z" fill="url(#paint42_linear_278_3542)"/>
<path d="M512.386 460.469C512.956 459.899 512.956 458.975 512.386 458.405C511.816 457.835 510.891 457.835 510.321 458.405C500.596 468.13 500.617 482.693 510.321 492.397C510.891 492.967 511.815 492.967 512.386 492.397C512.956 491.827 512.956 490.903 512.386 490.333C503.873 481.82 503.873 468.982 512.386 460.469Z" fill="url(#paint43_linear_278_3542)"/>
<path d="M545.57 458.405C545 457.835 544.076 457.835 543.506 458.405C542.936 458.975 542.936 459.899 543.506 460.469C552.018 468.982 552.018 481.82 543.506 490.333C542.936 490.902 542.936 491.827 543.506 492.397C544.076 492.967 545 492.967 545.57 492.397C555.295 482.672 555.274 468.109 545.57 458.405Z" fill="url(#paint44_linear_278_3542)"/>
<path d="M389.774 290.747C396.06 332.627 367.26 371.677 325.454 377.972C283.648 384.267 244.658 355.426 238.372 313.546C232.086 271.666 260.885 232.616 302.691 226.321C344.497 220.025 383.488 248.867 389.774 290.747Z" fill="#071A32" stroke="url(#paint45_linear_278_3542)" stroke-width="3.5"/>
<path d="M338.881 292.95H322.586V309.245H338.881V292.95Z" fill="url(#paint46_linear_278_3542)"/>
<path d="M355.178 309.245H338.883V325.54H355.178V309.245Z" fill="url(#paint47_linear_278_3542)"/>
<path d="M291.115 325.544V309.245V292.951V276.652H322.584H338.883V260.357H322.584H291.115H274.82V276.652V292.951V309.245V325.544V341.839H291.115H322.584H338.883V325.544H322.584H291.115Z" fill="white"/>
<path d="M355.178 276.652H338.883V292.947H355.178V276.652Z" fill="url(#paint48_linear_278_3542)"/>
<path d="M103.982 141.337C103.449 141.87 103.449 142.735 103.982 143.268C104.515 143.801 105.38 143.801 105.913 143.268C106.064 143.119 106.388 142.867 106.873 142.867C107.358 142.867 107.682 143.119 107.833 143.268C108.366 143.801 109.23 143.801 109.764 143.268C110.297 142.735 110.297 141.87 109.764 141.337C109.316 140.888 108.344 140.136 106.873 140.136C105.402 140.136 104.43 140.888 103.982 141.337Z" fill="url(#paint49_linear_278_3542)"/>
<path d="M106.872 123.75C101.402 123.75 96.2579 125.884 92.3883 129.756C91.8549 130.289 91.8549 131.155 92.3883 131.687C92.9216 132.22 93.7858 132.22 94.3191 131.687C97.674 128.329 102.132 126.481 106.872 126.481C111.612 126.481 116.07 128.329 119.425 131.687C119.958 132.22 120.822 132.22 121.356 131.687C121.889 131.155 121.889 130.289 121.356 129.756C117.486 125.884 112.342 123.75 106.872 123.75Z" fill="url(#paint50_linear_278_3542)"/>
<path d="M117.494 135.547C118.028 135.015 118.028 134.15 117.494 133.616C114.657 130.776 110.886 129.212 106.875 129.212C102.864 129.212 99.093 130.776 96.2555 133.616C95.7221 134.15 95.7221 135.015 96.2555 135.547C96.7888 136.08 97.653 136.08 98.1863 135.547C100.509 133.223 103.593 131.943 106.875 131.943C110.157 131.943 113.241 133.223 115.564 135.547C116.097 136.08 116.961 136.08 117.494 135.547Z" fill="url(#paint51_linear_278_3542)"/>
<path d="M113.629 139.408C114.163 138.876 114.163 138.01 113.629 137.477C110.018 133.863 103.73 133.863 100.119 137.477C99.5854 138.01 99.5854 138.876 100.119 139.408C100.652 139.941 101.516 139.941 102.05 139.408C104.631 136.823 109.117 136.823 111.698 139.408C112.232 139.941 113.096 139.941 113.629 139.408Z" fill="url(#paint52_linear_278_3542)"/>
<path d="M126.081 148.328H87.6666C85.4078 148.328 83.5703 150.166 83.5703 152.424V160.617C83.5703 162.876 85.4078 164.713 87.6666 164.713H89.0321V166.17C89.0321 166.925 89.6428 167.535 90.3975 167.535C91.1523 167.535 91.763 166.925 91.763 166.17V164.713H121.985V166.17C121.985 166.925 122.596 167.535 123.35 167.535C124.105 167.535 124.716 166.925 124.716 166.17V164.713H126.081C128.34 164.713 130.177 162.876 130.177 160.617V152.424C130.177 150.166 128.34 148.328 126.081 148.328ZM113.792 157.886C113.792 158.641 113.181 159.252 112.427 159.252C111.672 159.252 111.061 158.641 111.061 157.886V155.155C111.061 154.401 111.672 153.79 112.427 153.79C113.181 153.79 113.792 154.401 113.792 155.155V157.886ZM119.254 157.886C119.254 158.641 118.643 159.252 117.888 159.252C117.134 159.252 116.523 158.641 116.523 157.886V155.155C116.523 154.401 117.134 153.79 117.888 153.79C118.643 153.79 119.254 154.401 119.254 155.155V157.886ZM124.716 157.886C124.716 158.641 124.105 159.252 123.35 159.252C122.596 159.252 121.985 158.641 121.985 157.886V155.155C121.985 154.401 122.596 153.79 123.35 153.79C124.105 153.79 124.716 154.401 124.716 155.155V157.886Z" fill="white"/>
<path d="M84.4885 129.322C83.795 129.619 83.4737 130.422 83.7711 131.114L89.9779 145.597H92.948L86.2806 130.039C85.9833 129.343 85.1725 129.021 84.4885 129.322Z" fill="url(#paint53_linear_278_3542)"/>
<path d="M123.771 145.597L129.978 131.115C130.275 130.423 129.954 129.62 129.26 129.323C128.571 129.024 127.765 129.345 127.468 130.04L120.801 145.597H123.771Z" fill="url(#paint54_linear_278_3542)"/>
<path d="M184.367 506.095C184.367 481.335 164.315 461.25 139.594 461.25C114.873 461.25 94.8203 481.335 94.8203 506.095C94.8203 530.856 114.873 550.941 139.594 550.941C164.315 550.941 184.367 530.856 184.367 506.095Z" fill="#071A32"/>
<g clip-path="url(#clip1_278_3542)">
<path d="M129.128 481.126L126.931 478.929C120.268 485.593 120.268 496.436 126.931 503.1L129.128 500.903C123.677 495.451 123.677 486.578 129.128 481.126Z" fill="url(#paint55_linear_278_3542)"/>
<path d="M151.103 478.929L148.906 481.126C154.357 486.578 154.357 495.451 148.906 500.903L151.103 503.1C157.766 496.436 157.766 485.593 151.103 478.929Z" fill="url(#paint56_linear_278_3542)"/>
<path d="M133.524 485.521L131.326 483.324C129.275 485.376 128.145 488.105 128.145 491.014C128.145 493.923 129.275 496.653 131.326 498.704L133.524 496.507C132.059 495.043 131.252 493.091 131.252 491.014C131.252 488.937 132.059 486.986 133.524 485.521Z" fill="url(#paint57_linear_278_3542)"/>
<path d="M146.709 483.324L144.512 485.521C145.976 486.986 146.783 488.937 146.783 491.014C146.783 493.091 145.976 495.043 144.512 496.507L146.709 498.704C148.76 496.653 149.891 493.923 149.891 491.014C149.891 488.105 148.76 485.376 146.709 483.324Z" fill="url(#paint58_linear_278_3542)"/>
<path d="M139.017 486.354C136.446 486.354 134.355 488.444 134.355 491.015C134.355 493.585 136.446 495.676 139.017 495.676C141.587 495.676 143.678 493.585 143.678 491.015C143.678 488.444 141.587 486.354 139.017 486.354Z" fill="url(#paint59_linear_278_3542)"/>
<path d="M152.551 528.857L142.065 498.157C141.128 498.559 140.098 498.784 139.016 498.784C137.935 498.784 136.905 498.559 135.968 498.157L125.482 528.857H120.371V531.964H157.662V528.857H152.551ZM136.338 506.897H141.695L143.437 512.006L139.016 516.243L134.596 512.006L136.338 506.897ZM133.473 515.235L136.771 518.395L130.176 524.714L133.473 515.235ZM130.453 528.857L139.016 520.547L147.58 528.857H130.453ZM141.262 518.395L144.56 515.235L147.857 524.715L141.262 518.395Z" fill="white"/>
</g>
</g>
<path d="M48.2339 341.442C48.2214 343.519 47.6367 345.174 46.4548 346.543C45.2604 347.911 43.7176 348.571 41.8639 348.571C38.1065 348.571 35.4316 345.647 35.4316 341.417C35.4316 339.327 36.0288 337.659 37.273 336.291C38.4549 334.984 39.9976 334.338 41.839 334.325V326.039C37.1485 326.039 33.3415 327.47 30.3057 330.394C27.27 333.317 25.7148 336.95 25.7148 341.429C25.7148 345.896 27.2576 349.603 30.3057 352.527C33.3415 355.451 37.161 356.881 41.8763 356.881C46.5916 356.881 50.3987 355.451 53.4468 352.527C56.4826 349.616 57.9631 345.921 57.9755 341.466H48.2339V341.442Z" fill="white"/>
<path d="M46.4548 336.292C47.1017 337.039 47.5372 337.885 47.8358 338.818H57.7391C57.2539 335.521 55.8605 332.722 53.4344 330.395C50.9834 328.044 47.9975 326.7 44.4766 326.252V334.874C45.2106 335.185 45.8824 335.658 46.4548 336.292Z" fill="url(#paint60_linear_278_3542)"/>
<path d="M44.4648 316.983V323.988C47.4632 324.473 57.3666 326.974 59.6061 338.818H66.6853C64.3712 322.843 51.3699 317.593 44.4648 316.983Z" fill="url(#paint61_linear_278_3542)"/>
<path d="M68.3649 338.805H75.4565C71.2264 311.484 48.2097 308.821 44.4648 308.572V315.539C47.9485 315.801 64.5951 318.165 68.3649 338.805Z" fill="url(#paint62_linear_278_3542)"/>
<defs>
<linearGradient id="paint0_linear_278_3542" x1="190.034" y1="87.1846" x2="190.034" y2="318.78" gradientUnits="userSpaceOnUse">
<stop stop-color="#00F981"/>
<stop offset="1" stop-color="#0056FB"/>
</linearGradient>
<linearGradient id="paint1_linear_278_3542" x1="295.132" y1="327.544" x2="295.132" y2="480.617" gradientUnits="userSpaceOnUse">
<stop stop-color="#00F981"/>
<stop offset="1" stop-color="#0056FB"/>
</linearGradient>
<linearGradient id="paint2_linear_278_3542" x1="320.456" y1="156.488" x2="320.456" y2="477.707" gradientUnits="userSpaceOnUse">
<stop stop-color="#00F981"/>
<stop offset="1" stop-color="#0056FB"/>
</linearGradient>
<linearGradient id="paint3_linear_278_3542" x1="220.162" y1="158.995" x2="220.162" y2="552.36" gradientUnits="userSpaceOnUse">
<stop stop-color="#00F981"/>
<stop offset="1" stop-color="#0056FB"/>
</linearGradient>
<linearGradient id="paint4_linear_278_3542" x1="418.923" y1="153.562" x2="418.923" y2="552.477" gradientUnits="userSpaceOnUse">
<stop stop-color="#00F981"/>
<stop offset="1" stop-color="#0056FB"/>
</linearGradient>
<linearGradient id="paint5_linear_278_3542" x1="329.738" y1="151.896" x2="329.738" y2="501.762" gradientUnits="userSpaceOnUse">
<stop stop-color="#00F981"/>
<stop offset="1" stop-color="#0056FB"/>
</linearGradient>
<linearGradient id="paint6_linear_278_3542" x1="219.929" y1="66.0908" x2="219.929" y2="499.221" gradientUnits="userSpaceOnUse">
<stop stop-color="#00F981"/>
<stop offset="1" stop-color="#0056FB"/>
</linearGradient>
<linearGradient id="paint7_linear_278_3542" x1="431.509" y1="63.2988" x2="431.509" y2="290.251" gradientUnits="userSpaceOnUse">
<stop stop-color="#00F981"/>
<stop offset="1" stop-color="#0056FB"/>
</linearGradient>
<linearGradient id="paint8_linear_278_3542" x1="542.13" y1="305.104" x2="542.13" y2="482.367" gradientUnits="userSpaceOnUse">
<stop stop-color="#00F981"/>
<stop offset="1" stop-color="#0056FB"/>
</linearGradient>
<linearGradient id="paint9_linear_278_3542" x1="414.539" y1="46.8311" x2="414.539" y2="483.326" gradientUnits="userSpaceOnUse">
<stop stop-color="#00F981"/>
<stop offset="1" stop-color="#0056FB"/>
</linearGradient>
<linearGradient id="paint10_linear_278_3542" x1="314.615" y1="47.6553" x2="314.615" y2="575.254" gradientUnits="userSpaceOnUse">
<stop stop-color="#00F981"/>
<stop offset="1" stop-color="#0056FB"/>
</linearGradient>
<linearGradient id="paint11_linear_278_3542" x1="231.642" y1="529.23" x2="231.642" y2="582.15" gradientUnits="userSpaceOnUse">
<stop stop-color="#00F981"/>
<stop offset="1" stop-color="#0056FB"/>
</linearGradient>
<linearGradient id="paint12_linear_278_3542" x1="127.071" y1="172.199" x2="127.071" y2="517.926" gradientUnits="userSpaceOnUse">
<stop stop-color="#00F981"/>
<stop offset="1" stop-color="#0056FB"/>
</linearGradient>
<linearGradient id="paint13_linear_278_3542" x1="310.777" y1="130.954" x2="310.777" y2="162.746" gradientUnits="userSpaceOnUse">
<stop stop-color="#00F981"/>
<stop offset="1" stop-color="#0056FB"/>
</linearGradient>
<linearGradient id="paint14_linear_278_3542" x1="553.168" y1="138.221" x2="553.168" y2="288.485" gradientUnits="userSpaceOnUse">
<stop stop-color="#00F981"/>
<stop offset="1" stop-color="#0056FB"/>
</linearGradient>
<linearGradient id="paint15_linear_278_3542" x1="328.971" y1="296.677" x2="328.971" y2="363.541" gradientUnits="userSpaceOnUse">
<stop stop-color="#00F981"/>
<stop offset="1" stop-color="#0056FB"/>
</linearGradient>
<linearGradient id="paint16_linear_278_3542" x1="91.8792" y1="372.288" x2="91.8792" y2="499.625" gradientUnits="userSpaceOnUse">
<stop stop-color="#00F981"/>
<stop offset="1" stop-color="#0056FB"/>
</linearGradient>
<linearGradient id="paint17_linear_278_3542" x1="436.252" y1="505.159" x2="436.252" y2="577.726" gradientUnits="userSpaceOnUse">
<stop stop-color="#00F981"/>
<stop offset="1" stop-color="#0056FB"/>
</linearGradient>
<linearGradient id="paint18_linear_278_3542" x1="549.271" y1="325.559" x2="549.271" y2="479.002" gradientUnits="userSpaceOnUse">
<stop stop-color="#00F981"/>
<stop offset="1" stop-color="#0056FB"/>
</linearGradient>
<linearGradient id="paint19_linear_278_3542" x1="404.402" y1="39.3955" x2="404.402" y2="116.084" gradientUnits="userSpaceOnUse">
<stop stop-color="#00F981"/>
<stop offset="1" stop-color="#0056FB"/>
</linearGradient>
<linearGradient id="paint20_linear_278_3542" x1="166.363" y1="53.7607" x2="166.363" y2="321.723" gradientUnits="userSpaceOnUse">
<stop stop-color="#00F981"/>
<stop offset="1" stop-color="#0056FB"/>
</linearGradient>
<linearGradient id="paint21_linear_278_3542" x1="139.862" y1="456.429" x2="139.862" y2="556.313" gradientUnits="userSpaceOnUse">
<stop stop-color="#00F981"/>
<stop offset="1" stop-color="#0056FB"/>
</linearGradient>
<linearGradient id="paint22_linear_278_3542" x1="49.8619" y1="282.857" x2="49.8619" y2="382.742" gradientUnits="userSpaceOnUse">
<stop stop-color="#00F981"/>
<stop offset="1" stop-color="#0056FB"/>
</linearGradient>
<linearGradient id="paint23_linear_278_3542" x1="105.838" y1="95.8311" x2="105.838" y2="195.716" gradientUnits="userSpaceOnUse">
<stop stop-color="#00F981"/>
<stop offset="1" stop-color="#0056FB"/>
</linearGradient>
<linearGradient id="paint24_linear_278_3542" x1="324.682" y1="525.536" x2="324.682" y2="625.404" gradientUnits="userSpaceOnUse">
<stop stop-color="#00F981"/>
<stop offset="1" stop-color="#0056FB"/>
</linearGradient>
<linearGradient id="paint25_linear_278_3542" x1="317.642" y1="548.036" x2="317.642" y2="591.891" gradientUnits="userSpaceOnUse">
<stop stop-color="#00F981"/>
<stop offset="1" stop-color="#0056FB"/>
</linearGradient>
<linearGradient id="paint26_linear_278_3542" x1="330.519" y1="561.396" x2="330.519" y2="604.287" gradientUnits="userSpaceOnUse">
<stop stop-color="#00F981"/>
<stop offset="1" stop-color="#0056FB"/>
</linearGradient>
<linearGradient id="paint27_linear_278_3542" x1="342.771" y1="555.217" x2="342.771" y2="560.758" gradientUnits="userSpaceOnUse">
<stop stop-color="#00F981"/>
<stop offset="1" stop-color="#0056FB"/>
</linearGradient>
<linearGradient id="paint28_linear_278_3542" x1="305.665" y1="592.323" x2="305.665" y2="597.864" gradientUnits="userSpaceOnUse">
<stop stop-color="#00F981"/>
<stop offset="1" stop-color="#0056FB"/>
</linearGradient>
<linearGradient id="paint29_linear_278_3542" x1="298.967" y1="0" x2="298.967" y2="99.8846" gradientUnits="userSpaceOnUse">
<stop stop-color="#00F981"/>
<stop offset="1" stop-color="#0056FB"/>
</linearGradient>
<linearGradient id="paint30_linear_278_3542" x1="301.77" y1="61.6807" x2="301.77" y2="73.0581" gradientUnits="userSpaceOnUse">
<stop stop-color="#0056FB"/>
<stop offset="1" stop-color="#00F981"/>
</linearGradient>
<linearGradient id="paint31_linear_278_3542" x1="314.194" y1="26.585" x2="314.194" y2="48.2755" gradientUnits="userSpaceOnUse">
<stop stop-color="#0056FB"/>
<stop offset="1" stop-color="#00F981"/>
</linearGradient>
<linearGradient id="paint32_linear_278_3542" x1="307.991" y1="44.1318" x2="307.991" y2="60.6813" gradientUnits="userSpaceOnUse">
<stop stop-color="#0056FB"/>
<stop offset="1" stop-color="#00F981"/>
</linearGradient>
<linearGradient id="paint33_linear_278_3542" x1="507.897" y1="83.6357" x2="507.897" y2="183.52" gradientUnits="userSpaceOnUse">
<stop stop-color="#00F981"/>
<stop offset="1" stop-color="#0056FB"/>
</linearGradient>
<linearGradient id="paint34_linear_278_3542" x1="521.761" y1="107.197" x2="521.761" y2="156.376" gradientUnits="userSpaceOnUse">
<stop stop-color="#00F981"/>
<stop offset="1" stop-color="#0056FB"/>
</linearGradient>
<linearGradient id="paint35_linear_278_3542" x1="580.217" y1="255.535" x2="580.217" y2="355.403" gradientUnits="userSpaceOnUse">
<stop stop-color="#00F981"/>
<stop offset="1" stop-color="#0056FB"/>
</linearGradient>
<linearGradient id="paint36_linear_278_3542" x1="581.957" y1="304.99" x2="590.162" y2="304.99" gradientUnits="userSpaceOnUse">
<stop stop-color="#00F981"/>
<stop offset="1" stop-color="#0056FB"/>
</linearGradient>
<linearGradient id="paint37_linear_278_3542" x1="594.473" y1="300.535" x2="602.678" y2="300.535" gradientUnits="userSpaceOnUse">
<stop stop-color="#00F981"/>
<stop offset="1" stop-color="#0056FB"/>
</linearGradient>
<linearGradient id="paint38_linear_278_3542" x1="528.792" y1="429.107" x2="528.792" y2="528.992" gradientUnits="userSpaceOnUse">
<stop stop-color="#00F981"/>
<stop offset="1" stop-color="#0056FB"/>
</linearGradient>
<linearGradient id="paint39_linear_278_3542" x1="518.677" y1="466.785" x2="518.677" y2="484.017" gradientUnits="userSpaceOnUse">
<stop stop-color="#00F981"/>
<stop offset="1" stop-color="#0056FB"/>
</linearGradient>
<linearGradient id="paint40_linear_278_3542" x1="537.209" y1="466.785" x2="537.209" y2="484.017" gradientUnits="userSpaceOnUse">
<stop stop-color="#00F981"/>
<stop offset="1" stop-color="#0056FB"/>
</linearGradient>
<linearGradient id="paint41_linear_278_3542" x1="513.365" y1="462.381" x2="513.365" y2="488.42" gradientUnits="userSpaceOnUse">
<stop stop-color="#00F981"/>
<stop offset="1" stop-color="#0056FB"/>
</linearGradient>
<linearGradient id="paint42_linear_278_3542" x1="542.525" y1="462.381" x2="542.525" y2="488.42" gradientUnits="userSpaceOnUse">
<stop stop-color="#00F981"/>
<stop offset="1" stop-color="#0056FB"/>
</linearGradient>
<linearGradient id="paint43_linear_278_3542" x1="507.924" y1="457.978" x2="507.924" y2="492.824" gradientUnits="userSpaceOnUse">
<stop stop-color="#00F981"/>
<stop offset="1" stop-color="#0056FB"/>
</linearGradient>
<linearGradient id="paint44_linear_278_3542" x1="547.967" y1="457.978" x2="547.967" y2="492.824" gradientUnits="userSpaceOnUse">
<stop stop-color="#00F981"/>
<stop offset="1" stop-color="#0056FB"/>
</linearGradient>
<linearGradient id="paint45_linear_278_3542" x1="302.432" y1="224.59" x2="325.788" y2="379.692" gradientUnits="userSpaceOnUse">
<stop stop-color="#00F981"/>
<stop offset="1" stop-color="#0056FB"/>
</linearGradient>
<linearGradient id="paint46_linear_278_3542" x1="325.159" y1="292.95" x2="337.282" y2="296" gradientUnits="userSpaceOnUse">
<stop stop-color="#0056FB"/>
<stop offset="1" stop-color="#00F981"/>
</linearGradient>
<linearGradient id="paint47_linear_278_3542" x1="341.456" y1="309.245" x2="353.579" y2="312.295" gradientUnits="userSpaceOnUse">
<stop stop-color="#0056FB"/>
<stop offset="1" stop-color="#00F981"/>
</linearGradient>
<linearGradient id="paint48_linear_278_3542" x1="341.456" y1="276.652" x2="353.579" y2="279.703" gradientUnits="userSpaceOnUse">
<stop stop-color="#0056FB"/>
<stop offset="1" stop-color="#00F981"/>
</linearGradient>
<linearGradient id="paint49_linear_278_3542" x1="106.873" y1="140.136" x2="106.873" y2="143.668" gradientUnits="userSpaceOnUse">
<stop stop-color="#00F981"/>
<stop offset="1" stop-color="#0056FB"/>
</linearGradient>
<linearGradient id="paint50_linear_278_3542" x1="106.872" y1="123.75" x2="106.872" y2="132.087" gradientUnits="userSpaceOnUse">
<stop stop-color="#00F981"/>
<stop offset="1" stop-color="#0056FB"/>
</linearGradient>
<linearGradient id="paint51_linear_278_3542" x1="106.875" y1="129.212" x2="106.875" y2="135.947" gradientUnits="userSpaceOnUse">
<stop stop-color="#00F981"/>
<stop offset="1" stop-color="#0056FB"/>
</linearGradient>
<linearGradient id="paint52_linear_278_3542" x1="106.874" y1="134.767" x2="106.874" y2="139.808" gradientUnits="userSpaceOnUse">
<stop stop-color="#00F981"/>
<stop offset="1" stop-color="#0056FB"/>
</linearGradient>
<linearGradient id="paint53_linear_278_3542" x1="88.3041" y1="129.209" x2="88.3041" y2="145.597" gradientUnits="userSpaceOnUse">
<stop stop-color="#00F981"/>
<stop offset="1" stop-color="#0056FB"/>
</linearGradient>
<linearGradient id="paint54_linear_278_3542" x1="125.445" y1="129.211" x2="125.445" y2="145.597" gradientUnits="userSpaceOnUse">
<stop stop-color="#00F981"/>
<stop offset="1" stop-color="#0056FB"/>
</linearGradient>
<linearGradient id="paint55_linear_278_3542" x1="125.531" y1="478.929" x2="125.531" y2="503.1" gradientUnits="userSpaceOnUse">
<stop stop-color="#00F981"/>
<stop offset="1" stop-color="#0056FB"/>
</linearGradient>
<linearGradient id="paint56_linear_278_3542" x1="152.503" y1="478.929" x2="152.503" y2="503.1" gradientUnits="userSpaceOnUse">
<stop stop-color="#00F981"/>
<stop offset="1" stop-color="#0056FB"/>
</linearGradient>
<linearGradient id="paint57_linear_278_3542" x1="130.834" y1="483.324" x2="130.834" y2="498.704" gradientUnits="userSpaceOnUse">
<stop stop-color="#00F981"/>
<stop offset="1" stop-color="#0056FB"/>
</linearGradient>
<linearGradient id="paint58_linear_278_3542" x1="147.201" y1="483.324" x2="147.201" y2="498.704" gradientUnits="userSpaceOnUse">
<stop stop-color="#00F981"/>
<stop offset="1" stop-color="#0056FB"/>
</linearGradient>
<linearGradient id="paint59_linear_278_3542" x1="139.017" y1="486.354" x2="139.017" y2="495.676" gradientUnits="userSpaceOnUse">
<stop stop-color="#00F981"/>
<stop offset="1" stop-color="#0056FB"/>
</linearGradient>
<linearGradient id="paint60_linear_278_3542" x1="61.8675" y1="322.041" x2="40.7377" y2="342.619" gradientUnits="userSpaceOnUse">
<stop stop-color="#00F981"/>
<stop offset="1" stop-color="#2822FF"/>
</linearGradient>
<linearGradient id="paint61_linear_278_3542" x1="61.7309" y1="321.901" x2="40.6011" y2="342.478" gradientUnits="userSpaceOnUse">
<stop stop-color="#00F981"/>
<stop offset="1" stop-color="#2822FF"/>
</linearGradient>
<linearGradient id="paint62_linear_278_3542" x1="61.7686" y1="321.939" x2="40.6388" y2="342.516" gradientUnits="userSpaceOnUse">
<stop stop-color="#00F981"/>
<stop offset="1" stop-color="#2822FF"/>
</linearGradient>
<clipPath id="clip0_278_3542">
<rect width="630" height="625.179" fill="white"/>
</clipPath>
<clipPath id="clip1_278_3542">
<rect width="53.0357" height="53.0357" fill="white" transform="translate(112.5 478.929)"/>
</clipPath>
</defs>
</svg>
