<svg width="101" height="61" viewBox="0 0 101 61" fill="none" xmlns="http://www.w3.org/2000/svg">
<path d="M28.8402 22.7396C28.8402 23.9749 28.9738 24.9764 29.2075 25.7109C29.4746 26.4453 29.8084 27.2466 30.2758 28.1146C30.4427 28.3817 30.5095 28.6487 30.5095 28.8824C30.5095 29.2163 30.3092 29.5501 29.8752 29.884L27.7719 31.2861C27.4715 31.4864 27.171 31.5866 26.9039 31.5866C26.5701 31.5866 26.2362 31.4197 25.9024 31.1192C25.435 30.6184 25.0344 30.0843 24.7005 29.5501C24.3667 28.9826 24.0329 28.3483 23.6656 27.5804C21.0616 30.6518 17.7899 32.1875 13.8505 32.1875C11.0462 32.1875 8.80944 31.3863 7.17359 29.7838C5.53774 28.1813 4.70312 26.0447 4.70312 23.374C4.70312 20.5363 5.70467 18.2327 7.74113 16.4967C9.7776 14.7607 12.4818 13.8927 15.9204 13.8927C17.0555 13.8927 18.2239 13.9929 19.4592 14.1598C20.6944 14.3267 21.963 14.5938 23.2984 14.8942V12.4572C23.2984 9.91993 22.7642 8.15054 21.7293 7.11562C20.661 6.08069 18.8582 5.57992 16.2876 5.57992C15.1191 5.57992 13.9173 5.71346 12.6821 6.01392C11.4468 6.31439 10.245 6.68162 9.07652 7.149C8.54236 7.3827 8.14175 7.51623 7.90805 7.583C7.67436 7.64977 7.50744 7.68316 7.3739 7.68316C6.90651 7.68316 6.67282 7.34931 6.67282 6.64823V5.01238C6.67282 4.47823 6.73959 4.07761 6.90651 3.84392C7.07344 3.61023 7.3739 3.37653 7.84128 3.14284C9.00975 2.54192 10.4119 2.04115 12.0478 1.64053C13.6836 1.20653 15.4196 1.00622 17.2558 1.00622C21.2285 1.00622 24.133 1.90761 26.0025 3.71038C27.8387 5.51315 28.7735 8.2507 28.7735 11.923V22.7396H28.8402ZM15.2861 27.8141C16.3878 27.8141 17.5228 27.6138 18.7247 27.2132C19.9265 26.8126 20.9948 26.0781 21.8962 25.0766C22.4304 24.4423 22.831 23.7412 23.0313 22.94C23.2316 22.1387 23.3652 21.1706 23.3652 20.0355V18.6333C22.397 18.3996 21.3621 18.1993 20.2938 18.0658C19.2255 17.9323 18.1905 17.8655 17.1556 17.8655C14.9188 17.8655 13.283 18.2995 12.1813 19.2009C11.0796 20.1023 10.5454 21.3709 10.5454 23.0401C10.5454 24.6092 10.9461 25.7777 11.7807 26.5789C12.5819 27.4135 13.7504 27.8141 15.2861 27.8141ZM42.094 31.4197C41.493 31.4197 41.0924 31.3195 40.8253 31.0858C40.5583 30.8855 40.3246 30.4181 40.1243 29.7838L32.2789 3.97746C32.0786 3.30977 31.9784 2.87576 31.9784 2.64207C31.9784 2.10792 32.2455 1.80745 32.7796 1.80745H36.0513C36.6856 1.80745 37.1196 1.90761 37.3533 2.1413C37.6204 2.34161 37.8207 2.80899 38.021 3.4433L43.6297 25.544L48.8377 3.4433C49.0046 2.77561 49.2049 2.34161 49.472 2.1413C49.7391 1.94099 50.2064 1.80745 50.8074 1.80745H53.4781C54.1124 1.80745 54.5464 1.90761 54.8135 2.1413C55.0806 2.34161 55.3143 2.80899 55.4478 3.4433L60.7226 25.811L66.4982 3.4433C66.6985 2.77561 66.9322 2.34161 67.1659 2.1413C67.4329 1.94099 67.8669 1.80745 68.4679 1.80745H71.5726C72.1068 1.80745 72.4072 2.07453 72.4072 2.64207C72.4072 2.80899 72.3739 2.97592 72.3405 3.17623C72.3071 3.37653 72.2403 3.64361 72.1068 4.01084L64.0611 29.8172C63.8608 30.4849 63.6271 30.9189 63.36 31.1192C63.0929 31.3195 62.6589 31.453 62.0914 31.453H59.2203C58.586 31.453 58.152 31.3529 57.8849 31.1192C57.6178 30.8855 57.3841 30.4515 57.2506 29.7838L52.076 8.2507L46.9347 29.7504C46.7678 30.4181 46.5675 30.8521 46.3004 31.0858C46.0334 31.3195 45.566 31.4197 44.965 31.4197H42.094ZM84.9933 32.321C83.2573 32.321 81.5213 32.1207 79.852 31.7201C78.1828 31.3195 76.8808 30.8855 76.0128 30.3847C75.4786 30.0843 75.1114 29.7504 74.9779 29.45C74.8443 29.1495 74.7776 28.8157 74.7776 28.5152V26.8126C74.7776 26.1115 75.0446 25.7777 75.5454 25.7777C75.7457 25.7777 75.946 25.811 76.1463 25.8778C76.3466 25.9446 76.6471 26.0781 76.9809 26.2117C78.116 26.7124 79.3513 27.113 80.6533 27.3801C81.9886 27.6472 83.2907 27.7807 84.626 27.7807C86.7293 27.7807 88.3651 27.4135 89.5002 26.679C90.6353 25.9446 91.2362 24.8763 91.2362 23.5075C91.2362 22.5727 90.9357 21.8049 90.3348 21.1706C89.7339 20.5363 88.5988 19.9687 86.963 19.4346L82.1222 17.9323C79.6851 17.1644 77.8823 16.0293 76.7806 14.527C75.6789 13.0581 75.1114 11.4222 75.1114 9.68624C75.1114 8.28408 75.4119 7.04885 76.0128 5.98054C76.6137 4.91223 77.4149 3.97746 78.4165 3.243C79.418 2.47515 80.5531 1.90761 81.8885 1.50699C83.2239 1.10638 84.626 0.939453 86.095 0.939453C86.8294 0.939453 87.5973 0.972838 88.3317 1.07299C89.0996 1.17315 89.8007 1.30668 90.5017 1.44022C91.1694 1.60715 91.8037 1.77407 92.4047 1.97438C93.0056 2.17469 93.473 2.37499 93.8068 2.5753C94.2742 2.84238 94.6081 3.10946 94.8084 3.40992C95.0087 3.677 95.1088 4.04423 95.1088 4.51161V6.08069C95.1088 6.78177 94.8417 7.149 94.341 7.149C94.0739 7.149 93.6399 7.01546 93.0724 6.74839C91.1694 5.88038 89.0328 5.44638 86.6625 5.44638C84.7596 5.44638 83.2573 5.74685 82.2223 6.38115C81.1874 7.01546 80.6533 7.98362 80.6533 9.35239C80.6533 10.2872 80.9871 11.0884 81.6548 11.7227C82.3225 12.357 83.5577 12.9913 85.3271 13.5589L90.0677 15.0612C92.4714 15.829 94.2074 16.8973 95.2424 18.2661C96.2773 19.6349 96.7781 21.204 96.7781 22.94C96.7781 24.3755 96.4776 25.6775 95.9101 26.8126C95.3091 27.9477 94.5079 28.9492 93.473 29.7504C92.438 30.585 91.2028 31.186 89.7673 31.62C88.265 32.0874 86.6959 32.321 84.9933 32.321Z" fill="white"/>
<path d="M91.301 48.5459C80.3174 56.6584 64.3596 60.965 50.6385 60.965C31.4089 60.965 14.0823 53.8541 0.995471 42.0359C-0.039454 41.1012 0.895317 39.8325 2.13055 40.567C16.2857 48.7796 33.7458 53.754 51.8069 53.754C63.9923 53.754 77.3796 51.2167 89.6985 46.0087C91.5347 45.1741 93.1038 47.2106 91.301 48.5459Z" fill="white"/>
<path d="M95.8761 43.3382C94.474 41.5355 86.5952 42.4702 83.023 42.9042C81.9547 43.0378 81.7878 42.103 82.756 41.4019C89.0323 36.9951 99.3481 38.2638 100.55 39.7327C101.752 41.235 100.216 51.5509 94.3404 56.4918C93.4391 57.2596 92.571 56.859 92.9717 55.8575C94.3071 52.5524 97.2783 45.1076 95.8761 43.3382Z" fill="white"/>
</svg>
