<svg width="181" height="181" viewBox="0 0 181 181" fill="none" xmlns="http://www.w3.org/2000/svg">
<circle cx="90.5" cy="90.5" r="90.5" fill="#071A32"/>
<path d="M114.963 82.0708H97.9291V99.1042H114.963V82.0708Z" fill="url(#paint0_linear_2741_42)"/>
<path d="M132 99.104H114.967V116.137H132V99.104Z" fill="url(#paint1_linear_2741_42)"/>
<path d="M65.0334 116.142V99.1042V82.0708V65.0334H97.9292H114.967V48H97.9292H65.0334H48V65.0334V82.0708V99.1042V116.142V133.175H65.0334H97.9292H114.967V116.142H97.9292H65.0334Z" fill="url(#paint2_linear_2741_42)"/>
<path d="M132 65.0337H114.967V82.0671H132V65.0337Z" fill="url(#paint3_linear_2741_42)"/>
<defs>
<linearGradient id="paint0_linear_2741_42" x1="100.619" y1="82.0708" x2="113.291" y2="85.2593" gradientUnits="userSpaceOnUse">
<stop stop-color="#0056FB"/>
<stop offset="1" stop-color="#00F981"/>
</linearGradient>
<linearGradient id="paint1_linear_2741_42" x1="117.656" y1="99.104" x2="130.329" y2="102.292" gradientUnits="userSpaceOnUse">
<stop stop-color="#0056FB"/>
<stop offset="1" stop-color="#00F981"/>
</linearGradient>
<linearGradient id="paint2_linear_2741_42" x1="58.5737" y1="48" x2="109.555" y2="58.0849" gradientUnits="userSpaceOnUse">
<stop stop-color="#0056FB"/>
<stop offset="1" stop-color="#00F981"/>
</linearGradient>
<linearGradient id="paint3_linear_2741_42" x1="117.656" y1="65.0337" x2="130.329" y2="68.2222" gradientUnits="userSpaceOnUse">
<stop stop-color="#0056FB"/>
<stop offset="1" stop-color="#00F981"/>
</linearGradient>
</defs>
</svg>
