<svg width="134" height="57" viewBox="0 0 134 57" fill="none" xmlns="http://www.w3.org/2000/svg">
<mask id="path-1-inside-1_278_6595" fill="white">
<path fill-rule="evenodd" clip-rule="evenodd" d="M64.9019 1.5C66.0566 -0.500002 68.9434 -0.499998 70.0981 1.5L71.5415 4H122C128.627 4 134 9.37258 134 16V40C134 46.6274 128.627 52 122 52H72.1188L70.0981 55.5C68.9434 57.5 66.0566 57.5 64.9019 55.5L62.8812 52H12C5.37258 52 0 46.6274 0 40V16C0 9.37258 5.37258 4 12 4H63.4585L64.9019 1.5Z"/>
</mask>
<path fill-rule="evenodd" clip-rule="evenodd" d="M64.9019 1.5C66.0566 -0.500002 68.9434 -0.499998 70.0981 1.5L71.5415 4H122C128.627 4 134 9.37258 134 16V40C134 46.6274 128.627 52 122 52H72.1188L70.0981 55.5C68.9434 57.5 66.0566 57.5 64.9019 55.5L62.8812 52H12C5.37258 52 0 46.6274 0 40V16C0 9.37258 5.37258 4 12 4H63.4585L64.9019 1.5Z" fill="#0A0A0A"/>
<path d="M70.0981 1.5L70.9641 1L70.9641 1L70.0981 1.5ZM64.9019 1.5L64.0359 0.999998L64.0359 0.999998L64.9019 1.5ZM71.5415 4L70.6754 4.5L70.9641 5H71.5415V4ZM72.1188 52V51H71.5414L71.2528 51.5L72.1188 52ZM70.0981 55.5L70.9641 56L70.9641 56L70.0981 55.5ZM64.9019 55.5L64.0359 56L64.0359 56L64.9019 55.5ZM62.8812 52L63.7472 51.5L63.4585 51H62.8812V52ZM63.4585 4V5H64.0359L64.3246 4.5L63.4585 4ZM70.9641 1C69.4245 -1.66666 65.5755 -1.66667 64.0359 0.999998L65.7679 2C66.5377 0.666667 68.4622 0.666666 69.2321 2L70.9641 1ZM72.4075 3.5L70.9641 1L69.2321 2L70.6754 4.5L72.4075 3.5ZM122 3H71.5415V5H122V3ZM135 16C135 8.8203 129.18 3 122 3V5C128.075 5 133 9.92487 133 16H135ZM135 40V16H133V40H135ZM122 53C129.18 53 135 47.1797 135 40H133C133 46.0751 128.075 51 122 51V53ZM72.1188 53H122V51H72.1188V53ZM70.9641 56L72.9848 52.5L71.2528 51.5L69.232 55L70.9641 56ZM64.0359 56C65.5755 58.6667 69.4245 58.6667 70.9641 56L69.2321 55C68.4622 56.3333 66.5377 56.3333 65.7679 55L64.0359 56ZM62.0152 52.5L64.0359 56L65.7679 55L63.7472 51.5L62.0152 52.5ZM12 53H62.8812V51H12V53ZM-1 40C-1 47.1797 4.8203 53 12 53V51C5.92487 51 1 46.0751 1 40H-1ZM-1 16V40H1V16H-1ZM12 3C4.8203 3 -1 8.8203 -1 16H1C1 9.92487 5.92487 5 12 5V3ZM63.4585 3H12V5H63.4585V3ZM64.0359 0.999998L62.5925 3.5L64.3246 4.5L65.7679 2L64.0359 0.999998Z" fill="white" mask="url(#path-1-inside-1_278_6595)"/>
<path d="M53.0902 28.76C54.0075 28.92 54.7115 29.2187 55.2022 29.656C55.7035 30.0827 55.9542 30.632 55.9542 31.304V32.344C55.9542 32.888 55.8049 33.3733 55.5062 33.8C55.2182 34.216 54.8022 34.5413 54.2582 34.776C53.7249 35.0107 53.1115 35.128 52.4182 35.128V36.68H50.5782V35.128H50.5302C49.4209 35.128 48.5462 34.808 47.9062 34.168C47.2662 33.528 46.9462 32.6533 46.9462 31.544H48.7862C48.7862 32.1413 48.9409 32.616 49.2502 32.968C49.5702 33.3093 50.0075 33.48 50.5622 33.48H52.3382C52.8609 33.48 53.2822 33.368 53.6022 33.144C53.9222 32.9093 54.0822 32.6053 54.0822 32.232V31.528C54.0822 31.24 53.9702 31 53.7462 30.808C53.5222 30.616 53.2022 30.4827 52.7862 30.408L49.8742 29.912C48.9675 29.7627 48.2689 29.464 47.7782 29.016C47.2982 28.568 47.0582 27.9973 47.0582 27.304V26.424C47.0582 25.88 47.2022 25.4 47.4902 24.984C47.7889 24.568 48.2049 24.248 48.7382 24.024C49.2715 23.7893 49.8849 23.672 50.5782 23.672V22.12H52.4182V23.672C53.0689 23.672 53.6449 23.8107 54.1462 24.088C54.6582 24.3547 55.0529 24.7387 55.3302 25.24C55.6075 25.7413 55.7462 26.3173 55.7462 26.968H53.9222C53.9222 26.4773 53.7782 26.0827 53.4902 25.784C53.2129 25.4747 52.8502 25.32 52.4022 25.32H50.5942C50.0929 25.32 49.6875 25.432 49.3782 25.656C49.0795 25.8693 48.9302 26.1627 48.9302 26.536V27.112C48.9302 27.4107 49.0369 27.6613 49.2502 27.864C49.4635 28.056 49.7729 28.184 50.1782 28.248L53.0902 28.76ZM59.0499 35C58.6446 35 58.3139 34.8773 58.0579 34.632C57.8019 34.376 57.6739 34.0507 57.6739 33.656V23.8H62.9699C63.9619 23.8 64.7566 24.04 65.3539 24.52C65.9619 24.9893 66.2659 25.6133 66.2659 26.392V27.208C66.2659 27.5813 66.1753 27.9333 65.9939 28.264C65.8126 28.5947 65.5619 28.8613 65.2419 29.064V29.08C65.7646 29.2507 66.1806 29.5387 66.4899 29.944C66.8099 30.3493 66.9699 30.808 66.9699 31.32V32.12C66.9699 33.0053 66.6659 33.7093 66.0579 34.232C65.4499 34.744 64.6286 35 63.5939 35H59.0499ZM63.0659 28.584C63.4606 28.584 63.7806 28.456 64.0259 28.2C64.2713 27.944 64.3939 27.6133 64.3939 27.208V26.552C64.3939 26.2107 64.2553 25.9387 63.9779 25.736C63.7113 25.5333 63.3539 25.432 62.9059 25.432H59.5459V28.584H63.0659ZM63.4339 33.368C63.9566 33.368 64.3619 33.2507 64.6499 33.016C64.9486 32.7813 65.0979 32.456 65.0979 32.04V31.32C65.0979 30.9573 64.9699 30.6693 64.7139 30.456C64.4579 30.232 64.1166 30.12 63.6899 30.12H59.5459V33.368H63.4339ZM69.9406 35C69.5139 35 69.1779 34.8773 68.9326 34.632C68.6872 34.3867 68.5646 34.0613 68.5646 33.656V23.8H70.4366V33.368H76.5166V35H69.9406ZM81.1988 35.128C80.4521 35.128 79.7908 34.968 79.2148 34.648C78.6388 34.3173 78.1908 33.8587 77.8708 33.272C77.5615 32.6747 77.4068 31.9867 77.4068 31.208V23.8H79.2788V31.176C79.2788 31.8693 79.4548 32.4293 79.8068 32.856C80.1588 33.272 80.6228 33.48 81.1988 33.48H82.9108C83.4975 33.48 83.9668 33.272 84.3188 32.856C84.6815 32.4293 84.8628 31.8693 84.8628 31.176V23.8H86.7348V31.208C86.7348 31.9867 86.5748 32.6747 86.2548 33.272C85.9348 33.8587 85.4868 34.3173 84.9108 34.648C84.3348 34.968 83.6681 35.128 82.9108 35.128H81.1988Z" fill="#00F981"/>
</svg>
