<svg width="90" height="91" viewBox="0 0 90 91" fill="none" xmlns="http://www.w3.org/2000/svg">
<rect y="0.959961" width="90" height="90" rx="45" fill="url(#paint0_linear_278_3846)"/>
<path d="M52.7138 56.3441C52.6213 56.3127 52.5235 56.2998 52.426 56.3063C52.3285 56.3128 52.2332 56.3385 52.1457 56.382C52.0582 56.4254 51.9801 56.4857 51.9159 56.5594C51.8517 56.6331 51.8028 56.7187 51.7718 56.8114C51.7199 56.9746 51.6605 57.1378 51.5938 57.2935C51.5172 57.4745 51.5156 57.6785 51.5893 57.8607C51.663 58.0429 51.806 58.1884 51.9869 58.2652C52.0778 58.3061 52.1766 58.3264 52.2762 58.3246C52.4218 58.3245 52.5641 58.2815 52.6855 58.201C52.8068 58.1206 52.9018 58.0062 52.9586 57.8721C53.0402 57.6718 53.1144 57.479 53.1811 57.2861C53.2125 57.1936 53.2254 57.0958 53.2189 56.9983C53.2124 56.9008 53.1867 56.8055 53.1433 56.718C53.0998 56.6304 53.0395 56.5523 52.9658 56.4882C52.8921 56.424 52.8065 56.375 52.7138 56.3441Z" fill="white"/>
<path d="M54.6448 44.4758C54.6478 43.1914 54.3926 41.9196 53.8944 40.7358C53.3962 39.552 52.6651 38.4805 51.7446 37.5848C51.6744 37.5166 51.5916 37.4629 51.5007 37.4268C51.4098 37.3906 51.3127 37.3727 51.2148 37.3741C51.117 37.3755 51.0205 37.3961 50.9306 37.4348C50.8408 37.4735 50.7595 37.5295 50.6913 37.5997C50.6231 37.6698 50.5694 37.7527 50.5332 37.8436C50.4971 37.9345 50.4792 38.0316 50.4805 38.1294C50.4819 38.2272 50.5025 38.3238 50.5412 38.4136C50.58 38.5034 50.636 38.5848 50.7061 38.653C51.4867 39.4079 52.1066 40.3129 52.5285 41.3136C52.9504 42.3142 53.1657 43.3898 53.1613 44.4758V49.0895C53.1653 50.9956 52.9158 52.8939 52.4196 54.7343C52.3938 54.8288 52.387 54.9274 52.3996 55.0246C52.4122 55.1217 52.4438 55.2154 52.4928 55.3002C52.5418 55.385 52.607 55.4593 52.6849 55.5188C52.7627 55.5782 52.8515 55.6217 52.9462 55.6466H53.1391C53.3065 55.6524 53.471 55.6012 53.6057 55.5016C53.7404 55.4019 53.8374 55.2596 53.8808 55.0977C54.3912 53.1287 54.6406 51.1012 54.6226 49.0672L54.6448 44.4758Z" fill="white"/>
<path d="M34.1914 53.8221C34.289 53.8227 34.3858 53.804 34.4761 53.7671C34.5665 53.7301 34.6487 53.6758 34.718 53.607L35.1482 53.1694C35.6848 52.6342 36.1105 51.9983 36.4007 51.2982C36.6909 50.5981 36.84 49.8476 36.8394 49.0897V44.476C36.8384 43.0965 37.1871 41.7392 37.853 40.5311C38.5189 39.3229 39.4803 38.3034 40.6472 37.5676C41.8141 36.8319 43.1486 36.4041 44.5257 36.3241C45.9029 36.2441 47.2779 36.5146 48.5221 37.1103C48.6107 37.1607 48.7087 37.1923 48.81 37.2031C48.9113 37.214 49.0137 37.2038 49.1109 37.1733C49.2081 37.1428 49.298 37.0926 49.3749 37.0259C49.4519 36.9591 49.5143 36.8773 49.5582 36.7853C49.6021 36.6934 49.6266 36.5934 49.6302 36.4916C49.6338 36.3898 49.6163 36.2884 49.579 36.1936C49.5416 36.0988 49.4852 36.0127 49.4131 35.9408C49.341 35.8688 49.2549 35.8124 49.1601 35.7751C47.69 35.0719 46.0657 34.7527 44.4388 34.8473C42.812 34.942 41.2356 35.4474 39.857 36.3163C38.4784 37.1852 37.3425 38.3894 36.5554 39.8163C35.7682 41.2432 35.3556 42.8464 35.3559 44.476V49.0897C35.3572 49.6537 35.2463 50.2123 35.0298 50.7331C34.8134 51.2539 34.4956 51.7265 34.0949 52.1235L33.6647 52.5537C33.5952 52.6227 33.54 52.7047 33.5024 52.7951C33.4647 52.8855 33.4453 52.9824 33.4453 53.0804C33.4453 53.1783 33.4647 53.2752 33.5024 53.3656C33.54 53.456 33.5952 53.5381 33.6647 53.607C33.734 53.6758 33.8162 53.7301 33.9066 53.7671C33.997 53.804 34.0938 53.8227 34.1914 53.8221Z" fill="white"/>
<path d="M51.6772 46.7007C51.6772 46.504 51.599 46.3153 51.4599 46.1762C51.3208 46.0371 51.1321 45.959 50.9354 45.959C50.7387 45.959 50.55 46.0371 50.4109 46.1762C50.2718 46.3153 50.1937 46.504 50.1937 46.7007V49.0892C50.2017 52.7099 49.1721 56.257 47.2266 59.3106C47.1207 59.476 47.0846 59.6766 47.1263 59.8684C47.168 60.0603 47.2841 60.2278 47.4492 60.3343C47.5685 60.4114 47.7076 60.4526 47.8497 60.4529C47.9738 60.4527 48.0959 60.4214 48.2047 60.3618C48.3136 60.3022 48.4058 60.2162 48.4728 60.1117C50.5736 56.8199 51.6858 52.9943 51.6772 49.0892V46.7007Z" fill="white"/>
<path d="M39.0674 47.4423C39.2641 47.4423 39.4528 47.3641 39.5919 47.225C39.731 47.0859 39.8092 46.8973 39.8092 46.7005V44.4753C39.7236 43.0982 40.1886 41.7435 41.1018 40.7092C42.015 39.675 43.3017 39.0459 44.6788 38.9603C46.0559 38.8747 47.4106 39.3397 48.4448 40.2529C49.4791 41.1662 50.1082 42.4528 50.1938 43.8299C50.2194 44.0267 50.322 44.2052 50.4792 44.3262C50.6364 44.4472 50.8352 44.5008 51.032 44.4753C51.2287 44.4497 51.4072 44.347 51.5282 44.1898C51.6493 44.0326 51.7029 43.8338 51.6773 43.6371C51.5662 41.8665 50.7562 40.2127 49.4257 39.0393C48.0951 37.8659 46.3529 37.2692 44.5824 37.3803C42.8118 37.4915 41.158 38.3014 39.9846 39.632C38.8112 40.9625 38.2145 42.7047 38.3257 44.4753V46.7005C38.3257 46.8973 38.4038 47.0859 38.5429 47.225C38.682 47.3641 38.8707 47.4423 39.0674 47.4423Z" fill="white"/>
<path d="M39.0646 48.9267C38.9672 48.9197 38.8693 48.9319 38.7766 48.9628C38.6839 48.9937 38.5982 49.0426 38.5244 49.1067C38.4507 49.1708 38.3903 49.2489 38.3468 49.3364C38.3033 49.4239 38.2775 49.5191 38.271 49.6166C38.1457 51.3554 37.3978 52.9908 36.1644 54.2229L35.2668 55.1575C35.1897 55.2246 35.1272 55.3068 35.0834 55.3992C35.0396 55.4915 35.0153 55.5919 35.0121 55.6941C35.0089 55.7962 35.0268 55.8979 35.0648 55.9928C35.1028 56.0877 35.1599 56.1738 35.2327 56.2455C35.3055 56.3173 35.3923 56.3732 35.4877 56.4098C35.5832 56.4465 35.6851 56.463 35.7872 56.4583C35.8893 56.4537 35.9894 56.4279 36.0811 56.3828C36.1728 56.3377 36.2542 56.2741 36.3201 56.196L37.2473 55.2688C38.7408 53.7879 39.6495 51.8177 39.8064 49.7204C39.8135 49.6187 39.7996 49.5167 39.7656 49.4206C39.7315 49.3245 39.678 49.2365 39.6084 49.162C39.5388 49.0875 39.4546 49.0282 39.361 48.9877C39.2675 48.9473 39.1666 48.9265 39.0646 48.9267Z" fill="white"/>
<path d="M47.7509 51.8939C47.6555 51.8744 47.5571 51.8739 47.4614 51.8924C47.3658 51.911 47.2747 51.9481 47.1934 52.0019C47.1122 52.0556 47.0423 52.1248 46.9877 52.2056C46.9332 52.2863 46.8951 52.377 46.8757 52.4725C46.3254 55.0871 45.1295 57.5224 43.3968 59.5563C43.2689 59.7058 43.2057 59.9 43.221 60.0961C43.2363 60.2923 43.3289 60.4743 43.4784 60.6022C43.6279 60.73 43.8221 60.7933 44.0182 60.778C44.2144 60.7627 44.3964 60.6701 44.5243 60.5206C46.4176 58.2963 47.7256 55.6345 48.3295 52.7766C48.3501 52.6806 48.3514 52.5815 48.3334 52.485C48.3154 52.3885 48.2784 52.2965 48.2246 52.2144C48.1708 52.1323 48.1012 52.0617 48.0199 52.0067C47.9386 51.9517 47.8472 51.9133 47.7509 51.8939Z" fill="white"/>
<path d="M42.7754 44.4764C42.7754 43.8862 43.0099 43.3202 43.4272 42.9029C43.8445 42.4855 44.4105 42.2511 45.0007 42.2511C45.5909 42.2511 46.1569 42.4855 46.5742 42.9029C46.9915 43.3202 47.226 43.8862 47.226 44.4764V49.0901V49.6093C47.2102 49.8061 47.2733 50.001 47.4013 50.1512C47.5293 50.3015 47.7117 50.3947 47.9084 50.4104C48.1051 50.4262 48.3 50.3631 48.4503 50.2351C48.6005 50.1072 48.6938 49.9247 48.7095 49.728C48.7095 49.5129 48.7095 49.3052 48.7095 49.0901V44.4764C48.7095 43.4927 48.3187 42.5494 47.6232 41.8539C46.9277 41.1583 45.9843 40.7676 45.0007 40.7676C44.0171 40.7676 43.0737 41.1583 42.3782 41.8539C41.6827 42.5494 41.2919 43.4927 41.2919 44.4764V49.0901C41.3043 50.4358 41.0483 51.7704 40.5388 53.016C40.0294 54.2616 39.2767 55.3932 38.3249 56.3445C38.2554 56.4135 38.2002 56.4955 38.1625 56.5859C38.1249 56.6763 38.1055 56.7732 38.1055 56.8711C38.1055 56.9691 38.1249 57.066 38.1625 57.1564C38.2002 57.2468 38.2554 57.3288 38.3249 57.3978C38.3938 57.4673 38.4759 57.5225 38.5663 57.5602C38.6567 57.5978 38.7536 57.6172 38.8515 57.6172C38.9494 57.6172 39.0464 57.5978 39.1368 57.5602C39.2272 57.5225 39.3092 57.4673 39.3782 57.3978C40.4662 56.3069 41.3267 55.0107 41.9099 53.5846C42.4931 52.1585 42.7873 50.6308 42.7754 49.0901V44.4764Z" fill="white"/>
<path d="M41.0331 57.731C40.8328 57.9683 40.6177 58.1909 40.3952 58.4134C40.3257 58.4823 40.2705 58.5644 40.2328 58.6548C40.1952 58.7452 40.1758 58.8421 40.1758 58.94C40.1758 59.0379 40.1952 59.1349 40.2328 59.2253C40.2705 59.3157 40.3257 59.3977 40.3952 59.4667C40.4641 59.5362 40.5462 59.5914 40.6366 59.629C40.727 59.6667 40.8239 59.6861 40.9218 59.6861C41.0198 59.6861 41.1167 59.6667 41.2071 59.629C41.2975 59.5914 41.3795 59.5362 41.4485 59.4667C41.7007 59.2145 41.9306 58.9623 42.1902 58.7249C42.3181 58.5754 42.3814 58.3812 42.3661 58.1851C42.3508 57.9889 42.2582 57.8069 42.1087 57.679C41.9591 57.5512 41.765 57.4879 41.5688 57.5032C41.3727 57.5185 41.1906 57.6111 41.0628 57.7606L41.0331 57.731Z" fill="white"/>
<path d="M43.518 56.8561C44.9749 54.5279 45.7461 51.8363 45.7433 49.0899V44.4761C45.7433 44.2794 45.6652 44.0907 45.5261 43.9516C45.387 43.8125 45.1983 43.7344 45.0016 43.7344C44.8048 43.7344 44.6162 43.8125 44.4771 43.9516C44.338 44.0907 44.2598 44.2794 44.2598 44.4761V49.0899C44.2633 51.5588 43.5691 53.9784 42.2571 56.0698C42.1528 56.237 42.1192 56.4388 42.1637 56.6308C42.2083 56.8228 42.3272 56.9892 42.4944 57.0934C42.6616 57.1977 42.8634 57.2313 43.0554 57.1868C43.2474 57.1422 43.4138 57.0233 43.518 56.8561Z" fill="white"/>
<path d="M35.0545 37.9488C35.1327 38.0084 35.2219 38.0518 35.317 38.0767C35.4121 38.1015 35.5112 38.1072 35.6085 38.0934C35.7058 38.0796 35.7994 38.0465 35.8838 37.9963C35.9683 37.946 36.0419 37.8794 36.1004 37.8004C37.5015 35.9322 39.455 34.5523 41.684 33.856C43.913 33.1597 46.3046 33.1824 48.52 33.9208C50.7354 34.6593 52.6622 36.0761 54.0277 37.9705C55.3931 39.865 56.1279 42.141 56.1279 44.4762V48.185C56.1279 48.3818 56.206 48.5704 56.3451 48.7095C56.4842 48.8486 56.6729 48.9268 56.8696 48.9268C57.0664 48.9268 57.255 48.8486 57.3941 48.7095C57.5332 48.5704 57.6114 48.3818 57.6114 48.185V44.4762C57.6135 41.8277 56.7816 39.2458 55.2337 37.0967C53.6858 34.9476 51.5006 33.3404 48.9879 32.5032C46.4753 31.6659 43.7627 31.641 41.2351 32.4321C38.7075 33.2231 36.4932 34.7899 34.9062 36.9103C34.7881 37.0677 34.7374 37.2655 34.7653 37.4603C34.7931 37.655 34.8971 37.8307 35.0545 37.9488Z" fill="white"/>
<path d="M33.8742 44.4757C33.8747 43.0045 34.1646 41.5477 34.7272 40.1883C34.7809 40.0119 34.767 39.8218 34.6882 39.6551C34.6093 39.4884 34.4712 39.357 34.3008 39.2866C34.1303 39.2162 33.9398 39.2119 33.7663 39.2743C33.5928 39.3368 33.4488 39.4617 33.3623 39.6246C32.7186 41.1608 32.3883 42.8101 32.3906 44.4757V48.1845C32.3906 48.3812 32.4688 48.5699 32.6079 48.709C32.747 48.8481 32.9357 48.9262 33.1324 48.9262C33.3291 48.9262 33.5178 48.8481 33.6569 48.709C33.796 48.5699 33.8742 48.3812 33.8742 48.1845V44.4757Z" fill="white"/>
<path d="M26.4566 36.3167C26.6533 36.3167 26.842 36.2385 26.9811 36.0994C27.1202 35.9603 27.1984 35.7717 27.1984 35.5749V28.1573H34.6159C34.8127 28.1573 35.0013 28.0792 35.1404 27.9401C35.2796 27.801 35.3577 27.6123 35.3577 27.4156C35.3577 27.2189 35.2796 27.0302 35.1404 26.8911C35.0013 26.752 34.8127 26.6738 34.6159 26.6738H26.4566C26.2599 26.6738 26.0712 26.752 25.9321 26.8911C25.793 27.0302 25.7148 27.2189 25.7148 27.4156V35.5749C25.7148 35.7717 25.793 35.9603 25.9321 36.0994C26.0712 36.2385 26.2599 36.3167 26.4566 36.3167Z" fill="white"/>
<path d="M63.5456 26.6738H55.3863C55.1896 26.6738 55.0009 26.752 54.8618 26.8911C54.7227 27.0302 54.6445 27.2189 54.6445 27.4156C54.6445 27.6123 54.7227 27.801 54.8618 27.9401C55.0009 28.0792 55.1896 28.1573 55.3863 28.1573H62.8039V35.5749C62.8039 35.7717 62.882 35.9603 63.0211 36.0994C63.1602 36.2385 63.3489 36.3167 63.5456 36.3167C63.7424 36.3167 63.931 36.2385 64.0701 36.0994C64.2092 35.9603 64.2874 35.7717 64.2874 35.5749V27.4156C64.2874 27.2189 64.2092 27.0302 64.0701 26.8911C63.931 26.752 63.7424 26.6738 63.5456 26.6738Z" fill="white"/>
<path d="M63.5456 55.6025C63.3489 55.6025 63.1602 55.6807 63.0211 55.8198C62.882 55.9589 62.8039 56.1476 62.8039 56.3443V63.7619H55.3863C55.1896 63.7619 55.0009 63.84 54.8618 63.9791C54.7227 64.1182 54.6445 64.3069 54.6445 64.5036C54.6445 64.7004 54.7227 64.889 54.8618 65.0281C55.0009 65.1672 55.1896 65.2454 55.3863 65.2454H63.5456C63.7424 65.2454 63.931 65.1672 64.0701 65.0281C64.2092 64.889 64.2874 64.7004 64.2874 64.5036V56.3443C64.2874 56.1476 64.2092 55.9589 64.0701 55.8198C63.931 55.6807 63.7424 55.6025 63.5456 55.6025Z" fill="white"/>
<path d="M34.6159 63.7619H27.1984V56.3443C27.1984 56.1476 27.1202 55.9589 26.9811 55.8198C26.842 55.6807 26.6533 55.6025 26.4566 55.6025C26.2599 55.6025 26.0712 55.6807 25.9321 55.8198C25.793 55.9589 25.7148 56.1476 25.7148 56.3443V64.5036C25.7148 64.7004 25.793 64.889 25.9321 65.0281C26.0712 65.1672 26.2599 65.2454 26.4566 65.2454H34.6159C34.8127 65.2454 35.0013 65.1672 35.1404 65.0281C35.2796 64.889 35.3577 64.7004 35.3577 64.5036C35.3577 64.3069 35.2796 64.1182 35.1404 63.9791C35.0013 63.84 34.8127 63.7619 34.6159 63.7619Z" fill="white"/>
<defs>
<linearGradient id="paint0_linear_278_3846" x1="45" y1="0.959961" x2="45" y2="90.96" gradientUnits="userSpaceOnUse">
<stop stop-color="#00F981"/>
<stop offset="1" stop-color="#0056FB"/>
</linearGradient>
</defs>
</svg>
