<svg width="198" height="35" viewBox="0 0 198 35" fill="none" xmlns="http://www.w3.org/2000/svg">
<path d="M24.3297 26.1097C24.3297 28.4488 23.5677 30.3537 21.9906 31.7979C20.4224 33.2421 18.4643 33.9597 16.0455 33.9597H0V4.36719H14.7343C17.153 4.36719 19.1554 5.04941 20.7236 6.4493C22.2919 7.84918 23.0627 9.71866 23.0627 11.9691C23.0627 15.0258 21.4059 17.4446 18.7301 18.6319C22.1235 19.6065 24.3297 22.3708 24.3297 26.1097ZM13.2103 10.6047H7.22094V16.2485H13.2103C14.8672 16.2485 16.0544 14.9727 16.0544 13.4044C16.0544 11.7565 14.8583 10.6047 13.2103 10.6047ZM14.0963 27.7223C15.7532 27.7223 16.9847 26.535 16.9847 24.8339C16.9847 23.1328 15.7532 21.9455 14.0963 21.9455H7.22094V27.7223H14.0963Z" fill="white"/>
<path d="M26.5186 4.36719H33.2611V33.9597H26.5098V4.36719H26.5186Z" fill="white"/>
<path d="M57.1022 12.8555V25.2152C57.1022 27.891 56.1719 30.0971 54.2581 31.7982C52.3443 33.5348 49.8812 34.3854 46.8688 34.3854C43.8564 34.3854 41.349 33.5348 39.4353 31.7982C37.5215 30.0971 36.5469 27.891 36.5469 25.2152V12.8555H43.2982V25.2152C43.2982 27.3771 44.7424 28.8213 46.8245 28.8213C48.9066 28.8213 50.3065 27.3771 50.3065 25.2152V12.8555H57.1022Z" fill="white"/>
<path d="M82.3195 24.8348H66.5664C67.0359 27.5548 68.6485 29.256 70.9786 29.256C72.8481 29.256 74.372 28.2371 75.0543 26.5359H81.974C81.336 28.8307 80.0248 30.7001 77.9426 32.1798C75.8605 33.6683 73.5215 34.3859 70.89 34.3859C67.5321 34.3859 64.8209 33.367 62.6502 31.2849C60.4884 29.2028 59.3809 26.5714 59.3809 23.3818C59.3809 20.201 60.4884 17.605 62.6502 15.5229C64.8121 13.4408 67.5321 12.4219 70.89 12.4219C74.248 12.4219 76.9592 13.4408 79.1299 15.5229C81.2917 17.605 82.3549 20.2807 82.3549 23.5058C82.3638 23.9842 82.3638 24.4095 82.3195 24.8348ZM66.8587 20.8389H75.3467C74.7973 18.8011 73.1405 17.5696 71.1027 17.5696C69.0294 17.5696 67.5852 18.6771 66.8587 20.8389Z" fill="white"/>
<path d="M103.529 4.36719H110.75V33.9597H101.625L92.1975 14.255V33.9597H84.9766V4.36719H94.1467L103.529 24.0719V4.36719Z" fill="white"/>
<path d="M165.983 4.36719H172.779V33.9597H165.983V31.16C164.246 33.3218 161.996 34.385 159.232 34.385C156.556 34.385 154.306 33.3661 152.569 31.284C150.832 29.2019 149.938 26.5705 149.938 23.3808C149.938 20.2001 150.832 17.6041 152.569 15.522C154.306 13.4399 156.565 12.421 159.232 12.421C161.996 12.421 164.238 13.4842 165.983 15.646V4.36719ZM161.438 28.4842C162.758 28.4842 163.857 28.0146 164.707 27.04C165.558 26.0654 165.983 24.8782 165.983 23.3897C165.983 21.9012 165.558 20.714 164.707 19.7394C163.857 18.8002 162.758 18.3395 161.438 18.3395C160.127 18.3395 159.019 18.8091 158.168 19.7394C157.274 20.714 156.857 21.9012 156.857 23.3897C156.857 24.8782 157.282 26.0654 158.168 27.04C159.019 28.0146 160.118 28.4842 161.438 28.4842Z" fill="white"/>
<path d="M197.96 24.8348H182.207C182.677 27.5548 184.289 29.256 186.619 29.256C188.489 29.256 190.013 28.2371 190.695 26.5359H197.615C196.977 28.8307 195.665 30.7001 193.583 32.1798C191.501 33.6683 189.162 34.3859 186.531 34.3859C183.173 34.3859 180.462 33.367 178.291 31.2849C176.129 29.2028 175.021 26.5714 175.021 23.3818C175.021 20.201 176.129 17.605 178.291 15.5229C180.453 13.4408 183.173 12.4219 186.531 12.4219C189.889 12.4219 192.6 13.4408 194.771 15.5229C196.932 17.605 197.996 20.2807 197.996 23.5058C198.004 23.9842 198.004 24.4095 197.96 24.8348ZM182.508 20.8389H190.996C190.447 18.8011 188.79 17.5696 186.752 17.5696C184.67 17.5696 183.226 18.6771 182.508 20.8389Z" fill="white"/>
<path d="M129.4 23.4101C129.391 24.8898 128.975 26.0681 128.133 27.0428C127.282 28.0174 126.184 28.4869 124.864 28.4869C122.188 28.4869 120.283 26.4048 120.283 23.3924C120.283 21.9039 120.708 20.7167 121.594 19.7421C122.436 18.8118 123.535 18.3511 124.846 18.3422V12.4414C121.506 12.4414 118.794 13.4603 116.633 15.5424C114.471 17.6245 113.363 20.2117 113.363 23.4013C113.363 26.582 114.462 29.2223 116.633 31.3044C118.794 33.3865 121.515 34.4054 124.872 34.4054C128.23 34.4054 130.942 33.3865 133.112 31.3044C135.274 29.2312 136.329 26.5998 136.337 23.4279H129.4V23.4101Z" fill="white"/>
<path d="M128.133 19.7399C128.594 20.2715 128.904 20.874 129.117 21.5385H136.169C135.824 19.1906 134.832 17.1971 133.104 15.5402C131.358 13.8657 129.232 12.9088 126.725 12.5898V18.7299C127.247 18.9514 127.726 19.288 128.133 19.7399Z" fill="url(#paint0_linear_223_2707)"/>
<path d="M126.717 5.99023V10.9784C128.852 11.324 135.905 13.1048 137.499 21.5396H142.541C140.893 10.1633 131.634 6.42438 126.717 5.99023Z" fill="url(#paint1_linear_223_2707)"/>
<path d="M143.737 21.5299H148.787C145.775 2.07325 129.384 0.177201 126.717 0V4.96162C129.198 5.14768 141.052 6.83109 143.737 21.5299Z" fill="url(#paint2_linear_223_2707)"/>
<defs>
<linearGradient id="paint0_linear_223_2707" x1="139.109" y1="9.59135" x2="124.062" y2="24.2453" gradientUnits="userSpaceOnUse">
<stop stop-color="#00F981"/>
<stop offset="1" stop-color="#2822FF"/>
</linearGradient>
<linearGradient id="paint1_linear_223_2707" x1="139.013" y1="9.49206" x2="123.965" y2="24.146" gradientUnits="userSpaceOnUse">
<stop stop-color="#00F981"/>
<stop offset="1" stop-color="#2822FF"/>
</linearGradient>
<linearGradient id="paint2_linear_223_2707" x1="139.039" y1="9.5188" x2="123.992" y2="24.1727" gradientUnits="userSpaceOnUse">
<stop stop-color="#00F981"/>
<stop offset="1" stop-color="#2822FF"/>
</linearGradient>
</defs>
</svg>
