<svg width="42" height="43" viewBox="0 0 42 43" fill="none" xmlns="http://www.w3.org/2000/svg">
<circle cx="21" cy="21.1611" r="21" fill="url(#paint0_linear_278_4217)"/>
<g clip-path="url(#clip0_278_4217)">
<path d="M21.0004 20.0137C17.4513 20.0137 14.5742 22.8908 14.5742 26.4399C14.5742 29.989 17.4513 32.8661 21.0004 32.8661C24.5496 32.8661 27.4267 29.989 27.4267 26.4399C27.4229 22.8924 24.548 20.0175 21.0004 20.0137ZM21.0004 31.9481C17.9584 31.9481 15.4923 29.482 15.4923 26.4399C15.4923 23.3978 17.9584 20.9317 21.0004 20.9317C24.0425 20.9317 26.5086 23.3978 26.5086 26.4399C26.5054 29.4806 24.0412 31.9448 21.0004 31.9481Z" fill="white"/>
<path d="M29.6867 16.4062C29.5682 16.2518 29.3652 16.1889 29.1802 16.2493C28.9951 16.3096 28.8683 16.4801 28.8637 16.6747C28.8334 17.8952 28.2949 18.357 27.8827 18.5314C27.911 17.1622 27.7436 15.796 27.3856 14.4742C26.3117 10.2668 22.5776 7.28191 18.237 7.16113C18.0804 7.16425 17.9361 7.24701 17.8544 7.38066C17.7728 7.51431 17.7649 7.6804 17.8335 7.8212C17.8477 7.85012 19.2404 10.7589 18.7391 13.5722C18.5934 14.3237 18.262 15.0268 17.7752 15.6176C17.7753 15.0754 17.6981 14.536 17.5457 14.0156C16.9976 12.2613 16.0722 11.7026 15.9685 11.6443C15.8266 11.565 15.6532 11.5667 15.5128 11.6487C15.3724 11.7308 15.286 11.8811 15.2855 12.0437C15.2855 12.0561 15.2855 12.1791 15.2607 12.388C15.1282 13.6332 14.5219 14.7798 13.5674 15.5905C11.9295 16.8723 10.9516 18.8202 10.9023 20.8995C10.9261 22.6094 11.6057 24.2449 12.8008 25.4681C12.4088 28.6392 13.8804 31.7521 16.5797 33.4618C19.2791 35.1715 22.7223 35.1715 25.4217 33.4618C28.121 31.7521 29.5926 28.6392 29.2006 25.4681C30.3957 24.2449 31.0753 22.6094 31.0991 20.8995C31.091 19.2937 30.5988 17.7278 29.6867 16.4062ZM21.0007 33.7841C16.9446 33.7841 13.6564 30.4959 13.6564 26.4398C13.6564 22.3837 16.9446 19.0956 21.0007 19.0956C25.0568 19.0956 28.345 22.3837 28.345 26.4398C28.3402 30.494 25.0548 33.7793 21.0007 33.7841ZM21.0007 18.1775C17.2615 18.1842 13.992 20.6994 13.0267 24.3118C12.2583 23.339 11.8341 22.139 11.8204 20.8995C11.8727 19.0926 12.7304 17.4037 14.1586 16.2956C15.1446 15.4586 15.8231 14.3165 16.0865 13.0503C16.3428 13.4332 16.5399 13.8526 16.6713 14.2942C16.8592 15.0925 16.926 15.9144 16.8696 16.7325V16.8005C16.8696 16.9853 16.9804 17.1521 17.1508 17.2236C17.3212 17.2952 17.5179 17.2576 17.6499 17.1282C18.8025 15.9972 19.4359 14.9176 19.6439 13.7315C20.0464 11.4708 19.3735 9.22303 18.9553 8.1191C20.6537 8.30271 24.9326 9.30566 26.5057 14.7289C26.8745 16.1537 27.0303 17.6252 26.9679 19.0956C26.9679 19.3491 27.1734 19.5546 27.4269 19.5546C28.3904 19.5195 29.233 18.8953 29.5471 17.9838C29.951 18.9036 30.1665 19.895 30.181 20.8995C30.1673 22.139 29.7431 23.339 28.9747 24.3118C28.0094 20.6994 24.7399 18.1842 21.0007 18.1775Z" fill="white"/>
<path d="M22.3776 24.6037C22.3776 24.8572 22.5831 25.0627 22.8366 25.0627C23.0901 25.0627 23.2956 24.8572 23.2956 24.6037C23.2942 23.5135 22.5274 22.5741 21.4595 22.3545V22.3086C21.4595 22.0551 21.254 21.8496 21.0005 21.8496C20.747 21.8496 20.5415 22.0551 20.5415 22.3086V22.3545C19.4718 22.5717 18.7031 23.5122 18.7031 24.6037C18.7031 25.6952 19.4718 26.6357 20.5415 26.8529V29.5689C19.9931 29.375 19.6257 28.8575 19.6235 28.2758C19.6235 28.0223 19.4179 27.8168 19.1644 27.8168C18.9109 27.8168 18.7054 28.0223 18.7054 28.2758C18.7068 29.366 19.4736 30.3054 20.5415 30.525V30.5709C20.5415 30.8244 20.747 31.0299 21.0005 31.0299C21.254 31.0299 21.4595 30.8244 21.4595 30.5709V30.525C22.5292 30.3078 23.2979 29.3673 23.2979 28.2758C23.2979 27.1844 22.5292 26.2439 21.4595 26.0267V23.3111C22.0078 23.5049 22.3751 24.0222 22.3776 24.6037ZM19.6235 24.6037C19.6259 24.0222 19.9933 23.5049 20.5415 23.3111V25.8963C19.9933 25.7025 19.6259 25.1852 19.6235 24.6037ZM22.3776 28.2758C22.3751 28.8573 22.0078 29.3746 21.4595 29.5684V26.9832C22.0078 27.1771 22.3751 27.6944 22.3776 28.2758Z" fill="white"/>
</g>
<defs>
<linearGradient id="paint0_linear_278_4217" x1="21" y1="0.161133" x2="21" y2="42.1611" gradientUnits="userSpaceOnUse">
<stop stop-color="#00F981"/>
<stop offset="1" stop-color="#0056FB"/>
</linearGradient>
<clipPath id="clip0_278_4217">
<rect width="28" height="28" fill="white" transform="translate(7 7.16113)"/>
</clipPath>
</defs>
</svg>
