<svg width="201" height="61" viewBox="0 0 201 61" fill="none" xmlns="http://www.w3.org/2000/svg">
<path d="M31.6719 18.1564C32.8304 18.2403 37.0216 19.6085 38.1015 20.3424C37.2077 17.7213 34.1698 17.3805 31.6719 18.1564Z" fill="white"/>
<path d="M84.491 25.081C83.9801 23.0871 82.691 21.6277 80.1626 21.6277C76.4394 21.6277 74.8831 24.9107 74.8831 28.2409C74.8831 31.5711 76.4394 34.8567 80.1626 34.8567C82.8613 34.8567 84.3548 32.8392 84.588 30.3108H87.5566C87.3129 34.4689 84.3705 37.3379 80.1626 37.3379C74.9564 37.3379 71.8438 33.2034 71.8438 28.2409C71.8438 23.2784 74.9564 19.1465 80.1626 19.1465C84.0771 19.1701 87.1662 21.3343 87.5304 25.081H84.491ZM89.3566 30.6252C89.3566 26.7841 91.6675 24.0094 95.7051 24.0094C99.7427 24.0094 102.051 26.7841 102.051 30.6252C102.051 34.4663 99.7401 37.2646 95.7051 37.2646C91.6701 37.2646 89.3566 34.4925 89.3566 30.6252ZM99.2789 30.6252C99.2789 28.461 98.1837 26.1998 95.7051 26.1998C93.2265 26.1998 92.1287 28.461 92.1287 30.6252C92.1287 32.7894 93.2239 35.0794 95.7051 35.0794C98.1864 35.0794 99.2789 32.8156 99.2789 30.6252ZM104.435 19.5605H107.207V22.1806H104.435V19.5605ZM104.435 24.35H107.207V36.9266H104.435V24.35ZM110.226 24.35H112.846V26.1998L112.896 26.247C113.294 25.5628 113.865 24.9956 114.553 24.6028C115.24 24.2099 116.019 24.0052 116.81 24.0094C119.535 24.0094 121.264 25.4688 121.264 28.2907V36.937H118.495V29.0217C118.445 27.0514 117.667 26.1998 116.037 26.1998C114.19 26.1998 112.998 27.6592 112.998 29.5064V36.9239H110.226V24.35ZM139.728 36.9239H137.781L137.32 34.8829C135.691 36.7301 134.205 37.3379 132.08 37.3379C126.874 37.3379 123.761 33.2034 123.761 28.2409C123.761 23.2784 126.874 19.1465 132.08 19.1465C135.874 19.1465 139.06 21.164 139.521 25.081H136.566C136.272 22.7937 134.278 21.6277 132.091 21.6277C128.37 21.6277 126.811 24.9107 126.811 28.2409C126.811 31.5711 128.37 34.8567 132.091 34.8567C135.203 34.9065 136.906 33.0226 136.954 30.0907H132.334V27.7798H139.728V36.9239ZM144.811 31.3562C144.811 33.3265 145.88 35.0768 148.191 35.0768C149.797 35.0768 150.769 34.372 151.257 32.9807H153.877C153.269 35.7292 150.934 37.2593 148.186 37.2593C144.256 37.2593 142.034 34.5108 142.034 30.6435C142.034 27.0697 144.368 24.0042 148.113 24.0042C152.077 24.0042 154.511 27.5806 154.047 31.3405L144.811 31.3562ZM151.28 29.5221C151.183 27.7719 149.991 26.192 148.118 26.192C146.197 26.192 144.885 27.6514 144.811 29.5221H151.28ZM164.659 28.5579C164.439 27.0252 163.32 26.1998 161.776 26.1998C160.343 26.1998 158.323 26.9544 158.323 30.7719C158.323 32.868 159.248 35.0768 161.656 35.0768C163.262 35.0768 164.381 34.0078 164.648 32.2077H167.42C166.896 35.4645 164.892 37.2646 161.656 37.2646C157.726 37.2646 155.551 34.4689 155.551 30.7719C155.551 26.978 157.618 24.0094 161.753 24.0094C164.672 24.0094 167.153 25.4688 167.42 28.5579H164.659ZM169.765 19.5605H172.54V29.433L177.563 24.35H180.969L176.153 28.9719L181.433 36.9239H178.034L174.193 30.8191L172.54 32.4252V36.9239H169.765V19.5605ZM182.171 30.6252C182.171 26.7841 184.482 24.0094 188.517 24.0094C192.552 24.0094 194.855 26.7841 194.855 30.6252C194.855 34.4663 192.544 37.2646 188.507 37.2646C184.469 37.2646 182.171 34.4925 182.171 30.6252ZM192.094 30.6252C192.094 28.461 190.999 26.1998 188.517 26.1998C186.036 26.1998 184.944 28.461 184.944 30.6252C184.944 32.7894 186.039 35.0794 188.517 35.0794C190.996 35.0794 192.094 32.8156 192.094 30.6252Z" fill="white"/>
<path fill-rule="evenodd" clip-rule="evenodd" d="M52.3277 44.1519C55.042 40.0505 56.4791 35.2364 56.4574 30.3182C56.4276 23.7227 53.7791 17.4091 49.0944 12.7663C44.4098 8.1234 38.0728 5.53154 31.4772 5.56079C26.5591 5.58312 21.758 7.06331 17.6811 9.81418C13.6042 12.5651 10.4345 16.4631 8.57292 21.0153C6.71131 25.5676 6.24138 30.5696 7.22253 35.389C8.20369 40.2083 10.5919 44.6285 14.0851 48.0905C17.5783 51.5526 22.0197 53.9011 26.8476 54.8391C31.6755 55.777 36.6732 55.2623 41.2086 53.36C45.744 51.4577 49.6135 48.2533 52.3277 44.1519ZM50.7674 43.1162C53.2768 39.3234 54.6052 34.8717 54.5845 30.3239C54.5707 27.3043 53.9624 24.3169 52.7941 21.5324C51.6258 18.7479 49.9206 16.2207 47.7756 14.0953C45.6307 11.9698 43.0881 10.2876 40.293 9.14477C37.498 8.00193 34.5052 7.42082 31.4856 7.43462C26.9378 7.45539 22.4984 8.82426 18.7286 11.3681C14.9589 13.912 12.0281 17.5165 10.3069 21.726C8.58573 25.9356 8.15147 30.5609 9.05903 35.0172C9.96659 39.4735 12.1752 43.5606 15.4056 46.7617C18.636 49.9628 22.7431 52.1341 27.2075 53.001C31.6719 53.8679 36.2931 53.3915 40.4867 51.632C44.6803 49.8725 48.2581 46.909 50.7674 43.1162Z" fill="white"/>
<path d="M32.0078 8.92523C33.4698 8.66425 34.9665 8.66425 36.4285 8.92523C37.9045 9.15912 39.3313 9.63735 40.6501 10.3403C41.9603 11.0609 43.095 12.0383 44.2218 12.9607C45.3485 13.8831 46.4727 14.816 47.5419 15.8432C48.632 16.8532 49.5837 18.0031 50.372 19.2629C51.1847 20.5142 51.8504 21.8552 52.3556 23.2591C53.3388 26.0633 53.6186 29.066 53.1706 32.0036H53.0239C52.5923 29.1971 51.8704 26.4431 50.8698 23.7858C50.3903 22.4717 49.8257 21.1902 49.1797 19.9495C48.5006 18.7124 47.7535 17.5138 46.9418 16.3595C46.1137 15.1911 45.0992 14.1668 43.9387 13.3276C42.7726 12.4969 41.431 11.9571 40.1312 11.4461C38.8315 10.9351 37.5317 10.4267 36.1822 10.0363C34.8327 9.64585 33.4517 9.35498 32.0131 9.07197L32.0078 8.92523Z" fill="white"/>
<path fill-rule="evenodd" clip-rule="evenodd" d="M43.2516 22.2017C41.5825 21.7169 39.8452 21.033 38.1001 20.3413C38.0006 19.9011 37.6101 19.3534 36.8241 18.6853C35.679 17.6922 33.5304 17.7184 31.6726 18.1612C29.6235 17.6791 27.598 17.5088 25.6459 17.9752C15.6625 20.7241 15.5079 25.9683 15.3256 32.1512C15.2178 35.8105 15.1002 39.7986 12.9297 43.7928C13.7603 45.5537 22.7138 55.8461 35.6685 53.0765C35.6685 53.0765 31.2402 42.4303 41.2366 37.3207C49.3464 33.1623 55.208 25.4639 43.2516 22.2017ZM45.215 29.2011C45.2166 29.3923 45.1613 29.5797 45.0563 29.7395C44.9512 29.8993 44.8011 30.0243 44.625 30.0987C44.4488 30.173 44.2545 30.1934 44.0668 30.1573C43.879 30.1211 43.7062 30.03 43.5702 29.8956C43.4343 29.7611 43.3413 29.5893 43.3031 29.4019C43.2649 29.2146 43.2832 29.0201 43.3556 28.8431C43.4281 28.6661 43.5515 28.5147 43.7101 28.4079C43.8687 28.3011 44.0555 28.2438 44.2467 28.2433C44.3732 28.2426 44.4985 28.2668 44.6156 28.3146C44.7328 28.3624 44.8393 28.4327 44.9292 28.5217C45.0192 28.6106 45.0907 28.7164 45.1397 28.833C45.1887 28.9496 45.2143 29.0747 45.215 29.2011ZM32.7771 24.7653C32.7771 25.6466 32.5158 26.508 32.0262 27.2407C31.5366 27.9735 30.8407 28.5446 30.0266 28.8818C29.2124 29.219 28.3165 29.3073 27.4522 29.1353C26.5879 28.9634 25.794 28.5391 25.1709 27.9159C24.5477 27.2928 24.1234 26.4989 23.9515 25.6346C23.7795 24.7703 23.8678 23.8744 24.205 23.0602C24.5422 22.2461 25.1133 21.5502 25.8461 21.0606C26.5788 20.571 27.4402 20.3097 28.3215 20.3097C29.5032 20.3097 30.6365 20.7791 31.4721 21.6147C32.3077 22.4503 32.7771 23.5836 32.7771 24.7653ZM31.4596 24.8052C31.4601 25.4243 31.277 26.0296 30.9334 26.5447C30.5898 27.0597 30.1012 27.4612 29.5294 27.6985C28.9576 27.9358 28.3282 27.9981 27.721 27.8776C27.1137 27.7572 26.5558 27.4593 26.1179 27.0217C25.6799 26.5842 25.3816 26.0265 25.2606 25.4194C25.1397 24.8122 25.2015 24.1828 25.4383 23.6108C25.6751 23.0388 26.0762 22.5498 26.5909 22.2058C27.1056 21.8618 27.7108 21.6782 28.3299 21.6782C29.1593 21.6789 29.9545 22.0085 30.5412 22.5947C31.1279 23.1809 31.4582 23.9758 31.4596 24.8052Z" fill="white"/>
<path d="M48.8174 31.1595C45.2145 33.6986 41.1163 35.614 35.3046 35.614C32.5847 35.614 32.0344 32.7317 30.2369 34.1414C29.3067 34.8725 26.0445 36.4997 23.4373 36.3844C20.8301 36.2691 16.6245 34.7362 15.4585 29.1943C14.9947 34.7362 14.7563 38.8186 12.6758 43.4985C16.8211 50.1356 26.7022 55.2531 35.6688 53.052C34.7071 46.3231 40.587 39.7305 43.9017 36.3582C45.1542 35.0821 47.5701 32.9964 48.8174 31.1491V31.1595Z" fill="white"/>
<path d="M48.6774 31.3275C47.5294 32.3147 46.2486 33.1359 44.8725 33.7671C43.5007 34.4189 42.0706 34.9401 40.6011 35.3237C39.1337 35.7037 37.5981 35.9893 36.0441 35.8478C34.4902 35.7063 32.8996 35.1769 31.875 34.0135L31.9248 33.9558C33.1931 34.776 34.6422 35.0643 36.0887 35.1062C37.5573 35.1488 39.0261 35.0266 40.4675 34.7419C41.9237 34.4384 43.3484 33.9998 44.7231 33.4317C46.12 32.8983 47.4352 32.1714 48.6302 31.2725L48.6774 31.3275Z" fill="black"/>
</svg>
