<svg width="133" height="23" viewBox="0 0 133 23" fill="none" xmlns="http://www.w3.org/2000/svg">
<path d="M26.8429 6.42116C22.0113 6.42116 18.2361 9.97185 18.2361 14.7252C18.2361 19.4785 21.916 22.9988 26.8429 22.9988C31.7699 22.9988 35.5137 19.4178 35.5137 14.6948C35.5137 10.0022 31.8338 6.42116 26.8429 6.42116ZM26.8755 19.5732C24.1241 19.5732 22.1079 17.5045 22.1079 14.7264C22.1079 11.9167 24.0915 9.84913 26.8429 9.84913C29.6269 9.84913 31.6419 11.9482 31.6419 14.7264C31.6419 17.5045 29.6269 19.5732 26.8755 19.5732ZM36.5688 10.0338H38.9689V22.6914H42.8081V6.72971H36.5688V10.0338ZM8.57418 9.84796C10.5904 9.84796 12.19 11.0518 12.7973 12.8423H16.861C16.1246 9.01464 12.8613 6.42116 8.60678 6.42116C3.7752 6.42116 0 9.97185 0 14.7264C0 19.4809 3.67982 23 8.60678 23C12.7659 23 16.0932 20.4065 16.8296 16.5473H12.7973C12.2214 18.3378 10.6217 19.5732 8.60557 19.5732C5.82156 19.5732 3.87057 17.5045 3.87057 14.7264C3.87178 11.9167 5.79137 9.84796 8.57418 9.84796ZM109.516 13.1824L106.7 12.7815C105.357 12.5969 104.397 12.1644 104.397 11.1453C104.397 10.0338 105.645 9.47863 107.34 9.47863C109.196 9.47863 110.38 10.25 110.636 11.5158H114.347C113.931 8.3052 111.371 6.42233 107.437 6.42233C103.373 6.42233 100.686 8.42909 100.686 11.2692C100.686 13.9854 102.446 15.5609 105.997 16.0541L108.812 16.455C110.188 16.6396 110.956 17.1656 110.956 18.1532C110.956 19.4189 109.612 19.9437 107.757 19.9437C105.485 19.9437 104.205 19.0484 104.013 17.6903H100.238C100.59 20.8086 103.117 23 107.724 23C111.916 23 114.699 21.1475 114.699 17.9673C114.699 15.1272 112.684 13.6453 109.516 13.1824ZM40.8885 0.154276C39.4808 0.154276 38.4244 1.14188 38.4244 2.49997C38.4244 3.85807 39.4796 4.84567 40.8885 4.84567C42.2962 4.84567 43.3526 3.85807 43.3526 2.49997C43.3526 1.14188 42.2962 0.154276 40.8885 0.154276ZM97.2304 12.1948C97.2304 8.73764 95.0548 6.42233 90.4478 6.42233C86.0967 6.42233 83.6653 8.55298 83.1848 11.8255H86.9926C87.1845 10.5597 88.2083 9.51019 90.3838 9.51019C92.336 9.51019 93.2958 10.3435 93.2958 11.3627C93.2958 12.6904 91.5356 13.0293 89.3601 13.2455C86.4167 13.5541 82.7695 14.5417 82.7695 18.2467C82.7695 21.1183 84.9776 22.9696 88.4968 22.9696C91.2483 22.9696 92.9759 21.8581 93.8403 20.098C93.9683 21.6723 95.184 22.6914 96.8803 22.6914H99.1198V19.3885H97.2316V12.1948H97.2304ZM93.4552 16.2083C93.4552 18.339 91.5356 19.9133 89.1995 19.9133C87.7592 19.9133 86.5434 19.3266 86.5434 18.0924C86.5434 16.5181 88.4956 16.0856 90.2873 15.901C92.0149 15.7467 92.9747 15.3762 93.4552 14.6656V16.2083ZM73.0749 6.42116C70.9308 6.42116 69.1391 7.28604 67.8594 8.73647V0H64.0202V22.6914H67.7954V20.5924C69.0751 22.1047 70.8994 23 73.0749 23C77.6819 23 81.1698 19.4809 81.1698 14.7264C81.1698 9.97185 77.618 6.42116 73.0749 6.42116ZM72.499 19.5732C69.7476 19.5732 67.7314 17.5045 67.7314 14.7264C67.7314 11.9482 69.779 9.84913 72.5304 9.84913C75.3144 9.84913 77.2654 11.9178 77.2654 14.7264C77.2654 17.5045 75.2505 19.5732 72.499 19.5732ZM54.8376 6.42116C52.3421 6.42116 50.7098 7.40876 49.75 8.79842V6.72971H45.9423V22.6903H49.7814V14.0158C49.7814 11.5766 51.3811 9.84796 53.7486 9.84796C55.9567 9.84796 57.3318 11.3603 57.3318 13.5529V22.6914H61.171V13.2759C61.1722 9.26124 59.0293 6.42116 54.8376 6.42116ZM133 14.2016C133 9.63291 129.545 6.42233 124.905 6.42233C119.978 6.42233 116.362 10.0034 116.362 14.7264C116.362 19.6971 120.234 23 124.969 23C128.969 23 132.104 20.7151 132.903 17.4741H128.904C128.328 18.8942 126.92 19.6971 125.032 19.6971C122.568 19.6971 120.712 18.2151 120.297 15.6216H132.999V14.2016H133ZM120.521 12.9662C121.13 10.7432 122.858 9.6633 124.841 9.6633C127.017 9.6633 128.68 10.8671 129.064 12.9662H120.521Z" fill="#0052FF"/>
</svg>
