<svg width="268" height="45" viewBox="0 0 268 45" fill="none" xmlns="http://www.w3.org/2000/svg">
<path fill-rule="evenodd" clip-rule="evenodd" d="M39.4533 26.4741C38.6568 26.9334 37.701 27.0865 37.0637 26.6272C36.1079 26.168 35.63 24.9433 35.63 23.4124V18.5137C35.63 16.2174 34.6742 14.5335 33.0812 14.0743C30.373 13.3088 28.3021 16.5236 27.5056 17.7483L22.7265 25.2494V16.0644C22.7265 13.9212 21.93 12.6965 20.6555 12.3903C19.6997 12.0842 18.4253 12.2372 17.1509 14.0743L6.47759 30.6074C5.04386 28.005 4.24735 25.0964 4.24735 22.0347C4.24735 12.0842 12.5311 3.97067 22.7265 3.97067C32.9219 3.97067 41.2056 12.2372 41.2056 22.1878C41.3649 24.1779 40.7277 25.7087 39.4533 26.4741ZM45.3475 22.1878C45.3475 9.94098 35.1521 0.143555 22.7265 0.143555C10.3009 0.143555 0.105469 10.0941 0.105469 22.1878C0.105469 34.2814 10.3009 44.232 22.7265 44.232C28.4614 44.232 33.8777 42.0888 38.1789 38.2616C38.9754 37.4962 39.1347 36.2715 38.3382 35.353C37.5417 34.5876 36.2672 34.4345 35.4707 35.2C32.1254 38.2616 27.5056 40.0987 22.8858 40.0987C17.4695 40.0987 12.5311 37.8024 9.02643 34.1284L18.7439 19.1261V26.0149C18.7439 29.3827 20.0183 30.4543 21.1335 30.7605C22.2486 31.0667 24.0009 30.9136 25.7532 28.005L31.0102 19.7384C31.1695 19.4322 31.3288 19.2791 31.4881 18.973V23.1063C31.4881 26.168 32.7626 28.6173 34.9928 29.842C37.0637 30.9136 39.6126 30.9136 41.6835 29.5358C44.2324 28.4642 45.5068 25.5556 45.3475 22.1878ZM76.8895 14.6866C77.3674 14.9928 77.8453 15.7582 77.8453 16.3705C77.8453 17.4421 76.8895 18.2076 75.9337 18.2076C75.6151 18.2076 75.4558 18.2076 75.1371 18.0545C73.8627 17.136 72.429 16.6767 70.836 16.6767C67.0127 16.6767 64.4638 19.5853 64.4638 23.2593C64.4638 26.9334 67.0127 29.842 70.836 29.842C72.7476 29.842 74.3406 29.0766 75.615 28.005C75.9337 27.8519 76.4116 27.6988 76.7302 27.6988C77.686 27.6988 78.4825 28.4642 78.4825 29.5358C78.4825 30.1482 78.0046 30.7605 77.5267 31.0667C75.7744 32.5975 73.2255 33.516 70.6767 33.516C64.9418 33.516 60.1627 28.9235 60.1627 23.2593C60.1627 17.5952 64.9418 13.0027 70.6767 13.0027C73.2255 12.8496 75.2964 13.4619 76.8895 14.6866ZM87.5628 18.973C91.5453 18.973 94.8907 22.1878 94.8907 26.168C94.8907 30.1482 91.5453 33.516 87.5628 33.516C83.4209 33.516 79.9162 30.1482 79.9162 26.168C79.9162 22.1878 83.4209 18.973 87.5628 18.973ZM87.5628 29.842C89.3151 29.842 90.7488 28.3111 90.7488 26.168C90.7488 24.0248 89.3151 22.647 87.5628 22.647C85.6511 22.647 84.0581 24.0248 84.0581 26.168C84.0581 28.3111 85.6511 29.842 87.5628 29.842ZM97.2803 31.2198V21.1162C97.2803 20.0446 98.2361 19.1261 99.3512 19.1261C100.466 19.1261 101.422 20.0446 101.422 21.1162V31.2198C101.422 32.2913 100.466 33.2098 99.3512 33.2098C98.2361 33.2098 97.2803 32.2913 97.2803 31.2198ZM96.9616 15.2989C96.9616 13.9212 98.0768 13.0027 99.3512 13.0027C100.626 13.0027 101.741 14.0743 101.741 15.2989C101.741 16.5236 100.626 17.5952 99.3512 17.5952C98.0768 17.5952 96.9616 16.5236 96.9616 15.2989ZM109.228 25.7087V31.2198C109.228 32.2913 108.272 33.2098 107.157 33.2098C106.042 33.2098 105.086 32.2913 105.086 31.2198V20.6569C105.086 19.7384 105.883 19.1261 106.679 19.1261C107.476 19.1261 108.272 19.8915 108.272 20.6569C109.865 19.1261 111.458 18.973 112.733 18.973C116.874 18.973 118.627 21.8816 118.627 25.2494V31.2198C118.627 32.2913 117.671 33.2098 116.556 33.2098C115.441 33.2098 114.485 32.2913 114.485 31.2198V25.7087C114.485 24.0248 114.326 22.4939 111.618 22.4939C110.024 22.4939 109.228 24.0248 109.228 25.7087ZM132.168 27.8519C131.69 27.8519 131.371 27.6988 131.052 27.3926L126.273 22.3408V31.2198C126.273 32.2913 125.318 33.2098 124.202 33.2098C123.087 33.2098 122.132 32.2913 122.132 31.2198V13.615C122.291 13.3088 122.609 13.1558 122.928 13.1558C123.247 13.1558 123.565 13.4619 123.725 13.615L131.371 21.8816C131.53 22.1878 131.849 22.3408 132.008 22.3408C132.168 22.3408 132.486 22.1878 132.645 21.8816L140.292 13.615C140.451 13.4619 140.77 13.1558 141.089 13.1558C141.407 13.1558 141.726 13.3088 141.885 13.615V31.2198C141.885 32.2913 140.929 33.2098 139.814 33.2098C138.699 33.2098 137.743 32.2913 137.743 31.2198V22.3408L132.964 27.3926C132.805 27.5457 132.486 27.8519 132.168 27.8519ZM151.762 29.842C153.673 29.842 155.107 28.3111 155.107 26.168C155.107 24.0248 153.514 22.647 151.762 22.647C150.01 22.647 148.576 24.0248 148.576 26.168C148.576 28.1581 150.01 29.842 151.762 29.842ZM156.222 31.679V31.2198C155.426 32.7506 152.877 33.3629 151.284 33.3629C147.461 33.3629 144.593 29.9951 144.593 26.0149C144.593 22.0347 147.461 18.8199 151.443 18.8199C152.08 18.8199 154.47 18.973 156.222 20.9631V20.5038C156.222 19.5853 156.86 18.973 157.815 18.973C158.612 18.973 159.408 19.7384 159.408 20.5038V31.5259C159.408 32.4444 158.612 33.0568 157.815 33.0568C156.86 33.2098 156.222 32.5975 156.222 31.679ZM170.719 22.4939H170.241C167.692 22.647 167.214 24.0248 167.214 25.7087V31.2198C167.214 32.2913 166.258 33.2098 165.143 33.2098C164.028 33.2098 163.072 32.2913 163.072 31.2198V20.6569C163.072 19.7384 163.869 19.1261 164.665 19.1261C165.462 19.1261 166.258 19.8915 166.258 20.6569C167.851 19.2791 168.967 18.973 170.241 18.973H170.719C171.675 18.973 172.631 19.7384 172.631 20.81C172.471 21.7285 171.675 22.4939 170.719 22.4939ZM186.49 30.3012C186.649 30.6074 186.808 30.9136 186.808 31.2198C186.808 32.2913 185.853 33.2098 184.738 33.2098C183.941 33.2098 183.463 32.7506 182.985 32.1383L178.206 26.9334V31.2198C178.206 32.2913 177.25 33.2098 176.135 33.2098C175.02 33.2098 174.064 32.2913 174.064 31.2198V15.1459C174.064 14.0743 175.02 13.1558 176.135 13.1558C177.25 13.1558 178.206 14.0743 178.206 15.1459V25.2494L182.985 20.1976C183.463 19.7384 184.1 19.1261 184.738 19.1261C185.693 19.1261 186.649 20.0446 186.649 21.1162C186.649 21.4223 186.649 21.7285 186.331 22.0347L182.667 26.0149L186.49 30.3012ZM194.455 22.647C193.34 22.647 191.588 23.2594 191.588 24.9433H197.482C197.482 23.1063 195.57 22.647 194.455 22.647ZM199.871 27.3926H191.588C191.588 29.6889 193.977 30.1482 194.933 30.1482C195.729 30.1482 196.845 29.9951 197.641 29.6889C197.96 29.5358 198.278 29.3827 198.756 29.3827C199.712 29.3827 200.349 30.1482 200.349 31.0667C200.349 31.679 199.871 32.1383 199.393 32.4444C198.119 33.3629 196.526 33.516 194.933 33.516C190.791 33.516 187.286 31.3728 187.286 26.321C187.286 22.3408 189.357 18.973 194.296 18.973C198.278 18.973 201.305 21.4223 201.305 25.8618C201.464 26.6272 200.827 27.3926 199.871 27.3926ZM211.341 33.3629H210.226C207.04 33.3629 205.288 31.9852 205.288 27.3926V22.4939H204.172C203.217 22.4939 202.261 21.5754 202.261 20.6569C202.261 19.5853 203.057 18.8199 204.172 18.8199H205.288V15.1459C205.288 14.0743 206.243 13.1558 207.359 13.1558C208.474 13.1558 209.429 14.0743 209.429 15.1459V18.8199H211.182C212.138 18.8199 213.093 19.5853 213.093 20.6569C213.093 21.5754 212.297 22.4939 211.182 22.4939H209.429V26.6272C209.429 29.3827 209.589 29.842 210.863 29.842H211.5C212.456 29.842 213.253 30.6074 213.253 31.679C213.093 32.5975 212.297 33.3629 211.341 33.3629ZM231.095 14.6866C231.573 14.9928 232.05 15.7582 232.05 16.3705C232.05 17.4421 231.095 18.2076 230.139 18.2076C229.82 18.2076 229.661 18.2076 229.342 18.0545C228.068 17.136 226.634 16.6767 225.041 16.6767C221.218 16.6767 218.669 19.5853 218.669 23.2593C218.669 26.9334 221.218 29.842 225.041 29.842C226.953 29.842 228.546 29.0766 229.82 28.005C230.139 27.8519 230.617 27.6988 230.935 27.6988C231.891 27.6988 232.688 28.4642 232.688 29.5358C232.688 30.1482 232.21 30.7605 231.732 31.0667C229.98 32.5975 227.431 33.516 224.882 33.516C219.147 33.516 214.368 28.9235 214.368 23.2593C214.368 17.5952 219.147 13.0027 224.882 13.0027C227.431 12.8496 229.502 13.4619 231.095 14.6866ZM241.609 29.842C243.52 29.842 244.954 28.3111 244.954 26.168C244.954 24.0248 243.361 22.647 241.609 22.647C239.856 22.647 238.423 24.0248 238.423 26.168C238.263 28.1581 239.697 29.842 241.609 29.842ZM245.91 31.679V31.2198C245.113 32.7506 242.564 33.3629 240.971 33.3629C237.148 33.3629 234.281 29.9951 234.281 26.0149C234.281 22.0347 237.148 18.8199 241.131 18.8199C241.768 18.8199 244.158 18.973 245.91 20.9631V20.5038C245.91 19.5853 246.547 18.973 247.503 18.973C248.299 18.973 249.096 19.7384 249.096 20.5038V31.5259C249.096 32.4444 248.299 33.0568 247.503 33.0568C246.547 33.2098 245.91 32.5975 245.91 31.679ZM260.406 29.842C262.159 29.842 263.592 28.1581 263.592 26.168C263.592 24.0248 262.159 22.647 260.406 22.647C258.654 22.647 257.061 24.0248 257.061 26.168C256.902 28.3111 258.495 29.842 260.406 29.842ZM256.902 32.2913V37.3431C256.902 38.4147 255.946 39.3332 254.831 39.3332C253.716 39.3332 252.76 38.4147 252.76 37.3431V20.6569C252.76 19.7384 253.556 19.1261 254.353 19.1261C255.149 19.1261 255.946 19.8915 255.946 20.81C257.539 19.2791 259.291 18.973 260.725 18.973C264.708 18.973 267.575 22.1878 267.575 26.168C267.575 30.1482 264.708 33.516 260.884 33.516C259.769 33.3629 258.017 33.0568 256.902 32.2913Z" fill="white"/>
</svg>
