<svg width="134" height="57" viewBox="0 0 134 57" fill="none" xmlns="http://www.w3.org/2000/svg">
<mask id="path-1-inside-1_278_3742" fill="white">
<path fill-rule="evenodd" clip-rule="evenodd" d="M64.9019 1.5C66.0566 -0.500002 68.9434 -0.499998 70.0981 1.5L71.5415 4H122C128.627 4 134 9.37258 134 16V40C134 46.6274 128.627 52 122 52H72.1188L70.0981 55.5C68.9434 57.5 66.0566 57.5 64.9019 55.5L62.8812 52H12C5.37258 52 0 46.6274 0 40V16C0 9.37258 5.37258 4 12 4H63.4585L64.9019 1.5Z"/>
</mask>
<path fill-rule="evenodd" clip-rule="evenodd" d="M64.9019 1.5C66.0566 -0.500002 68.9434 -0.499998 70.0981 1.5L71.5415 4H122C128.627 4 134 9.37258 134 16V40C134 46.6274 128.627 52 122 52H72.1188L70.0981 55.5C68.9434 57.5 66.0566 57.5 64.9019 55.5L62.8812 52H12C5.37258 52 0 46.6274 0 40V16C0 9.37258 5.37258 4 12 4H63.4585L64.9019 1.5Z" fill="#0A0A0A"/>
<path d="M70.0981 1.5L70.9641 1L70.9641 1L70.0981 1.5ZM64.9019 1.5L64.0359 0.999998L64.0359 0.999998L64.9019 1.5ZM71.5415 4L70.6754 4.5L70.9641 5H71.5415V4ZM72.1188 52V51H71.5414L71.2528 51.5L72.1188 52ZM70.0981 55.5L70.9641 56L70.9641 56L70.0981 55.5ZM64.9019 55.5L64.0359 56L64.0359 56L64.9019 55.5ZM62.8812 52L63.7472 51.5L63.4585 51H62.8812V52ZM63.4585 4V5H64.0359L64.3246 4.5L63.4585 4ZM70.9641 1C69.4245 -1.66666 65.5755 -1.66667 64.0359 0.999998L65.7679 2C66.5377 0.666667 68.4622 0.666666 69.2321 2L70.9641 1ZM72.4075 3.5L70.9641 1L69.2321 2L70.6754 4.5L72.4075 3.5ZM122 3H71.5415V5H122V3ZM135 16C135 8.8203 129.18 3 122 3V5C128.075 5 133 9.92487 133 16H135ZM135 40V16H133V40H135ZM122 53C129.18 53 135 47.1797 135 40H133C133 46.0751 128.075 51 122 51V53ZM72.1188 53H122V51H72.1188V53ZM70.9641 56L72.9848 52.5L71.2528 51.5L69.232 55L70.9641 56ZM64.0359 56C65.5755 58.6667 69.4245 58.6667 70.9641 56L69.2321 55C68.4622 56.3333 66.5377 56.3333 65.7679 55L64.0359 56ZM62.0152 52.5L64.0359 56L65.7679 55L63.7472 51.5L62.0152 52.5ZM12 53H62.8812V51H12V53ZM-1 40C-1 47.1797 4.8203 53 12 53V51C5.92487 51 1 46.0751 1 40H-1ZM-1 16V40H1V16H-1ZM12 3C4.8203 3 -1 8.8203 -1 16H1C1 9.92487 5.92487 5 12 5V3ZM63.4585 3H12V5H63.4585V3ZM64.0359 0.999998L62.5925 3.5L64.3246 4.5L65.7679 2L64.0359 0.999998Z" fill="white" mask="url(#path-1-inside-1_278_3742)"/>
<path d="M29.4718 35C29.0558 35 28.7198 34.8773 28.4638 34.632C28.2185 34.376 28.0958 34.0453 28.0958 33.64V23.8H36.3038V25.416H29.9678V28.456H35.8238V30.088H29.9678V33.384H36.3038V35H29.4718ZM44.4981 32.232H40.0501L39.0101 35H37.0741L41.4261 23.8H42.2741C42.8501 23.8 43.2501 24.0827 43.4741 24.648L47.4741 35H45.5221L44.4981 32.232ZM40.5781 30.664H43.9701L42.2901 26.12H42.2741L40.5781 30.664ZM48.7208 23.8H54.4968C55.4141 23.8 56.1555 24.0507 56.7208 24.552C57.2861 25.0533 57.5688 25.7147 57.5688 26.536V27.672C57.5688 28.2267 57.3981 28.7173 57.0568 29.144C56.7261 29.56 56.2621 29.8693 55.6648 30.072V30.104C56.0061 30.3067 56.2781 30.568 56.4808 30.888C56.6941 31.1973 56.8755 31.6027 57.0248 32.104L57.9208 35H55.9848L55.1208 32.232C54.9821 31.752 54.7688 31.384 54.4808 31.128C54.1928 30.872 53.8568 30.744 53.4728 30.744H50.5928V35H48.7208V23.8ZM54.0808 29.128C54.5715 29.128 54.9608 28.9947 55.2488 28.728C55.5475 28.4613 55.6968 28.1147 55.6968 27.688V26.584C55.6968 26.2427 55.5848 25.9653 55.3608 25.752C55.1368 25.5387 54.8381 25.432 54.4648 25.432H50.5928V29.128H54.0808ZM59.4239 23.8H61.1039L66.7679 31.992V23.8H68.5919V35H66.8959L61.2479 26.84V35H59.4239V23.8ZM70.9277 23.8H72.7997V35H70.9277V23.8ZM75.1427 23.8H76.8227L82.4867 31.992V23.8H84.3107V35H82.6147L76.9667 26.84V35H75.1427V23.8ZM90.1664 35.128C89.3664 35.128 88.6624 34.9573 88.0544 34.616C87.4571 34.264 86.9931 33.7733 86.6624 33.144C86.3318 32.504 86.1664 31.768 86.1664 30.936V27.864C86.1664 27.032 86.3318 26.3013 86.6624 25.672C87.0038 25.032 87.4784 24.5413 88.0864 24.2C88.7051 23.848 89.4144 23.672 90.2144 23.672H91.9744C92.7424 23.672 93.4198 23.832 94.0064 24.152C94.5931 24.4613 95.0464 24.904 95.3664 25.48C95.6864 26.0453 95.8464 26.7013 95.8464 27.448H94.0064C94.0064 26.808 93.8198 26.296 93.4464 25.912C93.0731 25.5173 92.5824 25.32 91.9744 25.32H90.2144C89.5638 25.32 89.0358 25.56 88.6304 26.04C88.2358 26.5093 88.0384 27.1387 88.0384 27.928V30.872C88.0384 31.6613 88.2304 32.296 88.6144 32.776C89.0091 33.2453 89.5264 33.48 90.1664 33.48H91.9904C92.6091 33.48 93.1158 33.2613 93.5104 32.824C93.9051 32.3867 94.1024 31.8267 94.1024 31.144V30.6H90.9984V28.968H95.9424V31.144C95.9424 31.9227 95.7771 32.616 95.4464 33.224C95.1158 33.8213 94.6518 34.2907 94.0544 34.632C93.4571 34.9627 92.7691 35.128 91.9904 35.128H90.1664ZM100.936 35.128C99.8271 35.128 98.9524 34.808 98.3124 34.168C97.6724 33.528 97.3524 32.6533 97.3524 31.544H99.1924C99.1924 32.1413 99.3471 32.616 99.6564 32.968C99.9764 33.3093 100.414 33.48 100.968 33.48H102.744C103.267 33.48 103.688 33.368 104.008 33.144C104.328 32.9093 104.488 32.6053 104.488 32.232V31.528C104.488 31.24 104.376 31 104.152 30.808C103.928 30.616 103.608 30.4827 103.192 30.408L100.28 29.912C99.3738 29.7627 98.6751 29.464 98.1844 29.016C97.7044 28.568 97.4644 27.9973 97.4644 27.304V26.424C97.4644 25.88 97.6084 25.4 97.8964 24.984C98.1951 24.568 98.6111 24.248 99.1444 24.024C99.6778 23.7893 100.296 23.672 101 23.672H102.808C103.47 23.672 104.051 23.8107 104.552 24.088C105.064 24.3547 105.459 24.7387 105.736 25.24C106.014 25.7413 106.152 26.3173 106.152 26.968H104.328C104.328 26.4773 104.184 26.0827 103.896 25.784C103.619 25.4747 103.256 25.32 102.808 25.32H101C100.499 25.32 100.094 25.432 99.7844 25.656C99.4858 25.8693 99.3364 26.1627 99.3364 26.536V27.112C99.3364 27.4107 99.4431 27.6613 99.6564 27.864C99.8698 28.056 100.179 28.184 100.584 28.248L103.496 28.76C104.414 28.92 105.118 29.2187 105.608 29.656C106.11 30.0827 106.36 30.632 106.36 31.304V32.344C106.36 32.888 106.211 33.3733 105.912 33.8C105.614 34.216 105.192 34.5413 104.648 34.776C104.104 35.0107 103.48 35.128 102.776 35.128H100.936Z" fill="#00F981"/>
</svg>
