<svg width="134" height="57" viewBox="0 0 134 57" fill="none" xmlns="http://www.w3.org/2000/svg">
<mask id="path-1-inside-1_223_2656" fill="white">
<path fill-rule="evenodd" clip-rule="evenodd" d="M64.9019 1.5C66.0566 -0.500002 68.9434 -0.499998 70.0981 1.5L71.5415 4H122C128.627 4 134 9.37259 134 16V40C134 46.6274 128.627 52 122 52H72.1188L70.0981 55.5C68.9434 57.5 66.0566 57.5 64.9019 55.5L62.8812 52H12C5.37258 52 0 46.6274 0 40V16C0 9.37259 5.37258 4 12 4H63.4585L64.9019 1.5Z"/>
</mask>
<path fill-rule="evenodd" clip-rule="evenodd" d="M64.9019 1.5C66.0566 -0.500002 68.9434 -0.499998 70.0981 1.5L71.5415 4H122C128.627 4 134 9.37259 134 16V40C134 46.6274 128.627 52 122 52H72.1188L70.0981 55.5C68.9434 57.5 66.0566 57.5 64.9019 55.5L62.8812 52H12C5.37258 52 0 46.6274 0 40V16C0 9.37259 5.37258 4 12 4H63.4585L64.9019 1.5Z" fill="#0A0A0A"/>
<path d="M70.0981 1.5L70.9641 1V1L70.0981 1.5ZM64.9019 1.5L64.0359 0.999998L64.9019 1.5ZM71.5415 4L70.6754 4.5L70.9641 5H71.5415V4ZM72.1188 52V51H71.5414L71.2528 51.5L72.1188 52ZM70.0981 55.5L70.9641 56L70.0981 55.5ZM64.9019 55.5L64.0359 56L64.9019 55.5ZM62.8812 52L63.7472 51.5L63.4585 51H62.8812V52ZM63.4585 4V5H64.0359L64.3246 4.5L63.4585 4ZM70.9641 1C69.4245 -1.66666 65.5755 -1.66667 64.0359 0.999998L65.768 2C66.5378 0.666667 68.4622 0.666666 69.232 2L70.9641 1ZM72.4075 3.5L70.9641 1L69.232 2L70.6754 4.5L72.4075 3.5ZM122 3H71.5415V5H122V3ZM135 16C135 8.8203 129.18 3 122 3V5C128.075 5 133 9.92487 133 16H135ZM135 40V16H133V40H135ZM122 53C129.18 53 135 47.1797 135 40H133C133 46.0751 128.075 51 122 51V53ZM72.1188 53H122V51H72.1188V53ZM70.9641 56L72.9848 52.5L71.2528 51.5L69.232 55L70.9641 56ZM64.0359 56C65.5755 58.6667 69.4245 58.6667 70.9641 56L69.232 55C68.4622 56.3333 66.5378 56.3333 65.768 55L64.0359 56ZM62.0152 52.5L64.0359 56L65.768 55L63.7472 51.5L62.0152 52.5ZM12 53H62.8812V51H12V53ZM-1 40C-1 47.1797 4.8203 53 12 53V51C5.92487 51 1 46.0751 1 40H-1ZM-1 16V40H1V16H-1ZM12 3C4.8203 3 -1 8.8203 -1 16H1C1 9.92487 5.92487 5 12 5V3ZM63.4585 3H12V5H63.4585V3ZM64.0359 0.999998L62.5925 3.5L64.3246 4.5L65.768 2L64.0359 0.999998Z" fill="white" mask="url(#path-1-inside-1_223_2656)"/>
<path d="M48.3224 23.8H56.3704V25.432H50.1944V28.808H55.7784V30.44H50.1944V35H48.3224V23.8ZM63.1465 32.232H58.6985L57.6585 35H55.7225L60.0745 23.8H60.9225C61.4985 23.8 61.8985 24.0827 62.1225 24.648L66.1225 35H64.1705L63.1465 32.232ZM59.2265 30.664H62.6185L60.9385 26.12H60.9225L59.2265 30.664ZM75.9219 35.688L74.6579 34.44C73.9645 34.8987 73.2285 35.128 72.4499 35.128H70.7699C69.9592 35.128 69.2445 34.9573 68.6259 34.616C68.0179 34.264 67.5432 33.7733 67.2019 33.144C66.8605 32.504 66.6899 31.768 66.6899 30.936V27.864C66.6899 27.032 66.8605 26.3013 67.2019 25.672C67.5432 25.032 68.0232 24.5413 68.6419 24.2C69.2712 23.848 69.9912 23.672 70.8019 23.672H72.4979C73.3085 23.672 74.0232 23.848 74.6419 24.2C75.2605 24.5413 75.7405 25.032 76.0819 25.672C76.4232 26.3013 76.5939 27.032 76.5939 27.864V30.84C76.5939 31.704 76.3485 32.4987 75.8579 33.224L77.1059 34.456L75.9219 35.688ZM72.4499 33.48C72.7805 33.48 73.1059 33.3947 73.4259 33.224L71.8899 31.704L73.0579 30.472L74.5299 31.912C74.6579 31.592 74.7219 31.2347 74.7219 30.84V27.928C74.7219 27.1493 74.5139 26.52 74.0979 26.04C73.6925 25.56 73.1539 25.32 72.4819 25.32H70.8019C70.1405 25.32 69.6019 25.56 69.1859 26.04C68.7699 26.52 68.5619 27.1493 68.5619 27.928V30.872C68.5619 31.6507 68.7645 32.28 69.1699 32.76C69.5752 33.24 70.1139 33.48 70.7859 33.48H72.4499ZM81.7099 35.128C80.6005 35.128 79.7259 34.808 79.0859 34.168C78.4459 33.528 78.1259 32.6533 78.1259 31.544H79.9659C79.9659 32.1413 80.1205 32.616 80.4299 32.968C80.7499 33.3093 81.1872 33.48 81.7419 33.48H83.5179C84.0405 33.48 84.4619 33.368 84.7819 33.144C85.1019 32.9093 85.2619 32.6053 85.2619 32.232V31.528C85.2619 31.24 85.1499 31 84.9259 30.808C84.7019 30.616 84.3819 30.4827 83.9659 30.408L81.0539 29.912C80.1472 29.7627 79.4485 29.464 78.9579 29.016C78.4779 28.568 78.2379 27.9973 78.2379 27.304V26.424C78.2379 25.88 78.3819 25.4 78.6699 24.984C78.9685 24.568 79.3845 24.248 79.9179 24.024C80.4512 23.7893 81.0699 23.672 81.7739 23.672H83.5819C84.2432 23.672 84.8245 23.8107 85.3259 24.088C85.8379 24.3547 86.2325 24.7387 86.5099 25.24C86.7872 25.7413 86.9259 26.3173 86.9259 26.968H85.1019C85.1019 26.4773 84.9579 26.0827 84.6699 25.784C84.3925 25.4747 84.0299 25.32 83.5819 25.32H81.7739C81.2725 25.32 80.8672 25.432 80.5579 25.656C80.2592 25.8693 80.1099 26.1627 80.1099 26.536V27.112C80.1099 27.4107 80.2165 27.6613 80.4299 27.864C80.6432 28.056 80.9525 28.184 81.3579 28.248L84.2699 28.76C85.1872 28.92 85.8912 29.2187 86.3819 29.656C86.8832 30.0827 87.1339 30.632 87.1339 31.304V32.344C87.1339 32.888 86.9845 33.3733 86.6859 33.8C86.3872 34.216 85.9659 34.5413 85.4219 34.776C84.8779 35.0107 84.2539 35.128 83.5499 35.128H81.7099Z" fill="#00F981"/>
</svg>
