<svg width="195" height="54" viewBox="0 0 195 54" fill="none" xmlns="http://www.w3.org/2000/svg">
<path d="M47.207 0.553711V41.7506L52.498 41.7708V22.1619H65.2812V16.9719H52.498V5.74371H69.1383V0.553711H47.207ZM78.6904 8.91426C80.6088 8.91426 82.1436 7.35928 82.1436 5.46099C82.1436 3.5627 80.5886 2.00772 78.6904 2.00772C76.7719 2.00772 75.2371 3.5627 75.2371 5.46099C75.2371 7.35928 76.7921 8.91426 78.6904 8.91426ZM76.0045 14.1043V41.7506H81.2954V14.1043H76.0045Z" fill="white"/>
<path fill-rule="evenodd" clip-rule="evenodd" d="M100.947 13.2959C93.8995 13.2959 88.9922 19.2533 88.9922 26.3214C88.9922 33.3895 93.8995 39.3469 100.947 39.3469C104.178 39.3469 106.824 38.0948 108.763 36.0754V39.7306C108.763 44.3147 105.168 48.1315 100.463 48.1315C98.7664 48.1315 97.0902 47.4853 95.7574 46.5563L93.0917 51.1607C95.2121 52.5339 97.7364 53.3215 100.442 53.3215C107.955 53.3215 114.033 47.243 114.033 39.7306V14.1037H108.763V16.5674C106.824 14.548 104.178 13.2959 100.947 13.2959ZM94.3034 26.3214C94.3034 21.9392 97.6557 18.4859 101.533 18.4859C105.41 18.4859 108.763 21.9392 108.763 26.3214C108.763 30.7036 105.41 34.1569 101.533 34.1569C97.6557 34.1569 94.3034 30.7036 94.3034 26.3214Z" fill="white"/>
<path d="M133.157 18.4859C130.027 18.4859 127.482 21.1516 127.482 24.2817V41.75H122.191V14.1037H127.482V16.628C129.037 14.6287 131.319 13.2959 134.308 13.2959C138.024 13.2959 140.871 15.1336 142.527 17.9608C144.365 15.2346 147.354 13.2959 150.969 13.2959C157.007 13.2959 160.763 18.1628 160.783 24.1808V41.75H155.492V24.2615C155.492 21.1314 152.948 18.4657 149.818 18.4657C146.687 18.4657 144.143 21.1314 144.143 24.2615V41.75H138.852V24.2615C138.832 21.1314 136.287 18.4859 133.157 18.4859Z" fill="white"/>
<path fill-rule="evenodd" clip-rule="evenodd" d="M189.015 17.2338C186.652 14.7903 183.421 13.2959 179.685 13.2959C171.809 13.2959 166.195 19.9803 166.195 27.937C166.195 35.8936 171.789 42.578 179.685 42.578C183.421 42.578 186.652 41.0634 189.015 38.6401V41.75H194.306V14.1037H189.015V17.2338ZM171.506 27.937C171.506 22.6662 175.545 18.4859 180.271 18.4859C184.976 18.4859 189.035 22.646 189.035 27.937C189.035 33.2077 184.996 37.388 180.271 37.388C175.545 37.3678 171.506 33.2077 171.506 27.937Z" fill="white"/>
<path d="M18.1094 27.2505C18.1094 22.3432 22.0877 18.3447 27.0152 18.3447C31.9225 18.3447 35.921 22.3231 35.921 27.2505C35.921 32.1578 31.9427 36.1563 27.0152 36.1563C22.1079 36.1563 18.1094 32.1578 18.1094 27.2505Z" fill="white"/>
<path d="M0.316406 45.0415C0.316406 40.1343 4.29473 36.1357 9.22221 36.1357H18.128V45.0415C18.128 49.9488 14.1497 53.9473 9.22221 53.9473C4.29473 53.9473 0.316406 49.969 0.316406 45.0415Z" fill="white"/>
<path d="M18.1094 0.553398V18.3448H27.0152C31.9225 18.3448 35.921 14.3665 35.921 9.439C35.921 4.53173 31.9427 0.533203 27.0152 0.533203H18.1094V0.553398Z" fill="white"/>
<path d="M0.316406 9.45854C0.316406 14.3658 4.29473 18.3643 9.22221 18.3643H18.128V0.552734H9.22221C4.29473 0.552734 0.316406 4.53106 0.316406 9.45854Z" fill="white"/>
<path d="M0.316406 27.2505C0.316406 32.1578 4.29473 36.1563 9.22221 36.1563H18.128V18.3447H9.22221C4.29473 18.3447 0.316406 22.3432 0.316406 27.2505Z" fill="white"/>
</svg>
