<svg width="186" height="47" viewBox="0 0 186 47" fill="none" xmlns="http://www.w3.org/2000/svg">
<path d="M51.558 35.7379H51.4963C51.5272 35.7379 51.5272 35.7688 51.558 35.7688H51.5889L51.558 35.7379ZM51.558 35.7688C51.3112 35.7688 50.6635 35.8922 49.9848 35.8922C47.8564 35.8922 47.1161 34.9051 47.1161 33.6095V25.0342H51.4655C51.7122 25.0342 51.8973 24.8183 51.8973 24.5098V19.852C51.8973 19.6052 51.6814 19.3893 51.4655 19.3893H47.1161V13.5902C47.1161 13.3743 46.9619 13.2509 46.7151 13.2509H40.7926C40.5458 13.2509 40.4224 13.4051 40.4224 13.5902V19.5435C40.4224 19.5435 37.4303 20.2839 37.2453 20.3147C37.0293 20.3764 36.906 20.5615 36.906 20.7774V24.5098C36.906 24.8183 37.1219 25.0342 37.3686 25.0342H40.3916V34.0414C40.3916 40.7351 45.0494 41.4137 48.2266 41.4137C49.6764 41.4137 51.4346 40.951 51.7122 40.7967C51.8665 40.7351 51.959 40.55 51.959 40.3649V36.2623C51.959 36.0156 51.8048 35.8305 51.558 35.7688ZM116.521 29.7537C116.521 24.7874 114.516 24.1397 112.418 24.3556C110.783 24.4481 109.457 25.281 109.457 25.281V34.9359C109.457 34.9359 110.783 35.8613 112.788 35.923C115.595 35.9847 116.521 34.9668 116.521 29.7537ZM123.183 29.3219C123.183 38.73 120.13 41.4137 114.824 41.4137C110.321 41.4137 107.914 39.131 107.914 39.131C107.914 39.131 107.822 40.3957 107.668 40.55C107.575 40.7042 107.452 40.7659 107.267 40.7659H103.226C102.948 40.7659 102.701 40.55 102.701 40.3032L102.763 9.85776C102.763 9.61099 102.979 9.39506 103.226 9.39506H109.056C109.303 9.39506 109.519 9.61099 109.519 9.85776V20.1913C109.519 20.1913 111.77 18.7415 115.071 18.7415L115.04 18.6798C118.31 18.6798 123.183 19.9137 123.183 29.3219ZM99.2775 19.4202H93.5092C93.2007 19.4202 93.0465 19.6361 93.0465 19.9446V34.8434C93.0465 34.8434 91.535 35.8922 89.4683 35.8922C87.4324 35.8922 86.8155 34.9668 86.8155 32.9001V19.8829C86.8155 19.6361 86.5996 19.4202 86.3528 19.4202H80.492C80.2452 19.4202 80.0293 19.6361 80.0293 19.8829V33.918C80.0293 39.933 83.3916 41.4445 88.0185 41.4445C91.8435 41.4445 94.9281 39.347 94.9281 39.347C94.9281 39.347 95.0824 40.4266 95.1441 40.5808C95.2058 40.7042 95.3908 40.8276 95.5759 40.8276H99.2466C99.5551 40.8276 99.7093 40.6117 99.7093 40.3649L99.771 19.8829C99.8019 19.6361 99.5551 19.4202 99.2775 19.4202ZM34.3149 19.3893H28.4849C28.2381 19.3893 28.0222 19.6361 28.0222 19.9446V40.0564C28.0222 40.6117 28.3923 40.7967 28.855 40.7967H34.1298C34.685 40.7967 34.8084 40.55 34.8084 40.0564V19.852C34.7775 19.6052 34.5616 19.3893 34.3149 19.3893ZM31.4153 10.1045C29.3177 10.1045 27.6212 11.7702 27.6212 13.8986C27.6212 15.9962 29.2869 17.6928 31.4153 17.6928C33.482 17.6928 35.1477 16.027 35.1477 13.8986C35.1477 11.8011 33.482 10.1045 31.4153 10.1045ZM76.6362 9.42591H70.8371C70.5903 9.42591 70.3744 9.64183 70.3744 9.88861V21.0859H61.3055V9.88861C61.3055 9.64183 61.0896 9.42591 60.8428 9.42591H55.0128C54.766 9.42591 54.5501 9.64183 54.5501 9.88861V40.334C54.5501 40.5808 54.7969 40.7967 55.0128 40.7967H60.8428C61.0896 40.7967 61.3055 40.5808 61.3055 40.334V27.3169H70.3744L70.3127 40.334C70.3127 40.5808 70.5286 40.7967 70.7754 40.7967H76.6053C76.8521 40.7967 77.068 40.5808 77.068 40.334V9.88861C77.0989 9.64183 76.883 9.42591 76.6362 9.42591ZM24.9067 22.9058V38.6375C24.9067 38.73 24.8758 38.946 24.7525 38.9768C24.7525 38.9768 21.3285 41.4137 15.6836 41.4137C8.86652 41.4137 0.753906 39.2853 0.753906 25.1884C0.753906 11.0916 7.81775 8.19205 14.7274 8.2229C20.7116 8.2229 23.1176 9.58014 23.4877 9.82691C23.5803 9.98114 23.642 10.0737 23.642 10.1971L22.5315 15.1017C22.5315 15.3484 22.2847 15.6569 21.9763 15.5644C20.9892 15.2559 19.5085 14.6698 16.0229 14.6698C11.982 14.6698 7.66351 15.8111 7.66351 24.9108C7.66351 33.9797 11.7661 35.0593 14.7274 35.0593C17.2568 35.0593 18.1513 34.7508 18.1513 34.7508V28.4582H14.1104C13.802 28.4582 13.586 28.2422 13.586 27.9955V22.9367C13.586 22.6899 13.802 22.474 14.1104 22.474H24.3823C24.6908 22.4431 24.9067 22.659 24.9067 22.9058Z" fill="white"/>
<path fill-rule="evenodd" clip-rule="evenodd" d="M162.419 0.418945C149.433 0.418945 138.914 10.9376 138.914 23.9239C138.914 34.3192 145.639 43.1104 154.985 46.2259C156.157 46.411 156.62 45.7324 156.62 45.1155C156.62 44.5602 156.589 42.7094 156.589 40.7353C150.697 41.8149 149.155 39.2855 148.692 37.9899C148.415 37.3113 147.273 35.2137 146.286 34.6585C145.454 34.2267 144.281 33.1162 146.256 33.0853C148.106 33.0545 149.433 34.7819 149.865 35.4914C151.993 39.0387 155.355 38.0516 156.712 37.4347C156.928 35.9232 157.545 34.8744 158.224 34.2884C153.011 33.7023 147.52 31.6664 147.52 22.6901C147.52 20.1298 148.446 18.0014 149.926 16.3666C149.679 15.7805 148.877 13.3745 150.173 10.1356C150.173 10.1356 152.147 9.51865 156.651 12.5416C158.532 12.0172 160.537 11.7396 162.512 11.7396C164.517 11.7396 166.491 12.0172 168.372 12.5416C172.876 9.48781 174.819 10.1356 174.819 10.1356C176.115 13.3745 175.282 15.7805 175.066 16.3666C176.578 18.0014 177.472 20.099 177.472 22.6901C177.472 31.6973 171.981 33.7023 166.738 34.2884C167.601 35.0287 168.342 36.4168 168.342 38.6377C168.342 41.784 168.311 44.3135 168.311 45.0846C168.311 45.7015 168.743 46.4419 169.915 46.1951C179.477 42.9562 185.924 33.9799 185.924 23.8931C185.924 10.9376 175.405 0.418945 162.419 0.418945Z" fill="white"/>
</svg>
