<svg width="169" height="56" viewBox="0 0 169 56" fill="none" xmlns="http://www.w3.org/2000/svg">
<path d="M72.3329 29.5634C72.3329 37.4978 66.1258 43.3445 58.5082 43.3445C50.8907 43.3445 44.6836 37.4978 44.6836 29.5634C44.6836 21.573 50.8907 15.7822 58.5082 15.7822C66.1258 15.7822 72.3329 21.573 72.3329 29.5634ZM66.2811 29.5634C66.2811 24.6051 62.6836 21.2127 58.5082 21.2127C54.3329 21.2127 50.7354 24.6051 50.7354 29.5634C50.7354 34.4719 54.3329 37.9141 58.5082 37.9141C62.6836 37.9141 66.2811 34.4657 66.2811 29.5634Z" fill="white"/>
<path d="M102.157 29.5634C102.157 37.4978 95.95 43.3445 88.3324 43.3445C80.7149 43.3445 74.5078 37.4978 74.5078 29.5634C74.5078 21.5793 80.7149 15.7822 88.3324 15.7822C95.95 15.7822 102.157 21.573 102.157 29.5634ZM96.1053 29.5634C96.1053 24.6051 92.5078 21.2127 88.3324 21.2127C84.1571 21.2127 80.5596 24.6051 80.5596 29.5634C80.5596 34.4719 84.1571 37.9141 88.3324 37.9141C92.5078 37.9141 96.1053 34.4657 96.1053 29.5634Z" fill="white"/>
<path d="M130.739 16.6148V41.3562C130.739 51.5336 124.737 55.6904 117.642 55.6904C110.962 55.6904 106.942 51.223 105.426 47.5695L110.695 45.3762C111.633 47.6193 113.932 50.2661 117.635 50.2661C122.177 50.2661 124.992 47.4639 124.992 42.1888V40.2068H124.781C123.426 41.8781 120.817 43.3383 117.524 43.3383C110.633 43.3383 104.32 37.3362 104.32 29.6131C104.32 21.834 110.633 15.7822 117.524 15.7822C120.81 15.7822 123.42 17.2424 124.781 18.864H124.992V16.621H130.739V16.6148ZM125.421 29.6131C125.421 24.7605 122.184 21.2127 118.064 21.2127C113.889 21.2127 110.391 24.7605 110.391 29.6131C110.391 34.416 113.889 37.9141 118.064 37.9141C122.184 37.9141 125.421 34.416 125.421 29.6131Z" fill="white"/>
<path d="M140.211 2.11328V42.4998H134.309V2.11328H140.211Z" fill="white"/>
<path d="M163.214 34.0994L167.912 37.2309C166.396 39.474 162.742 43.3386 156.429 43.3386C148.601 43.3386 142.754 37.2869 142.754 29.5575C142.754 21.3621 148.65 15.7764 155.752 15.7764C162.904 15.7764 166.402 21.4678 167.545 24.5434L168.173 26.1091L149.75 33.7391C151.161 36.504 153.354 37.9144 156.429 37.9144C159.511 37.9144 161.649 36.3984 163.214 34.0994ZM148.756 29.1412L161.071 24.0277C160.394 22.3066 158.356 21.1074 155.957 21.1074C152.882 21.1074 148.601 23.8226 148.756 29.1412Z" fill="white"/>
<path d="M22.3398 25.9783V20.1316H42.0423C42.2349 21.1506 42.3343 22.356 42.3343 23.6608C42.3343 28.0474 41.1351 33.4716 37.2704 37.3363C33.5114 41.2507 28.7085 43.3383 22.346 43.3383C10.5532 43.3383 0.636719 33.7326 0.636719 21.9397C0.636719 10.1468 10.5532 0.541016 22.346 0.541016C28.87 0.541016 33.5176 3.1009 37.0095 6.43745L32.8838 10.5631C30.3799 8.21446 26.9874 6.38775 22.3398 6.38775C13.7282 6.38775 6.99294 13.328 6.99294 21.9397C6.99294 30.5513 13.7282 37.4916 22.3398 37.4916C27.9256 37.4916 31.1068 35.2486 33.1448 33.2106C34.7975 31.5579 35.8849 29.1968 36.3136 25.9721L22.3398 25.9783Z" fill="white"/>
</svg>
