<svg width="42" height="43" viewBox="0 0 42 43" fill="none" xmlns="http://www.w3.org/2000/svg">
<circle cx="21" cy="21.8389" r="21" fill="url(#paint0_linear_278_4241)"/>
<g clip-path="url(#clip0_278_4241)">
<path d="M18.8672 27.7998C19.169 27.7998 19.4141 27.5548 19.4141 27.2529C19.4141 26.9511 19.169 26.7061 18.8672 26.7061C18.5653 26.7061 18.3203 26.9511 18.3203 27.2529C18.3203 27.5548 18.5653 27.7998 18.8672 27.7998Z" fill="white"/>
<path d="M7.2149 29.0615L13.7774 35.624C13.991 35.8376 14.3371 35.8376 14.5507 35.624L18.1601 32.0146C18.3737 31.801 18.3737 31.4549 18.1601 31.2413L17.9999 31.0811H25.883C26.5754 31.0811 27.2361 30.8215 27.7456 30.3486L34.3801 24.1306C35.0152 23.5408 35.2256 22.6039 34.9035 21.7994C34.6706 21.217 34.1951 20.7714 33.5991 20.5768C33.0029 20.3818 32.3562 20.4608 31.8243 20.7932C31.8209 20.7953 30.3514 21.7596 30.3514 21.7596C30.3413 18.7952 28.5497 15.634 26.0834 14.2108C26.2242 14.0491 26.3348 13.8577 26.4053 13.6434C26.6875 12.7849 26.2184 11.8556 25.3586 11.5717C25.3317 11.5627 25.3047 11.5548 25.2778 11.5465L26.6856 9.01764C26.7666 8.87216 26.777 8.69763 26.7136 8.54382C26.6504 8.3898 26.5205 8.27295 26.3605 8.22659C25.3511 7.93308 24.302 7.78418 23.2422 7.78418C22.1826 7.78418 21.1333 7.93308 20.1239 8.22638C19.9639 8.27295 19.8341 8.38959 19.7706 8.54361C19.7074 8.69763 19.7176 8.87216 19.7988 9.01764L21.2066 11.5465C21.1792 11.5551 21.1519 11.5632 21.1246 11.5721C20.266 11.8556 19.7971 12.7847 20.0793 13.6439C20.1498 13.8577 20.2613 14.0485 20.4025 14.2104C17.8995 15.6547 16.1328 18.8484 16.1328 21.7842C16.1328 21.8643 16.1347 21.9433 16.1373 22.0217C15.1578 22.289 14.2472 22.7758 13.4813 23.4464L11.8193 24.9005L11.5976 24.6788C11.384 24.4652 11.0379 24.4652 10.8243 24.6788L7.2149 28.2882C7.00128 28.5018 7.00128 28.8479 7.2149 29.0615ZM21.1002 9.10672C21.8009 8.95462 22.5187 8.87793 23.2422 8.87793C23.9658 8.87793 24.6835 8.95462 25.3844 9.10672L24.1657 11.2957C23.5513 11.2101 22.9327 11.2101 22.3189 11.2957L21.1002 9.10672ZM21.4659 12.6112C22.5881 12.244 23.8115 12.2162 25.017 12.6108C25.3039 12.7054 25.4605 13.0156 25.3663 13.3019C25.2953 13.5174 25.1031 13.6637 24.8803 13.6768C23.8019 13.3339 22.6819 13.3333 21.6039 13.6757C21.6039 13.6757 21.6039 13.6757 21.6037 13.6757C21.379 13.6616 21.1882 13.5146 21.1182 13.3021C21.0239 13.0154 21.1805 12.7052 21.4659 12.6112ZM21.7684 14.7741C22.7167 14.4326 23.6991 14.4244 24.6498 14.7511C27.1906 15.6248 29.2578 18.7798 29.2578 21.7842C29.2578 22.0388 29.2418 22.2815 29.2102 22.5084L26.5816 24.233C26.1746 23.7288 25.5579 23.4248 24.8828 23.4248H23.7891V22.784C24.4257 22.5582 24.8828 21.9502 24.8828 21.2373C24.8828 20.3326 24.1469 19.5967 23.2422 19.5967C22.9408 19.5967 22.6953 19.3515 22.6953 19.0498C22.6953 18.7482 22.9408 18.5029 23.2422 18.5029C23.436 18.5029 23.6404 18.6019 23.8337 18.7888C24.0508 18.9988 24.3971 18.993 24.607 18.7762C24.817 18.5591 24.8113 18.2128 24.5942 18.0029C24.3167 17.7341 24.039 17.5822 23.7891 17.4993V16.8623C23.7891 16.5603 23.5443 16.3154 23.2422 16.3154C22.9401 16.3154 22.6953 16.5603 22.6953 16.8623V17.5032C22.0589 17.729 21.6016 18.337 21.6016 19.0498C21.6016 19.9545 22.3375 20.6904 23.2422 20.6904C23.5438 20.6904 23.7891 20.9357 23.7891 21.2373C23.7891 21.539 23.5438 21.7842 23.2422 21.7842C23.0085 21.7842 22.7564 21.6372 22.5321 21.3704C22.3377 21.1393 21.9927 21.1094 21.7616 21.3038C21.5304 21.4982 21.5005 21.8432 21.6949 22.0743C21.9872 22.4221 22.3311 22.6643 22.6953 22.7865V23.4248H22.5133C22.2446 23.4248 22.1239 23.2497 21.9346 23.1272C20.7791 22.2612 19.3479 21.7842 17.9042 21.7842C17.6784 21.7842 17.4522 21.7959 17.227 21.8188C17.227 21.8073 17.2266 21.7959 17.2266 21.7842C17.2266 18.8219 19.2641 15.6773 21.7684 14.7741ZM14.2017 24.2693C15.2292 23.3695 16.5496 22.8779 17.9042 22.8779C19.1129 22.8779 20.3111 23.2772 21.2779 24.002C21.4174 24.0836 21.8058 24.5186 22.5131 24.5186H24.8828C25.5053 24.5186 25.9766 25.0246 25.9766 25.6123C25.9766 26.2154 25.4859 26.7061 24.8828 26.7061H21.0547C20.7526 26.7061 20.5078 26.9509 20.5078 27.253C20.5078 27.555 20.7526 27.7998 21.0547 27.7998H24.8828C26.089 27.7998 27.0703 26.8184 27.0703 25.6123C27.0703 25.4869 27.0592 25.3632 27.0383 25.2415L32.4086 21.718C32.6641 21.5601 32.974 21.5231 33.2594 21.6163C33.5465 21.7103 33.7758 21.925 33.8879 22.2057C34.0458 22.5996 33.9467 23.0407 33.6339 23.331L26.9996 29.5488C26.695 29.8316 26.2985 29.9873 25.883 29.9873H16.9061L12.5946 25.6756L14.2017 24.2693ZM11.2109 25.8388L17.0001 31.628L14.1641 34.464L8.37488 28.6748L11.2109 25.8388Z" fill="white"/>
</g>
<defs>
<linearGradient id="paint0_linear_278_4241" x1="21" y1="0.838867" x2="21" y2="42.8389" gradientUnits="userSpaceOnUse">
<stop stop-color="#00F981"/>
<stop offset="1" stop-color="#0056FB"/>
</linearGradient>
<clipPath id="clip0_278_4241">
<rect width="28" height="28" fill="white" transform="translate(7 7.83887)"/>
</clipPath>
</defs>
</svg>
