<svg width="147" height="38" viewBox="0 0 147 38" fill="none" xmlns="http://www.w3.org/2000/svg">
<path d="M25.4298 0.9375H11.5859V19.6136H30.2871V5.76969C30.2871 3.1214 28.1032 0.9375 25.4549 0.9375C25.4424 0.9375 25.4298 0.9375 25.4298 0.9375Z" fill="white"/>
<path d="M7.26769 0.9375H4.88297C2.23468 0.9375 0.0507812 3.1214 0.0507812 5.76969V8.15441H7.26769V0.9375Z" fill="white"/>
<path d="M0.0390625 12.4717H7.25597V19.6886H0.0390625V12.4717Z" fill="white"/>
<path d="M23.1211 31.1737H25.5058C28.1541 31.1737 30.338 28.9898 30.338 26.3415V26.3289V24.0195H23.1211V31.1737Z" fill="white"/>
<path d="M11.5859 24.0068H18.8028V31.2237H11.5859V24.0068Z" fill="white"/>
<path d="M0.0390625 24.0068V26.3916C0.0390625 29.0398 2.22296 31.2237 4.87125 31.2237H7.25597V24.0068H0.0390625Z" fill="white"/>
<path d="M48.7381 2.87012H45.9141V29.3028H60.8876V26.78H48.7381V2.87012Z" fill="white"/>
<path d="M69.9616 9.87402C64.4642 9.87402 60.5859 13.9657 60.5859 19.8396V20.5048C60.7742 25.6383 65.029 29.7801 70.175 29.8052H70.539C73.112 29.8052 75.6097 28.8765 77.5676 27.2072V27.1318L76.2874 25.0484L76.1494 25.1237C74.6307 26.5419 72.635 27.3327 70.5515 27.3578C70.5013 27.3578 70.4511 27.3578 70.4009 27.3578C66.5603 27.3578 63.4099 24.2074 63.4099 20.3668C63.4099 20.2915 63.4099 20.2162 63.4099 20.1409H77.6931V19.9902V18.6473C77.8438 13.3005 74.7311 9.87402 69.9616 9.87402ZM63.5731 17.7687C63.9496 14.6309 66.6481 12.2336 69.8236 12.2462C72.2083 12.2462 74.8189 13.677 75.0323 17.7687H63.5731Z" fill="white"/>
<path d="M94.2839 12.1078V13.0993C93.079 11.0911 90.8951 9.84855 88.548 9.836H88.1966C83.1385 9.836 79.6367 13.8524 79.6367 19.7263C79.6367 25.6002 82.9753 29.717 87.9707 29.717C90.5562 29.8425 93.0037 28.5121 94.309 26.278V29.1773H96.9824V2.87012H94.2714V12.1078H94.2839ZM88.4853 27.2193C84.9835 27.2193 82.6741 24.182 82.6741 19.7765C82.6741 15.3711 85.1216 12.409 88.5606 12.409C91.3971 12.409 94.2965 14.7184 94.2965 19.7765C94.2965 25.2614 91.2591 27.2193 88.4351 27.2193H88.4853Z" fill="white"/>
<path d="M113.362 12.4722V12.6228C112.834 11.7317 111.203 9.79883 107.287 9.79883C102.304 9.79883 99.0156 13.6018 99.0156 19.4005C99.0156 25.1991 102.455 29.1401 107.513 29.1401C109.885 29.3159 112.169 28.136 113.399 26.1028V28.7134C113.399 32.3658 111.09 34.4493 106.986 34.4493C105.216 34.4618 103.471 34.0476 101.89 33.2444L101.752 33.1691L100.697 35.4785L100.848 35.5538C102.756 36.5202 104.877 37.0474 107.023 37.0725C111.416 37.0725 116.148 34.8384 116.148 28.6506V10.4264H113.362V12.4722ZM107.852 26.7805C104.199 26.7805 101.777 23.9565 101.777 19.5636C101.777 15.1707 103.86 12.5601 107.437 12.5601C111.379 12.5601 113.249 14.8695 113.249 19.5636C113.249 24.2577 111.416 26.7805 107.852 26.7805Z" fill="white"/>
<path d="M127.372 9.87402C121.849 9.87402 118.059 13.9657 118.059 19.7643V20.4295C118.222 25.6257 122.539 29.8052 127.736 29.8052H128.112C130.672 29.7927 133.158 28.8639 135.103 27.1946L133.81 24.973H133.66C132.141 26.3913 130.158 27.182 128.087 27.2072C128.037 27.2072 127.987 27.2072 127.936 27.2072C124.096 27.2072 120.933 24.0443 120.933 20.2036C120.933 20.1283 120.933 20.0656 120.933 19.9902H135.342V19.8396V18.4967C135.329 13.3005 132.204 9.87402 127.372 9.87402ZM121.033 17.7687C121.422 14.6184 124.121 12.2336 127.296 12.2462C129.668 12.2462 132.279 13.677 132.492 17.7687H121.033Z" fill="white"/>
<path d="M146.951 10.2375C146.575 10.2375 146.286 10.2375 145.897 10.0869C143.211 10.1622 140.851 11.9319 140.01 14.4798V10.2375H137.262V29.2274H140.086V21.2574C140.098 20.04 140.299 18.8225 140.676 17.6553C141.567 14.7559 143.575 12.8984 145.96 12.8984C146.261 12.8733 146.562 12.8733 146.851 12.8984H147.001V10.2375H146.951Z" fill="white"/>
</svg>
