<svg width="371" height="336" viewBox="0 0 371 336" fill="none" xmlns="http://www.w3.org/2000/svg">
<path fill-rule="evenodd" clip-rule="evenodd" d="M335.75 113.988C335.75 113.574 335.414 113.238 335 113.238L279 113.238L279 114.738L334.25 114.738V161.058C332.399 161.41 331 163.035 331 164.988C331 167.197 332.791 168.988 335 168.988C337.209 168.988 339 167.197 339 164.988C339 163.035 337.601 161.41 335.75 161.058V113.988Z" fill="url(#paint0_linear_278_2982)"/>
<path fill-rule="evenodd" clip-rule="evenodd" d="M28.25 113.988C28.25 113.574 28.5858 113.238 29 113.238L85 113.238L85 114.738L29.75 114.738V161.058C31.6006 161.41 33 163.035 33 164.988C33 167.197 31.2091 168.988 29 168.988C26.7909 168.988 25 167.197 25 164.988C25 163.035 26.3993 161.41 28.25 161.058V113.988Z" fill="url(#paint1_linear_278_2982)"/>
<path fill-rule="evenodd" clip-rule="evenodd" d="M187 312.238C187 314.447 185.209 316.238 183 316.238C180.791 316.238 179 314.447 179 312.238C179 310.285 180.399 308.66 182.25 308.308L182.25 261.238L183.75 261.238L183.75 308.308C185.601 308.66 187 310.285 187 312.238Z" fill="url(#paint2_linear_278_2982)"/>
<path d="M147.546 40.8929C179.54 31.6221 213.896 35.4063 243.057 51.4129C272.218 67.4196 293.794 94.3376 303.04 126.245C312.286 158.153 308.444 192.437 292.359 221.554C276.273 250.672 249.263 272.238 217.269 281.509L182.408 161.201L147.546 40.8929Z" fill="url(#paint3_linear_278_2982)"/>
<path d="M139.754 279.575C114.82 270.534 93.387 253.831 78.5285 231.861C63.6699 209.891 56.1481 183.78 57.0411 157.272C57.9342 130.764 67.1961 105.219 83.4996 84.2989C99.8031 63.3783 122.311 48.1561 147.798 40.814L182.565 161.501L139.754 279.575Z" fill="url(#paint4_linear_278_2982)"/>
<path d="M217.647 281.409C192.037 289.019 164.681 288.346 139.5 279.487L181.703 160.441L217.647 281.409Z" fill="url(#paint5_linear_278_2982)"/>
<path d="M69.4141 155.741H65.4241C65.0321 155.741 64.7287 155.657 64.5141 155.489C64.2994 155.321 64.1921 155.079 64.1921 154.761V154.369L69.4001 147.817H71.3461V154.033H72.5781V155.741H71.3461V157.617H69.4141V155.741ZM69.4701 154.117V150.239H69.4561L66.3901 154.117H69.4701ZM76.7794 157.729C76.1261 157.729 75.5474 157.589 75.0434 157.309C74.5394 157.02 74.1474 156.614 73.8674 156.091C73.5874 155.569 73.4474 154.967 73.4474 154.285V151.149C73.4474 150.468 73.5827 149.866 73.8534 149.343C74.1334 148.821 74.5254 148.419 75.0294 148.139C75.5334 147.85 76.1167 147.705 76.7794 147.705H78.2634C78.9074 147.705 79.4767 147.85 79.9714 148.139C80.4661 148.419 80.8487 148.821 81.1194 149.343C81.3994 149.866 81.5394 150.468 81.5394 151.149V154.285C81.5394 154.967 81.4041 155.569 81.1334 156.091C80.8627 156.614 80.4801 157.02 79.9854 157.309C79.4907 157.589 78.9167 157.729 78.2634 157.729H76.7794ZM78.2354 156.021C78.6461 156.021 78.9727 155.867 79.2154 155.559C79.4674 155.242 79.5934 154.827 79.5934 154.313V151.121C79.5934 150.608 79.4674 150.197 79.2154 149.889C78.9727 149.572 78.6461 149.413 78.2354 149.413H76.8074C76.3781 149.413 76.0327 149.572 75.7714 149.889C75.5101 150.197 75.3794 150.608 75.3794 151.121V154.313C75.3794 154.827 75.5101 155.242 75.7714 155.559C76.0327 155.867 76.3781 156.021 76.8074 156.021H78.2354ZM91.337 147.509H93.325L87.781 157.967H85.793L91.337 147.509ZM85.093 153.977C84.3837 153.977 83.8143 153.767 83.385 153.347C82.9557 152.918 82.741 152.358 82.741 151.667V150.015C82.741 149.325 82.9557 148.769 83.385 148.349C83.8143 147.92 84.3837 147.705 85.093 147.705H85.877C86.5863 147.705 87.1557 147.92 87.585 148.349C88.0143 148.769 88.229 149.325 88.229 150.015V151.667C88.229 152.358 88.0143 152.918 87.585 153.347C87.1557 153.767 86.5863 153.977 85.877 153.977H85.093ZM85.835 152.451C86.031 152.451 86.185 152.372 86.297 152.213C86.4183 152.045 86.479 151.826 86.479 151.555V150.127C86.479 149.857 86.4183 149.642 86.297 149.483C86.185 149.315 86.031 149.231 85.835 149.231H85.135C84.939 149.231 84.7803 149.315 84.659 149.483C84.547 149.642 84.491 149.857 84.491 150.127V151.555C84.491 151.826 84.547 152.045 84.659 152.213C84.7803 152.372 84.939 152.451 85.135 152.451H85.835ZM93.255 157.729C92.5457 157.729 91.9763 157.519 91.547 157.099C91.1177 156.67 90.903 156.11 90.903 155.419V153.767C90.903 153.077 91.1177 152.521 91.547 152.101C91.9763 151.672 92.5457 151.457 93.255 151.457H94.039C94.7483 151.457 95.3177 151.672 95.747 152.101C96.1763 152.521 96.391 153.077 96.391 153.767V155.419C96.391 156.11 96.1763 156.67 95.747 157.099C95.3177 157.519 94.7483 157.729 94.039 157.729H93.255ZM93.997 156.203C94.193 156.203 94.347 156.124 94.459 155.965C94.5803 155.797 94.641 155.578 94.641 155.307V153.879C94.641 153.609 94.5803 153.394 94.459 153.235C94.347 153.067 94.193 152.983 93.997 152.983H93.297C93.101 152.983 92.9423 153.067 92.821 153.235C92.709 153.394 92.653 153.609 92.653 153.879V155.307C92.653 155.578 92.709 155.797 92.821 155.965C92.9423 156.124 93.101 156.203 93.297 156.203H93.997ZM76.6533 173.741H72.6633C72.2713 173.741 71.968 173.657 71.7533 173.489C71.5387 173.321 71.4313 173.079 71.4313 172.761V172.369L76.6393 165.817H78.5853V172.033H79.8173V173.741H78.5853V175.617H76.6533V173.741ZM76.7093 172.117V168.239H76.6953L73.6293 172.117H76.7093ZM82.2406 175.617C81.8393 175.617 81.5126 175.496 81.2606 175.253C81.0086 175.011 80.8826 174.693 80.8826 174.301V165.817H85.7546C86.6413 165.817 87.3506 166.027 87.8826 166.447C88.424 166.867 88.6946 167.432 88.6946 168.141V168.841C88.6946 169.149 88.6153 169.443 88.4566 169.723C88.3073 170.003 88.0926 170.232 87.8126 170.409V170.423C88.2606 170.582 88.62 170.839 88.8906 171.193C89.1706 171.548 89.3106 171.945 89.3106 172.383V173.111C89.3106 173.877 89.0306 174.488 88.4706 174.945C87.92 175.393 87.1733 175.617 86.2306 175.617H82.2406ZM85.7546 169.877C86.0533 169.877 86.296 169.784 86.4826 169.597C86.6693 169.401 86.7626 169.145 86.7626 168.827V168.351C86.7626 168.09 86.6646 167.885 86.4686 167.735C86.2726 167.577 86.0113 167.497 85.6846 167.497H82.8146V169.877H85.7546ZM86.0906 173.937C86.5013 173.937 86.8186 173.858 87.0426 173.699C87.2666 173.531 87.3786 173.298 87.3786 172.999V172.383C87.3786 172.113 87.2806 171.893 87.0846 171.725C86.8886 171.557 86.6273 171.473 86.3006 171.473H82.8146V173.937H86.0906Z" fill="#F6EEF3"/>
<path d="M0.952 178.188H5.978C6.79933 178.188 7.462 178.422 7.966 178.888C8.47 179.346 8.722 179.952 8.722 180.708V182.052C8.722 182.846 8.456 183.485 7.924 183.97C7.40133 184.446 6.71067 184.684 5.852 184.684H2.59V187.988H0.952V178.188ZM5.824 183.256C6.20667 183.256 6.51 183.14 6.734 182.906C6.96733 182.673 7.084 182.37 7.084 181.996V180.75C7.084 180.405 6.98133 180.13 6.776 179.924C6.57067 179.719 6.29533 179.616 5.95 179.616H2.59V183.256H5.824ZM12.1601 188.1C11.4601 188.1 10.8908 187.862 10.4521 187.386C10.0228 186.901 9.80809 186.271 9.80809 185.496V181.002H11.4181V185.524C11.4181 185.879 11.5021 186.164 11.6701 186.378C11.8474 186.593 12.0761 186.7 12.3561 186.7H13.1961C13.5508 186.7 13.8681 186.56 14.1481 186.28C14.4374 185.991 14.6334 185.618 14.7361 185.16V181.002H16.3461V187.988H14.8341V187.036C14.6288 187.354 14.3581 187.61 14.0221 187.806C13.6954 188.002 13.3828 188.1 13.0841 188.1H12.1601ZM21.3002 188.1C21.0016 188.1 20.6936 188.007 20.3762 187.82C20.0682 187.624 19.8209 187.382 19.6342 187.092V187.988H18.1362V178.188H19.7462V181.646C19.9329 181.413 20.1709 181.231 20.4602 181.1C20.7496 180.96 21.0389 180.89 21.3282 180.89H22.3082C22.8216 180.89 23.2789 181.007 23.6802 181.24C24.0816 181.464 24.3942 181.782 24.6182 182.192C24.8422 182.603 24.9542 183.074 24.9542 183.606V185.272C24.9542 185.832 24.8422 186.327 24.6182 186.756C24.3942 187.186 24.0769 187.517 23.6662 187.75C23.2649 187.984 22.8029 188.1 22.2802 188.1H21.3002ZM22.1122 186.686C22.4762 186.686 22.7749 186.551 23.0082 186.28C23.2416 186 23.3582 185.636 23.3582 185.188V183.704C23.3582 183.284 23.2462 182.948 23.0222 182.696C22.7982 182.435 22.5089 182.304 22.1542 182.304H21.2582C20.8476 182.304 20.5022 182.454 20.2222 182.752C19.9422 183.042 19.7836 183.424 19.7462 183.9V185.272C19.7929 185.683 19.9516 186.024 20.2222 186.294C20.5022 186.556 20.8242 186.686 21.1882 186.686H22.1122ZM28.7164 187.988C27.9324 187.988 27.3584 187.825 26.9944 187.498C26.6397 187.162 26.4624 186.635 26.4624 185.916V178.188H28.0724V185.846C28.0724 186.117 28.1284 186.313 28.2404 186.434C28.3524 186.546 28.5391 186.602 28.8004 186.602H29.4724V187.988H28.7164ZM31.5319 180.218C31.2146 180.218 30.9579 180.125 30.7619 179.938C30.5753 179.742 30.4819 179.495 30.4819 179.196C30.4819 178.898 30.5753 178.655 30.7619 178.468C30.9579 178.272 31.2146 178.174 31.5319 178.174C31.8493 178.174 32.1059 178.272 32.3019 178.468C32.4979 178.655 32.5959 178.898 32.5959 179.196C32.5959 179.495 32.4979 179.742 32.3019 179.938C32.1059 180.125 31.8493 180.218 31.5319 180.218ZM30.7339 181.002H32.3439V187.988H30.7339V181.002ZM36.9541 188.1C36.0954 188.1 35.4048 187.853 34.8821 187.358C34.3688 186.864 34.1121 186.21 34.1121 185.398V183.634C34.1121 183.093 34.2288 182.617 34.4621 182.206C34.6954 181.786 35.0268 181.464 35.4561 181.24C35.8854 181.007 36.3801 180.89 36.9401 180.89H38.0601C38.8628 180.89 39.5068 181.124 39.9921 181.59C40.4868 182.048 40.7341 182.654 40.7341 183.41H39.1521C39.1521 183.074 39.0494 182.804 38.8441 182.598C38.6481 182.384 38.3868 182.276 38.0601 182.276H36.9541C36.5901 182.276 36.2914 182.412 36.0581 182.682C35.8341 182.953 35.7221 183.303 35.7221 183.732V185.3C35.7221 185.72 35.8341 186.061 36.0581 186.322C36.2914 186.584 36.5948 186.714 36.9681 186.714H38.0741C38.4194 186.714 38.6948 186.588 38.9001 186.336C39.1148 186.084 39.2221 185.758 39.2221 185.356H40.8041C40.8041 186.178 40.5521 186.84 40.0481 187.344C39.5534 187.848 38.8954 188.1 38.0741 188.1H36.9541ZM0.952 196.188H5.978C6.79933 196.188 7.462 196.422 7.966 196.888C8.47 197.346 8.722 197.952 8.722 198.708V200.052C8.722 200.846 8.456 201.485 7.924 201.97C7.40133 202.446 6.71067 202.684 5.852 202.684H2.59V205.988H0.952V196.188ZM5.824 201.256C6.20667 201.256 6.51 201.14 6.734 200.906C6.96733 200.673 7.084 200.37 7.084 199.996V198.75C7.084 198.405 6.98133 198.13 6.776 197.924C6.57067 197.719 6.29533 197.616 5.95 197.616H2.59V201.256H5.824ZM9.89209 199.002H11.3901V199.954C11.5768 199.665 11.8428 199.432 12.1881 199.254C12.5428 199.068 12.9068 198.974 13.2801 198.974H14.1201V200.374H13.2801C12.7481 200.374 12.3188 200.538 11.9921 200.864C11.6654 201.191 11.5021 201.616 11.5021 202.138V205.988H9.89209V199.002ZM17.4997 206.1C16.9303 206.1 16.4263 205.993 15.9877 205.778C15.5583 205.564 15.2223 205.26 14.9797 204.868C14.7463 204.476 14.6297 204.024 14.6297 203.51V201.634C14.6297 201.093 14.7463 200.617 14.9797 200.206C15.2223 199.786 15.5583 199.464 15.9877 199.24C16.4263 199.007 16.9303 198.89 17.4997 198.89H18.6197C19.469 198.89 20.1503 199.138 20.6637 199.632C21.177 200.127 21.4337 200.785 21.4337 201.606V203.006H16.2397V203.51C16.2397 203.884 16.3517 204.182 16.5757 204.406C16.809 204.63 17.117 204.742 17.4997 204.742H18.5777C18.951 204.742 19.2497 204.654 19.4737 204.476C19.707 204.29 19.8237 204.047 19.8237 203.748H21.4057C21.4057 204.458 21.1443 205.027 20.6217 205.456C20.099 205.886 19.413 206.1 18.5637 206.1H17.4997ZM19.8517 201.802V201.606C19.8517 201.196 19.7397 200.864 19.5157 200.612C19.2917 200.36 18.9977 200.234 18.6337 200.234H17.4997C17.117 200.234 16.8043 200.37 16.5617 200.64C16.3283 200.902 16.2117 201.247 16.2117 201.676V201.802H19.8517ZM25.1904 206.1C24.3877 206.1 23.7437 205.886 23.2584 205.456C22.773 205.027 22.5304 204.458 22.5304 203.748H24.1124C24.1124 204.047 24.2104 204.29 24.4064 204.476C24.6024 204.654 24.8637 204.742 25.1904 204.742H26.4364C26.7537 204.742 27.001 204.691 27.1784 204.588C27.365 204.476 27.4584 204.327 27.4584 204.14V203.832C27.4584 203.702 27.4024 203.59 27.2904 203.496C27.1877 203.403 27.043 203.338 26.8564 203.3L24.4344 202.88C23.893 202.787 23.4637 202.591 23.1464 202.292C22.829 201.984 22.6704 201.63 22.6704 201.228V200.766C22.6704 200.188 22.899 199.73 23.3564 199.394C23.823 199.058 24.4624 198.89 25.2744 198.89H26.3944C27.1317 198.89 27.729 199.091 28.1864 199.492C28.6437 199.894 28.8724 200.421 28.8724 201.074H27.2904C27.2904 200.822 27.2064 200.622 27.0384 200.472C26.8797 200.323 26.665 200.248 26.3944 200.248H25.2884C24.9617 200.248 24.7097 200.3 24.5324 200.402C24.355 200.505 24.2664 200.65 24.2664 200.836V201.116C24.2664 201.247 24.3177 201.359 24.4204 201.452C24.5324 201.546 24.677 201.606 24.8544 201.634L27.3604 202.082C27.8737 202.185 28.2844 202.381 28.5924 202.67C28.9004 202.96 29.0544 203.3 29.0544 203.692V204.21C29.0544 204.789 28.8164 205.251 28.3404 205.596C27.8644 205.932 27.2297 206.1 26.4364 206.1H25.1904ZM32.5693 206.1C31.8599 206.1 31.2859 205.923 30.8473 205.568C30.4179 205.204 30.2033 204.724 30.2033 204.126V203.622C30.2033 203.034 30.4273 202.563 30.8753 202.208C31.3326 201.854 31.9299 201.676 32.6673 201.676H33.5353C33.7966 201.676 34.0766 201.714 34.3753 201.788C34.6739 201.863 34.9399 201.961 35.1733 202.082V201.214C35.1733 200.925 35.0799 200.692 34.8933 200.514C34.7066 200.337 34.4639 200.248 34.1653 200.248H32.9893C32.6813 200.248 32.4339 200.323 32.2473 200.472C32.0606 200.612 31.9673 200.799 31.9673 201.032H30.3993C30.3993 200.388 30.6373 199.87 31.1133 199.478C31.5893 199.086 32.2146 198.89 32.9893 198.89H34.1653C34.9493 198.89 35.5793 199.105 36.0553 199.534C36.5313 199.954 36.7693 200.514 36.7693 201.214V205.988H35.2713V205.106C35.0473 205.405 34.7673 205.648 34.4313 205.834C34.0953 206.012 33.7639 206.1 33.4373 206.1H32.5693ZM33.5353 204.84C33.9086 204.84 34.2446 204.738 34.5433 204.532C34.8419 204.318 35.0519 204.038 35.1733 203.692V203.356C35.0146 203.226 34.7906 203.123 34.5013 203.048C34.2119 202.964 33.9086 202.922 33.5913 202.922H32.7093C32.4293 202.922 32.2006 202.992 32.0233 203.132C31.8553 203.272 31.7713 203.454 31.7713 203.678V204.07C31.7713 204.304 31.8599 204.49 32.0373 204.63C32.2146 204.77 32.4479 204.84 32.7373 204.84H33.5353ZM40.734 205.988C39.95 205.988 39.376 205.825 39.012 205.498C38.6573 205.162 38.48 204.635 38.48 203.916V196.188H40.09V203.846C40.09 204.117 40.146 204.313 40.258 204.434C40.37 204.546 40.5567 204.602 40.818 204.602H41.49V205.988H40.734ZM45.0895 206.1C44.5202 206.1 44.0162 205.993 43.5775 205.778C43.1482 205.564 42.8122 205.26 42.5695 204.868C42.3362 204.476 42.2195 204.024 42.2195 203.51V201.634C42.2195 201.093 42.3362 200.617 42.5695 200.206C42.8122 199.786 43.1482 199.464 43.5775 199.24C44.0162 199.007 44.5202 198.89 45.0895 198.89H46.2095C47.0588 198.89 47.7402 199.138 48.2535 199.632C48.7668 200.127 49.0235 200.785 49.0235 201.606V203.006H43.8295V203.51C43.8295 203.884 43.9415 204.182 44.1655 204.406C44.3988 204.63 44.7068 204.742 45.0895 204.742H46.1675C46.5408 204.742 46.8395 204.654 47.0635 204.476C47.2968 204.29 47.4135 204.047 47.4135 203.748H48.9955C48.9955 204.458 48.7342 205.027 48.2115 205.456C47.6888 205.886 47.0028 206.1 46.1535 206.1H45.0895ZM47.4415 201.802V201.606C47.4415 201.196 47.3295 200.864 47.1055 200.612C46.8815 200.36 46.5875 200.234 46.2235 200.234H45.0895C44.7068 200.234 44.3942 200.37 44.1515 200.64C43.9182 200.902 43.8015 201.247 43.8015 201.676V201.802H47.4415Z" fill="white"/>
<path d="M318.214 188.1C317.561 188.1 316.982 187.96 316.478 187.68C315.974 187.391 315.582 186.99 315.302 186.476C315.031 185.954 314.896 185.352 314.896 184.67V178.188H316.534V184.642C316.534 185.249 316.688 185.739 316.996 186.112C317.304 186.476 317.71 186.658 318.214 186.658H319.712C320.225 186.658 320.636 186.476 320.944 186.112C321.261 185.739 321.42 185.249 321.42 184.642V178.188H323.058V184.67C323.058 185.352 322.918 185.954 322.638 186.476C322.358 186.99 321.966 187.391 321.462 187.68C320.958 187.96 320.375 188.1 319.712 188.1H318.214ZM327.159 188.1C326.356 188.1 325.712 187.886 325.227 187.456C324.742 187.027 324.499 186.458 324.499 185.748H326.081C326.081 186.047 326.179 186.29 326.375 186.476C326.571 186.654 326.832 186.742 327.159 186.742H328.405C328.722 186.742 328.97 186.691 329.147 186.588C329.334 186.476 329.427 186.327 329.427 186.14V185.832C329.427 185.702 329.371 185.59 329.259 185.496C329.156 185.403 329.012 185.338 328.825 185.3L326.403 184.88C325.862 184.787 325.432 184.591 325.115 184.292C324.798 183.984 324.639 183.63 324.639 183.228V182.766C324.639 182.188 324.868 181.73 325.325 181.394C325.792 181.058 326.431 180.89 327.243 180.89H328.363C329.1 180.89 329.698 181.091 330.155 181.492C330.612 181.894 330.841 182.421 330.841 183.074H329.259C329.259 182.822 329.175 182.622 329.007 182.472C328.848 182.323 328.634 182.248 328.363 182.248H327.257C326.93 182.248 326.678 182.3 326.501 182.402C326.324 182.505 326.235 182.65 326.235 182.836V183.116C326.235 183.247 326.286 183.359 326.389 183.452C326.501 183.546 326.646 183.606 326.823 183.634L329.329 184.082C329.842 184.185 330.253 184.381 330.561 184.67C330.869 184.96 331.023 185.3 331.023 185.692V186.21C331.023 186.789 330.785 187.251 330.309 187.596C329.833 187.932 329.198 188.1 328.405 188.1H327.159ZM334.986 188.1C334.417 188.1 333.913 187.993 333.474 187.778C333.045 187.564 332.709 187.26 332.466 186.868C332.233 186.476 332.116 186.024 332.116 185.51V183.634C332.116 183.093 332.233 182.617 332.466 182.206C332.709 181.786 333.045 181.464 333.474 181.24C333.913 181.007 334.417 180.89 334.986 180.89H336.106C336.955 180.89 337.637 181.138 338.15 181.632C338.663 182.127 338.92 182.785 338.92 183.606V185.006H333.726V185.51C333.726 185.884 333.838 186.182 334.062 186.406C334.295 186.63 334.603 186.742 334.986 186.742H336.064C336.437 186.742 336.736 186.654 336.96 186.476C337.193 186.29 337.31 186.047 337.31 185.748H338.892C338.892 186.458 338.631 187.027 338.108 187.456C337.585 187.886 336.899 188.1 336.05 188.1H334.986ZM337.338 183.802V183.606C337.338 183.196 337.226 182.864 337.002 182.612C336.778 182.36 336.484 182.234 336.12 182.234H334.986C334.603 182.234 334.291 182.37 334.048 182.64C333.815 182.902 333.698 183.247 333.698 183.676V183.802H337.338ZM340.367 181.002H341.865V181.954C342.051 181.665 342.317 181.432 342.663 181.254C343.017 181.068 343.381 180.974 343.755 180.974H344.595V182.374H343.755C343.223 182.374 342.793 182.538 342.467 182.864C342.14 183.191 341.977 183.616 341.977 184.138V187.988H340.367V181.002ZM314.952 196.188H320.006C320.809 196.188 321.457 196.408 321.952 196.846C322.447 197.285 322.694 197.864 322.694 198.582V199.576C322.694 200.062 322.545 200.491 322.246 200.864C321.957 201.228 321.551 201.499 321.028 201.676V201.704C321.327 201.882 321.565 202.11 321.742 202.39C321.929 202.661 322.087 203.016 322.218 203.454L323.002 205.988H321.308L320.552 203.566C320.431 203.146 320.244 202.824 319.992 202.6C319.74 202.376 319.446 202.264 319.11 202.264H316.59V205.988H314.952V196.188ZM319.642 200.85C320.071 200.85 320.412 200.734 320.664 200.5C320.925 200.267 321.056 199.964 321.056 199.59V198.624C321.056 198.326 320.958 198.083 320.762 197.896C320.566 197.71 320.305 197.616 319.978 197.616H316.59V200.85H319.642ZM326.851 206.1C326.282 206.1 325.778 205.993 325.339 205.778C324.91 205.564 324.574 205.26 324.331 204.868C324.098 204.476 323.981 204.024 323.981 203.51V201.634C323.981 201.093 324.098 200.617 324.331 200.206C324.574 199.786 324.91 199.464 325.339 199.24C325.778 199.007 326.282 198.89 326.851 198.89H327.971C328.821 198.89 329.502 199.138 330.015 199.632C330.529 200.127 330.785 200.785 330.785 201.606V203.006H325.591V203.51C325.591 203.884 325.703 204.182 325.927 204.406C326.161 204.63 326.469 204.742 326.851 204.742H327.929C328.303 204.742 328.601 204.654 328.825 204.476C329.059 204.29 329.175 204.047 329.175 203.748H330.757C330.757 204.458 330.496 205.027 329.973 205.456C329.451 205.886 328.765 206.1 327.915 206.1H326.851ZM329.203 201.802V201.606C329.203 201.196 329.091 200.864 328.867 200.612C328.643 200.36 328.349 200.234 327.985 200.234H326.851C326.469 200.234 326.156 200.37 325.913 200.64C325.68 200.902 325.563 201.247 325.563 201.676V201.802H329.203ZM341.416 199.002L339.988 204.994C339.829 205.657 339.47 205.988 338.91 205.988H338.168L336.558 201.284L334.878 205.988H334.15C333.599 205.988 333.24 205.657 333.072 204.994L331.616 199.002H333.282L334.304 203.972L335.956 199.184H336.572C336.759 199.184 336.908 199.226 337.02 199.31C337.141 199.394 337.235 199.53 337.3 199.716L338.756 203.93L339.75 199.002H341.416ZM344.573 206.1C343.864 206.1 343.29 205.923 342.851 205.568C342.422 205.204 342.207 204.724 342.207 204.126V203.622C342.207 203.034 342.431 202.563 342.879 202.208C343.336 201.854 343.934 201.676 344.671 201.676H345.539C345.8 201.676 346.08 201.714 346.379 201.788C346.678 201.863 346.944 201.961 347.177 202.082V201.214C347.177 200.925 347.084 200.692 346.897 200.514C346.71 200.337 346.468 200.248 346.169 200.248H344.993C344.685 200.248 344.438 200.323 344.251 200.472C344.064 200.612 343.971 200.799 343.971 201.032H342.403C342.403 200.388 342.641 199.87 343.117 199.478C343.593 199.086 344.218 198.89 344.993 198.89H346.169C346.953 198.89 347.583 199.105 348.059 199.534C348.535 199.954 348.773 200.514 348.773 201.214V205.988H347.275V205.106C347.051 205.405 346.771 205.648 346.435 205.834C346.099 206.012 345.768 206.1 345.441 206.1H344.573ZM345.539 204.84C345.912 204.84 346.248 204.738 346.547 204.532C346.846 204.318 347.056 204.038 347.177 203.692V203.356C347.018 203.226 346.794 203.123 346.505 203.048C346.216 202.964 345.912 202.922 345.595 202.922H344.713C344.433 202.922 344.204 202.992 344.027 203.132C343.859 203.272 343.775 203.454 343.775 203.678V204.07C343.775 204.304 343.864 204.49 344.041 204.63C344.218 204.77 344.452 204.84 344.741 204.84H345.539ZM350.484 199.002H351.982V199.954C352.169 199.665 352.435 199.432 352.78 199.254C353.135 199.068 353.499 198.974 353.872 198.974H354.712V200.374H353.872C353.34 200.374 352.911 200.538 352.584 200.864C352.257 201.191 352.094 201.616 352.094 202.138V205.988H350.484V199.002ZM357.881 206.1C357.088 206.1 356.444 205.853 355.949 205.358C355.464 204.854 355.221 204.196 355.221 203.384V201.76C355.221 201.191 355.338 200.692 355.571 200.262C355.805 199.824 356.131 199.488 356.551 199.254C356.981 199.012 357.471 198.89 358.021 198.89H358.875C359.165 198.89 359.449 198.956 359.729 199.086C360.019 199.217 360.257 199.39 360.443 199.604V196.188H362.039V205.988H360.541V205.022C360.345 205.349 360.084 205.61 359.757 205.806C359.431 206.002 359.099 206.1 358.763 206.1H357.881ZM358.889 204.714C359.291 204.714 359.636 204.556 359.925 204.238C360.224 203.912 360.397 203.51 360.443 203.034V201.634C360.378 201.233 360.219 200.906 359.967 200.654C359.725 200.402 359.431 200.276 359.085 200.276H358.189C357.779 200.276 357.447 200.421 357.195 200.71C356.953 201 356.831 201.378 356.831 201.844V203.286C356.831 203.716 356.943 204.061 357.167 204.322C357.401 204.584 357.695 204.714 358.049 204.714H358.889ZM366.138 206.1C365.335 206.1 364.691 205.886 364.206 205.456C363.72 205.027 363.478 204.458 363.478 203.748H365.06C365.06 204.047 365.158 204.29 365.354 204.476C365.55 204.654 365.811 204.742 366.138 204.742H367.384C367.701 204.742 367.948 204.691 368.126 204.588C368.312 204.476 368.406 204.327 368.406 204.14V203.832C368.406 203.702 368.35 203.59 368.238 203.496C368.135 203.403 367.99 203.338 367.804 203.3L365.382 202.88C364.84 202.787 364.411 202.591 364.094 202.292C363.776 201.984 363.618 201.63 363.618 201.228V200.766C363.618 200.188 363.846 199.73 364.304 199.394C364.77 199.058 365.41 198.89 366.222 198.89H367.342C368.079 198.89 368.676 199.091 369.134 199.492C369.591 199.894 369.82 200.421 369.82 201.074H368.238C368.238 200.822 368.154 200.622 367.986 200.472C367.827 200.323 367.612 200.248 367.342 200.248H366.236C365.909 200.248 365.657 200.3 365.48 200.402C365.302 200.505 365.214 200.65 365.214 200.836V201.116C365.214 201.247 365.265 201.359 365.368 201.452C365.48 201.546 365.624 201.606 365.802 201.634L368.308 202.082C368.821 202.185 369.232 202.381 369.54 202.67C369.848 202.96 370.002 203.3 370.002 203.692V204.21C370.002 204.789 369.764 205.251 369.288 205.596C368.812 205.932 368.177 206.1 367.384 206.1H366.138Z" fill="white"/>
<path d="M125.434 331.238C125.07 331.238 124.776 331.131 124.552 330.916C124.338 330.702 124.23 330.417 124.23 330.062V321.438H128.696C129.424 321.438 130.064 321.578 130.614 321.858C131.174 322.129 131.604 322.516 131.902 323.02C132.21 323.524 132.364 324.108 132.364 324.77V327.626C132.364 328.812 132.056 329.712 131.44 330.328C130.834 330.935 129.938 331.238 128.752 331.238H125.434ZM128.71 329.796C129.373 329.796 129.872 329.61 130.208 329.236C130.554 328.854 130.726 328.298 130.726 327.57V324.826C130.726 324.248 130.535 323.781 130.152 323.426C129.77 323.062 129.27 322.88 128.654 322.88H125.868V329.796H128.71ZM136.471 331.35C135.902 331.35 135.398 331.243 134.959 331.028C134.53 330.814 134.194 330.51 133.951 330.118C133.718 329.726 133.601 329.274 133.601 328.76V326.884C133.601 326.343 133.718 325.867 133.951 325.456C134.194 325.036 134.53 324.714 134.959 324.49C135.398 324.257 135.902 324.14 136.471 324.14H137.591C138.441 324.14 139.122 324.388 139.635 324.882C140.149 325.377 140.405 326.035 140.405 326.856V328.256H135.211V328.76C135.211 329.134 135.323 329.432 135.547 329.656C135.781 329.88 136.089 329.992 136.471 329.992H137.549C137.923 329.992 138.221 329.904 138.445 329.726C138.679 329.54 138.795 329.297 138.795 328.998H140.377C140.377 329.708 140.116 330.277 139.593 330.706C139.071 331.136 138.385 331.35 137.535 331.35H136.471ZM138.823 327.052V326.856C138.823 326.446 138.711 326.114 138.487 325.862C138.263 325.61 137.969 325.484 137.605 325.484H136.471C136.089 325.484 135.776 325.62 135.533 325.89C135.3 326.152 135.183 326.497 135.183 326.926V327.052H138.823ZM144.47 331.238C143.985 331.238 143.635 330.958 143.42 330.398L141.012 324.252H142.706L144.526 329.418H144.54L146.374 324.252H148.068L145.282 331.238H144.47ZM151.442 331.35C150.873 331.35 150.369 331.243 149.93 331.028C149.501 330.814 149.165 330.51 148.922 330.118C148.689 329.726 148.572 329.274 148.572 328.76V326.884C148.572 326.343 148.689 325.867 148.922 325.456C149.165 325.036 149.501 324.714 149.93 324.49C150.369 324.257 150.873 324.14 151.442 324.14H152.562C153.411 324.14 154.093 324.388 154.606 324.882C155.119 325.377 155.376 326.035 155.376 326.856V328.256H150.182V328.76C150.182 329.134 150.294 329.432 150.518 329.656C150.751 329.88 151.059 329.992 151.442 329.992H152.52C152.893 329.992 153.192 329.904 153.416 329.726C153.649 329.54 153.766 329.297 153.766 328.998H155.348C155.348 329.708 155.087 330.277 154.564 330.706C154.041 331.136 153.355 331.35 152.506 331.35H151.442ZM153.794 327.052V326.856C153.794 326.446 153.682 326.114 153.458 325.862C153.234 325.61 152.94 325.484 152.576 325.484H151.442C151.059 325.484 150.747 325.62 150.504 325.89C150.271 326.152 150.154 326.497 150.154 326.926V327.052H153.794ZM159.077 331.238C158.293 331.238 157.719 331.075 157.355 330.748C157 330.412 156.823 329.885 156.823 329.166V321.438H158.433V329.096C158.433 329.367 158.489 329.563 158.601 329.684C158.713 329.796 158.899 329.852 159.161 329.852H159.833V331.238H159.077ZM163.418 331.35C162.56 331.35 161.869 331.103 161.346 330.608C160.824 330.104 160.562 329.442 160.562 328.62V326.884C160.562 326.343 160.679 325.867 160.912 325.456C161.155 325.036 161.491 324.714 161.92 324.49C162.359 324.257 162.863 324.14 163.432 324.14H164.664C165.234 324.14 165.733 324.257 166.162 324.49C166.601 324.714 166.937 325.036 167.17 325.456C167.413 325.867 167.534 326.343 167.534 326.884V328.62C167.534 329.442 167.268 330.104 166.736 330.608C166.214 331.103 165.514 331.35 164.636 331.35H163.418ZM164.622 329.964C165.014 329.964 165.327 329.834 165.56 329.572C165.803 329.302 165.924 328.952 165.924 328.522V326.968C165.924 326.539 165.808 326.194 165.574 325.932C165.341 325.662 165.028 325.526 164.636 325.526H163.46C163.068 325.526 162.756 325.662 162.522 325.932C162.289 326.194 162.172 326.539 162.172 326.968V328.522C162.172 328.952 162.289 329.302 162.522 329.572C162.756 329.834 163.059 329.964 163.432 329.964H164.622ZM169.045 324.252H170.543V325.078C170.739 324.798 170.991 324.574 171.299 324.406C171.617 324.229 171.925 324.14 172.223 324.14H173.147C173.959 324.14 174.613 324.388 175.107 324.882C175.611 325.368 175.863 326.012 175.863 326.814V328.438C175.863 329.316 175.616 330.02 175.121 330.552C174.627 331.084 173.969 331.35 173.147 331.35H172.209C171.939 331.35 171.659 331.285 171.369 331.154C171.08 331.014 170.842 330.832 170.655 330.608V334.038H169.045V324.252ZM172.979 329.964C173.362 329.964 173.67 329.815 173.903 329.516C174.146 329.218 174.267 328.826 174.267 328.34V326.912C174.267 326.502 174.151 326.17 173.917 325.918C173.684 325.657 173.376 325.526 172.993 325.526H172.097C171.78 325.526 171.486 325.652 171.215 325.904C170.954 326.147 170.767 326.464 170.655 326.856V328.48C170.702 328.919 170.856 329.278 171.117 329.558C171.388 329.829 171.71 329.964 172.083 329.964H172.979ZM185.24 324.14C185.921 324.14 186.462 324.36 186.864 324.798C187.274 325.237 187.48 325.825 187.48 326.562V331.238H185.87V326.548C185.87 326.24 185.8 325.998 185.66 325.82C185.52 325.634 185.333 325.54 185.1 325.54H184.428C184.12 325.54 183.858 325.652 183.644 325.876C183.429 326.091 183.289 326.385 183.224 326.758V331.238H181.628V326.59C181.628 326.273 181.558 326.021 181.418 325.834C181.278 325.638 181.091 325.54 180.858 325.54H180.228C179.92 325.54 179.649 325.68 179.416 325.96C179.192 326.231 179.047 326.586 178.982 327.024V331.238H177.372V324.252H178.87V325.134C179.047 324.826 179.271 324.584 179.542 324.406C179.812 324.229 180.088 324.14 180.368 324.14H181.166C181.52 324.14 181.838 324.234 182.118 324.42C182.398 324.598 182.617 324.85 182.776 325.176C182.981 324.85 183.228 324.598 183.518 324.42C183.807 324.234 184.115 324.14 184.442 324.14H185.24ZM191.774 331.35C191.205 331.35 190.701 331.243 190.262 331.028C189.833 330.814 189.497 330.51 189.254 330.118C189.021 329.726 188.904 329.274 188.904 328.76V326.884C188.904 326.343 189.021 325.867 189.254 325.456C189.497 325.036 189.833 324.714 190.262 324.49C190.701 324.257 191.205 324.14 191.774 324.14H192.894C193.743 324.14 194.425 324.388 194.938 324.882C195.451 325.377 195.708 326.035 195.708 326.856V328.256H190.514V328.76C190.514 329.134 190.626 329.432 190.85 329.656C191.083 329.88 191.391 329.992 191.774 329.992H192.852C193.225 329.992 193.524 329.904 193.748 329.726C193.981 329.54 194.098 329.297 194.098 328.998H195.68C195.68 329.708 195.419 330.277 194.896 330.706C194.373 331.136 193.687 331.35 192.838 331.35H191.774ZM194.126 327.052V326.856C194.126 326.446 194.014 326.114 193.79 325.862C193.566 325.61 193.272 325.484 192.908 325.484H191.774C191.391 325.484 191.079 325.62 190.836 325.89C190.603 326.152 190.486 326.497 190.486 326.926V327.052H194.126ZM197.155 324.252H198.653V325.162C198.858 324.854 199.129 324.607 199.465 324.42C199.801 324.234 200.137 324.14 200.473 324.14H201.341C202.059 324.14 202.633 324.369 203.063 324.826C203.501 325.284 203.721 325.886 203.721 326.632V331.238H202.111V326.674C202.111 326.338 202.022 326.068 201.845 325.862C201.677 325.648 201.453 325.54 201.173 325.54H200.305C199.941 325.54 199.614 325.68 199.325 325.96C199.035 326.231 198.849 326.581 198.765 327.01V331.238H197.155V324.252ZM208.38 331.238C207.587 331.238 207.008 331.061 206.644 330.706C206.28 330.352 206.098 329.792 206.098 329.026V325.638H204.866V324.252H206.14V322.138H207.708V324.252H209.528V325.638H207.708V328.97C207.708 329.278 207.769 329.502 207.89 329.642C208.012 329.782 208.203 329.852 208.464 329.852H209.528V331.238H208.38ZM215.012 321.438H222.054V322.866H216.65V325.82H221.536V327.248H216.65V331.238H215.012V321.438ZM225.044 331.35C224.344 331.35 223.775 331.112 223.336 330.636C222.907 330.151 222.692 329.521 222.692 328.746V324.252H224.302V328.774C224.302 329.129 224.386 329.414 224.554 329.628C224.731 329.843 224.96 329.95 225.24 329.95H226.08C226.435 329.95 226.752 329.81 227.032 329.53C227.321 329.241 227.517 328.868 227.62 328.41V324.252H229.23V331.238H227.718V330.286C227.513 330.604 227.242 330.86 226.906 331.056C226.579 331.252 226.267 331.35 225.968 331.35H225.044ZM231.02 324.252H232.518V325.162C232.723 324.854 232.994 324.607 233.33 324.42C233.666 324.234 234.002 324.14 234.338 324.14H235.206C235.925 324.14 236.499 324.369 236.928 324.826C237.367 325.284 237.586 325.886 237.586 326.632V331.238H235.976V326.674C235.976 326.338 235.887 326.068 235.71 325.862C235.542 325.648 235.318 325.54 235.038 325.54H234.17C233.806 325.54 233.479 325.68 233.19 325.96C232.901 326.231 232.714 326.581 232.63 327.01V331.238H231.02V324.252ZM241.672 331.35C240.878 331.35 240.234 331.103 239.74 330.608C239.254 330.104 239.012 329.446 239.012 328.634V327.01C239.012 326.441 239.128 325.942 239.362 325.512C239.595 325.074 239.922 324.738 240.342 324.504C240.771 324.262 241.261 324.14 241.812 324.14H242.666C242.955 324.14 243.24 324.206 243.52 324.336C243.809 324.467 244.047 324.64 244.234 324.854V321.438H245.83V331.238H244.332V330.272C244.136 330.599 243.874 330.86 243.548 331.056C243.221 331.252 242.89 331.35 242.554 331.35H241.672ZM242.68 329.964C243.081 329.964 243.426 329.806 243.716 329.488C244.014 329.162 244.187 328.76 244.234 328.284V326.884C244.168 326.483 244.01 326.156 243.758 325.904C243.515 325.652 243.221 325.526 242.876 325.526H241.98C241.569 325.526 241.238 325.671 240.986 325.96C240.743 326.25 240.622 326.628 240.622 327.094V328.536C240.622 328.966 240.734 329.311 240.958 329.572C241.191 329.834 241.485 329.964 241.84 329.964H242.68Z" fill="white"/>
<path d="M166.74 250.538L164.486 251.672V249.88L167.202 248.438H168.672V258.238H166.74V250.538ZM173.625 258.35C172.972 258.35 172.393 258.21 171.889 257.93C171.385 257.641 170.993 257.235 170.713 256.712C170.433 256.19 170.293 255.588 170.293 254.906V251.77C170.293 251.089 170.428 250.487 170.699 249.964C170.979 249.442 171.371 249.04 171.875 248.76C172.379 248.471 172.962 248.326 173.625 248.326H175.109C175.753 248.326 176.322 248.471 176.817 248.76C177.312 249.04 177.694 249.442 177.965 249.964C178.245 250.487 178.385 251.089 178.385 251.77V254.906C178.385 255.588 178.25 256.19 177.979 256.712C177.708 257.235 177.326 257.641 176.831 257.93C176.336 258.21 175.762 258.35 175.109 258.35H173.625ZM175.081 256.642C175.492 256.642 175.818 256.488 176.061 256.18C176.313 255.863 176.439 255.448 176.439 254.934V251.742C176.439 251.229 176.313 250.818 176.061 250.51C175.818 250.193 175.492 250.034 175.081 250.034H173.653C173.224 250.034 172.878 250.193 172.617 250.51C172.356 250.818 172.225 251.229 172.225 251.742V254.934C172.225 255.448 172.356 255.863 172.617 256.18C172.878 256.488 173.224 256.642 173.653 256.642H175.081ZM188.183 248.13H190.171L184.627 258.588H182.639L188.183 248.13ZM181.939 254.598C181.229 254.598 180.66 254.388 180.231 253.968C179.801 253.539 179.587 252.979 179.587 252.288V250.636C179.587 249.946 179.801 249.39 180.231 248.97C180.66 248.541 181.229 248.326 181.939 248.326H182.723C183.432 248.326 184.001 248.541 184.431 248.97C184.86 249.39 185.075 249.946 185.075 250.636V252.288C185.075 252.979 184.86 253.539 184.431 253.968C184.001 254.388 183.432 254.598 182.723 254.598H181.939ZM182.681 253.072C182.877 253.072 183.031 252.993 183.143 252.834C183.264 252.666 183.325 252.447 183.325 252.176V250.748C183.325 250.478 183.264 250.263 183.143 250.104C183.031 249.936 182.877 249.852 182.681 249.852H181.981C181.785 249.852 181.626 249.936 181.505 250.104C181.393 250.263 181.337 250.478 181.337 250.748V252.176C181.337 252.447 181.393 252.666 181.505 252.834C181.626 252.993 181.785 253.072 181.981 253.072H182.681ZM190.101 258.35C189.391 258.35 188.822 258.14 188.393 257.72C187.963 257.291 187.749 256.731 187.749 256.04V254.388C187.749 253.698 187.963 253.142 188.393 252.722C188.822 252.293 189.391 252.078 190.101 252.078H190.885C191.594 252.078 192.163 252.293 192.593 252.722C193.022 253.142 193.237 253.698 193.237 254.388V256.04C193.237 256.731 193.022 257.291 192.593 257.72C192.163 258.14 191.594 258.35 190.885 258.35H190.101ZM190.843 256.824C191.039 256.824 191.193 256.745 191.305 256.586C191.426 256.418 191.487 256.199 191.487 255.928V254.5C191.487 254.23 191.426 254.015 191.305 253.856C191.193 253.688 191.039 253.604 190.843 253.604H190.143C189.947 253.604 189.788 253.688 189.667 253.856C189.555 254.015 189.499 254.23 189.499 254.5V255.928C189.499 256.199 189.555 256.418 189.667 256.586C189.788 256.745 189.947 256.824 190.143 256.824H190.843ZM173.98 268.538L171.726 269.672V267.88L174.442 266.438H175.912V276.238H173.98V268.538ZM179.086 276.238C178.685 276.238 178.358 276.117 178.106 275.874C177.854 275.632 177.728 275.314 177.728 274.922V266.438H182.6C183.487 266.438 184.196 266.648 184.728 267.068C185.27 267.488 185.54 268.053 185.54 268.762V269.462C185.54 269.77 185.461 270.064 185.302 270.344C185.153 270.624 184.938 270.853 184.658 271.03V271.044C185.106 271.203 185.466 271.46 185.736 271.814C186.016 272.169 186.156 272.566 186.156 273.004V273.732C186.156 274.498 185.876 275.109 185.316 275.566C184.766 276.014 184.019 276.238 183.076 276.238H179.086ZM182.6 270.498C182.899 270.498 183.142 270.405 183.328 270.218C183.515 270.022 183.608 269.766 183.608 269.448V268.972C183.608 268.711 183.51 268.506 183.314 268.356C183.118 268.198 182.857 268.118 182.53 268.118H179.66V270.498H182.6ZM182.936 274.558C183.347 274.558 183.664 274.479 183.888 274.32C184.112 274.152 184.224 273.919 184.224 273.62V273.004C184.224 272.734 184.126 272.514 183.93 272.346C183.734 272.178 183.473 272.094 183.146 272.094H179.66V274.558H182.936Z" fill="white"/>
<path d="M270.665 157.729C269.694 157.729 268.938 157.454 268.397 156.903C267.855 156.353 267.585 155.587 267.585 154.607H269.489C269.489 155.046 269.591 155.391 269.797 155.643C270.002 155.895 270.291 156.021 270.665 156.021H272.009C272.419 156.021 272.746 155.909 272.989 155.685C273.241 155.461 273.367 155.163 273.367 154.789V154.033C273.367 153.707 273.236 153.441 272.975 153.235C272.723 153.03 272.387 152.927 271.967 152.927H267.921V147.817H274.935V149.525H269.853V151.219H271.967C272.629 151.219 273.213 151.336 273.717 151.569C274.221 151.803 274.608 152.134 274.879 152.563C275.159 152.983 275.299 153.473 275.299 154.033V154.789C275.299 155.368 275.159 155.881 274.879 156.329C274.608 156.777 274.225 157.123 273.731 157.365C273.236 157.608 272.662 157.729 272.009 157.729H270.665ZM279.807 157.729C279.153 157.729 278.575 157.589 278.071 157.309C277.567 157.02 277.175 156.614 276.895 156.091C276.615 155.569 276.475 154.967 276.475 154.285V151.149C276.475 150.468 276.61 149.866 276.881 149.343C277.161 148.821 277.553 148.419 278.057 148.139C278.561 147.85 279.144 147.705 279.807 147.705H281.291C281.935 147.705 282.504 147.85 282.999 148.139C283.493 148.419 283.876 148.821 284.147 149.343C284.427 149.866 284.567 150.468 284.567 151.149V154.285C284.567 154.967 284.431 155.569 284.161 156.091C283.89 156.614 283.507 157.02 283.013 157.309C282.518 157.589 281.944 157.729 281.291 157.729H279.807ZM281.263 156.021C281.673 156.021 282 155.867 282.243 155.559C282.495 155.242 282.621 154.827 282.621 154.313V151.121C282.621 150.608 282.495 150.197 282.243 149.889C282 149.572 281.673 149.413 281.263 149.413H279.835C279.405 149.413 279.06 149.572 278.799 149.889C278.537 150.197 278.407 150.608 278.407 151.121V154.313C278.407 154.827 278.537 155.242 278.799 155.559C279.06 155.867 279.405 156.021 279.835 156.021H281.263ZM294.364 147.509H296.352L290.808 157.967H288.82L294.364 147.509ZM288.12 153.977C287.411 153.977 286.842 153.767 286.412 153.347C285.983 152.918 285.768 152.358 285.768 151.667V150.015C285.768 149.325 285.983 148.769 286.412 148.349C286.842 147.92 287.411 147.705 288.12 147.705H288.904C289.614 147.705 290.183 147.92 290.612 148.349C291.042 148.769 291.256 149.325 291.256 150.015V151.667C291.256 152.358 291.042 152.918 290.612 153.347C290.183 153.767 289.614 153.977 288.904 153.977H288.12ZM288.862 152.451C289.058 152.451 289.212 152.372 289.324 152.213C289.446 152.045 289.506 151.826 289.506 151.555V150.127C289.506 149.857 289.446 149.642 289.324 149.483C289.212 149.315 289.058 149.231 288.862 149.231H288.162C287.966 149.231 287.808 149.315 287.686 149.483C287.574 149.642 287.518 149.857 287.518 150.127V151.555C287.518 151.826 287.574 152.045 287.686 152.213C287.808 152.372 287.966 152.451 288.162 152.451H288.862ZM296.282 157.729C295.573 157.729 295.004 157.519 294.574 157.099C294.145 156.67 293.93 156.11 293.93 155.419V153.767C293.93 153.077 294.145 152.521 294.574 152.101C295.004 151.672 295.573 151.457 296.282 151.457H297.066C297.776 151.457 298.345 151.672 298.774 152.101C299.204 152.521 299.418 153.077 299.418 153.767V155.419C299.418 156.11 299.204 156.67 298.774 157.099C298.345 157.519 297.776 157.729 297.066 157.729H296.282ZM297.024 156.203C297.22 156.203 297.374 156.124 297.486 155.965C297.608 155.797 297.668 155.578 297.668 155.307V153.879C297.668 153.609 297.608 153.394 297.486 153.235C297.374 153.067 297.22 152.983 297.024 152.983H296.324C296.128 152.983 295.97 153.067 295.848 153.235C295.736 153.394 295.68 153.609 295.68 153.879V155.307C295.68 155.578 295.736 155.797 295.848 155.965C295.97 156.124 296.128 156.203 296.324 156.203H297.024ZM277.904 175.729C276.933 175.729 276.177 175.454 275.636 174.903C275.095 174.353 274.824 173.587 274.824 172.607H276.728C276.728 173.046 276.831 173.391 277.036 173.643C277.241 173.895 277.531 174.021 277.904 174.021H279.248C279.659 174.021 279.985 173.909 280.228 173.685C280.48 173.461 280.606 173.163 280.606 172.789V172.033C280.606 171.707 280.475 171.441 280.214 171.235C279.962 171.03 279.626 170.927 279.206 170.927H275.16V165.817H282.174V167.525H277.092V169.219H279.206C279.869 169.219 280.452 169.336 280.956 169.569C281.46 169.803 281.847 170.134 282.118 170.563C282.398 170.983 282.538 171.473 282.538 172.033V172.789C282.538 173.368 282.398 173.881 282.118 174.329C281.847 174.777 281.465 175.123 280.97 175.365C280.475 175.608 279.901 175.729 279.248 175.729H277.904ZM285.268 175.617C284.867 175.617 284.54 175.496 284.288 175.253C284.036 175.011 283.91 174.693 283.91 174.301V165.817H288.782C289.669 165.817 290.378 166.027 290.91 166.447C291.451 166.867 291.722 167.432 291.722 168.141V168.841C291.722 169.149 291.643 169.443 291.484 169.723C291.335 170.003 291.12 170.232 290.84 170.409V170.423C291.288 170.582 291.647 170.839 291.918 171.193C292.198 171.548 292.338 171.945 292.338 172.383V173.111C292.338 173.877 292.058 174.488 291.498 174.945C290.947 175.393 290.201 175.617 289.258 175.617H285.268ZM288.782 169.877C289.081 169.877 289.323 169.784 289.51 169.597C289.697 169.401 289.79 169.145 289.79 168.827V168.351C289.79 168.09 289.692 167.885 289.496 167.735C289.3 167.577 289.039 167.497 288.712 167.497H285.842V169.877H288.782ZM289.118 173.937C289.529 173.937 289.846 173.858 290.07 173.699C290.294 173.531 290.406 173.298 290.406 172.999V172.383C290.406 172.113 290.308 171.893 290.112 171.725C289.916 171.557 289.655 171.473 289.328 171.473H285.842V173.937H289.118Z" fill="white"/>
<g filter="url(#filter0_d_278_2982)">
<circle cx="183.404" cy="161.027" r="75.9296" transform="rotate(9.46861 183.404 161.027)" fill="#071A32"/>
</g>
<circle cx="183.603" cy="160.836" r="65.0826" transform="rotate(9.46861 183.603 160.836)" stroke="url(#paint6_linear_278_2982)" stroke-linecap="round" stroke-dasharray="0 1 14 0 1 14"/>
<path d="M196.74 144.93H187.395V154.275H196.74V144.93Z" fill="url(#paint7_linear_278_2982)"/>
<path d="M206.088 154.275H196.742V163.621H206.088V154.275Z" fill="url(#paint8_linear_278_2982)"/>
<path d="M169.346 163.623V154.275V144.93V135.582H187.394H196.742V126.236H187.394H169.346H160V135.582V144.93V154.275V163.623V172.969H169.346H187.394H196.742V163.623H187.394H169.346Z" fill="url(#paint9_linear_278_2982)"/>
<path d="M206.088 135.582H196.742V144.928H206.088V135.582Z" fill="url(#paint10_linear_278_2982)"/>
<path d="M152.823 191.536L150.569 192.67V190.878L153.285 189.436H154.755V199.236H152.823V191.536ZM159.708 199.348C159.055 199.348 158.476 199.208 157.972 198.928C157.468 198.639 157.076 198.233 156.796 197.71C156.516 197.188 156.376 196.586 156.376 195.904V192.768C156.376 192.087 156.511 191.485 156.782 190.962C157.062 190.44 157.454 190.038 157.958 189.758C158.462 189.469 159.045 189.324 159.708 189.324H161.192C161.836 189.324 162.405 189.469 162.9 189.758C163.395 190.038 163.777 190.44 164.048 190.962C164.328 191.485 164.468 192.087 164.468 192.768V195.904C164.468 196.586 164.333 197.188 164.062 197.71C163.791 198.233 163.409 198.639 162.914 198.928C162.419 199.208 161.845 199.348 161.192 199.348H159.708ZM161.164 197.64C161.575 197.64 161.901 197.486 162.144 197.178C162.396 196.861 162.522 196.446 162.522 195.932V192.74C162.522 192.227 162.396 191.816 162.144 191.508C161.901 191.191 161.575 191.032 161.164 191.032H159.736C159.307 191.032 158.961 191.191 158.7 191.508C158.439 191.816 158.308 192.227 158.308 192.74V195.932C158.308 196.446 158.439 196.861 158.7 197.178C158.961 197.486 159.307 197.64 159.736 197.64H161.164ZM167.364 199.236C166.962 199.236 166.636 199.115 166.384 198.872C166.132 198.63 166.006 198.312 166.006 197.92V189.436H170.878C171.764 189.436 172.474 189.646 173.006 190.066C173.547 190.486 173.818 191.051 173.818 191.76V192.46C173.818 192.768 173.738 193.062 173.58 193.342C173.43 193.622 173.216 193.851 172.936 194.028V194.042C173.384 194.201 173.743 194.458 174.014 194.812C174.294 195.167 174.434 195.564 174.434 196.002V196.73C174.434 197.496 174.154 198.107 173.594 198.564C173.043 199.012 172.296 199.236 171.354 199.236H167.364ZM170.878 193.496C171.176 193.496 171.419 193.403 171.606 193.216C171.792 193.02 171.886 192.764 171.886 192.446V191.97C171.886 191.709 171.788 191.504 171.592 191.354C171.396 191.196 171.134 191.116 170.808 191.116H167.938V193.496H170.878ZM171.214 197.556C171.624 197.556 171.942 197.477 172.166 197.318C172.39 197.15 172.502 196.917 172.502 196.618V196.002C172.502 195.732 172.404 195.512 172.208 195.344C172.012 195.176 171.75 195.092 171.424 195.092H167.938V197.556H171.214ZM184.927 193.65C185.776 193.8 186.425 194.066 186.873 194.448C187.321 194.822 187.545 195.307 187.545 195.904V196.828C187.545 197.556 187.265 198.149 186.705 198.606C186.145 199.064 185.398 199.311 184.465 199.348V200.664H182.561V199.348C181.562 199.339 180.778 199.045 180.209 198.466C179.649 197.888 179.369 197.094 179.369 196.086H181.273C181.273 196.572 181.394 196.954 181.637 197.234C181.889 197.505 182.234 197.64 182.673 197.64H184.227C184.638 197.64 184.969 197.556 185.221 197.388C185.482 197.211 185.613 196.978 185.613 196.688V196.212C185.613 195.755 185.277 195.47 184.605 195.358L182.029 194.924C181.189 194.784 180.55 194.518 180.111 194.126C179.682 193.725 179.467 193.216 179.467 192.6V191.816C179.467 191.34 179.593 190.916 179.845 190.542C180.106 190.169 180.47 189.875 180.937 189.66C181.404 189.446 181.945 189.334 182.561 189.324V188.008H184.465V189.324C185.342 189.371 186.042 189.665 186.565 190.206C187.097 190.748 187.363 191.457 187.363 192.334H185.459C185.459 191.942 185.352 191.63 185.137 191.396C184.922 191.154 184.638 191.032 184.283 191.032H182.701C182.309 191.032 181.992 191.116 181.749 191.284C181.516 191.452 181.399 191.676 181.399 191.956V192.334C181.399 192.801 181.721 193.09 182.365 193.202L184.927 193.65ZM190.25 199.236C189.849 199.236 189.522 199.115 189.27 198.872C189.018 198.63 188.892 198.312 188.892 197.92V189.436H193.764C194.651 189.436 195.36 189.646 195.892 190.066C196.434 190.486 196.704 191.051 196.704 191.76V192.46C196.704 192.768 196.625 193.062 196.466 193.342C196.317 193.622 196.102 193.851 195.822 194.028V194.042C196.27 194.201 196.63 194.458 196.9 194.812C197.18 195.167 197.32 195.564 197.32 196.002V196.73C197.32 197.496 197.04 198.107 196.48 198.564C195.93 199.012 195.183 199.236 194.24 199.236H190.25ZM193.764 193.496C194.063 193.496 194.306 193.403 194.492 193.216C194.679 193.02 194.772 192.764 194.772 192.446V191.97C194.772 191.709 194.674 191.504 194.478 191.354C194.282 191.196 194.021 191.116 193.694 191.116H190.824V193.496H193.764ZM194.1 197.556C194.511 197.556 194.828 197.477 195.052 197.318C195.276 197.15 195.388 196.917 195.388 196.618V196.002C195.388 195.732 195.29 195.512 195.094 195.344C194.898 195.176 194.637 195.092 194.31 195.092H190.824V197.556H194.1ZM199.916 199.236C199.506 199.236 199.174 199.12 198.922 198.886C198.68 198.644 198.558 198.326 198.558 197.934V189.436H200.49V197.556H205.81V199.236H199.916ZM209.89 199.348C209.2 199.348 208.593 199.204 208.07 198.914C207.548 198.616 207.142 198.2 206.852 197.668C206.563 197.136 206.418 196.52 206.418 195.82V189.436H208.35V195.764C208.35 196.324 208.49 196.777 208.77 197.122C209.06 197.468 209.433 197.64 209.89 197.64H211.374C211.841 197.64 212.219 197.468 212.508 197.122C212.798 196.777 212.942 196.324 212.942 195.764V189.436H214.874V195.82C214.874 196.52 214.73 197.136 214.44 197.668C214.151 198.2 213.74 198.616 213.208 198.914C212.676 199.204 212.065 199.348 211.374 199.348H209.89Z" fill="white"/>
<defs>
<filter id="filter0_d_278_2982" x="97.4609" y="79.0859" width="171.887" height="171.883" filterUnits="userSpaceOnUse" color-interpolation-filters="sRGB">
<feFlood flood-opacity="0" result="BackgroundImageFix"/>
<feColorMatrix in="SourceAlpha" type="matrix" values="0 0 0 0 0 0 0 0 0 0 0 0 0 0 0 0 0 0 127 0" result="hardAlpha"/>
<feOffset dy="4"/>
<feGaussianBlur stdDeviation="5"/>
<feColorMatrix type="matrix" values="0 0 0 0 0 0 0 0 0 0 0 0 0 0 0 0 0 0 0.1 0"/>
<feBlend mode="normal" in2="BackgroundImageFix" result="effect1_dropShadow_278_2982"/>
<feBlend mode="normal" in="SourceGraphic" in2="effect1_dropShadow_278_2982" result="shape"/>
</filter>
<linearGradient id="paint0_linear_278_2982" x1="339" y1="141.113" x2="263.268" y2="155.966" gradientUnits="userSpaceOnUse">
<stop stop-color="#0056FB"/>
<stop offset="1" stop-color="#6E6AFF"/>
</linearGradient>
<linearGradient id="paint1_linear_278_2982" x1="86.5728" y1="184.817" x2="25.8635" y2="145.129" gradientUnits="userSpaceOnUse">
<stop stop-color="#00F981"/>
<stop offset="1" stop-color="#1A9D5E"/>
</linearGradient>
<linearGradient id="paint2_linear_278_2982" x1="182.553" y1="304.067" x2="187.778" y2="251.977" gradientUnits="userSpaceOnUse">
<stop offset="0.254305" stop-color="#5D30DC"/>
<stop offset="1" stop-color="#243971"/>
</linearGradient>
<linearGradient id="paint3_linear_278_2982" x1="147.546" y1="40.8929" x2="291.5" y2="330.117" gradientUnits="userSpaceOnUse">
<stop stop-color="#0056FB"/>
<stop offset="1" stop-color="#6E6AFF"/>
</linearGradient>
<linearGradient id="paint4_linear_278_2982" x1="42.499" y1="-29.8832" x2="103.499" y2="274.117" gradientUnits="userSpaceOnUse">
<stop stop-color="#00F981"/>
<stop offset="1" stop-color="#1A9D5E"/>
</linearGradient>
<linearGradient id="paint5_linear_278_2982" x1="158.002" y1="196.616" x2="189.502" y2="313.116" gradientUnits="userSpaceOnUse">
<stop stop-color="#243971"/>
<stop offset="1" stop-color="#5D30DC"/>
</linearGradient>
<linearGradient id="paint6_linear_278_2982" x1="183.603" y1="95.7534" x2="183.603" y2="225.919" gradientUnits="userSpaceOnUse">
<stop stop-color="#00F981"/>
<stop offset="1" stop-color="#0056FB"/>
</linearGradient>
<linearGradient id="paint7_linear_278_2982" x1="188.87" y1="144.93" x2="195.823" y2="146.679" gradientUnits="userSpaceOnUse">
<stop stop-color="#0056FB"/>
<stop offset="1" stop-color="#00F981"/>
</linearGradient>
<linearGradient id="paint8_linear_278_2982" x1="198.218" y1="154.275" x2="205.171" y2="156.025" gradientUnits="userSpaceOnUse">
<stop stop-color="#0056FB"/>
<stop offset="1" stop-color="#00F981"/>
</linearGradient>
<linearGradient id="paint9_linear_278_2982" x1="165.801" y1="126.236" x2="193.773" y2="131.77" gradientUnits="userSpaceOnUse">
<stop stop-color="#0056FB"/>
<stop offset="1" stop-color="#00F981"/>
</linearGradient>
<linearGradient id="paint10_linear_278_2982" x1="198.218" y1="135.582" x2="205.171" y2="137.331" gradientUnits="userSpaceOnUse">
<stop stop-color="#0056FB"/>
<stop offset="1" stop-color="#00F981"/>
</linearGradient>
</defs>
</svg>
