<svg width="26" height="26" viewBox="0 0 26 26" fill="none" xmlns="http://www.w3.org/2000/svg">
<g clip-path="url(#clip0_316_785)">
<path d="M13 0.822266C10.5895 0.822266 8.23322 1.53705 6.22899 2.87623C4.22477 4.21541 2.66267 6.11884 1.74022 8.34581C0.817781 10.5728 0.576427 13.0233 1.04668 15.3874C1.51694 17.7516 2.67769 19.9232 4.38214 21.6276C6.08659 23.3321 8.2582 24.4928 10.6223 24.9631C12.9865 25.4333 15.437 25.192 17.664 24.2695C19.8909 23.3471 21.7944 21.785 23.1335 19.7808C24.4727 17.7766 25.1875 15.4202 25.1875 13.0098C25.1839 9.77856 23.8986 6.68075 21.6138 4.39594C19.329 2.11113 16.2312 0.825921 13 0.822266ZM24.3648 12.6035H23.5523C23.5275 11.9527 23.4425 11.3057 23.2984 10.6706L24.0833 10.4605C24.2451 11.1643 24.3394 11.8819 24.3648 12.6035ZM23.8773 9.67527L23.0925 9.8853C22.899 9.26353 22.6479 8.66117 22.3425 8.08602L23.047 7.67977C23.3862 8.31695 23.6636 8.98517 23.8753 9.67527H23.8773ZM21.32 5.2642C21.8119 5.7923 22.2528 6.36578 22.6367 6.97695L21.9326 7.3832C21.5851 6.8333 21.1878 6.31653 20.7456 5.83945L21.32 5.2642ZM16.3345 2.13445C17.0248 2.34683 17.6932 2.6249 18.3304 2.96483L17.9242 3.66927C17.349 3.36391 16.7466 3.11285 16.1249 2.91933L16.3345 2.13445ZM13.4063 1.64492C14.1279 1.67038 14.8455 1.76465 15.5492 1.92645L15.3392 2.71133C14.7041 2.56723 14.057 2.48223 13.4063 2.45742V1.64492ZM12.5938 1.64492V2.45742C11.943 2.48223 11.2959 2.56723 10.6608 2.71133L10.4508 1.92645C11.1545 1.76465 11.8721 1.67038 12.5938 1.64492ZM9.66551 2.13445L9.87554 2.91933C9.25377 3.11285 8.65141 3.36391 8.07625 3.66927L7.67 2.96483C8.30712 2.62492 8.97534 2.34686 9.66551 2.13445ZM6.96719 3.37311L7.37344 4.07714C6.82354 4.42464 6.30677 4.822 5.82969 5.2642L5.25444 4.68977C5.78254 4.19783 6.35602 3.75698 6.96719 3.37311ZM2.95507 7.67936L3.65951 8.08561C3.35415 8.66076 3.10309 9.26313 2.90957 9.88489L2.12469 9.67527C2.33707 8.98496 2.61514 8.3166 2.95507 7.67936ZM1.91669 10.4605L2.70157 10.6706C2.55747 11.3057 2.47247 11.9527 2.44766 12.6035H1.63516C1.66062 11.8819 1.75489 11.1643 1.91669 10.4605ZM1.63516 13.416H2.44766C2.47247 14.0668 2.55747 14.7139 2.70157 15.349L1.91669 15.559C1.75489 14.8552 1.66062 14.1377 1.63516 13.416ZM2.12469 16.3443L2.90957 16.1342C3.10309 16.756 3.35415 17.3584 3.65951 17.9335L2.95507 18.3398C2.61516 17.7027 2.3371 17.0344 2.12469 16.3443ZM4.68001 20.7553C4.18807 20.2272 3.74722 19.6538 3.36335 19.0426L4.06738 18.6363C4.41488 19.1862 4.81224 19.703 5.25444 20.1801L4.68001 20.7553ZM4.06738 7.3832L3.36335 6.97695C3.74722 6.36578 4.18807 5.7923 4.68001 5.2642L5.25444 5.83864C4.8122 6.31598 4.41483 6.83301 4.06738 7.3832ZM6.96719 22.6464C6.35602 22.2626 5.78254 21.8217 5.25444 21.3298L5.82888 20.7553C6.30596 21.1975 6.82272 21.5949 7.37263 21.9424L6.96719 22.6464ZM9.66551 23.8851C8.9752 23.6727 8.30684 23.3946 7.6696 23.0547L8.07585 22.3503C8.651 22.6556 9.25337 22.9067 9.87513 23.1002L9.66551 23.8851ZM12.5938 24.3746C11.8721 24.3492 11.1545 24.2549 10.4508 24.0931L10.6608 23.3082C11.2959 23.4523 11.943 23.5373 12.5938 23.5621V24.3746ZM11.7813 20.3223V15.4148C9.33766 15.29 6.09376 14.7778 6.09376 13.416C6.09376 12.0543 9.33766 11.542 11.7813 11.4173V9.75977H7.71876V7.32227H18.2813V9.75977H14.2188V11.4173C16.6623 11.542 19.9063 12.0543 19.9063 13.416C19.9063 14.7778 16.6623 15.29 14.2188 15.4148V20.3223H11.7813ZM13.4063 24.3746V23.5621C14.057 23.5373 14.7041 23.4523 15.3392 23.3082L15.5492 24.0931C14.8455 24.2549 14.1279 24.3492 13.4063 24.3746ZM16.3345 23.8871L16.1245 23.1022C16.7462 22.9087 17.3486 22.6576 17.9238 22.3523L18.33 23.0567C17.6928 23.3959 17.0246 23.6733 16.3345 23.8851V23.8871ZM19.0328 22.6485L18.6266 21.9444C19.1765 21.5969 19.6932 21.1996 20.1703 20.7574L20.7448 21.3318C20.2168 21.823 19.6436 22.2632 19.0328 22.6464V22.6485ZM20.1703 5.26623C19.6932 4.82403 19.1765 4.42667 18.6266 4.07917L19.0328 3.37514C19.644 3.75901 20.2175 4.19986 20.7456 4.6918L20.1703 5.26623ZM21.32 20.7553L20.7456 20.1809C21.1878 19.7038 21.5851 19.187 21.9326 18.6371L22.6367 19.0434C22.2528 19.6543 21.8119 20.2275 21.32 20.7553ZM23.0449 18.3402L22.3405 17.9339C22.6459 17.3588 22.8969 16.7564 23.0904 16.1346L23.8753 16.3447C23.6629 17.0348 23.3849 17.7031 23.0449 18.3402ZM24.0833 15.559L23.2984 15.349C23.4425 14.7139 23.5275 14.0668 23.5523 13.416H24.3648C24.3394 14.1377 24.2451 14.8552 24.0833 15.559Z" fill="white"/>
<path d="M19.0938 13.4158C19.0938 13.1006 17.392 12.3803 14.2188 12.2275V13.8221H11.7812V12.2275C8.60803 12.3803 6.90625 13.1006 6.90625 13.4158C6.90625 13.7697 9.0415 14.6346 13 14.6346C16.9585 14.6346 19.0938 13.7697 19.0938 13.4158Z" fill="white"/>
</g>
<defs>
<clipPath id="clip0_316_785">
<rect width="26" height="26" fill="white" transform="translate(0 0.00976562)"/>
</clipPath>
</defs>
</svg>
