<svg width="77" height="53" viewBox="0 0 77 53" fill="none" xmlns="http://www.w3.org/2000/svg">
<path d="M18.6812 47.5464H15.7325C15.6282 42.5692 15.3411 37.89 14.8715 33.5053H14.8453L10.3559 47.5464H8.11087L3.64819 33.5053H3.62255C3.2915 37.715 3.08295 42.3954 2.99634 47.5464H0.308594C0.481813 41.2826 0.91714 35.4102 1.61287 29.9287H5.26757L9.52112 42.874H9.54734L13.8271 29.9287H17.324C18.0898 36.3492 18.5422 42.2222 18.6812 47.5464ZM31.4693 34.5481C30.2687 41.0632 28.6846 45.7971 26.7188 48.7521C25.1872 51.0267 23.5091 52.1652 21.6818 52.1652C21.1946 52.1652 20.5935 52.0182 19.8812 51.7264V50.1555C20.2294 50.2056 20.6379 50.2341 21.1074 50.2341C21.961 50.2341 22.647 49.9994 23.1701 49.5287C23.7958 48.9555 24.1086 48.311 24.1086 47.5982C24.1086 47.1093 23.8647 46.1099 23.3781 44.5965L20.1422 34.5475H23.0391L25.3616 42.0632C25.8835 43.7697 26.1012 44.9612 26.014 45.6398C27.2841 42.2478 28.1713 38.5492 28.6767 34.5469H31.4693V34.5481Z" fill="white"/>
<path d="M70.7214 47.5458H62.3453V29.9281H65.1629V45.3771H70.7214V47.5458ZM60.1527 47.9714L56.914 46.3731C57.2011 46.1372 57.4758 45.882 57.7231 45.5862C59.0997 43.9691 59.7863 41.5777 59.7863 38.4102C59.7863 32.5817 57.4991 29.666 52.9231 29.666C50.6792 29.666 48.9288 30.4056 47.6769 31.8854C46.3014 33.5036 45.6148 35.8865 45.6148 39.037C45.6148 42.1338 46.2234 44.4056 47.441 45.8466C48.555 47.152 50.2342 47.8056 52.4798 47.8056C53.3174 47.8056 54.086 47.703 54.7863 47.4962L59.0028 49.9509L60.1527 47.9714ZM49.661 44.0204C48.9476 42.8728 48.5909 41.0301 48.5909 38.4894C48.5909 34.0535 49.9385 31.833 52.6365 31.833C54.0467 31.833 55.0803 32.364 55.7413 33.4238C56.4536 34.5731 56.812 36.3993 56.812 38.9048C56.812 43.3771 55.4632 45.6136 52.7669 45.6136C51.3561 45.6142 50.3225 45.0848 49.661 44.0204ZM44.3869 42.6626C44.3869 44.1566 43.8387 45.3822 42.7436 46.3424C41.6473 47.2985 40.1772 47.7777 38.335 47.7777C36.612 47.7777 34.9413 47.2273 33.3242 46.1321L34.0815 44.6193C35.4729 45.3161 36.7328 45.6626 37.8638 45.6626C38.9254 45.6626 39.755 45.4273 40.3567 44.9606C40.9578 44.4922 41.3162 43.8352 41.3162 43.0045C41.3162 41.9577 40.5863 41.0632 39.2473 40.3139C38.0125 39.6358 35.543 38.2181 35.543 38.2181C34.2046 37.2426 33.5345 36.1954 33.5345 34.47C33.5345 33.0421 34.0342 31.8894 35.0342 31.0125C36.0353 30.1321 37.3271 29.6934 38.9105 29.6934C40.5459 29.6934 42.0325 30.1315 43.3715 30.9988L42.6923 32.5122C41.547 32.0256 40.4165 31.7823 39.3014 31.7823C38.3983 31.7823 37.7009 31.9993 37.216 32.4352C36.7271 32.8694 36.4256 33.425 36.4256 34.1065C36.4256 35.1481 37.1709 36.054 38.5464 36.8181C39.7977 37.4973 42.3288 38.9395 42.3288 38.9395C43.7014 39.9133 44.3869 40.9509 44.3869 42.6626Z" fill="white"/>
<path d="M74.2565 24.0275C72.5528 23.9841 71.2337 24.1557 70.1266 24.624C69.807 24.7517 69.2987 24.7517 69.2543 25.1557C69.4269 25.3266 69.4468 25.6024 69.5967 25.8383C69.852 26.2639 70.297 26.8366 70.7033 27.1351C71.1494 27.477 71.5973 27.8155 72.0668 28.1135C72.8947 28.6257 73.8332 28.9237 74.64 29.4343C75.1101 29.7312 75.5773 30.1152 76.048 30.4349C76.2793 30.6052 76.4275 30.8816 76.7278 30.9881V30.9232C76.5773 30.7317 76.5346 30.4548 76.387 30.2417L75.7477 29.6252C75.13 28.7955 74.3625 28.0713 73.5346 27.4765C72.8531 27.0069 71.3625 26.3688 71.0862 25.5836L71.0429 25.5403C71.5112 25.4964 72.0668 25.3266 72.5118 25.1961C73.236 25.0052 73.8964 25.0485 74.6394 24.8577C74.9813 24.7722 75.3204 24.6651 75.6634 24.5596V24.3676C75.2782 23.9841 75.0035 23.4747 74.5984 23.1124C73.5147 22.1762 72.3203 21.2605 71.0862 20.4941C70.4252 20.0673 69.5751 19.7927 68.8714 19.4297C68.6178 19.3015 68.1904 19.2383 68.0411 19.0252C67.6594 18.5568 67.4446 17.9403 67.1676 17.3859C66.5523 16.2161 65.9545 14.9181 65.4235 13.681C65.0394 12.8514 64.8058 12.0229 64.3374 11.2554C62.1437 7.63715 59.7614 5.4457 56.0998 3.2947C55.313 2.84684 54.3768 2.65595 53.3768 2.42119L51.7796 2.33686C51.4389 2.18758 51.0976 1.78245 50.8001 1.591C49.5853 0.825184 46.4577 -0.834644 45.5642 1.35681C44.9887 2.74199 46.4155 4.10382 46.9055 4.80638C47.2674 5.29413 47.7363 5.84911 47.9893 6.40296C48.1392 6.76478 48.1813 7.14883 48.3312 7.53116C48.6719 8.46791 48.9904 9.51008 49.4383 10.3842C49.6719 10.8297 49.9266 11.2981 50.2252 11.7015C50.3961 11.9374 50.6936 12.0417 50.7585 12.4263C50.4617 12.8503 50.4383 13.4901 50.2679 14.0223C49.5021 16.4275 49.8013 19.4069 50.8867 21.1745C51.2263 21.7067 52.0366 22.8782 53.1204 22.4292C54.0799 22.0463 53.8674 20.8332 54.1432 19.7693C54.2064 19.5124 54.1648 19.3437 54.2924 19.175V19.2166C54.5893 19.8121 54.889 20.3859 55.1642 20.983C55.8246 22.0252 56.9745 23.1112 57.9323 23.8332C58.4423 24.2183 58.8463 24.877 59.485 25.1124V25.0485H59.4429C59.3135 24.8577 59.1243 24.7722 58.9545 24.624C58.5705 24.2406 58.1454 23.7722 57.8474 23.3471C56.9551 22.1545 56.1654 20.8343 55.4645 19.4719C55.1215 18.8109 54.8258 18.0884 54.5494 17.4286C54.4206 17.1739 54.4206 16.7898 54.207 16.6616C53.8867 17.1295 53.4201 17.5346 53.1865 18.1078C52.7813 19.0246 52.7392 20.1522 52.5887 21.3249L52.505 21.3659C51.8269 21.1955 51.591 20.4941 51.3335 19.8987C50.6959 18.3864 50.5887 15.9591 51.142 14.2144C51.2902 13.7682 51.9312 12.3631 51.6753 11.938C51.5471 11.5306 51.1209 11.2987 50.8873 10.9779C50.6127 10.5745 50.3118 10.0639 50.1204 9.61606C49.6098 8.42461 49.3528 7.10438 48.803 5.9135C48.546 5.35852 48.0999 4.78416 47.7386 4.27305C47.3329 3.69869 46.8867 3.29413 46.5659 2.61322C46.46 2.37903 46.3112 1.99612 46.4816 1.74142C46.5232 1.57048 46.6098 1.50666 46.7796 1.46393C47.0554 1.23088 47.8434 1.52718 48.1198 1.65538C48.909 1.97447 49.5688 2.27248 50.2275 2.7192C50.5255 2.93287 50.8451 3.33743 51.2275 3.44399H51.6753C52.3551 3.59213 53.1215 3.48501 53.7614 3.67761C54.889 4.04 55.9107 4.57162 56.8269 5.14541C59.6149 6.9135 61.9141 9.42575 63.4662 12.4263C63.7209 12.9152 63.8292 13.3631 64.0617 13.873C64.5101 14.9169 65.0645 15.9813 65.5095 17.003C65.9568 18.003 66.383 19.024 67.0218 19.8548C67.3403 20.3015 68.6201 20.5357 69.1939 20.7699C69.6184 20.9608 70.2793 21.1306 70.6622 21.3648C71.3864 21.8109 72.1078 22.3232 72.7887 22.8138C73.1278 23.0691 74.1933 23.6012 74.2565 24.0275ZM52.5437 5.52946C52.2499 5.5264 51.9569 5.56242 51.6725 5.63658V5.67931H51.7135C51.885 6.01948 52.183 6.25538 52.3956 6.55225C52.5671 6.89356 52.7158 7.23202 52.8839 7.57276L52.9249 7.53059C53.2252 7.31806 53.3745 6.97732 53.3745 6.46621C53.2451 6.31578 53.2252 6.16877 53.1175 6.01948C52.9922 5.80638 52.7158 5.7004 52.5437 5.52946Z" fill="white"/>
<path d="M76.2829 47.5428H76.7239V45.3844H76.0624L75.5228 46.8573L74.9365 45.3844H74.2994V47.5428H74.716V45.9006H74.7393L75.3536 47.5428H75.671L76.2829 45.9006V47.5428ZM72.7302 47.5428H73.1969V45.7502H73.8077V45.3838H72.0938V45.7502H72.7291L72.7302 47.5428Z" fill="white"/>
</svg>
