<svg width="173" height="31" viewBox="0 0 173 31" fill="none" xmlns="http://www.w3.org/2000/svg">
<path d="M21.2577 22.8137C21.2577 24.8574 20.592 26.5218 19.214 27.7836C17.8438 29.0455 16.133 29.6725 14.0196 29.6725H0V3.81641H12.8739C14.9873 3.81641 16.7368 4.41249 18.107 5.63562C19.4772 6.85876 20.1507 8.49219 20.1507 10.4585C20.1507 13.1293 18.7031 15.2426 16.3652 16.28C19.3302 17.1315 21.2577 19.5468 21.2577 22.8137ZM11.5424 9.26632H6.3092V14.1976H11.5424C12.99 14.1976 14.0273 13.0828 14.0273 11.7126C14.0273 10.2727 12.9822 9.26632 11.5424 9.26632ZM12.3165 24.2226C13.7641 24.2226 14.8402 23.1853 14.8402 21.6989C14.8402 20.2126 13.7641 19.1752 12.3165 19.1752H6.3092V24.2226H12.3165Z" fill="white"/>
<path d="M23.1699 3.81641H29.061V29.6725H23.1621V3.81641H23.1699Z" fill="white"/>
<path d="M49.8935 11.2324V22.0316C49.8935 24.3695 49.0807 26.2971 47.4086 27.7834C45.7364 29.3007 43.5843 30.0439 40.9523 30.0439C38.3202 30.0439 36.1294 29.3007 34.4573 27.7834C32.7851 26.2971 31.9336 24.3695 31.9336 22.0316V11.2324H37.8325V22.0316C37.8325 23.9205 39.0943 25.1823 40.9136 25.1823C42.7328 25.1823 43.9559 23.9205 43.9559 22.0316V11.2324H49.8935Z" fill="white"/>
<path d="M71.9252 21.6991H58.161C58.5713 24.0757 59.9803 25.5621 62.0162 25.5621C63.6497 25.5621 64.9812 24.6718 65.5773 23.1855H71.6233C71.0659 25.1905 69.9202 26.8239 68.1009 28.1167C66.2817 29.4173 64.238 30.0443 61.9388 30.0443C59.0048 30.0443 56.636 29.1541 54.7394 27.3349C52.8505 25.5156 51.8828 23.2165 51.8828 20.4296C51.8828 17.6504 52.8505 15.3822 54.7394 13.563C56.6283 11.7438 59.0048 10.8535 61.9388 10.8535C64.8728 10.8535 67.2416 11.7438 69.1383 13.563C71.0272 15.3822 71.9561 17.7201 71.9561 20.5379C71.9639 20.956 71.9639 21.3276 71.9252 21.6991ZM58.4165 18.2078H65.8327C65.3528 16.4273 63.9051 15.3512 62.1246 15.3512C60.3131 15.3512 59.0513 16.3189 58.4165 18.2078Z" fill="white"/>
<path d="M90.4584 3.81641H96.7676V29.6725H88.794L80.5572 12.4558V29.6725H74.248V3.81641H82.2603L90.4584 21.0332V3.81641Z" fill="white"/>
<path d="M145.025 3.81641H150.963V29.6725H145.025V27.2262C143.508 29.1151 141.542 30.0441 139.127 30.0441C136.789 30.0441 134.822 29.1538 133.305 27.3346C131.788 25.5154 131.006 23.2162 131.006 20.4293C131.006 17.6502 131.788 15.382 133.305 13.5628C134.822 11.7435 136.796 10.8533 139.127 10.8533C141.542 10.8533 143.5 11.7823 145.025 13.6711V3.81641ZM141.054 24.8884C142.208 24.8884 143.168 24.4781 143.911 23.6265C144.654 22.775 145.025 21.7376 145.025 20.4371C145.025 19.1365 144.654 18.0992 143.911 17.2476C143.168 16.4271 142.208 16.0245 141.054 16.0245C139.908 16.0245 138.941 16.4348 138.198 17.2476C137.416 18.0992 137.052 19.1365 137.052 20.4371C137.052 21.7376 137.423 22.775 138.198 23.6265C138.941 24.4781 139.901 24.8884 141.054 24.8884Z" fill="white"/>
<path d="M172.964 21.6991H159.2C159.61 24.0757 161.019 25.5621 163.055 25.5621C164.689 25.5621 166.02 24.6718 166.616 23.1855H172.662C172.105 25.1905 170.959 26.8239 169.14 28.1167C167.321 29.4173 165.277 30.0443 162.978 30.0443C160.044 30.0443 157.675 29.1541 155.778 27.3349C153.89 25.5156 152.922 23.2165 152.922 20.4296C152.922 17.6504 153.89 15.3822 155.778 13.563C157.667 11.7438 160.044 10.8535 162.978 10.8535C165.912 10.8535 168.281 11.7438 170.177 13.563C172.066 15.3822 172.995 17.7201 172.995 20.5379C173.003 20.956 173.003 21.3276 172.964 21.6991ZM159.463 18.2078H166.88C166.4 16.4273 164.952 15.3512 163.171 15.3512C161.352 15.3512 160.09 16.3189 159.463 18.2078Z" fill="white"/>
<path d="M113.063 20.4529C113.055 21.7457 112.691 22.7753 111.956 23.6269C111.212 24.4784 110.253 24.8887 109.099 24.8887C106.761 24.8887 105.097 23.0695 105.097 20.4374C105.097 19.1369 105.468 18.0996 106.242 17.248C106.978 16.4352 107.938 16.0326 109.084 16.0249V10.8691C106.165 10.8691 103.796 11.7594 101.907 13.5786C100.018 15.3978 99.0508 17.6583 99.0508 20.4452C99.0508 23.2243 100.011 25.5312 101.907 27.3505C103.796 29.1697 106.173 30.0599 109.107 30.0599C112.041 30.0599 114.41 29.1697 116.306 27.3505C118.195 25.539 119.116 23.2398 119.124 20.4684H113.063V20.4529Z" fill="white"/>
<path d="M111.955 17.2473C112.358 17.7117 112.629 18.2382 112.815 18.8188H118.977C118.675 16.7673 117.808 15.0255 116.298 13.5779C114.773 12.1148 112.915 11.2787 110.725 11V16.3648C111.181 16.5583 111.599 16.8525 111.955 17.2473Z" fill="url(#paint0_linear_223_1860)"/>
<path d="M110.717 5.2334V9.59178C112.582 9.89369 118.745 11.4497 120.138 18.8195H124.543C123.103 8.87957 115.013 5.61272 110.717 5.2334Z" fill="url(#paint1_linear_223_1860)"/>
<path d="M125.588 18.8115H130C127.368 1.81148 113.047 0.154827 110.717 0V4.33516C112.884 4.49772 123.242 5.96858 125.588 18.8115Z" fill="url(#paint2_linear_223_1860)"/>
<defs>
<linearGradient id="paint0_linear_223_1860" x1="121.546" y1="8.3801" x2="108.398" y2="21.1838" gradientUnits="userSpaceOnUse">
<stop stop-color="#00F981"/>
<stop offset="1" stop-color="#2822FF"/>
</linearGradient>
<linearGradient id="paint1_linear_223_1860" x1="121.46" y1="8.29307" x2="108.313" y2="21.0968" gradientUnits="userSpaceOnUse">
<stop stop-color="#00F981"/>
<stop offset="1" stop-color="#2822FF"/>
</linearGradient>
<linearGradient id="paint2_linear_223_1860" x1="121.484" y1="8.31693" x2="108.336" y2="21.1206" gradientUnits="userSpaceOnUse">
<stop stop-color="#00F981"/>
<stop offset="1" stop-color="#2822FF"/>
</linearGradient>
</defs>
</svg>
