<svg width="16" height="13" viewBox="0 0 16 13" fill="none" xmlns="http://www.w3.org/2000/svg">
<mask id="path-1-outside-1_2646_13459" maskUnits="userSpaceOnUse" x="7.6875" y="0.827881" width="8" height="12" fill="black">
<rect fill="white" x="7.6875" y="0.827881" width="8" height="12"/>
<path d="M9.18082 11.6393C9.11627 11.6397 9.05228 11.6274 8.99252 11.6029C8.93276 11.5785 8.87841 11.5426 8.83258 11.4971C8.78661 11.4515 8.75012 11.3973 8.72522 11.3375C8.70032 11.2777 8.6875 11.2136 8.6875 11.1489C8.6875 11.0841 8.70032 11.02 8.72522 10.9603C8.75012 10.9005 8.78661 10.8462 8.83258 10.8006L12.9035 6.73462L8.83258 2.6686C8.74022 2.57624 8.68834 2.45097 8.68834 2.32036C8.68834 2.18975 8.74022 2.06448 8.83258 1.97212C8.92494 1.87977 9.0502 1.82788 9.18082 1.82788C9.31143 1.82788 9.43669 1.87977 9.52905 1.97212L13.9433 6.38638C13.9893 6.43198 14.0258 6.48623 14.0507 6.54599C14.0756 6.60576 14.0884 6.66987 14.0884 6.73462C14.0884 6.79937 14.0756 6.86347 14.0507 6.92324C14.0258 6.98301 13.9893 7.03726 13.9433 7.08285L9.52905 11.4971C9.48322 11.5426 9.42887 11.5785 9.36911 11.6029C9.30936 11.6274 9.24537 11.6397 9.18082 11.6393Z"/>
</mask>
<path d="M9.18082 11.6393C9.11627 11.6397 9.05228 11.6274 8.99252 11.6029C8.93276 11.5785 8.87841 11.5426 8.83258 11.4971C8.78661 11.4515 8.75012 11.3973 8.72522 11.3375C8.70032 11.2777 8.6875 11.2136 8.6875 11.1489C8.6875 11.0841 8.70032 11.02 8.72522 10.9603C8.75012 10.9005 8.78661 10.8462 8.83258 10.8006L12.9035 6.73462L8.83258 2.6686C8.74022 2.57624 8.68834 2.45097 8.68834 2.32036C8.68834 2.18975 8.74022 2.06448 8.83258 1.97212C8.92494 1.87977 9.0502 1.82788 9.18082 1.82788C9.31143 1.82788 9.43669 1.87977 9.52905 1.97212L13.9433 6.38638C13.9893 6.43198 14.0258 6.48623 14.0507 6.54599C14.0756 6.60576 14.0884 6.66987 14.0884 6.73462C14.0884 6.79937 14.0756 6.86347 14.0507 6.92324C14.0258 6.98301 13.9893 7.03726 13.9433 7.08285L9.52905 11.4971C9.48322 11.5426 9.42887 11.5785 9.36911 11.6029C9.30936 11.6274 9.24537 11.6397 9.18082 11.6393Z" fill="white"/>
<path d="M9.18082 11.6393L9.1866 10.6393L9.17504 10.6394L9.18082 11.6393ZM8.83258 11.4971L9.5368 10.7871L9.53678 10.7871L8.83258 11.4971ZM8.83258 10.8006L9.53679 11.5106L9.53926 11.5082L8.83258 10.8006ZM12.9035 6.73462L13.6102 7.44215L14.3186 6.73462L13.6102 6.02709L12.9035 6.73462ZM8.83258 2.6686L8.12547 3.3757L8.1259 3.37613L8.83258 2.6686ZM8.68834 2.32036H7.68834H8.68834ZM9.52905 1.97212L10.2362 1.26502L9.52905 1.97212ZM13.9433 6.38638L13.2362 7.0935L13.2391 7.09638L13.9433 6.38638ZM13.9433 7.08285L13.2391 6.37285L13.2362 6.37575L13.9433 7.08285ZM9.52905 11.4971L10.2333 12.2071L10.2362 12.2042L9.52905 11.4971ZM9.17504 10.6394C9.24209 10.639 9.30856 10.6518 9.37065 10.6772L8.6144 12.5287C8.79599 12.6029 8.99045 12.6405 9.1866 12.6393L9.17504 10.6394ZM9.37065 10.6772C9.43274 10.7025 9.4892 10.7399 9.5368 10.7871L8.12836 12.2071C8.26763 12.3452 8.43279 12.4545 8.6144 12.5287L9.37065 10.6772ZM9.53678 10.7871C9.58453 10.8345 9.62244 10.8908 9.64831 10.9529L7.80213 11.7221C7.8778 11.9037 7.98869 12.0686 8.12838 12.2071L9.53678 10.7871ZM9.64831 10.9529C9.67418 11.015 9.6875 11.0816 9.6875 11.1489H7.6875C7.6875 11.3456 7.72646 11.5404 7.80213 11.7221L9.64831 10.9529ZM9.6875 11.1489C9.6875 11.2161 9.67418 11.2827 9.64831 11.3448L7.80213 10.5757C7.72646 10.7573 7.6875 10.9521 7.6875 11.1489H9.6875ZM9.64831 11.3448C9.62244 11.4069 9.58453 11.4633 9.53678 11.5106L8.12838 10.0906C7.98869 10.2292 7.8778 10.394 7.80213 10.5757L9.64831 11.3448ZM9.53926 11.5082L13.6102 7.44215L12.1968 6.02709L8.1259 10.0931L9.53926 11.5082ZM13.6102 6.02709L9.53926 1.96106L8.1259 3.37613L12.1968 7.44215L13.6102 6.02709ZM9.53969 1.96149C9.63487 2.05667 9.68834 2.18576 9.68834 2.32036H7.68834C7.68834 2.71619 7.84558 3.09581 8.12547 3.3757L9.53969 1.96149ZM9.68834 2.32036C9.68834 2.45496 9.63487 2.58405 9.53969 2.67923L8.12547 1.26502C7.84558 1.54491 7.68834 1.92453 7.68834 2.32036H9.68834ZM9.53969 2.67923C9.44451 2.77441 9.31542 2.82788 9.18082 2.82788V0.827881C8.78499 0.827881 8.40537 0.985125 8.12547 1.26502L9.53969 2.67923ZM9.18082 2.82788C9.04621 2.82788 8.91712 2.77441 8.82195 2.67923L10.2362 1.26502C9.95627 0.985125 9.57665 0.827881 9.18082 0.827881V2.82788ZM8.82195 2.67923L13.2362 7.09349L14.6504 5.67928L10.2362 1.26502L8.82195 2.67923ZM13.2391 7.09638C13.1914 7.04902 13.1535 6.99267 13.1276 6.93057L14.9738 6.16142C14.8981 5.97978 14.7872 5.81493 14.6475 5.67638L13.2391 7.09638ZM13.1276 6.93057C13.1017 6.86848 13.0884 6.80188 13.0884 6.73462H15.0884C15.0884 6.53786 15.0494 6.34305 14.9738 6.16142L13.1276 6.93057ZM13.0884 6.73462C13.0884 6.66736 13.1017 6.60076 13.1276 6.53867L14.9738 7.30782C15.0494 7.12619 15.0884 6.93138 15.0884 6.73462H13.0884ZM13.1276 6.53867C13.1535 6.47657 13.1914 6.42021 13.2391 6.37285L14.6475 7.79285C14.7872 7.6543 14.8981 7.48946 14.9738 7.30782L13.1276 6.53867ZM13.2362 6.37575L8.82195 10.79L10.2362 12.2042L14.6504 7.78996L13.2362 6.37575ZM8.82483 10.7871C8.87244 10.7399 8.9289 10.7025 8.99099 10.6772L9.74724 12.5287C9.92884 12.4545 10.094 12.3452 10.2333 12.2071L8.82483 10.7871ZM8.99099 10.6772C9.05307 10.6518 9.11954 10.639 9.1866 10.6394L9.17504 12.6393C9.37119 12.6405 9.56564 12.6029 9.74724 12.5287L8.99099 10.6772Z" fill="white" mask="url(#path-1-outside-1_2646_13459)"/>
<path d="M13.5951 7.72509H1.82379C1.5611 7.72509 1.30917 7.62073 1.12342 7.43498M13.5951 7.72509L1.12342 7.43498M13.5951 7.72509C13.8578 7.72509 14.1098 7.62074 14.2955 7.43499C14.4813 7.24923 14.5856 6.9973 14.5856 6.73461C14.5856 6.47193 14.4813 6.21999 14.2955 6.03424M13.5951 7.72509L14.2955 6.03424M1.12342 7.43498C0.937666 7.24923 0.833313 6.9973 0.833313 6.73461C0.833313 6.47192 0.937666 6.21999 1.12342 6.03424C1.30917 5.84849 1.5611 5.74414 1.82379 5.74414H13.5951C13.8578 5.74414 14.1098 5.84849 14.2955 6.03424M1.12342 7.43498L14.2955 6.03424" fill="white" stroke="white"/>
</svg>
