<svg width="90" height="91" viewBox="0 0 90 91" fill="none" xmlns="http://www.w3.org/2000/svg">
<rect y="0.959961" width="90" height="90" rx="45" fill="url(#paint0_linear_278_3777)"/>
<path d="M54.9803 32.2244C54.8485 32.0927 54.6699 32.0186 54.4836 32.0186H35.5181C35.3318 32.0186 35.1532 32.0927 35.0214 32.2244L31.2644 35.9818C31.1327 36.1134 31.0587 36.2919 31.0586 36.4781V55.4435C31.0587 55.6297 31.1327 55.8082 31.2644 55.9398L35.0214 59.6972C35.1532 59.8289 35.3318 59.903 35.5181 59.9031H54.4836C54.6699 59.903 54.8485 59.8289 54.9803 59.6972L58.7373 55.9398C58.869 55.8082 58.943 55.6297 58.9431 55.4435V36.4781C58.943 36.2919 58.869 36.1134 58.7373 35.9818L54.9803 32.2244ZM57.5388 55.1527L54.1927 58.4988H35.809L32.4628 55.1527V36.769L35.809 33.4228H54.1927L57.5388 36.769V55.1527Z" fill="white"/>
<path d="M67.8704 41.714C68.0566 41.714 68.2352 41.6401 68.3669 41.5084C68.4986 41.3767 68.5725 41.1981 68.5725 41.0119C68.5725 40.8257 68.4986 40.6471 68.3669 40.5154C68.2352 40.3838 68.0566 40.3098 67.8704 40.3098H63.758V36.7654H67.8704C68.0566 36.7654 68.2352 36.6915 68.3669 36.5598C68.4986 36.4281 68.5725 36.2495 68.5725 36.0633C68.5725 35.8771 68.4986 35.6985 68.3669 35.5668C68.2352 35.4352 68.0566 35.3612 67.8704 35.3612H63.758V29.7109C63.7572 29.046 63.4928 28.4086 63.0227 27.9385C62.5526 27.4684 61.9152 27.204 61.2504 27.2033H55.6V23.0908C55.6 22.9046 55.5261 22.726 55.3944 22.5943C55.2627 22.4626 55.0841 22.3887 54.8979 22.3887C54.7117 22.3887 54.5331 22.4626 54.4014 22.5943C54.2698 22.726 54.1958 22.9046 54.1958 23.0908V27.2033H50.6514V23.0908C50.6514 22.9046 50.5775 22.726 50.4458 22.5943C50.3141 22.4626 50.1355 22.3887 49.9493 22.3887C49.7631 22.3887 49.5845 22.4626 49.4528 22.5943C49.3212 22.726 49.2472 22.9046 49.2472 23.0908V27.2033H45.7032V23.0908C45.7032 22.9046 45.6293 22.726 45.4976 22.5943C45.3659 22.4626 45.1873 22.3887 45.0011 22.3887C44.8149 22.3887 44.6363 22.4626 44.5046 22.5943C44.373 22.726 44.299 22.9046 44.299 23.0908V27.2033H40.755V23.0908C40.755 22.9046 40.6811 22.726 40.5494 22.5943C40.4177 22.4626 40.2391 22.3887 40.0529 22.3887C39.8667 22.3887 39.6881 22.4626 39.5564 22.5943C39.4248 22.726 39.3508 22.9046 39.3508 23.0908V27.2033H35.8065V23.0908C35.8065 22.9046 35.7325 22.726 35.6008 22.5943C35.4691 22.4626 35.2905 22.3887 35.1043 22.3887C34.9181 22.3887 34.7395 22.4626 34.6078 22.5943C34.4762 22.726 34.4022 22.9046 34.4022 23.0908V27.2033H28.7519C28.087 27.204 27.4497 27.4684 26.9796 27.9385C26.5095 28.4086 26.245 29.046 26.2443 29.7109V35.3612H22.1318C21.9456 35.3612 21.767 35.4352 21.6353 35.5668C21.5037 35.6985 21.4297 35.8771 21.4297 36.0633C21.4297 36.2495 21.5037 36.4281 21.6353 36.5598C21.767 36.6915 21.9456 36.7654 22.1318 36.7654H26.2443V40.3098H22.1318C21.9456 40.3098 21.767 40.3838 21.6353 40.5154C21.5037 40.6471 21.4297 40.8257 21.4297 41.0119C21.4297 41.1981 21.5037 41.3767 21.6353 41.5084C21.767 41.6401 21.9456 41.714 22.1318 41.714H26.2443V45.258H22.1318C21.9456 45.258 21.767 45.3319 21.6353 45.4636C21.5037 45.5953 21.4297 45.7739 21.4297 45.9601C21.4297 46.1463 21.5037 46.3249 21.6353 46.4566C21.767 46.5883 21.9456 46.6622 22.1318 46.6622H26.2443V50.2062H22.1318C21.9456 50.2062 21.767 50.2801 21.6353 50.4118C21.5037 50.5435 21.4297 50.7221 21.4297 50.9083C21.4297 51.0945 21.5037 51.2731 21.6353 51.4048C21.767 51.5364 21.9456 51.6104 22.1318 51.6104H26.2443V55.1548H22.1318C21.9456 55.1548 21.767 55.2287 21.6353 55.3604C21.5037 55.4921 21.4297 55.6707 21.4297 55.8569C21.4297 56.0431 21.5037 56.2217 21.6353 56.3534C21.767 56.485 21.9456 56.559 22.1318 56.559H26.2443V62.2093C26.245 62.8742 26.5095 63.5116 26.9796 63.9817C27.4497 64.4518 28.087 64.7162 28.7519 64.7169H34.4022V68.8294C34.4022 69.0156 34.4762 69.1942 34.6078 69.3259C34.7395 69.4576 34.9181 69.5315 35.1043 69.5315C35.2905 69.5315 35.4691 69.4576 35.6008 69.3259C35.7325 69.1942 35.8065 69.0156 35.8065 68.8294V64.7169H39.3508V68.8294C39.3508 69.0156 39.4248 69.1942 39.5564 69.3259C39.6881 69.4576 39.8667 69.5315 40.0529 69.5315C40.2391 69.5315 40.4177 69.4576 40.5494 69.3259C40.6811 69.1942 40.755 69.0156 40.755 68.8294V64.7169H44.299V68.8294C44.299 69.0156 44.373 69.1942 44.5046 69.3259C44.6363 69.4576 44.8149 69.5315 45.0011 69.5315C45.1873 69.5315 45.3659 69.4576 45.4976 69.3259C45.6293 69.1942 45.7032 69.0156 45.7032 68.8294V64.7169H49.2472V68.8294C49.2472 69.0156 49.3212 69.1942 49.4528 69.3259C49.5845 69.4576 49.7631 69.5315 49.9493 69.5315C50.1355 69.5315 50.3141 69.4576 50.4458 69.3259C50.5775 69.1942 50.6514 69.0156 50.6514 68.8294V64.7169H54.1958V68.8294C54.1958 69.0156 54.2698 69.1942 54.4014 69.3259C54.5331 69.4576 54.7117 69.5315 54.8979 69.5315C55.0841 69.5315 55.2627 69.4576 55.3944 69.3259C55.5261 69.1942 55.6 69.0156 55.6 68.8294V64.7169H61.2504C61.9152 64.7162 62.5526 64.4518 63.0227 63.9817C63.4928 63.5116 63.7572 62.8742 63.758 62.2093V56.559H67.8704C68.0566 56.559 68.2352 56.485 68.3669 56.3534C68.4986 56.2217 68.5725 56.0431 68.5725 55.8569C68.5725 55.6707 68.4986 55.4921 68.3669 55.3604C68.2352 55.2287 68.0566 55.1548 67.8704 55.1548H63.758V51.6104H67.8704C68.0566 51.6104 68.2352 51.5364 68.3669 51.4048C68.4986 51.2731 68.5725 51.0945 68.5725 50.9083C68.5725 50.7221 68.4986 50.5435 68.3669 50.4118C68.2352 50.2801 68.0566 50.2062 67.8704 50.2062H63.758V46.6622H67.8704C68.0566 46.6622 68.2352 46.5883 68.3669 46.4566C68.4986 46.3249 68.5725 46.1463 68.5725 45.9601C68.5725 45.7739 68.4986 45.5953 68.3669 45.4636C68.2352 45.3319 68.0566 45.258 67.8704 45.258H63.758V41.714H67.8704ZM62.3537 62.2093C62.3534 62.5019 62.237 62.7823 62.0302 62.9892C61.8233 63.196 61.5429 63.3124 61.2504 63.3127H28.7519C28.4593 63.3124 28.1789 63.196 27.972 62.9892C27.7652 62.7823 27.6489 62.5019 27.6485 62.2093V29.7109C27.6489 29.4183 27.7652 29.1379 27.972 28.931C28.1789 28.7242 28.4593 28.6078 28.7519 28.6075H61.2504C61.5429 28.6078 61.8233 28.7242 62.0302 28.931C62.237 29.1379 62.3534 29.4183 62.3537 29.7109V62.2093Z" fill="white"/>
<path d="M45.4024 42.0488H42.9951C42.8089 42.0489 42.6304 42.1229 42.4987 42.2546C42.3671 42.3862 42.2931 42.5648 42.293 42.751V49.1704C42.293 49.3566 42.3669 49.5352 42.4986 49.6669C42.6303 49.7986 42.8089 49.8725 42.9951 49.8725C43.1813 49.8725 43.3599 49.7986 43.4916 49.6669C43.6233 49.5352 43.6972 49.3566 43.6972 49.1704V46.6628H45.4024C46.0142 46.6628 46.601 46.4198 47.0337 45.9871C47.4663 45.5545 47.7094 44.9677 47.7094 44.3558C47.7094 43.744 47.4663 43.1572 47.0337 42.7245C46.601 42.2919 46.0142 42.0488 45.4024 42.0488ZM45.4024 45.2586H43.6972V43.4531H45.4024C45.6418 43.4531 45.8714 43.5482 46.0407 43.7175C46.21 43.8868 46.3051 44.1164 46.3051 44.3558C46.3051 44.5952 46.21 44.8249 46.0407 44.9942C45.8714 45.1634 45.6418 45.2586 45.4024 45.2586Z" fill="white"/>
<path d="M36.5765 43.4531H39.7862C39.9725 43.4531 40.1511 43.3791 40.2827 43.2474C40.4144 43.1158 40.4884 42.9372 40.4884 42.751C40.4884 42.5647 40.4144 42.3862 40.2827 42.2545C40.1511 42.1228 39.9725 42.0488 39.7862 42.0488H36.5765C35.9649 42.0496 35.3785 42.2929 34.9461 42.7254C34.5136 43.1578 34.2703 43.7442 34.2695 44.3558V47.5655C34.2703 48.1772 34.5136 48.7635 34.9461 49.196C35.3785 49.6285 35.9649 49.8718 36.5765 49.8725H38.1814C38.793 49.8718 39.3794 49.6285 39.8119 49.196C40.2443 48.7635 40.4876 48.1772 40.4884 47.5655V45.9607C40.4884 45.7745 40.4144 45.5959 40.2827 45.4642C40.1511 45.3325 39.9725 45.2586 39.7862 45.2586H38.1814C37.9952 45.2586 37.8166 45.3325 37.6849 45.4642C37.5532 45.5959 37.4793 45.7745 37.4793 45.9607C37.4793 46.1469 37.5532 46.3255 37.6849 46.4572C37.8166 46.5888 37.9952 46.6628 38.1814 46.6628H39.0841V47.5655C39.0838 47.8049 38.9886 48.0343 38.8194 48.2035C38.6501 48.3728 38.4207 48.468 38.1814 48.4683H36.5765C36.3372 48.468 36.1078 48.3728 35.9385 48.2035C35.7693 48.0343 35.6741 47.8049 35.6738 47.5655V44.3558C35.6741 44.1165 35.7693 43.8871 35.9385 43.7178C36.1078 43.5486 36.3372 43.4534 36.5765 43.4531Z" fill="white"/>
<path d="M53.4275 48.4683H51.8226C51.5833 48.468 51.3539 48.3728 51.1846 48.2035C51.0154 48.0343 50.9202 47.8049 50.9199 47.5655V42.751C50.9199 42.5647 50.8459 42.3862 50.7142 42.2545C50.5826 42.1228 50.404 42.0488 50.2178 42.0488C50.0315 42.0488 49.8529 42.1228 49.7213 42.2545C49.5896 42.3862 49.5156 42.5647 49.5156 42.751V47.5655C49.5164 48.1772 49.7597 48.7635 50.1921 49.196C50.6246 49.6285 51.211 49.8718 51.8226 49.8725H53.4275C54.0391 49.8718 54.6255 49.6285 55.0579 49.196C55.4904 48.7635 55.7337 48.1772 55.7345 47.5655V42.751C55.7345 42.5647 55.6605 42.3862 55.5288 42.2545C55.3971 42.1228 55.2186 42.0488 55.0323 42.0488C54.8461 42.0488 54.6675 42.1228 54.5359 42.2545C54.4042 42.3862 54.3302 42.5647 54.3302 42.751V47.5655C54.3299 47.8049 54.2347 48.0343 54.0655 48.2035C53.8962 48.3728 53.6668 48.468 53.4275 48.4683Z" fill="white"/>
<defs>
<linearGradient id="paint0_linear_278_3777" x1="45" y1="0.959961" x2="45" y2="90.96" gradientUnits="userSpaceOnUse">
<stop stop-color="#00F981"/>
<stop offset="1" stop-color="#0056FB"/>
</linearGradient>
</defs>
</svg>
