<svg width="90" height="91" viewBox="0 0 90 91" fill="none" xmlns="http://www.w3.org/2000/svg">
<rect y="0.959961" width="90" height="90" rx="45" fill="url(#paint0_linear_278_3795)"/>
<path fill-rule="evenodd" clip-rule="evenodd" d="M36.2868 25.0513L33.2434 22.0074C33.1882 21.9522 33.1444 21.8866 33.1145 21.8144C33.0846 21.7422 33.0692 21.6648 33.0693 21.5867C33.0693 21.5086 33.0847 21.4313 33.1146 21.3591C33.1445 21.2869 33.1883 21.2213 33.2436 21.1661C33.2988 21.1109 33.3644 21.0671 33.4366 21.0372C33.5088 21.0073 33.5862 20.992 33.6643 20.992C33.7424 20.992 33.8198 21.0074 33.8919 21.0373C33.9641 21.0672 34.0297 21.1111 34.0849 21.1663L37.1283 24.2103C37.2117 24.2934 37.2684 24.3994 37.2914 24.5149C37.3145 24.6303 37.3027 24.75 37.2576 24.8587C37.2126 24.9675 37.1363 25.0604 37.0383 25.1257C36.9404 25.191 36.8253 25.2258 36.7076 25.2257C36.5499 25.2251 36.3987 25.1624 36.2868 25.0513ZM29.7045 32.3275H34.0195C34.1772 32.3275 34.3284 32.3901 34.4399 32.5016C34.5514 32.6131 34.6141 32.7644 34.6141 32.9221C34.6141 33.0797 34.5514 33.231 34.4399 33.3425C34.3284 33.454 34.1772 33.5166 34.0195 33.5166H29.7045C29.5468 33.5166 29.3956 33.454 29.2841 33.3425C29.1726 33.231 29.1099 33.0797 29.1099 32.9221C29.1099 32.7644 29.1726 32.6131 29.2841 32.5016C29.3956 32.3901 29.5468 32.3275 29.7045 32.3275ZM55.9827 32.3275H60.2933C60.451 32.3275 60.6022 32.3901 60.7137 32.5016C60.8252 32.6131 60.8879 32.7644 60.8879 32.9221C60.8879 33.0797 60.8252 33.231 60.7137 33.3425C60.6022 33.454 60.451 33.5166 60.2933 33.5166H55.9827C55.8251 33.5166 55.6738 33.454 55.5623 33.3425C55.4508 33.231 55.3882 33.0797 55.3882 32.9221C55.3882 32.7644 55.4508 32.6131 55.5623 32.5016C55.6738 32.3901 55.8251 32.3275 55.9827 32.3275ZM56.7541 21.1663C56.8096 21.2214 56.8537 21.2869 56.8838 21.3591C56.9139 21.4312 56.9294 21.5087 56.9294 21.5869C56.9294 21.6651 56.9139 21.7425 56.8838 21.8147C56.8537 21.8869 56.8096 21.9524 56.7541 22.0074L53.7103 25.0513C53.6552 25.1067 53.5896 25.1506 53.5174 25.1806C53.4452 25.2105 53.3678 25.2258 53.2896 25.2257C53.1719 25.2258 53.0568 25.191 52.9588 25.1257C52.8609 25.0604 52.7846 24.9675 52.7395 24.8587C52.6945 24.75 52.6827 24.6303 52.7057 24.5149C52.7287 24.3994 52.7855 24.2934 52.8688 24.2103L55.9169 21.1663C55.9717 21.1111 56.0369 21.0673 56.1087 21.0374C56.1806 21.0075 56.2576 20.9921 56.3354 20.9921C56.4132 20.9921 56.4902 21.0075 56.562 21.0374C56.6338 21.0673 56.699 21.1111 56.7538 21.1663H56.7541ZM45.0016 21.4697C44.8441 21.4695 44.693 21.4068 44.5817 21.2953C44.4704 21.1838 44.4078 21.0327 44.4078 20.8752V16.5754C44.4049 16.4957 44.4181 16.4162 44.4466 16.3416C44.4751 16.2671 44.5184 16.1991 44.5738 16.1416C44.6291 16.0842 44.6955 16.0385 44.769 16.0073C44.8424 15.976 44.9214 15.96 45.0012 15.96C45.081 15.96 45.16 15.976 45.2334 16.0073C45.3069 16.0385 45.3733 16.0842 45.4287 16.1416C45.4841 16.1991 45.5273 16.2671 45.5558 16.3416C45.5843 16.4162 45.5975 16.4957 45.5946 16.5754V20.8751C45.5946 21.0326 45.5321 21.1837 45.4208 21.2952C45.3094 21.4067 45.1585 21.4694 45.0009 21.4696L45.0016 21.4697ZM26.0906 35.9558H36.0905C36.7752 37.4596 37.8284 38.7663 39.1525 39.7546V40.4597C39.1544 41.9155 39.6905 43.32 40.659 44.4068C41.6276 45.4937 42.9613 46.1873 44.4073 46.3562V63.3761C43.4837 62.641 42.3385 62.2402 41.1581 62.2387H26.0906V35.9558ZM45.0011 23.3039C43.1855 23.3032 41.4162 23.8773 39.9469 24.9438C38.4775 26.0103 37.3834 27.5145 36.8213 29.241C36.2593 30.9674 36.2581 32.8275 36.818 34.5546C37.3778 36.2818 38.47 37.7874 39.938 38.8558H44.4072V33.448C43.7775 33.3022 43.2234 32.9299 42.8507 32.4019C42.4779 31.8738 42.3124 31.2271 42.3858 30.585C42.4591 29.9428 42.7662 29.3501 43.2485 28.9198C43.7308 28.4895 44.3545 28.2516 45.0009 28.2516C45.6472 28.2516 46.271 28.4895 46.7532 28.9198C47.2355 29.3501 47.5426 29.9428 47.616 30.585C47.6893 31.2271 47.5239 31.8738 47.1511 32.4019C46.7783 32.9299 46.2243 33.3022 45.5946 33.448V38.8557H50.0637C50.0685 38.8524 50.0736 38.8477 50.0778 38.844C51.5409 37.7729 52.628 36.2667 53.1838 34.5407C53.7397 32.8148 53.7358 30.9573 53.1727 29.2336C52.6096 27.51 51.5162 26.0085 50.0486 24.9435C48.581 23.8785 46.8144 23.3047 45.0011 23.3039ZM63.907 35.9558V62.2387H48.844C47.6632 62.2386 46.5175 62.6396 45.5946 63.3761V46.374C47.0756 46.2459 48.4548 45.5676 49.4604 44.4728C50.466 43.378 51.0249 41.9462 51.027 40.4597V39.6191C52.2647 38.6445 53.252 37.3886 53.9068 35.9558H63.907ZM49.4145 42.4078H40.7608C41.1354 43.2418 41.7431 43.9499 42.5107 44.4466C43.2784 44.9434 44.1732 45.2076 45.0876 45.2076C46.0019 45.2076 46.8968 44.9434 47.6644 44.4466C48.432 43.9499 49.0397 43.2418 49.4143 42.4078H49.4145ZM45.0011 32.3275C44.7154 32.3275 44.4361 32.2428 44.1985 32.084C43.961 31.9253 43.7758 31.6997 43.6665 31.4357C43.5572 31.1718 43.5286 30.8813 43.5843 30.6011C43.64 30.3209 43.7776 30.0635 43.9796 29.8614C44.1817 29.6594 44.4391 29.5218 44.7193 29.4661C44.9995 29.4103 45.29 29.439 45.5539 29.5483C45.8179 29.6576 46.0435 29.8428 46.2022 30.0803C46.361 30.3179 46.4457 30.5972 46.4457 30.8829C46.4457 31.0726 46.4084 31.2605 46.3358 31.4358C46.2632 31.6111 46.1568 31.7703 46.0227 31.9045C45.8885 32.0386 45.7293 32.145 45.554 32.2176C45.3787 32.2902 45.1908 32.3275 45.0011 32.3275ZM49.8351 40.045H40.3401V40.4597C40.3413 40.7139 40.3616 40.9677 40.4009 41.2188H49.7743C49.8159 40.9679 49.8362 40.714 49.8351 40.4597V40.045ZM65.0943 62.8334C65.0947 62.9115 65.0797 62.9889 65.05 63.0612C65.0203 63.1335 64.9766 63.1992 64.9214 63.2545C64.8662 63.3098 64.8006 63.3536 64.7284 63.3833C64.6562 63.4131 64.5787 63.4283 64.5006 63.4279H48.8439C48.1811 63.4289 47.5288 63.5928 46.9443 63.9052C46.3598 64.2176 45.861 64.6689 45.4919 65.2193C45.438 65.3 45.365 65.3662 45.2793 65.4118C45.1937 65.4575 45.0981 65.4813 45.001 65.4811C44.9034 65.4808 44.8073 65.4569 44.721 65.4113C44.6347 65.3657 44.5608 65.2998 44.5055 65.2193C44.1374 64.6691 43.6394 64.2178 43.0557 63.9054C42.4719 63.593 41.8203 63.429 41.1582 63.4279H25.4969C25.3393 63.4277 25.1883 63.365 25.077 63.2535C24.9657 63.142 24.9032 62.9909 24.9032 62.8334V40.9828H22.6171V65.5275H67.3804V40.9828H65.0943V62.8334ZM24.9032 35.361V39.7935H22.0234C21.8658 39.7937 21.7148 39.8565 21.6035 39.9679C21.4922 40.0794 21.4297 40.2305 21.4297 40.388V66.1221C21.4297 66.2796 21.4922 66.4307 21.6035 66.5422C21.7148 66.6537 21.8658 66.7164 22.0234 66.7166H67.9788C68.1363 66.7164 68.2874 66.6537 68.3987 66.5422C68.51 66.4307 68.5725 66.2796 68.5725 66.1221V40.3881C68.5725 40.2306 68.51 40.0795 68.3987 39.968C68.2874 39.8565 68.1363 39.7938 67.9788 39.7936H65.0943V35.3611C65.0946 35.283 65.0795 35.2056 65.0498 35.1334C65.0202 35.0611 64.9764 34.9955 64.9213 34.9402C64.8661 34.8849 64.8005 34.8411 64.7283 34.8113C64.6561 34.7815 64.5787 34.7663 64.5006 34.7666H54.3558C54.6438 33.8397 54.7903 32.8747 54.7905 31.9041C54.7917 30.4955 54.4888 29.1033 53.9026 27.8225C53.3165 26.5417 52.4608 25.4024 51.3941 24.4826C50.3273 23.5627 49.0747 22.8839 47.7216 22.4924C46.3685 22.101 44.9469 22.0061 43.5538 22.2144C42.1607 22.4226 40.829 22.929 39.6495 23.699C38.47 24.469 37.4706 25.4845 36.7195 26.6761C35.9684 27.8677 35.4832 29.2073 35.2972 30.6035C35.1112 31.9998 35.2287 33.4197 35.6417 34.7664H25.4969C25.3393 34.7666 25.1883 34.8294 25.077 34.9409C24.9657 35.0524 24.9032 35.2035 24.9032 35.361Z" fill="white"/>
<defs>
<linearGradient id="paint0_linear_278_3795" x1="45" y1="0.959961" x2="45" y2="90.96" gradientUnits="userSpaceOnUse">
<stop stop-color="#00F981"/>
<stop offset="1" stop-color="#0056FB"/>
</linearGradient>
</defs>
</svg>
