<svg width="90" height="91" viewBox="0 0 90 91" fill="none" xmlns="http://www.w3.org/2000/svg">
<rect y="0.959961" width="90" height="90" rx="45" fill="url(#paint0_linear_278_3760)"/>
<path d="M67.5981 32.8652C66.985 32.4205 66.1946 32.2999 65.4767 32.5415L53.4011 36.5652L53.3916 36.5699C53.3093 36.5995 53.2325 36.6428 53.1646 36.698C53.144 36.7158 53.1243 36.7347 53.1056 36.7545C53.0549 36.8035 53.0113 36.8593 52.976 36.9203C52.9674 36.9352 52.9524 36.9439 52.9446 36.9596L51.8571 39.1305C51.5475 38.4091 51.1854 37.7113 50.7736 37.0429C49.8575 35.5676 48.762 34.2115 47.5121 33.0059L47.7628 32.7552C48.2149 32.3027 48.3476 31.6213 48.0983 31.0322L49.2879 29.8426C49.73 29.4005 49.9784 28.8009 49.9784 28.1757C49.9784 27.5505 49.73 26.9509 49.2879 26.5088L48.7379 25.9588C47.8051 25.0681 46.3369 25.0681 45.4041 25.9588L44.2114 27.1476C43.6231 26.8992 42.9429 27.0315 42.4906 27.4823L42.24 27.733C41.0343 26.4831 39.6783 25.3875 38.203 24.4715C34.4528 22.1732 30.69 21.7686 27.3216 23.2992C27.0362 23.4272 26.8539 23.7123 26.8575 24.0251C26.8611 24.3379 27.0499 24.6187 27.3381 24.7402C31.1756 26.3855 36.0054 30.8075 37.6255 32.3506L37.3584 32.6177C36.9068 33.0703 36.7745 33.7513 37.0236 34.34L22.2357 49.1232C21.449 49.9084 21.2134 51.0906 21.6389 52.1174C22.0645 53.1442 23.0673 53.8131 24.1788 53.8116C24.9076 53.8141 25.6071 53.5253 26.1219 53.0094L40.909 38.2215C41.4977 38.4706 42.1787 38.3382 42.6313 37.8867L42.8984 37.6196C45.0098 39.8195 46.9455 42.1815 48.6876 44.6839L40.8697 47.2902C40.2336 47.4999 39.6423 47.8266 39.1262 48.2535L31.1504 54.7749C31.0922 54.8236 31.0414 54.8805 30.9996 54.9438C30.9996 54.9485 30.9909 54.9509 30.9878 54.9564C30.9846 54.9619 30.9815 54.9776 30.9752 54.9878C30.9334 55.0588 30.9032 55.136 30.8856 55.2164C30.8856 55.2314 30.8762 55.2455 30.8739 55.2605C30.8618 55.3332 30.8599 55.4072 30.8684 55.4805L31.5755 61.1557L24.4554 63.8954C22.64 64.6023 21.4415 66.3473 21.4335 68.2954V68.7402C21.4335 69.1741 21.7853 69.5259 22.2192 69.5259H67.7906C68.2246 69.5259 68.5764 69.1741 68.5764 68.7402V34.7777C68.5805 34.0191 68.2157 33.3058 67.5981 32.8652ZM65.9709 34.032C66.2105 33.9522 66.4739 33.9925 66.6788 34.1402C66.8836 34.2879 67.005 34.5251 67.0049 34.7777V37.6927L63.437 40.2415C62.7005 40.7633 61.7318 40.8221 60.9376 40.3932L55.6089 37.486L65.9709 34.032ZM45.8197 32.4763L42.3516 35.9445L41.5226 36.7726L38.4717 33.7217L39.303 32.8896L42.7711 29.4215L43.6009 28.5902L43.7391 28.7285L46.5135 31.5028L46.6518 31.6411L45.8205 32.4724L45.8197 32.4763ZM46.5135 27.0682C46.8242 26.7711 47.3138 26.7711 47.6245 27.0682L48.1745 27.6182C48.4812 27.9251 48.4812 28.4224 48.1745 28.7292L47.0666 29.8371L45.4056 28.1761L46.5135 27.0682ZM41.1251 28.8463L38.7381 31.2341C35.9895 28.5491 32.9529 26.1758 29.6835 24.1572C34.9195 23.0116 39.6385 27.3087 41.1251 28.8463ZM25.0109 51.8976C24.5445 52.3395 23.8139 52.3395 23.3475 51.8976C22.8895 51.4377 22.8895 50.6941 23.3475 50.2342L38.0514 35.5296L39.7155 37.1937L25.0109 51.8976ZM45.2037 35.3127L46.398 34.1185C47.938 35.6042 52.2429 40.313 51.0864 45.5632C49.0678 42.2933 46.6944 39.2562 44.0094 36.507L45.2037 35.3127ZM40.1201 49.469C40.4879 49.1648 40.9092 48.932 41.3624 48.7822L49.5542 46.0519C49.9108 46.65 50.2296 47.2698 50.5089 47.9077C50.6314 48.1937 50.9112 48.3804 51.2223 48.3839H51.2309C51.3915 48.3826 51.5478 48.3321 51.6788 48.2393L52.9359 49.4965C52.8645 49.619 52.8253 49.7577 52.822 49.8995C52.8248 50.3168 53.1253 50.6725 53.5362 50.745C55.1481 51.0398 56.4101 52.2999 56.7074 53.9114C56.7767 54.3247 57.134 54.6278 57.5531 54.6287C57.9722 54.6297 58.3309 54.3283 58.4021 53.9153C58.5131 53.3046 58.7703 52.7298 59.1517 52.2402H59.5014C60.2579 52.2399 60.9686 52.6028 61.4121 53.2158C61.8555 53.8288 61.9777 54.6174 61.7406 55.3359L61.2519 56.7847C61.0202 57.4915 60.4659 58.0458 59.7591 58.2776L46.1835 62.8025C45.5082 63.032 44.765 62.9387 44.1674 62.5495L32.9835 55.3092L40.1201 49.469ZM58.3825 49.0761C58.6978 49.3944 59.0509 49.6731 59.4338 49.9058C59.0526 50.1365 58.7014 50.4134 58.388 50.73C58.3393 50.778 58.2992 50.8322 58.2529 50.8817C58.228 50.9062 58.2048 50.9324 58.1837 50.9602C57.948 51.2137 57.7375 51.4895 57.5551 51.7837C57.3243 51.4022 57.0472 51.0507 56.7301 50.7371C56.7113 50.7175 56.6901 50.7025 56.6704 50.6837C56.6508 50.6648 56.6445 50.6609 56.6319 50.6491C56.3411 50.3659 56.0196 50.116 55.6734 49.9042C56.4426 49.4395 57.0873 48.7948 57.552 48.0256C57.7853 48.4073 58.0648 48.7588 58.3841 49.0722L58.3825 49.0761ZM23.0238 67.9544C23.156 66.7867 23.9244 65.7883 25.0195 65.3616L32.3266 62.5503L40.1335 67.9544H23.0238ZM33.1697 61.2224L32.6362 56.9584L43.3133 63.8687C44.3123 64.5199 45.555 64.676 46.684 64.2922L60.2604 59.7665C61.4358 59.3806 62.3577 58.4589 62.744 57.2837L63.2327 55.8348C63.8914 53.8452 62.8744 51.6886 60.9204 50.9312C61.1338 50.8512 61.3538 50.7902 61.578 50.7489C61.9901 50.6776 62.2911 50.3201 62.2911 49.9019C62.2911 49.4837 61.9901 49.1261 61.578 49.0549C59.9646 48.758 58.7029 47.4944 58.4084 45.8806C58.3347 45.4691 57.9771 45.1694 57.5591 45.1687H57.5551C57.139 45.1726 56.7847 45.4724 56.7121 45.8822C56.4776 47.1624 55.6243 48.2435 54.4335 48.7689L52.3977 46.7402C52.9492 44.9574 53.0035 43.0579 52.5549 41.2464L53.9841 38.3951L60.1834 41.7737C61.5065 42.4884 63.1205 42.3906 64.3476 41.5215L67.0049 39.624V61.3434L66.8054 61.1439C65.6106 59.9461 63.7825 59.6493 62.2702 60.4077L57.376 62.8544C56.617 63.2362 56.001 63.8522 55.6191 64.6112L53.9479 67.9544H42.8929L33.1697 61.2224ZM55.7048 67.9544L57.0248 65.3144C57.254 64.8593 57.6238 64.4902 58.0792 64.2616L62.9726 61.8149C63.8803 61.3608 64.9768 61.5386 65.6944 62.2565L67.0049 63.5655V67.9544H55.7048Z" fill="white"/>
<path d="M44.8967 55.4624C46.5086 55.7572 47.7707 57.0173 48.0679 58.6288C48.1372 59.0421 48.4945 59.3452 48.9136 59.3462C49.3327 59.3471 49.6914 59.0457 49.7626 58.6327C50.0591 57.0198 51.3215 55.758 52.9346 55.4624C53.3467 55.3911 53.6477 55.0336 53.6477 54.6154C53.6477 54.1971 53.3467 53.8396 52.9346 53.7684C51.3212 53.4715 50.0595 52.2079 49.765 50.5941C49.6906 50.1832 49.3332 49.8843 48.9156 49.8838H48.9117C48.4956 49.8876 48.1413 50.1875 48.0686 50.5972C47.7753 52.2136 46.5095 53.4781 44.8928 53.7699C44.4807 53.8412 44.1797 54.1987 44.1797 54.6169C44.1797 55.0351 44.4807 55.3927 44.8928 55.4639L44.8967 55.4624ZM48.9133 52.7359C49.3821 53.5025 50.0259 54.1471 50.7919 54.6169C50.0272 55.0857 49.3845 55.7289 48.9164 56.494C48.6856 56.1125 48.4085 55.761 48.0914 55.4474C47.7748 55.1274 47.4198 54.8476 47.0346 54.6146C47.8038 54.1499 48.4486 53.5051 48.9133 52.7359Z" fill="white"/>
<defs>
<linearGradient id="paint0_linear_278_3760" x1="45" y1="0.959961" x2="45" y2="90.96" gradientUnits="userSpaceOnUse">
<stop stop-color="#00F981"/>
<stop offset="1" stop-color="#0056FB"/>
</linearGradient>
</defs>
</svg>
