<svg width="210" height="59" viewBox="0 0 210 59" fill="none" xmlns="http://www.w3.org/2000/svg">
<path d="M66.1314 28.1801C66.1314 37.5798 72.1679 44.1338 80.5329 44.1338C88.8978 44.1338 94.9344 37.5798 94.9344 28.1801C94.9344 18.7803 88.8978 12.2263 80.5329 12.2263C72.1679 12.2263 66.1314 18.7803 66.1314 28.1801ZM89.4152 28.1801C89.4152 34.9065 85.7502 39.2615 80.5329 39.2615C75.3156 39.2615 71.6505 34.9065 71.6505 28.1801C71.6505 21.4536 75.3156 17.0987 80.5329 17.0987C85.7502 17.0987 89.4152 21.4536 89.4152 28.1801ZM110.477 44.1338C116.815 44.1338 120.437 38.7872 120.437 32.3625C120.437 25.9379 116.815 20.5913 110.477 20.5913C107.545 20.5913 105.389 21.7555 103.966 23.4371V21.0224H98.7916V51.4208H103.966V41.288C105.389 42.9696 107.545 44.1338 110.477 44.1338ZM103.836 31.7158C103.836 27.4471 106.251 25.1187 109.442 25.1187C113.193 25.1187 115.22 28.0507 115.22 32.3625C115.22 36.6744 113.193 39.6064 109.442 39.6064C106.251 39.6064 103.836 37.2349 103.836 33.0524V31.7158ZM134.44 44.1338C138.967 44.1338 142.546 41.7623 144.141 37.7954L139.7 36.1138C139.01 38.4422 136.984 39.7358 134.44 39.7358C131.12 39.7358 128.791 37.3643 128.403 33.4836H144.271V31.7589C144.271 25.5499 140.778 20.5913 134.224 20.5913C127.67 20.5913 123.444 25.7223 123.444 32.3625C123.444 39.3477 127.972 44.1338 134.44 44.1338ZM134.181 24.9462C137.458 24.9462 139.01 27.1021 139.053 29.603H128.662C129.438 26.5416 131.508 24.9462 134.181 24.9462ZM148.153 43.6595H153.327V30.3791C153.327 27.1452 155.699 25.4205 158.027 25.4205C160.873 25.4205 161.994 27.4471 161.994 30.2497V43.6595H167.168V28.7406C167.168 23.8682 164.322 20.5913 159.579 20.5913C156.647 20.5913 154.621 21.9279 153.327 23.4371V21.0224H148.153V43.6595ZM182.322 12.7006L170.594 43.6595H176.07L178.701 36.5881H192.067L194.741 43.6595H200.303L188.575 12.7006H182.322ZM185.341 18.8234L190.256 31.7589H180.511L185.341 18.8234ZM209.185 12.7905H203.666V43.7493H209.185V12.7905ZM53.487 24.0713C54.1315 22.1358 54.3552 20.0851 54.1429 18.0562C53.9307 16.0274 53.2874 14.0673 52.2563 12.3072C49.1194 6.84553 42.8134 4.03565 36.6547 5.35795C35.3007 3.83234 33.6365 2.61344 31.7735 1.78278C29.9105 0.952123 27.8915 0.528852 25.8518 0.541282C19.5565 0.526909 13.9709 4.58002 12.0342 10.5699C10.0351 10.9791 8.14649 11.8107 6.49474 13.0088C4.843 14.2069 3.46621 15.7441 2.45653 17.5173C-0.703681 22.9646 0.0167527 29.8311 4.23875 34.5023C3.59419 36.4377 3.37055 38.4885 3.58279 40.5173C3.79503 42.5462 4.43826 44.5063 5.46941 46.2664C8.60626 51.728 14.9123 54.5379 21.071 53.2156C22.4248 54.7414 24.0889 55.9604 25.952 56.7908C27.8151 57.6211 29.8342 58.0438 31.8739 58.0305C38.1728 58.0466 43.7602 53.9899 45.6969 47.9947C47.696 47.5854 49.5846 46.7539 51.2364 45.5558C52.8881 44.3576 54.2649 42.8205 55.2746 41.0473C58.4312 35.6 57.709 28.7388 53.4888 24.0677L53.487 24.0713ZM31.8775 54.2738C29.3571 54.2778 26.9156 53.395 24.9804 51.7801C25.0684 51.7334 25.2212 51.649 25.32 51.5879L36.7679 44.9764C37.0554 44.813 37.2942 44.5758 37.4597 44.2894C37.6252 44.003 37.7113 43.6777 37.7093 43.3469V27.2081L42.5475 30.0018C42.5996 30.027 42.6337 30.0773 42.6409 30.1348V43.4996C42.6337 49.4427 37.8207 54.2612 31.8775 54.2738ZM8.73023 44.3871C7.46749 42.2065 7.01272 39.6508 7.44567 37.1684C7.5301 37.2187 7.67922 37.3104 7.78522 37.3714L19.2331 43.9829C19.8134 44.3225 20.532 44.3225 21.1141 43.9829L35.0898 35.9126V41.5C35.0934 41.5575 35.0665 41.6132 35.0216 41.6491L23.4497 48.3307C18.2953 51.2986 11.7126 49.5344 8.73203 44.3871H8.73023ZM5.71734 19.3983C6.97496 17.2137 8.96019 15.5428 11.3245 14.6751C11.3245 14.7739 11.3191 14.9482 11.3191 15.0703V28.2951C11.3155 28.967 11.6748 29.5904 12.2587 29.9228L26.2344 37.9913L21.3962 40.785C21.3477 40.8173 21.2866 40.8227 21.2327 40.7993L9.65907 34.1124C4.51542 31.1337 2.75117 24.5527 5.71555 19.4001L5.71734 19.3983ZM45.4688 28.649L31.4931 20.5787L36.3313 17.7868C36.3798 17.7544 36.4409 17.7491 36.4948 17.7724L48.0684 24.4539C53.2211 27.4309 54.9871 34.0226 52.0102 39.1752C50.7512 41.356 48.7678 43.0266 46.4048 43.8967V30.2767C46.4102 29.6048 46.0527 28.9831 45.4706 28.649H45.4688ZM50.2836 21.4015C50.1992 21.3494 50.0501 21.2596 49.9441 21.1985L38.4962 14.587C38.2108 14.4203 37.8862 14.3324 37.5557 14.3324C37.2251 14.3324 36.9005 14.4203 36.6152 14.587L22.6395 22.6573V17.0699C22.6359 17.0124 22.6628 16.9568 22.7077 16.9208L34.2796 10.2447C39.434 7.27132 46.0239 9.04096 48.9955 14.1972C50.2514 16.3751 50.7058 18.9238 50.28 21.4015H50.2836ZM20.0092 31.36L15.1692 28.5663C15.1438 28.5538 15.1219 28.535 15.1055 28.5118C15.0892 28.4886 15.079 28.4616 15.0758 28.4334V15.0685C15.0794 9.11822 19.9068 4.29616 25.8572 4.29975C28.3742 4.29975 30.8104 5.18368 32.7453 6.79343C32.6573 6.84014 32.5063 6.92458 32.4057 6.98566L20.9578 13.5971C20.6704 13.7602 20.4316 13.997 20.2661 14.2831C20.1006 14.5692 20.0144 14.8943 20.0164 15.2248L20.0092 31.3564V31.36ZM22.6377 25.6936L28.8629 22.0986L35.088 25.6918V32.88L28.8629 36.4731L22.6377 32.88V25.6936Z" fill="white"/>
</svg>
