<svg width="15" height="13" viewBox="0 0 15 13" fill="none" xmlns="http://www.w3.org/2000/svg">
<mask id="path-1-outside-1_2646_13464" maskUnits="userSpaceOnUse" x="-0.354126" y="0.827881" width="8" height="12" fill="black">
<rect fill="white" x="-0.354126" y="0.827881" width="8" height="12"/>
<path d="M6.15256 11.6393C6.21711 11.6397 6.2811 11.6274 6.34085 11.6029C6.40061 11.5785 6.45496 11.5426 6.50079 11.4971C6.54676 11.4515 6.58325 11.3973 6.60815 11.3375C6.63305 11.2777 6.64587 11.2136 6.64587 11.1489C6.64587 11.0841 6.63305 11.02 6.60815 10.9603C6.58325 10.9005 6.54676 10.8462 6.50079 10.8006L2.42987 6.73462L6.50079 2.6686C6.59315 2.57624 6.64504 2.45097 6.64504 2.32036C6.64504 2.18975 6.59315 2.06448 6.50079 1.97212C6.40843 1.87977 6.28317 1.82788 6.15256 1.82788C6.02194 1.82788 5.89668 1.87977 5.80432 1.97212L1.39006 6.38638C1.34409 6.43198 1.3076 6.48623 1.2827 6.54599C1.2578 6.60576 1.24498 6.66987 1.24498 6.73462C1.24498 6.79937 1.2578 6.86347 1.2827 6.92324C1.3076 6.98301 1.34409 7.03726 1.39006 7.08285L5.80432 11.4971C5.85015 11.5426 5.9045 11.5785 5.96426 11.6029C6.02402 11.6274 6.08801 11.6397 6.15256 11.6393Z"/>
</mask>
<path d="M6.15256 11.6393C6.21711 11.6397 6.2811 11.6274 6.34085 11.6029C6.40061 11.5785 6.45496 11.5426 6.50079 11.4971C6.54676 11.4515 6.58325 11.3973 6.60815 11.3375C6.63305 11.2777 6.64587 11.2136 6.64587 11.1489C6.64587 11.0841 6.63305 11.02 6.60815 10.9603C6.58325 10.9005 6.54676 10.8462 6.50079 10.8006L2.42987 6.73462L6.50079 2.6686C6.59315 2.57624 6.64504 2.45097 6.64504 2.32036C6.64504 2.18975 6.59315 2.06448 6.50079 1.97212C6.40843 1.87977 6.28317 1.82788 6.15256 1.82788C6.02194 1.82788 5.89668 1.87977 5.80432 1.97212L1.39006 6.38638C1.34409 6.43198 1.3076 6.48623 1.2827 6.54599C1.2578 6.60576 1.24498 6.66987 1.24498 6.73462C1.24498 6.79937 1.2578 6.86347 1.2827 6.92324C1.3076 6.98301 1.34409 7.03726 1.39006 7.08285L5.80432 11.4971C5.85015 11.5426 5.9045 11.5785 5.96426 11.6029C6.02402 11.6274 6.08801 11.6397 6.15256 11.6393Z" fill="white"/>
<path d="M6.15256 11.6393L6.14678 10.6393L6.15834 10.6394L6.15256 11.6393ZM6.50079 11.4971L5.79657 10.7871L5.79659 10.7871L6.50079 11.4971ZM6.50079 10.8006L5.79659 11.5106L5.79411 11.5082L6.50079 10.8006ZM2.42987 6.73462L1.72319 7.44215L1.0148 6.73462L1.72319 6.02709L2.42987 6.73462ZM6.50079 2.6686L7.2079 3.3757L7.20747 3.37613L6.50079 2.6686ZM6.64504 2.32036H7.64504H6.64504ZM5.80432 1.97212L5.09721 1.26502L5.80432 1.97212ZM1.39006 6.38638L2.09718 7.0935L2.09426 7.09638L1.39006 6.38638ZM1.39006 7.08285L2.09427 6.37285L2.09717 6.37575L1.39006 7.08285ZM5.80432 11.4971L5.1001 12.2071L5.09721 12.2042L5.80432 11.4971ZM6.15834 10.6394C6.09128 10.639 6.02481 10.6518 5.96273 10.6772L6.71898 12.5287C6.53738 12.6029 6.34293 12.6405 6.14678 12.6393L6.15834 10.6394ZM5.96273 10.6772C5.90064 10.7025 5.84418 10.7399 5.79657 10.7871L7.20501 12.2071C7.06575 12.3452 6.90058 12.4545 6.71898 12.5287L5.96273 10.6772ZM5.79659 10.7871C5.74884 10.8345 5.71093 10.8908 5.68506 10.9529L7.53125 11.7221C7.45557 11.9037 7.34469 12.0686 7.20499 12.2071L5.79659 10.7871ZM5.68506 10.9529C5.65919 11.015 5.64587 11.0816 5.64587 11.1489H7.64587C7.64587 11.3456 7.60692 11.5404 7.53125 11.7221L5.68506 10.9529ZM5.64587 11.1489C5.64587 11.2161 5.65919 11.2827 5.68506 11.3448L7.53125 10.5757C7.60692 10.7573 7.64587 10.9521 7.64587 11.1489H5.64587ZM5.68506 11.3448C5.71093 11.4069 5.74884 11.4633 5.79659 11.5106L7.20499 10.0906C7.34469 10.2292 7.45557 10.394 7.53125 10.5757L5.68506 11.3448ZM5.79411 11.5082L1.72319 7.44215L3.13655 6.02709L7.20747 10.0931L5.79411 11.5082ZM1.72319 6.02709L5.79411 1.96106L7.20747 3.37613L3.13655 7.44215L1.72319 6.02709ZM5.79369 1.96149C5.69851 2.05667 5.64504 2.18576 5.64504 2.32036H7.64504C7.64504 2.71619 7.48779 3.09581 7.2079 3.3757L5.79369 1.96149ZM5.64504 2.32036C5.64504 2.45496 5.69851 2.58405 5.79369 2.67923L7.2079 1.26502C7.48779 1.54491 7.64504 1.92453 7.64504 2.32036H5.64504ZM5.79369 2.67923C5.88886 2.77441 6.01795 2.82788 6.15256 2.82788V0.827881C6.54839 0.827881 6.92801 0.985125 7.2079 1.26502L5.79369 2.67923ZM6.15256 2.82788C6.28716 2.82788 6.41625 2.77441 6.51143 2.67923L5.09721 1.26502C5.37711 0.985125 5.75673 0.827881 6.15256 0.827881V2.82788ZM6.51143 2.67923L2.09717 7.09349L0.682957 5.67928L5.09721 1.26502L6.51143 2.67923ZM2.09426 7.09638C2.14201 7.04902 2.17992 6.99267 2.2058 6.93057L0.359609 6.16142C0.435283 5.97978 0.546169 5.81493 0.685862 5.67638L2.09426 7.09638ZM2.2058 6.93057C2.23166 6.86848 2.24498 6.80188 2.24498 6.73462H0.244982C0.244982 6.53786 0.283938 6.34305 0.359609 6.16142L2.2058 6.93057ZM2.24498 6.73462C2.24498 6.66736 2.23166 6.60076 2.2058 6.53867L0.359609 7.30782C0.283938 7.12619 0.244982 6.93138 0.244982 6.73462H2.24498ZM2.2058 6.53867C2.17992 6.47657 2.14201 6.42021 2.09426 6.37285L0.685862 7.79285C0.546169 7.6543 0.435283 7.48946 0.359609 7.30782L2.2058 6.53867ZM2.09717 6.37575L6.51143 10.79L5.09721 12.2042L0.682957 7.78996L2.09717 6.37575ZM6.50854 10.7871C6.46094 10.7399 6.40448 10.7025 6.34239 10.6772L5.58614 12.5287C5.40453 12.4545 5.23937 12.3452 5.1001 12.2071L6.50854 10.7871ZM6.34239 10.6772C6.2803 10.6518 6.21383 10.639 6.14678 10.6394L6.15834 12.6393C5.96219 12.6405 5.76773 12.6029 5.58614 12.5287L6.34239 10.6772Z" fill="white" mask="url(#path-1-outside-1_2646_13464)"/>
<path d="M1.73823 7.72509H13.5096C13.7723 7.72509 14.0242 7.62073 14.21 7.43498M1.73823 7.72509L14.21 7.43498M1.73823 7.72509C1.47555 7.72509 1.22361 7.62074 1.03786 7.43499C0.852113 7.24923 0.747762 6.9973 0.747762 6.73461C0.747762 6.47193 0.852113 6.21999 1.03786 6.03424M1.73823 7.72509L1.03786 6.03424M14.21 7.43498C14.3957 7.24923 14.5001 6.9973 14.5001 6.73461C14.5001 6.47192 14.3957 6.21999 14.21 6.03424C14.0242 5.84849 13.7723 5.74414 13.5096 5.74414H1.73823C1.47555 5.74414 1.22361 5.84849 1.03786 6.03424M14.21 7.43498L1.03786 6.03424" fill="white" stroke="white"/>
</svg>
