<svg width="169" height="46" viewBox="0 0 169 46" fill="none" xmlns="http://www.w3.org/2000/svg">
<path d="M25.7002 27.2441C28.1795 27.2441 30.1894 25.2342 30.1894 22.7549C30.1894 20.2755 28.1795 18.2656 25.7002 18.2656C23.2208 18.2656 21.2109 20.2755 21.2109 22.7549C21.2109 25.2342 23.2208 27.2441 25.7002 27.2441Z" fill="white"/>
<path d="M25.7016 33.0428C20.3188 33.1783 14.9495 32.4414 9.80224 30.8606C7.42855 30.098 5.2111 28.9153 3.25543 27.3689C1.50961 25.8725 0.636719 24.3137 0.636719 22.755C0.636719 19.7622 3.87895 16.894 9.36579 14.9612C14.6652 13.2726 20.2026 12.4514 25.764 12.5295C31.7496 12.5295 37.4859 13.3401 41.9128 14.8988C44.5315 15.7717 46.7138 16.9564 48.2725 18.2658C49.956 19.6998 50.8289 21.1962 50.8289 22.755C50.8289 25.8102 47.2126 28.99 41.3516 30.9229C36.2717 32.4146 30.9953 33.1294 25.7016 33.0428ZM25.7016 14.7118C19.903 14.7118 14.2291 15.5223 9.9893 17.0187C6.37297 18.2658 2.69428 20.5727 2.69428 22.755C2.69428 23.6279 3.38013 24.6879 4.5648 25.7478C5.99886 26.9325 7.99407 28.0548 10.4257 28.8653C15.3526 30.3682 20.4903 31.063 25.6393 30.9229C31.3132 30.9229 36.613 30.2371 40.6034 28.8653C46.1526 27.0572 48.6466 24.4384 48.6466 22.755C48.6466 21.9444 48.0231 20.8845 46.8385 19.9492C45.1357 18.6291 43.2156 17.6163 41.1646 16.9564C36.1602 15.4005 30.9418 14.643 25.7016 14.7118Z" fill="white"/>
<path d="M15.5393 45.1392C14.604 45.1392 13.7934 44.9522 13.1699 44.5781C10.6136 43.0817 9.74065 38.8418 10.8006 33.1679C11.9844 27.7357 14.0484 22.5335 16.911 17.7673C19.6024 12.9783 23.0322 8.64363 27.0741 4.92313C29.1317 3.11496 31.2516 1.8056 33.1221 1.11975C35.1797 0.371542 36.9878 0.371542 38.2972 1.11975C40.9783 2.67851 41.8512 7.35479 40.6042 13.4028C39.3874 18.5404 37.3897 23.461 34.6809 27.9928C32.1001 32.7165 28.7972 37.0081 24.8918 40.7123C22.7719 42.5829 20.5896 43.9546 18.5944 44.6404C17.3474 44.9522 16.4122 45.1392 15.5393 45.1392ZM18.6568 18.7649C15.9319 23.3264 13.9533 28.2939 12.7958 33.4797C12.11 37.2207 12.2347 41.5229 14.1675 42.6452C15.6016 43.4558 19.0932 42.7075 23.3331 38.9665C26.4506 36.2231 29.6928 32.0456 32.6856 26.8082C35.3015 22.4738 37.2361 17.7634 38.4219 12.8416C38.9612 10.6182 39.088 8.31465 38.796 6.04544C38.5466 4.42432 37.9855 3.30201 37.1749 2.86556C36.4267 2.4291 35.242 2.49146 33.808 2.99026C31.8213 3.8231 29.9879 4.98216 28.3835 6.41954C24.538 10.0214 21.2588 14.1835 18.6568 18.7649Z" fill="white"/>
<path d="M35.8665 45.1391C33.4349 45.1391 30.3173 43.6427 27.1375 40.8992C23.0248 37.1653 19.5498 32.7847 16.8496 27.9303C13.8568 22.7552 11.6745 17.3308 10.8016 12.7168C10.2405 10.0357 10.1781 7.54171 10.5522 5.54649C10.9263 3.36422 11.7992 1.80546 13.1086 1.05725C15.7897 -0.501511 20.2789 1.11961 24.8928 5.17239C28.6921 8.82392 31.9468 13.0026 34.5572 17.5801C37.3915 22.1593 39.4556 27.1723 40.6675 32.4196C41.2287 35.163 41.291 37.7817 40.9169 39.8393C40.4805 42.0839 39.5452 43.6427 38.2358 44.4532C37.5402 44.9303 36.7095 45.1708 35.8665 45.1391ZM18.7201 26.8704C21.5883 31.8584 25.2046 36.41 28.5715 39.2781C31.502 41.7721 35.243 43.8297 37.1759 42.7074C38.61 41.8968 39.6699 38.4676 38.5476 32.9807C37.3642 27.96 35.3856 23.1607 32.6866 18.7648C30.2387 14.346 27.1265 10.3295 23.4588 6.85585C21.7829 5.29533 19.8399 4.04923 17.7225 3.17717C16.2261 2.61601 14.9167 2.55367 14.1685 2.99012C13.4203 3.42658 12.9215 4.48653 12.6098 5.98294C12.329 8.10154 12.4133 10.2526 12.8592 12.3427C13.7321 16.7072 15.7897 21.8823 18.7201 26.8704Z" fill="white"/>
<path d="M75.893 38.592L67.725 25.8101H61.3029V38.592H57.3125V6.48145H70.2191C76.08 6.48145 80.2575 10.2225 80.2575 16.1458C80.2575 21.9444 76.3294 25.1243 71.9025 25.4984L80.5693 38.592H75.893ZM76.1424 16.1458C76.1424 12.5295 73.5236 10.0354 69.7203 10.0354H61.3029V22.3185H69.7203C73.5236 22.3185 76.1424 19.7621 76.1424 16.1458Z" fill="white"/>
<path d="M84.125 26.9328C84.125 20.1989 88.926 14.7744 95.5975 14.7744C102.643 14.7744 106.758 20.2613 106.758 27.2445V28.1798H87.9284C88.2401 32.5443 91.2953 36.223 96.2834 36.223C98.9021 36.223 101.646 35.163 103.454 33.2925L105.199 35.6618C103.981 36.8462 102.535 37.7716 100.949 38.3824C99.363 38.9931 97.6699 39.2767 95.9716 39.2158C89.113 39.1535 84.125 34.2278 84.125 26.9328ZM95.5352 17.7672C90.5471 17.7672 88.1154 21.9447 87.9284 25.4987H103.204C103.142 22.0071 100.835 17.7672 95.5352 17.7672Z" fill="white"/>
<path d="M125.712 38.5923V35.9736C124.733 37.0393 123.535 37.8809 122.201 38.4405C120.866 39.0001 119.427 39.2646 117.98 39.2158C114.052 39.2158 109.812 36.5971 109.812 31.4844C109.812 26.3093 113.99 23.8152 117.98 23.8152C121.16 23.8152 123.779 24.8129 125.712 26.9951V22.8176C125.712 19.7001 123.218 17.8919 119.851 17.8919C117.045 17.8919 114.801 18.8896 112.743 21.1342L111.06 18.6402C113.554 16.0214 116.546 14.7744 120.35 14.7744C125.275 14.7744 129.328 17.019 129.328 22.6306V38.5923H125.712ZM125.712 33.6666V29.3021C124.34 27.3692 121.846 26.434 119.29 26.434C115.923 26.434 113.554 28.5539 113.554 31.5467C113.554 34.4772 115.923 36.5971 119.29 36.5971C121.846 36.5971 124.278 35.5995 125.712 33.6666Z" fill="white"/>
<path d="M132.758 26.9325C132.758 20.074 137.434 14.7742 144.355 14.7742C148.595 14.7742 151.089 16.52 152.897 18.827L150.465 21.0716C149.819 20.1008 148.936 19.3107 147.9 18.7761C146.863 18.2416 145.708 17.9801 144.542 18.0164C139.554 18.0164 136.499 21.8198 136.499 26.9949C136.499 32.17 139.554 35.9734 144.542 35.9734C146.974 35.9734 148.907 35.0381 150.465 32.9182L152.897 35.1628C151.916 36.488 150.623 37.551 149.133 38.2578C147.643 38.9647 146.002 39.2936 144.355 39.2156C137.434 39.1532 132.758 33.8534 132.758 26.9325ZM158.696 33.7287V18.5152H154.83V15.3353H158.696V8.97559H162.312V15.3353H167.051V18.5152H162.312V32.9805C162.312 34.7264 163.06 35.9734 164.681 35.9734C165.679 35.9734 166.677 35.5369 167.113 35.0381L168.173 37.7192C167.581 38.2449 166.89 38.6479 166.141 38.9048C165.391 39.1617 164.599 39.2673 163.808 39.2156C160.379 39.1532 158.696 37.2204 158.696 33.7287Z" fill="white"/>
</svg>
