<svg width="72" height="72" viewBox="0 0 72 72" fill="none" xmlns="http://www.w3.org/2000/svg">
<rect width="72" height="72" rx="36" fill="url(#paint0_linear_316_899)"/>
<path d="M56.2667 45.0616C55.4832 43.9102 54.1542 43.6291 52.7105 44.3085L51.9453 44.6454C53.1518 42.0737 53.3015 39.2069 52.7009 36.4991C52.0111 33.389 50.3449 30.3762 47.7488 27.5442C47.5193 27.2938 47.1302 27.2769 46.8797 27.5065C46.6292 27.736 46.6123 28.1251 46.8419 28.3756C49.2903 31.0462 50.8574 33.869 51.4998 36.7654C52.1765 39.8164 51.7829 42.9628 50.056 45.4772L42.3991 48.8486L42.4054 47.9838C42.4055 47.962 42.4045 47.9401 42.4023 47.9184C42.2256 46.141 40.867 44.7249 39.0984 44.4747C39.0932 44.4739 39.0879 44.4733 39.0826 44.4727L32.2772 43.6891C29.6603 43.3166 28.9864 41.7484 25.4423 40.8542C25.1974 38.7764 25.5238 36.5641 26.4185 34.3462C27.7658 31.006 30.4017 27.7609 34.0559 24.9363C35.4179 25.902 41.4942 26.0221 42.8539 24.7764C43.5505 25.3054 44.2154 25.8506 44.8347 26.4024C44.9519 26.5069 45.0981 26.5583 45.2437 26.5583C45.413 26.5583 45.5817 26.4888 45.7032 26.3524C45.9292 26.0988 45.9067 25.7099 45.6531 25.4839C44.9742 24.8791 44.2439 24.2823 43.478 23.7056C43.6575 22.9445 43.4063 22.0537 42.7435 21.5235C44.6695 18.6022 45.2297 16.6901 44.4559 15.6883C43.9244 15.0002 43.2633 15.3231 42.9809 15.4611C42.5023 15.6947 42.2414 15.707 41.801 15.4189C40.961 14.8692 40.078 14.8515 39.2108 15.4189C38.7649 15.7107 38.4137 15.7107 37.968 15.4189C37.1278 14.8692 36.2452 14.8515 35.3778 15.4189C34.9324 15.7105 34.6705 15.6924 34.1995 15.4583C33.9174 15.3181 33.257 14.9898 32.7222 15.6781C31.9657 16.6516 32.4718 18.5034 34.2679 21.3254C34.1579 21.3848 34.053 21.4546 33.9552 21.5344C33.2408 20.78 32.0705 19.9932 30.378 20.1822C28.9742 20.3393 27.9391 19.8755 27.3178 19.4587C27.0356 19.2697 26.6535 19.345 26.4643 19.6271C26.2752 19.9092 26.3505 20.2913 26.6326 20.4805C27.4247 21.0115 28.7409 21.6026 30.5145 21.4048C31.8221 21.2582 32.7094 21.9264 33.2617 22.6064C33.2541 22.6327 33.2472 22.6591 33.2407 22.6855C32.7696 22.6929 32.0655 22.7369 31.2901 22.8981C29.4254 23.2861 28.0412 24.1722 27.2871 25.4611C27.1156 25.7543 27.2142 26.1312 27.5073 26.3028C27.8006 26.4743 28.1774 26.3756 28.3489 26.0824C29.4706 24.1654 32.2086 23.931 33.296 23.9163C33.3007 23.9298 33.3062 23.9432 33.3111 23.9567C29.4304 26.9502 26.7286 30.2887 25.2777 33.8857C24.3605 36.1594 23.9942 38.4372 24.1802 40.602C23.5903 40.5147 22.9936 40.4678 22.394 40.4637V40.0917C22.394 39.1074 21.5932 38.3067 20.6089 38.3067H17.7851C16.8008 38.3067 16 39.1075 16 40.0917V54.418C16 55.4024 16.8008 56.2031 17.7851 56.2031H20.6088C21.5931 56.2031 22.3939 55.4023 22.3939 54.418V54.2428L28.5537 56.5355C29.3815 56.8435 30.2491 56.9998 31.1323 56.9998H40.3105C41.7137 56.9998 43.0819 56.6027 44.2671 55.8517C56.511 48.0899 55.7674 48.5729 55.8382 48.5102C56.8244 47.6347 57.0087 46.1521 56.2667 45.0616ZM41.6996 24.0475C39.4501 24.6155 37.263 24.6155 35.013 24.0475C34.0476 23.8034 34.3273 22.0816 35.3649 22.3418C37.3778 22.8471 39.3347 22.8471 41.3477 22.3418C42.3672 22.0859 42.6805 23.7996 41.6996 24.0475ZM33.6376 16.553C33.6425 16.5554 33.6473 16.5579 33.6519 16.5602C34.4844 16.9739 35.2139 16.9964 36.0514 16.4485C37.0994 15.7625 37.2132 16.8624 38.5893 16.8624C39.2518 16.8624 39.6174 16.6232 39.8843 16.4485C40.3303 16.1566 40.6816 16.1568 41.1275 16.4485C41.9686 16.9989 42.6805 16.9718 43.5372 16.5586C43.6638 17.0149 43.3774 18.375 41.5533 21.0907C40.6475 21.0753 39.3331 21.965 35.612 21.1368C33.7918 18.386 33.5104 17.0126 33.6376 16.553ZM55.0548 47.56L43.6086 54.813C42.6207 55.439 41.4802 55.7699 40.3105 55.7699H31.1324C30.3962 55.7699 29.673 55.6397 28.9829 55.3828L22.3939 52.9304V46.3059C22.3939 45.9661 22.1185 45.6908 21.7789 45.6908C21.4392 45.6908 21.1638 45.9661 21.1638 46.3059V54.4183C21.1638 54.7243 20.9148 54.9732 20.6089 54.9732H17.7851C17.4791 54.9732 17.2302 54.7242 17.2302 54.4183V40.0921C17.2302 39.7861 17.4791 39.5373 17.7851 39.5373H20.6088C20.9148 39.5373 21.1637 39.7862 21.1637 40.0921V43.4302C21.1637 43.77 21.4391 44.0454 21.7788 44.0454C22.1185 44.0454 22.3938 43.77 22.3938 43.4302V41.6943C27.4823 41.7333 28.6264 44.4153 32.1126 44.9084C32.1178 44.9092 32.1231 44.9098 32.1283 44.9104L38.9334 45.6939C40.125 45.8659 41.042 46.8148 41.1747 48.0094L41.1662 49.1795H34.8199C34.4802 49.1795 34.2047 49.4549 34.2047 49.7946C34.2047 50.1344 34.4801 50.4098 34.8199 50.4098H41.7768C41.8545 50.4098 41.9443 50.3926 42.0224 50.3585C42.0349 50.3529 53.2002 45.437 53.2132 45.4313C54.018 45.0736 54.7518 45.0225 55.2494 45.7538C55.6363 46.322 55.5506 47.0902 55.0548 47.56Z" fill="white"/>
<path d="M38.5193 42.9088C38.859 42.9088 39.1344 42.6334 39.1344 42.2936V41.274C40.8613 40.9938 41.8688 39.596 42.088 38.2921C42.3619 36.6632 41.5086 35.2466 39.9145 34.6831C39.6328 34.5835 39.3735 34.4883 39.1343 34.3963V30.4742C39.862 30.5949 40.2989 30.9715 40.3308 30.9996C40.5806 31.2269 40.9673 31.2101 41.1966 30.9615C41.4269 30.7118 41.4112 30.3226 41.1615 30.0923C41.1181 30.0523 40.3647 29.374 39.1343 29.2321V28.3573C39.1343 28.0176 38.859 27.7422 38.5192 27.7422C38.1795 27.7422 37.9041 28.0176 37.9041 28.3573V29.2818C37.7558 29.3102 37.6039 29.3463 37.4478 29.3933C36.4043 29.7076 35.6244 30.6023 35.4122 31.7282C35.2196 32.7499 35.5436 33.7324 36.2575 34.2924C36.6674 34.6139 37.1834 34.9082 37.9041 35.2229V40.0874C37.1927 40.0573 36.7549 39.9237 35.991 39.424C35.7067 39.2381 35.3255 39.3176 35.1395 39.602C34.9535 39.8863 35.0332 40.2675 35.3175 40.4535C36.3216 41.1104 36.9929 41.2818 37.9041 41.3172V42.2936C37.9041 42.6334 38.1795 42.9088 38.5193 42.9088ZM37.0168 33.3244C36.6656 33.049 36.5139 32.5246 36.6211 31.9561C36.7206 31.4288 37.0831 30.7881 37.8026 30.5714C37.8368 30.561 37.8705 30.5522 37.9041 30.5431V33.8658C37.5358 33.6819 37.247 33.505 37.0168 33.3244ZM39.5045 35.843C41.0352 36.384 40.9403 37.6983 40.8748 38.0882C40.7391 38.8955 40.1465 39.7573 39.1343 40.0167V35.7097C39.2541 35.7535 39.3764 35.7977 39.5045 35.843Z" fill="white"/>
<defs>
<linearGradient id="paint0_linear_316_899" x1="36" y1="0" x2="36" y2="72" gradientUnits="userSpaceOnUse">
<stop stop-color="#00F981"/>
<stop offset="1" stop-color="#0056FB"/>
</linearGradient>
</defs>
</svg>
