<svg width="134" height="57" viewBox="0 0 134 57" fill="none" xmlns="http://www.w3.org/2000/svg">
<mask id="path-1-inside-1_223_2571" fill="white">
<path fill-rule="evenodd" clip-rule="evenodd" d="M64.9019 1.5C66.0566 -0.500002 68.9434 -0.499998 70.0981 1.5L71.5415 4H122C128.627 4 134 9.37259 134 16V40C134 46.6274 128.627 52 122 52H72.1188L70.0981 55.5C68.9434 57.5 66.0566 57.5 64.9019 55.5L62.8812 52H12C5.37258 52 0 46.6274 0 40V16C0 9.37259 5.37258 4 12 4H63.4585L64.9019 1.5Z"/>
</mask>
<path fill-rule="evenodd" clip-rule="evenodd" d="M64.9019 1.5C66.0566 -0.500002 68.9434 -0.499998 70.0981 1.5L71.5415 4H122C128.627 4 134 9.37259 134 16V40C134 46.6274 128.627 52 122 52H72.1188L70.0981 55.5C68.9434 57.5 66.0566 57.5 64.9019 55.5L62.8812 52H12C5.37258 52 0 46.6274 0 40V16C0 9.37259 5.37258 4 12 4H63.4585L64.9019 1.5Z" fill="#0A0A0A"/>
<path d="M70.0981 1.5L70.9641 1V1L70.0981 1.5ZM64.9019 1.5L64.0359 0.999998L64.9019 1.5ZM71.5415 4L70.6754 4.5L70.9641 5H71.5415V4ZM72.1188 52V51H71.5414L71.2528 51.5L72.1188 52ZM70.0981 55.5L70.9641 56L70.0981 55.5ZM64.9019 55.5L64.0359 56L64.9019 55.5ZM62.8812 52L63.7472 51.5L63.4585 51H62.8812V52ZM63.4585 4V5H64.0359L64.3246 4.5L63.4585 4ZM70.9641 1C69.4245 -1.66666 65.5755 -1.66667 64.0359 0.999998L65.768 2C66.5378 0.666667 68.4622 0.666666 69.232 2L70.9641 1ZM72.4075 3.5L70.9641 1L69.232 2L70.6754 4.5L72.4075 3.5ZM122 3H71.5415V5H122V3ZM135 16C135 8.8203 129.18 3 122 3V5C128.075 5 133 9.92487 133 16H135ZM135 40V16H133V40H135ZM122 53C129.18 53 135 47.1797 135 40H133C133 46.0751 128.075 51 122 51V53ZM72.1188 53H122V51H72.1188V53ZM70.9641 56L72.9848 52.5L71.2528 51.5L69.232 55L70.9641 56ZM64.0359 56C65.5755 58.6667 69.4245 58.6667 70.9641 56L69.232 55C68.4622 56.3333 66.5378 56.3333 65.768 55L64.0359 56ZM62.0152 52.5L64.0359 56L65.768 55L63.7472 51.5L62.0152 52.5ZM12 53H62.8812V51H12V53ZM-1 40C-1 47.1797 4.8203 53 12 53V51C5.92487 51 1 46.0751 1 40H-1ZM-1 16V40H1V16H-1ZM12 3C4.8203 3 -1 8.8203 -1 16H1C1 9.92487 5.92487 5 12 5V3ZM63.4585 3H12V5H63.4585V3ZM64.0359 0.999998L62.5925 3.5L64.3246 4.5L65.768 2L64.0359 0.999998Z" fill="white" mask="url(#path-1-inside-1_223_2571)"/>
<path d="M27.1193 23.8H32.8953C33.8126 23.8 34.5539 24.0507 35.1193 24.552C35.6846 25.0533 35.9673 25.7147 35.9673 26.536V27.672C35.9673 28.2267 35.7966 28.7173 35.4553 29.144C35.1246 29.56 34.6606 29.8693 34.0633 30.072V30.104C34.4046 30.3067 34.6766 30.568 34.8793 30.888C35.0926 31.1973 35.2739 31.6027 35.4233 32.104L36.3193 35H34.3833L33.5193 32.232C33.3806 31.752 33.1673 31.384 32.8793 31.128C32.5913 30.872 32.2553 30.744 31.8713 30.744H28.9913V35H27.1193V23.8ZM32.4793 29.128C32.9699 29.128 33.3593 28.9947 33.6473 28.728C33.9459 28.4613 34.0953 28.1147 34.0953 27.688V26.584C34.0953 26.2427 33.9833 25.9653 33.7593 25.752C33.5353 25.5387 33.2366 25.432 32.8633 25.432H28.9913V29.128H32.4793ZM41.5359 35.128C40.7252 35.128 40.0105 34.9573 39.3919 34.616C38.7732 34.264 38.2932 33.7733 37.9519 33.144C37.6105 32.504 37.4399 31.768 37.4399 30.936V27.864C37.4399 27.032 37.6105 26.3013 37.9519 25.672C38.2932 25.032 38.7732 24.5413 39.3919 24.2C40.0105 23.848 40.7252 23.672 41.5359 23.672H43.2319C44.0425 23.672 44.7572 23.848 45.3759 24.2C46.0052 24.5413 46.4905 25.032 46.8319 25.672C47.1732 26.3013 47.3439 27.032 47.3439 27.864V30.936C47.3439 31.768 47.1732 32.504 46.8319 33.144C46.4905 33.7733 46.0052 34.264 45.3759 34.616C44.7572 34.9573 44.0425 35.128 43.2319 35.128H41.5359ZM43.2319 33.48C43.8932 33.48 44.4319 33.24 44.8479 32.76C45.2639 32.28 45.4719 31.6507 45.4719 30.872V27.928C45.4719 27.1493 45.2639 26.52 44.8479 26.04C44.4425 25.56 43.9039 25.32 43.2319 25.32H41.5519C40.8799 25.32 40.3359 25.56 39.9199 26.04C39.5145 26.52 39.3119 27.1493 39.3119 27.928V30.872C39.3119 31.6507 39.5145 32.28 39.9199 32.76C40.3359 33.24 40.8799 33.48 41.5519 33.48H43.2319ZM55.334 32.232H50.886L49.846 35H47.91L52.262 23.8H53.11C53.686 23.8 54.086 24.0827 54.31 24.648L58.31 35H56.358L55.334 32.232ZM51.414 30.664H54.806L53.126 26.12H53.11L51.414 30.664ZM60.839 35C60.423 35 60.087 34.8773 59.831 34.632C59.5857 34.3867 59.463 34.0613 59.463 33.656V23.8H64.567C65.399 23.8 66.1297 23.96 66.759 24.28C67.399 24.5893 67.8897 25.032 68.231 25.608C68.583 26.184 68.759 26.8507 68.759 27.608V30.872C68.759 32.2267 68.407 33.256 67.703 33.96C67.0097 34.6533 65.9857 35 64.631 35H60.839ZM64.583 33.352C65.3403 33.352 65.911 33.1387 66.295 32.712C66.6897 32.2747 66.887 31.64 66.887 30.808V27.672C66.887 27.0107 66.6683 26.4773 66.231 26.072C65.7937 25.656 65.223 25.448 64.519 25.448H61.335V33.352H64.583ZM75.0255 23.8H76.7215L80.4975 30.712L84.1775 23.8H85.8735V35H84.0335V27.272L81.3935 32.168C81.2442 32.424 81.1002 32.6107 80.9615 32.728C80.8228 32.8347 80.6682 32.888 80.4975 32.888H79.9695L76.8495 27.272V35H75.0255V23.8ZM94.5528 32.232H90.1048L89.0648 35H87.1288L91.4808 23.8H92.3288C92.9048 23.8 93.3048 24.0827 93.5288 24.648L97.5288 35H95.5768L94.5528 32.232ZM90.6328 30.664H94.0248L92.3448 26.12H92.3288L90.6328 30.664ZM98.7755 23.8H104.52C105.458 23.8 106.216 24.0667 106.792 24.6C107.368 25.1227 107.656 25.816 107.656 26.68V28.216C107.656 29.1227 107.352 29.8533 106.744 30.408C106.146 30.952 105.357 31.224 104.376 31.224H100.648V35H98.7755V23.8ZM104.344 29.592C104.781 29.592 105.128 29.4587 105.384 29.192C105.65 28.9253 105.784 28.5787 105.784 28.152V26.728C105.784 26.3333 105.666 26.0187 105.432 25.784C105.197 25.5493 104.882 25.432 104.488 25.432H100.648V29.592H104.344Z" fill="#00F981"/>
</svg>
