<svg width="32" height="32" viewBox="0 0 32 32" fill="none" xmlns="http://www.w3.org/2000/svg">
<g clip-path="url(#clip0_316_731)">
<path d="M9.84911 16.6377C9.82885 16.6377 9.80858 16.6369 9.78808 16.6357L0.978014 16.0857C0.642808 16.0649 0.342027 15.8733 0.181383 15.5786C0.0209821 15.2839 0.0229352 14.9272 0.186998 14.6343C0.23314 14.5517 1.34349 12.594 3.45799 10.8865C6.31542 8.57933 9.6372 7.83103 13.064 8.72264C13.3484 8.79661 13.5842 8.99485 13.7063 9.26219C13.8284 9.52952 13.8235 9.83763 13.6929 10.1008L10.7239 16.0947C10.5583 16.4287 10.2183 16.6377 9.84911 16.6377Z" fill="#FF5B5B"/>
<path d="M16.9518 31.9996C16.7912 31.9996 16.6306 31.96 16.4848 31.8804C16.1901 31.7198 15.9985 31.4193 15.9775 31.0841L15.4277 22.274C15.4033 21.8817 15.6164 21.5128 15.9687 21.3382L21.9626 18.369C22.226 18.2386 22.5339 18.2337 22.8012 18.3558C23.0688 18.4776 23.2668 18.7137 23.3408 18.9981C24.2326 22.4249 23.4843 25.7466 21.1769 28.6041C19.4697 30.7186 17.5117 31.8287 17.4291 31.8751C17.2809 31.9581 17.1164 31.9996 16.9518 31.9996Z" fill="#FF193D"/>
<path d="M30.4957 7.87866L24.1832 1.56616C23.9303 1.31323 23.5592 1.21899 23.2161 1.32031C18.9903 2.57031 15.5213 4.53076 12.9049 7.14697C12.3592 7.69287 11.835 8.28442 11.3472 8.90503C9.92878 10.7085 8.74397 12.8408 7.826 15.2429C7.24128 16.7739 6.76521 18.4141 6.41096 20.1177C5.79231 23.0935 5.7591 25.2263 5.75788 25.3157C5.75471 25.5786 5.85774 25.832 6.04377 26.0181C6.22688 26.2012 6.47541 26.304 6.7342 26.304H6.74617C6.83576 26.303 8.96858 26.2698 11.9442 25.6511C13.6478 25.2969 15.2879 24.8208 16.8192 24.2358C19.221 23.3179 21.3533 22.1333 23.1563 20.7151C23.7774 20.2271 24.369 19.7029 24.9149 19.157C27.5313 16.5405 29.4918 13.0715 30.7415 8.8457C30.8431 8.50269 30.7486 8.13159 30.4957 7.87866Z" fill="#E1F1FA"/>
<path d="M12.6114 24.1804L7.88192 19.4509C7.5328 19.1018 6.97787 19.0684 6.5892 19.3731C6.28719 19.6099 5.99984 19.8643 5.73519 20.1289C2.44442 23.4197 2.34261 28.5186 2.33993 28.7339C2.33651 28.9971 2.43954 29.2505 2.62581 29.4365C2.80892 29.6199 3.05721 29.7227 3.316 29.7227C3.32015 29.7227 3.3243 29.7227 3.32845 29.7224C3.54378 29.7197 8.64291 29.6179 11.9334 26.3272C12.1981 26.0625 12.4525 25.7752 12.6893 25.4732C12.994 25.0845 12.9605 24.5295 12.6114 24.1804Z" fill="#FFF261"/>
<path d="M7.90259 15.0479L5.00098 17.9497C4.81787 18.1326 4.71484 18.3809 4.71484 18.6399C4.71484 18.8987 4.81787 19.147 5.00098 19.3301L12.7332 27.0623C12.916 27.2454 13.1643 27.3482 13.4233 27.3482C13.6824 27.3482 13.9304 27.2454 14.1135 27.0623L17.0151 24.1606L7.90259 15.0479Z" fill="#1B3B6B"/>
<path d="M20.5706 14.4719C19.7751 14.4719 19.0271 14.1621 18.4646 13.5996C17.3035 12.4385 17.3035 10.5493 18.4646 9.38794C19.0271 8.82544 19.7751 8.51562 20.5706 8.51562C21.366 8.51562 22.114 8.82544 22.6765 9.38794C23.239 9.95044 23.5488 10.6982 23.5488 11.4939C23.5488 12.2893 23.239 13.0371 22.6765 13.5996C22.114 14.1621 21.366 14.4719 20.5706 14.4719Z" fill="#06CCAB"/>
<path d="M20.5676 15.4272C19.517 15.4272 18.5295 15.0181 17.7868 14.2754C16.2534 12.7419 16.2534 10.2468 17.7868 8.71338C18.5295 7.9707 19.5173 7.56152 20.5676 7.56152C21.6181 7.56152 22.6057 7.9707 23.3486 8.71338C24.0915 9.4563 24.5004 10.4438 24.5004 11.4944C24.5004 12.5449 24.0915 13.5325 23.3486 14.2754C22.6057 15.0181 21.6181 15.4272 20.5676 15.4272ZM20.5676 9.51392C20.0388 9.51392 19.5412 9.71997 19.1672 10.094C18.3952 10.8662 18.3952 12.1226 19.1672 12.8948C19.5412 13.2688 20.0388 13.4749 20.5676 13.4749C21.0966 13.4749 21.5939 13.2688 21.968 12.8948C22.342 12.5208 22.548 12.0234 22.548 11.4944C22.548 10.9653 22.342 10.468 21.968 10.094C21.5939 9.71997 21.0966 9.51392 20.5676 9.51392Z" fill="#1B3B6B"/>
<path d="M31.7786 0.286069C31.5923 0.0997892 31.3374 -0.00494715 31.0757 0.000179805C30.9309 0.00188879 27.48 0.0599943 23.2188 1.32025L30.7441 8.84564C32.0044 4.58441 32.0625 1.13348 32.0642 0.988706C32.0676 0.725522 31.9646 0.472104 31.7786 0.286069Z" fill="#FF5B5B"/>
<path d="M30.4949 7.87891L27.3386 4.72266L6.04297 26.0183C6.22607 26.2014 6.47437 26.3042 6.73315 26.3042H6.74536C6.83472 26.3032 8.96753 26.27 11.9434 25.6514C13.647 25.2971 15.2869 24.8211 16.8181 24.2361C19.2202 23.3181 21.3525 22.1336 23.1555 20.7153C23.7764 20.2273 24.3682 19.7031 24.9138 19.1572C27.5303 16.5408 29.4907 13.0718 30.7405 8.84595C30.8423 8.50293 30.7478 8.13184 30.4949 7.87891Z" fill="#CDEBFC"/>
<path d="M12.6108 24.1802L10.2461 21.8154L2.625 29.4363V29.4365C2.80835 29.6196 3.05664 29.7224 3.31543 29.7224H3.32764C3.54321 29.7197 8.64209 29.6177 11.9329 26.3269C12.1975 26.0623 12.4519 25.7749 12.6885 25.4729C12.9934 25.0842 12.9602 24.5293 12.6108 24.1802Z" fill="#FDBF00"/>
<path d="M12.4592 19.6045L8.86719 23.1965L12.7334 27.0627C12.9163 27.2456 13.1646 27.3486 13.4236 27.3486C13.6826 27.3486 13.9307 27.2456 14.1138 27.0627L17.0154 24.1609L12.4592 19.6045Z" fill="#001035"/>
<path d="M22.6768 9.3877C22.6765 9.3877 22.6765 9.3877 22.6765 9.3877L18.4648 13.5994H18.4651C19.0273 14.1619 19.7754 14.4717 20.5708 14.4717C21.3662 14.4717 22.1143 14.1619 22.6768 13.5994C23.2393 13.0369 23.5491 12.2891 23.5491 11.4937C23.5488 10.6982 23.2393 9.9502 22.6768 9.3877Z" fill="#1CADB5"/>
<path d="M23.3511 8.71289L21.9705 10.0935C22.3445 10.4675 22.5505 10.9648 22.5505 11.4939C22.5505 12.023 22.3445 12.5203 21.9705 12.8943C21.5964 13.2683 21.0991 13.4744 20.5701 13.4744C20.041 13.4744 19.5437 13.2683 19.1697 12.8943C19.1697 12.8943 19.1697 12.8943 19.1697 12.894L17.7891 14.2747V14.2749C18.532 15.0176 19.5195 15.4268 20.5701 15.4268C21.6206 15.4268 22.6082 15.0176 23.3511 14.2749C24.0938 13.532 24.5029 12.5444 24.5029 11.4939C24.5029 10.4434 24.0938 9.45581 23.3511 8.71289Z" fill="#001035"/>
<path d="M31.7773 0.286133L26.9805 5.08325L30.7432 8.84595C32.0034 4.58472 32.0615 1.13379 32.0632 0.989014C32.0667 0.72583 31.9636 0.472412 31.7773 0.286133Z" fill="#FF193D"/>
</g>
<defs>
<clipPath id="clip0_316_731">
<rect width="32" height="32" fill="white"/>
</clipPath>
</defs>
</svg>
