<svg width="134" height="58" viewBox="0 0 134 58" fill="none" xmlns="http://www.w3.org/2000/svg">
<mask id="path-1-inside-1_278_4193" fill="white">
<path fill-rule="evenodd" clip-rule="evenodd" d="M64.9019 2.44824C66.0566 0.44824 68.9434 0.448244 70.0981 2.44824L71.5415 4.94824H122C128.627 4.94824 134 10.3208 134 16.9482V40.9482C134 47.5757 128.627 52.9482 122 52.9482H72.1188L70.0981 56.4482C68.9434 58.4482 66.0566 58.4482 64.9019 56.4482L62.8812 52.9482H12C5.37258 52.9482 0 47.5757 0 40.9482V16.9482C0 10.3208 5.37258 4.94824 12 4.94824H63.4585L64.9019 2.44824Z"/>
</mask>
<path fill-rule="evenodd" clip-rule="evenodd" d="M64.9019 2.44824C66.0566 0.44824 68.9434 0.448244 70.0981 2.44824L71.5415 4.94824H122C128.627 4.94824 134 10.3208 134 16.9482V40.9482C134 47.5757 128.627 52.9482 122 52.9482H72.1188L70.0981 56.4482C68.9434 58.4482 66.0566 58.4482 64.9019 56.4482L62.8812 52.9482H12C5.37258 52.9482 0 47.5757 0 40.9482V16.9482C0 10.3208 5.37258 4.94824 12 4.94824H63.4585L64.9019 2.44824Z" fill="#0A0A0A"/>
<path d="M70.0981 2.44824L70.9641 1.94824L70.9641 1.94824L70.0981 2.44824ZM64.9019 2.44824L64.0359 1.94824L64.0359 1.94824L64.9019 2.44824ZM71.5415 4.94824L70.6754 5.44824L70.9641 5.94824H71.5415V4.94824ZM72.1188 52.9482V51.9482H71.5414L71.2528 52.4482L72.1188 52.9482ZM70.0981 56.4482L70.9641 56.9482L70.9641 56.9482L70.0981 56.4482ZM64.9019 56.4482L64.0359 56.9482L64.0359 56.9482L64.9019 56.4482ZM62.8812 52.9482L63.7472 52.4482L63.4585 51.9482H62.8812V52.9482ZM63.4585 4.94824V5.94824H64.0359L64.3246 5.44824L63.4585 4.94824ZM70.9641 1.94824C69.4245 -0.718421 65.5755 -0.718428 64.0359 1.94824L65.7679 2.94824C66.5377 1.61491 68.4622 1.61491 69.2321 2.94824L70.9641 1.94824ZM72.4075 4.44824L70.9641 1.94824L69.2321 2.94824L70.6754 5.44824L72.4075 4.44824ZM122 3.94824H71.5415V5.94824H122V3.94824ZM135 16.9482C135 9.76854 129.18 3.94824 122 3.94824V5.94824C128.075 5.94824 133 10.8731 133 16.9482H135ZM135 40.9482V16.9482H133V40.9482H135ZM122 53.9482C129.18 53.9482 135 48.1279 135 40.9482H133C133 47.0234 128.075 51.9482 122 51.9482V53.9482ZM72.1188 53.9482H122V51.9482H72.1188V53.9482ZM70.9641 56.9482L72.9848 53.4482L71.2528 52.4482L69.232 55.9482L70.9641 56.9482ZM64.0359 56.9482C65.5755 59.6149 69.4245 59.6149 70.9641 56.9482L69.2321 55.9482C68.4622 57.2816 66.5377 57.2816 65.7679 55.9482L64.0359 56.9482ZM62.0152 53.4482L64.0359 56.9482L65.7679 55.9482L63.7472 52.4482L62.0152 53.4482ZM12 53.9482H62.8812V51.9482H12V53.9482ZM-1 40.9482C-1 48.1279 4.8203 53.9482 12 53.9482V51.9482C5.92487 51.9482 1 47.0234 1 40.9482H-1ZM-1 16.9482V40.9482H1V16.9482H-1ZM12 3.94824C4.8203 3.94824 -1 9.76854 -1 16.9482H1C1 10.8731 5.92487 5.94824 12 5.94824V3.94824ZM63.4585 3.94824H12V5.94824H63.4585V3.94824ZM64.0359 1.94824L62.5925 4.44824L64.3246 5.44824L65.7679 2.94824L64.0359 1.94824Z" fill="white" mask="url(#path-1-inside-1_278_4193)"/>
<path d="M44.7333 35.0762C43.624 35.0762 42.7493 34.7562 42.1093 34.1162C41.4693 33.4762 41.1493 32.6016 41.1493 31.4922H42.9893C42.9893 32.0896 43.144 32.5642 43.4533 32.9162C43.7733 33.2576 44.2106 33.4282 44.7653 33.4282H46.5413C47.064 33.4282 47.4853 33.3162 47.8053 33.0922C48.1253 32.8576 48.2853 32.5536 48.2853 32.1802V31.4762C48.2853 31.1882 48.1733 30.9482 47.9493 30.7562C47.7253 30.5642 47.4053 30.4309 46.9893 30.3562L44.0773 29.8602C43.1706 29.7109 42.472 29.4122 41.9813 28.9642C41.5013 28.5162 41.2613 27.9456 41.2613 27.2522V26.3722C41.2613 25.8282 41.4053 25.3482 41.6933 24.9322C41.992 24.5162 42.408 24.1962 42.9413 23.9722C43.4746 23.7376 44.0933 23.6202 44.7973 23.6202H46.6053C47.2666 23.6202 47.848 23.7589 48.3493 24.0362C48.8613 24.3029 49.256 24.6869 49.5333 25.1882C49.8106 25.6896 49.9493 26.2656 49.9493 26.9162H48.1253C48.1253 26.4256 47.9813 26.0309 47.6933 25.7322C47.416 25.4229 47.0533 25.2682 46.6053 25.2682H44.7973C44.296 25.2682 43.8906 25.3802 43.5813 25.6042C43.2826 25.8176 43.1333 26.1109 43.1333 26.4842V27.0602C43.1333 27.3589 43.24 27.6096 43.4533 27.8122C43.6666 28.0042 43.976 28.1322 44.3813 28.1962L47.2933 28.7082C48.2106 28.8682 48.9146 29.1669 49.4053 29.6042C49.9066 30.0309 50.1573 30.5802 50.1573 31.2522V32.2922C50.1573 32.8362 50.008 33.3216 49.7093 33.7482C49.4106 34.1642 48.9893 34.4896 48.4453 34.7242C47.9013 34.9589 47.2773 35.0762 46.5733 35.0762H44.7333ZM51.8771 23.7482H53.7491V28.5002H59.2851V23.7482H61.1411V34.9482H59.2851V30.1322H53.7491V34.9482H51.8771V23.7482ZM69.8106 32.1802H65.3626L64.3226 34.9482H62.3866L66.7386 23.7482H67.5866C68.1626 23.7482 68.5626 24.0309 68.7866 24.5962L72.7866 34.9482H70.8346L69.8106 32.1802ZM65.8906 30.6122H69.2826L67.6026 26.0682H67.5866L65.8906 30.6122ZM74.0333 23.7482H79.8093C80.7266 23.7482 81.468 23.9989 82.0333 24.5002C82.5986 25.0016 82.8813 25.6629 82.8813 26.4842V27.6202C82.8813 28.1749 82.7106 28.6656 82.3693 29.0922C82.0386 29.5082 81.5746 29.8176 80.9773 30.0202V30.0522C81.3186 30.2549 81.5906 30.5162 81.7933 30.8362C82.0066 31.1456 82.188 31.5509 82.3373 32.0522L83.2333 34.9482H81.2973L80.4333 32.1802C80.2946 31.7002 80.0813 31.3322 79.7933 31.0762C79.5053 30.8202 79.1693 30.6922 78.7853 30.6922H75.9053V34.9482H74.0333V23.7482ZM79.3933 29.0762C79.884 29.0762 80.2733 28.9429 80.5613 28.6762C80.86 28.4096 81.0093 28.0629 81.0093 27.6362V26.5322C81.0093 26.1909 80.8973 25.9136 80.6733 25.7002C80.4493 25.4869 80.1506 25.3802 79.7773 25.3802H75.9053V29.0762H79.3933ZM86.1124 34.9482C85.6964 34.9482 85.3604 34.8256 85.1044 34.5802C84.8591 34.3242 84.7364 33.9936 84.7364 33.5882V23.7482H92.9444V25.3642H86.6084V28.4042H92.4644V30.0362H86.6084V33.3322H92.9444V34.9482H86.1124Z" fill="#00F981"/>
</svg>
