<svg width="42" height="42" viewBox="0 0 42 42" fill="none" xmlns="http://www.w3.org/2000/svg">
<circle cx="21" cy="21" r="21" fill="url(#paint0_linear_278_4207)"/>
<path fill-rule="evenodd" clip-rule="evenodd" d="M34.2853 23.4763H31.1525L32.5436 21.0494L32.5909 20.9635H35.7237L34.2853 23.4763ZM23.3302 33.0734H20.2013L21.6397 30.5606H24.7725L23.3302 33.0734ZM19.3934 27.5993L17.9629 30.0973L19.3934 32.5953L20.7648 30.2062L20.8239 30.0973L19.3934 27.5993ZM10.6845 20.9635H13.8174L12.379 23.4763H9.24613L10.6845 20.9635ZM8.44218 18.0018L7.00775 20.4998L8.44218 22.9978L9.87269 20.4998L8.44218 18.0018ZM12.379 17.5237L13.8174 20.0369H10.6845L9.24613 17.5237H12.379ZM23.3302 7.92662L24.7725 10.4394H21.6397L20.2013 7.92622L23.3302 7.92662ZM30.3486 22.9978L31.7791 20.4998L30.3486 18.0018L28.9182 20.4998L30.3486 22.9978ZM25.6355 29.2581L24.0159 26.4298C23.9331 26.2844 23.7755 26.1947 23.6061 26.1947H21.8327V24.4029L23.6061 24.4025C23.7755 24.4025 23.9331 24.313 24.0159 24.1673L25.8523 20.9635H28.1024L29.7851 23.9011L25.6355 29.2581ZM23.3302 13.8791H20.2013L21.6397 11.366H24.7725L23.3302 13.8791ZM23.3302 17.5237L24.7725 20.0369H21.6397L20.2013 17.5237H23.3302ZM19.3934 22.9978L20.8239 20.4998L19.3934 18.0018L17.9629 20.4998L19.3934 22.9978ZM20.2013 23.4763H23.3302L24.7725 20.9635H21.6397L20.2013 23.4763ZM28.1024 20.0369H25.8523L24.0159 16.8327C23.9332 16.6873 23.7755 16.5971 23.6061 16.5971H21.8328V14.8053H23.6061C23.7756 14.8053 23.9332 14.7156 24.0159 14.5702L25.6356 11.7414L29.7851 17.099L28.1024 20.0369ZM18.0457 10.7574L18.0969 10.7958L17.9866 10.9408L19.3935 13.4008L20.824 10.9027L19.3935 8.40473L18.0457 10.7574ZM17.364 11.7414L13.2144 17.099L14.8971 20.0369H17.1513L18.9837 16.8323C19.0594 16.7123 19.1688 16.6321 19.3108 16.6054C19.4091 16.5868 20.6835 16.5972 20.8949 16.5972V14.8054H19.3936C19.2168 14.8054 19.0269 14.6761 18.9877 14.5757L17.364 11.7414ZM19.3934 26.1947C19.2205 26.1947 19.0733 26.2869 18.9836 26.4298L17.364 29.2581L13.2144 23.901L14.8971 20.9634H17.1513L18.9876 24.1727C18.9947 24.2049 19.0997 24.3075 19.161 24.3402C19.2364 24.3804 19.3061 24.4027 19.3935 24.4027H20.8949V26.1945H19.3934V26.1947ZM21.6396 29.634L20.2012 27.1213H23.3302L24.7725 29.634H21.6396ZM34.2853 17.5237L35.7237 20.0369H32.5909L31.1525 17.5237H34.2853ZM36.9375 20.2721H36.9414L34.9671 16.8327C34.8843 16.6873 34.7306 16.5971 34.5612 16.5971H30.5811L25.9705 10.6469L24.0159 7.23514C23.9332 7.08976 23.7755 7 23.6061 7L19.3305 7.00388C19.1924 7.01788 19.0611 7.11172 18.9837 7.23514L17.0291 10.6465L12.4185 16.5971H8.44218C8.20771 16.5971 8.03238 16.788 8.03238 16.8327V16.8323L6.06205 20.272C5.97932 20.4135 5.97932 20.5864 6.06205 20.7279L8.03638 24.1728C8.11911 24.315 8.27286 24.4029 8.44225 24.4029L12.4184 24.4025L17.029 30.3531L18.9836 33.7649C19.0796 33.9066 19.2133 34 19.3934 34H23.6061C23.7755 34 23.9331 33.9102 24.0159 33.7649L25.9704 30.3535L30.581 24.4029L34.5611 24.4025C34.7306 24.4025 34.8843 24.313 34.967 24.1673L36.9413 20.7279C37.0202 20.5865 37.0202 20.4135 36.9375 20.2721Z" fill="white"/>
<defs>
<linearGradient id="paint0_linear_278_4207" x1="21" y1="0" x2="21" y2="42" gradientUnits="userSpaceOnUse">
<stop stop-color="#00F981"/>
<stop offset="1" stop-color="#0056FB"/>
</linearGradient>
</defs>
</svg>
