<svg width="186" height="35" viewBox="0 0 186 35" fill="none" xmlns="http://www.w3.org/2000/svg">
<path d="M63.5331 19.031H70.5118C71.493 19.031 72.2882 19.8347 72.2882 20.8159C72.2882 21.7972 71.493 22.6008 70.5118 22.6008H62.095C61.9597 22.6008 61.8328 22.6515 61.7397 22.7361L59.202 24.927C58.8129 25.2654 59.0498 25.8998 59.5573 25.8998H70.0888C70.0888 25.8998 70.0973 25.8998 70.0973 25.8913C70.0973 25.8829 70.1057 25.8829 70.1057 25.8829C70.2411 25.8913 70.368 25.8998 70.5118 25.8998C73.3032 25.8998 75.5703 23.6243 75.5703 20.8159C75.5703 18.1513 73.5316 15.9604 70.9262 15.7489C70.9262 15.7489 70.9178 15.7489 70.9178 15.7405C70.9178 15.732 70.9178 15.732 70.9093 15.732H63.3977C62.4164 15.732 61.6213 14.9284 61.6213 13.9472C61.6213 12.9575 62.4164 12.1623 63.3977 12.1623H71.7975C71.9329 12.1623 72.0682 12.1116 72.1697 12.0185L74.5298 9.82761C74.902 9.48925 74.6567 8.86328 74.1576 8.86328H63.5415C63.4992 8.86328 63.4485 8.86328 63.4062 8.86328C60.6147 8.86328 58.3477 11.1388 58.3477 13.9472C58.3477 16.7556 60.6147 19.031 63.4062 19.031C63.4485 19.031 63.4908 19.031 63.5331 19.031Z" fill="white"/>
<path d="M104.163 8.85547C103.859 8.85547 103.613 9.10078 103.613 9.41376V25.3506C103.613 25.6551 103.859 25.9089 104.163 25.9089H116.936C117.089 25.9089 117.232 25.8412 117.342 25.7313L118.941 24.0141C119.271 23.6588 119.026 23.0836 118.535 23.0836H107.386C107.081 23.0836 106.836 22.8383 106.836 22.5253V9.41376C106.836 9.10924 106.591 8.85547 106.286 8.85547H104.163Z" fill="white"/>
<path fill-rule="evenodd" clip-rule="evenodd" d="M83.7113 8.85547C83.7113 8.86393 83.7028 8.86393 83.7113 8.85547C82.0787 8.9316 80.7675 10.2428 80.6914 11.8753V22.5929C80.6914 22.6352 80.6914 22.686 80.6914 22.7283C80.6914 24.4286 82.0279 25.8158 83.7113 25.8835H95.3002C96.9751 25.8074 98.32 24.4201 98.32 22.7283C98.32 22.686 98.32 22.6352 98.32 22.5929V11.8838C98.2524 10.2512 96.9412 8.9316 95.3086 8.86393H83.7113V8.85547ZM85.8683 11.8838C84.8448 11.9261 84.0243 12.7551 83.982 13.7871V20.5289C83.982 20.5543 83.982 20.5882 83.982 20.6135C83.982 21.6794 84.8194 22.5591 85.8683 22.6014H93.1347C94.1836 22.5591 95.021 21.6794 95.021 20.6135C95.021 20.5882 95.021 20.5543 95.021 20.5289V13.7871C94.9787 12.7551 94.1582 11.9346 93.1347 11.8838H85.8683Z" fill="white"/>
<path fill-rule="evenodd" clip-rule="evenodd" d="M137.507 25.3503C137.507 25.6548 137.753 25.9086 138.057 25.9086H140.223C140.527 25.9086 140.773 25.6633 140.773 25.3503V12.1626C140.773 12.1203 140.773 12.0696 140.773 12.0273C140.773 10.327 139.445 8.93974 137.787 8.87207H126.663C126.621 8.87207 126.57 8.87207 126.528 8.87207C124.802 8.87207 123.406 10.2847 123.406 12.0357C123.406 12.078 123.406 12.1288 123.406 12.1711V25.3587C123.406 25.6633 123.652 25.917 123.956 25.917H126.122C126.426 25.917 126.671 25.6717 126.671 25.3587V19.8688C126.671 19.5643 126.917 19.3105 127.221 19.3105H136.983C137.288 19.3105 137.533 19.5558 137.533 19.8688V25.3503H137.507ZM126.646 16.2737V13.533C126.646 12.4672 127.5 11.6043 128.549 11.6043H135.604C136.653 11.6043 137.507 12.4672 137.507 13.533V16.2737C137.507 16.5783 137.262 16.832 136.958 16.832H127.196C126.891 16.832 126.646 16.5867 126.646 16.2737Z" fill="white"/>
<path fill-rule="evenodd" clip-rule="evenodd" d="M183.229 25.9082C182.925 25.9082 182.679 25.6629 182.679 25.35V19.86C182.679 19.5555 182.434 19.3017 182.129 19.3017H172.258C171.953 19.3017 171.708 19.547 171.708 19.86V25.35C171.708 25.6545 171.463 25.9082 171.158 25.9082H168.976C168.671 25.9082 168.426 25.6629 168.426 25.35V12.1623C168.426 12.12 168.426 12.0693 168.426 12.027C168.426 10.2844 169.838 8.86328 171.581 8.86328C171.623 8.86328 171.674 8.86328 171.716 8.86328H182.967C184.642 8.93941 185.987 10.3267 185.987 12.0185C185.987 12.0608 185.987 12.1116 185.987 12.1538V25.3415C185.987 25.646 185.741 25.8998 185.437 25.8998H183.229V25.9082ZM171.699 13.5327V16.2734C171.699 16.5779 171.945 16.8317 172.249 16.8317H182.121C182.425 16.8317 182.671 16.5864 182.671 16.2734V13.5327C182.671 12.4668 181.808 11.604 180.751 11.604H173.62C172.562 11.604 171.699 12.4668 171.699 13.5327Z" fill="white"/>
<path d="M148.92 8.85547C149.08 8.85547 149.233 8.92314 149.334 9.05003L159.045 20.6305C159.375 21.0196 160.009 20.7827 160.009 20.2667V9.41376C160.009 9.10924 160.255 8.85547 160.559 8.85547H162.725C163.029 8.85547 163.275 9.10078 163.275 9.41376V25.3506C163.275 25.6551 163.029 25.9089 162.725 25.9089H160.035C160.026 25.9089 160.018 25.9004 160.018 25.892C160.018 25.8835 160.018 25.8835 160.009 25.8751L150.129 14.3792C149.799 13.9901 149.165 14.2354 149.165 14.743V25.3591C149.165 25.6636 148.92 25.9174 148.615 25.9174H146.433C146.128 25.9174 145.883 25.672 145.883 25.3591V9.41376C145.883 9.10924 146.128 8.85547 146.433 8.85547H148.92Z" fill="white"/>
<path d="M7.98419 26.4923C8.25487 26.2216 8.61861 26.0693 8.99927 26.0693H44.2312C44.8741 26.0693 45.1955 26.8476 44.7387 27.2959L37.7769 34.2492C37.5062 34.5199 37.1425 34.6722 36.7618 34.6722H1.5384C0.895509 34.6722 0.574066 33.8939 1.03085 33.4456L7.98419 26.4923Z" fill="white"/>
<path d="M7.98419 0.50596C8.25487 0.23527 8.61861 0.0830078 8.99927 0.0830078H44.2312C44.8741 0.0830078 45.1955 0.861239 44.7387 1.30957L37.7769 8.2629C37.5062 8.53359 37.1425 8.68585 36.7618 8.68585H1.5384C0.895509 8.68585 0.574066 7.90762 1.03085 7.45929L7.98419 0.50596Z" fill="white"/>
<path d="M37.7769 13.4142C37.5062 13.1435 37.1425 12.9912 36.7618 12.9912H1.5384C0.895509 12.9912 0.574066 13.7694 1.03085 14.2178L7.99264 21.1711C8.26333 21.4418 8.62707 21.5941 9.00773 21.5941H44.2396C44.8825 21.5941 45.204 20.8158 44.7472 20.3675L37.7769 13.4142Z" fill="white"/>
</svg>
