<svg width="90" height="91" viewBox="0 0 90 91" fill="none" xmlns="http://www.w3.org/2000/svg">
<rect y="0.959961" width="90" height="90" rx="45" fill="url(#paint0_linear_278_3810)"/>
<path d="M67.3072 54.4384H64.2789L63.4644 30.4149C63.4272 29.3186 62.5151 28.46 61.3878 28.46C60.2605 28.46 59.3483 29.3187 59.3112 30.4149L58.4967 54.4384H53.1858C52.7804 54.4384 52.4519 54.7581 52.4519 55.1524C52.4519 55.5468 52.7804 55.8665 53.1858 55.8665H67.3071C67.9815 55.8665 68.5301 56.4003 68.5301 57.0565V62.9847C68.5301 63.6408 67.9815 64.1747 67.3071 64.1747H36.4995C36.0941 64.1747 35.7656 64.4944 35.7656 64.8888C35.7656 65.2832 36.0941 65.6028 36.4995 65.6028H67.3073C68.791 65.6028 69.9981 64.4283 69.9981 62.9848V57.0566C69.998 55.6129 68.7909 54.4384 67.3072 54.4384ZM60.7782 30.462C60.7891 30.1401 61.0569 29.888 61.3879 29.888C61.7189 29.888 61.9867 30.1401 61.9976 30.462L62.8104 54.4384H59.9654L60.7782 30.462Z" fill="white"/>
<path d="M33.566 64.1747H22.6908C22.0164 64.1747 21.4678 63.6409 21.4678 62.9847V57.0565C21.4678 56.4003 22.0164 55.8665 22.6908 55.8665H50.2525C50.6579 55.8665 50.9864 55.5469 50.9864 55.1524C50.9864 54.7581 50.6579 54.4384 50.2525 54.4384H31.5017L30.6873 30.4149C30.6501 29.3186 29.738 28.46 28.6107 28.46C27.4834 28.46 26.5712 29.3187 26.5341 30.4149L26.1635 41.3465C26.1501 41.7406 26.4677 42.0706 26.8727 42.0836C27.2757 42.0937 27.617 41.7877 27.6304 41.3935L28.001 30.462C28.0119 30.1401 28.2797 29.888 28.6107 29.888C28.9417 29.888 29.2095 30.1401 29.2204 30.462L30.0332 54.4384H27.1882L27.5336 44.2475C27.547 43.8533 27.2294 43.5233 26.8243 43.5103C26.4197 43.4979 26.08 43.8063 26.0667 44.2004L25.7196 54.4384H22.6908C21.2071 54.4384 20 55.6129 20 57.0565V62.9847C20 64.4283 21.2071 65.6028 22.6908 65.6028H33.566C33.9714 65.6028 34.2999 65.283 34.2999 64.8887C34.2999 64.4944 33.9713 64.1747 33.566 64.1747Z" fill="white"/>
<path d="M25.687 60.8262C25.2816 60.8262 24.9531 61.1459 24.9531 61.5402C24.9531 61.9345 25.2816 62.2543 25.687 62.2543H28.0313C28.4367 62.2543 28.7652 61.9345 28.7652 61.5402C28.7652 61.1459 28.4367 60.8262 28.0313 60.8262H25.687Z" fill="white"/>
<path d="M33.5666 60.8262H31.2222C30.8168 60.8262 30.4883 61.1459 30.4883 61.5402C30.4883 61.9345 30.8168 62.2543 31.2222 62.2543H33.5666C33.972 62.2543 34.3005 61.9345 34.3005 61.5402C34.3004 61.1458 33.9719 60.8262 33.5666 60.8262Z" fill="white"/>
<path d="M36.7573 60.8262C36.352 60.8262 36.0234 61.1459 36.0234 61.5402C36.0234 61.9345 36.352 62.2543 36.7573 62.2543H39.1017C39.507 62.2543 39.8355 61.9345 39.8355 61.5402C39.8355 61.1459 39.507 60.8262 39.1017 60.8262H36.7573Z" fill="white"/>
<path d="M42.2886 60.8262C41.8832 60.8262 41.5547 61.1459 41.5547 61.5402C41.5547 61.9345 41.8832 62.2543 42.2886 62.2543H44.6329C45.0383 62.2543 45.3668 61.9345 45.3668 61.5402C45.3668 61.1459 45.0383 60.8262 44.6329 60.8262H42.2886Z" fill="white"/>
<path d="M58.879 62.2543C59.2844 62.2543 59.6129 61.9345 59.6129 61.5402C59.6129 61.1459 59.2844 60.8262 58.879 60.8262H56.5347C56.1293 60.8262 55.8008 61.1459 55.8008 61.5402C55.8008 61.9345 56.1293 62.2543 56.5347 62.2543H58.879Z" fill="white"/>
<path d="M64.3399 62.2543C64.7453 62.2543 65.0738 61.9345 65.0738 61.5402C65.0738 61.1459 64.7453 60.8262 64.3399 60.8262H61.9956C61.5902 60.8262 61.2617 61.1459 61.2617 61.5402C61.2617 61.9345 61.5902 62.2543 61.9956 62.2543H64.3399Z" fill="white"/>
<path d="M36.0145 40.2026C40.9684 35.3824 49.0292 35.3826 53.9831 40.2026C54.1265 40.342 54.3143 40.4117 54.5021 40.4117C54.6899 40.4117 54.8776 40.342 55.021 40.2026C55.3075 39.9238 55.3075 39.4716 55.021 39.1929C49.4947 33.816 40.5029 33.8159 34.9766 39.1929C34.6901 39.4716 34.6901 39.9238 34.9766 40.2026C35.2632 40.4815 35.7279 40.4815 36.0145 40.2026Z" fill="white"/>
<path d="M52.2397 42.9106C52.5262 42.6317 52.5262 42.1797 52.2397 41.9009C48.2523 38.0213 41.7668 38.0175 37.7744 41.889C37.547 42.0997 37.4768 42.4377 37.6245 42.7252C37.7531 42.9754 38.0123 43.1201 38.2815 43.1201C38.3917 43.1201 38.5037 43.0959 38.6091 43.0446C38.6824 43.009 38.7477 42.9624 38.8034 42.9074C42.223 39.5837 47.7837 39.585 51.2018 42.9106C51.4884 43.1894 51.953 43.1894 52.2397 42.9106Z" fill="white"/>
<path d="M48.9886 45.7777C49.1764 45.7777 49.3642 45.7079 49.5075 45.5686C49.7941 45.2898 49.7941 44.8376 49.5075 44.5588C48.3035 43.3874 46.7027 42.7422 44.9999 42.7422C43.2973 42.7422 41.6964 43.3874 40.4923 44.5588C40.2057 44.8376 40.2057 45.2898 40.4923 45.5686C40.7788 45.8474 41.2435 45.8474 41.5302 45.5686C42.457 44.6668 43.6893 44.1702 44.9998 44.1702C46.3106 44.1702 47.5427 44.6668 48.4694 45.5686C48.613 45.708 48.8008 45.7777 48.9886 45.7777Z" fill="white"/>
<path d="M42.8858 46.8818C42.7469 47.0155 42.668 47.1982 42.668 47.3895C42.659 48.0222 43.4832 48.3426 43.9251 47.8902C44.213 47.6121 44.5948 47.4589 45.0008 47.4589C45.4087 47.4589 45.7922 47.6135 46.0805 47.8941C46.7915 48.5394 47.7814 47.5754 47.1184 46.8843C45.9515 45.749 44.0537 45.7482 42.8858 46.8818Z" fill="white"/>
<defs>
<linearGradient id="paint0_linear_278_3810" x1="45" y1="0.959961" x2="45" y2="90.96" gradientUnits="userSpaceOnUse">
<stop stop-color="#00F981"/>
<stop offset="1" stop-color="#0056FB"/>
</linearGradient>
</defs>
</svg>
