<svg width="42" height="43" viewBox="0 0 42 43" fill="none" xmlns="http://www.w3.org/2000/svg">
<circle cx="21" cy="21.8389" r="21" fill="url(#paint0_linear_278_4231)"/>
<path fill-rule="evenodd" clip-rule="evenodd" d="M21 11.5861C20.3446 11.5861 19.8376 12.0913 19.8376 12.7442C19.8376 13.3971 20.3446 13.9023 21 13.9023C21.6554 13.9023 22.1624 13.3971 22.1624 12.7442C22.1624 12.0913 21.6554 11.5861 21 11.5861ZM19.0876 12.7442C19.0876 11.6786 19.9304 10.8389 21 10.8389C22.0696 10.8389 22.9124 11.6786 22.9124 12.7442C22.9124 13.6816 22.2601 14.4443 21.375 14.6141V15.9197C21.375 16.1261 21.2071 16.2933 21 16.2933C20.7929 16.2933 20.625 16.1261 20.625 15.9197V14.6141C19.7399 14.4443 19.0876 13.6816 19.0876 12.7442ZM12.5011 13.1083C13.375 12.5127 14.5489 12.6898 15.1598 13.5793C15.6912 14.3531 15.6098 15.3633 14.9581 16.0056L15.8314 17.2357C15.951 17.4042 15.9109 17.6373 15.7418 17.7565C15.5727 17.8756 15.3387 17.8356 15.2191 17.6672L14.3342 16.4208C13.5185 16.7659 12.5601 16.5313 12.0284 15.7571C11.4305 14.8865 11.6083 13.7169 12.5011 13.1083ZM14.3319 15.5612C14.2933 15.5726 14.2559 15.5903 14.2213 15.6147C14.1937 15.6341 14.1696 15.6566 14.149 15.6813C13.6185 15.9686 12.9867 15.8292 12.6474 15.3352C12.2703 14.7861 12.3925 14.0877 12.9246 13.725C13.4757 13.3493 14.1767 13.471 14.5408 14.0012C14.9012 14.5259 14.8055 15.1871 14.3319 15.5612ZM29.0754 13.725C28.5243 13.3493 27.8233 13.471 27.4592 14.0012C27.0988 14.5259 27.1945 15.1871 27.6681 15.5612C27.707 15.5726 27.7446 15.5905 27.7794 15.6152C27.8067 15.6345 27.8306 15.6568 27.851 15.6813C28.3815 15.9686 29.0133 15.8292 29.3526 15.3352C29.7297 14.7861 29.6075 14.0877 29.0754 13.725ZM27.6651 16.4205C28.4809 16.766 29.4397 16.5316 29.9716 15.7571C30.5695 14.8865 30.3917 13.7169 29.4989 13.1083C28.625 12.5127 27.4511 12.6898 26.8402 13.5793C26.3089 14.3529 26.3902 15.3627 27.0414 16.005L26.2441 17.123C26.1241 17.2912 26.1637 17.5244 26.3326 17.6439C26.5014 17.7634 26.7355 17.724 26.8554 17.5558L27.6651 16.4205ZM23.5037 17.2725C23.6715 17.3632 23.7441 17.565 23.6724 17.7413L22.7354 20.044C23.2257 20.1945 23.5874 20.653 23.5874 21.1874C23.5874 21.4468 23.5021 21.6883 23.3583 21.8854C25.6193 24.7871 26.7364 27.9913 26.8495 31.4865L26.8495 31.4869C26.8942 32.9098 25.6423 34.0354 24.2401 33.81L24.2382 33.8097C22.0282 33.4428 19.894 33.4429 17.7966 33.7728C16.413 33.9946 15.1012 32.9265 15.1881 31.4439C15.3032 27.9947 16.4018 24.8032 18.6665 21.9182C18.5077 21.7154 18.4126 21.4614 18.4126 21.1874C18.4126 20.6612 18.7634 20.2085 19.2422 20.0511L18.3619 17.7331C18.2964 17.5606 18.367 17.3662 18.5283 17.2755C18.6895 17.1849 18.8931 17.225 19.0075 17.3701C19.1544 17.5564 19.4205 17.7321 19.7875 17.8642C20.149 17.9944 20.5785 18.0712 21.014 18.082C21.45 18.0928 21.8766 18.0371 22.2348 17.9147C22.5949 17.7917 22.8612 17.6104 23.0173 17.3873C23.1264 17.2312 23.3358 17.1818 23.5037 17.2725ZM20.0216 19.9919H21.9473L22.5094 18.6106C22.499 18.6143 22.4885 18.6179 22.478 18.6215C22.0194 18.7782 21.5015 18.8415 20.9954 18.829C20.4887 18.8164 19.9784 18.7274 19.5326 18.5669C19.5123 18.5596 19.492 18.5521 19.4719 18.5445L20.0216 19.9919ZM22.5633 21.5983H19.4367C19.2776 21.5282 19.1626 21.3677 19.1626 21.1874C19.1626 20.9454 19.3697 20.7391 19.6126 20.7391H22.3874C22.6303 20.7391 22.8374 20.9454 22.8374 21.1874C22.8374 21.3677 22.7224 21.5282 22.5633 21.5983ZM19.2832 22.3455C17.1003 25.1126 16.0471 28.1634 15.9375 31.4735C15.9374 31.4769 15.9373 31.4803 15.937 31.4838C15.8774 32.4638 16.7385 33.186 17.6779 33.035L17.6792 33.0348C19.8561 32.6924 22.0712 32.6925 24.3605 33.0725C25.2827 33.2201 26.1301 32.478 26.1 31.5105C25.9919 28.1723 24.9295 25.1211 22.7674 22.3455H22.683C22.5883 22.3699 22.4892 22.3829 22.3874 22.3829H19.6126C19.5108 22.3829 19.4117 22.3699 19.317 22.3455H19.2832ZM9.15659 21.3821C9.34247 20.3635 10.32 19.661 11.355 19.8485C12.2516 20.0109 12.9042 20.7799 12.9243 21.6622L14.09 21.8654C14.294 21.901 14.4304 22.0946 14.3947 22.2978C14.359 22.5011 14.1647 22.637 13.9607 22.6014L12.7918 22.3976C12.4684 23.2156 11.6051 23.7363 10.6973 23.5726C9.62732 23.3864 8.97002 22.4044 9.15659 21.3821ZM11.2209 20.5836C10.606 20.4722 10.0086 20.8905 9.89446 21.5157C9.78113 22.1367 10.1731 22.7234 10.8272 22.8367L10.83 22.8372C11.4449 22.9486 12.0423 22.5303 12.1565 21.9051C12.2683 21.2925 11.8484 20.6973 11.2209 20.5836ZM32.1055 21.5157C31.9914 20.8905 31.394 20.4722 30.7791 20.5836C30.1516 20.6973 29.7317 21.2925 29.8435 21.9051C29.9577 22.5303 30.5551 22.9486 31.17 22.8372L31.1728 22.8367C31.8269 22.7234 32.2189 22.1367 32.1055 21.5157ZM30.645 19.8485C31.68 19.661 32.6575 20.3635 32.8434 21.3821C33.03 22.4044 32.3727 23.3864 31.3027 23.5726C30.3933 23.7366 29.5286 23.2137 29.2065 22.3932L27.4342 22.677C27.2297 22.7098 27.0373 22.5712 27.0045 22.3674C26.9716 22.1637 27.1107 21.972 27.3152 21.9393L29.0758 21.6574C29.0981 20.7771 29.75 20.0106 30.645 19.8485ZM20.625 24.7423C19.8808 24.9159 19.3126 25.5922 19.3126 26.3803C19.3126 27.2965 20.0804 28.0615 21 28.0615C21.5054 28.0615 21.9375 28.492 21.9375 28.9955C21.9375 29.499 21.5054 29.9294 21 29.9294C20.4946 29.9294 20.0625 29.499 20.0625 28.9955C20.0625 28.7891 19.8947 28.6219 19.6876 28.6219C19.4805 28.6219 19.3126 28.7891 19.3126 28.9955C19.3126 29.7836 19.8808 30.4598 20.625 30.6335V30.7887C20.625 30.995 20.7929 31.1623 21 31.1623C21.2071 31.1623 21.375 30.995 21.375 30.7887V30.6335C22.1192 30.4598 22.6874 29.7836 22.6874 28.9955C22.6874 28.0793 21.9196 27.3143 21 27.3143C20.4946 27.3143 20.0625 26.8838 20.0625 26.3803C20.0625 25.8768 20.4946 25.4463 21 25.4463C21.5054 25.4463 21.9375 25.8768 21.9375 26.3803C21.9375 26.5866 22.1053 26.7539 22.3124 26.7539C22.5195 26.7539 22.6874 26.5866 22.6874 26.3803C22.6874 25.5922 22.1192 24.9159 21.375 24.7423V24.5123C21.375 24.306 21.2071 24.1388 21 24.1388C20.7929 24.1388 20.625 24.306 20.625 24.5123V24.7423ZM14.2228 27.104C14.3393 27.2746 14.295 27.507 14.1239 27.6231L12.6713 28.6084C13.0419 29.4367 12.7729 30.4094 12.0325 30.9421C12.0299 30.944 12.0273 30.9458 12.0247 30.9476C11.1401 31.5506 9.97599 31.3167 9.37254 30.4858C8.71748 29.5984 8.95942 28.4273 9.83875 27.8279C10.6104 27.3019 11.5947 27.4127 12.2341 28.0011L13.7018 27.0055C13.873 26.8894 14.1062 26.9335 14.2228 27.104ZM11.7904 28.6148C11.4018 28.1969 10.7598 28.1054 10.2622 28.4445C9.71713 28.8161 9.58387 29.512 9.9774 30.0441C9.97811 30.045 9.97881 30.046 9.97951 30.0469C10.3504 30.5586 11.0579 30.6983 11.5972 30.3336C12.0783 29.9846 12.2291 29.3402 11.939 28.8185C11.9013 28.7929 11.8677 28.7599 11.8404 28.72C11.8178 28.6869 11.8012 28.6514 11.7904 28.6148ZM27.7772 27.104C27.8938 26.9335 28.127 26.8894 28.2982 27.0055L29.7659 28.0011C30.4053 27.4127 31.3896 27.3019 32.1612 27.8279C33.0406 28.4273 33.2825 29.5984 32.6275 30.4857C32.0241 31.3167 30.8599 31.5506 29.9753 30.9476C29.9727 30.9458 29.9701 30.944 29.9675 30.9421C29.2271 30.4094 28.9581 29.4367 29.3287 28.6084L27.8761 27.6231C27.705 27.507 27.6607 27.2746 27.7772 27.104ZM30.061 28.8185C29.7709 29.3402 29.9217 29.9846 30.4028 30.3336C30.9421 30.6983 31.6496 30.5586 32.0205 30.0469L32.0214 30.0456L32.0226 30.0441C32.4161 29.512 32.2829 28.8161 31.7378 28.4445C31.2402 28.1054 30.5982 28.1969 30.2096 28.6148C30.1988 28.6514 30.1822 28.6869 30.1596 28.72C30.1323 28.7599 30.0987 28.7928 30.061 28.8185Z" fill="white"/>
<defs>
<linearGradient id="paint0_linear_278_4231" x1="21" y1="0.838867" x2="21" y2="42.8389" gradientUnits="userSpaceOnUse">
<stop stop-color="#00F981"/>
<stop offset="1" stop-color="#0056FB"/>
</linearGradient>
</defs>
</svg>
