<svg width="134" height="57" viewBox="0 0 134 57" fill="none" xmlns="http://www.w3.org/2000/svg">
<mask id="path-1-inside-1_223_2123" fill="white">
<path fill-rule="evenodd" clip-rule="evenodd" d="M64.9019 1.5C66.0566 -0.500002 68.9434 -0.499998 70.0981 1.5L71.5415 4H122C128.627 4 134 9.37259 134 16V40C134 46.6274 128.627 52 122 52H72.1188L70.0981 55.5C68.9434 57.5 66.0566 57.5 64.9019 55.5L62.8812 52H12C5.37258 52 0 46.6274 0 40V16C0 9.37259 5.37258 4 12 4H63.4585L64.9019 1.5Z"/>
</mask>
<path fill-rule="evenodd" clip-rule="evenodd" d="M64.9019 1.5C66.0566 -0.500002 68.9434 -0.499998 70.0981 1.5L71.5415 4H122C128.627 4 134 9.37259 134 16V40C134 46.6274 128.627 52 122 52H72.1188L70.0981 55.5C68.9434 57.5 66.0566 57.5 64.9019 55.5L62.8812 52H12C5.37258 52 0 46.6274 0 40V16C0 9.37259 5.37258 4 12 4H63.4585L64.9019 1.5Z" fill="#0A0A0A"/>
<path d="M70.0981 1.5L70.9641 1V1L70.0981 1.5ZM64.9019 1.5L64.0359 0.999998L64.9019 1.5ZM71.5415 4L70.6754 4.5L70.9641 5H71.5415V4ZM72.1188 52V51H71.5414L71.2528 51.5L72.1188 52ZM70.0981 55.5L70.9641 56L70.0981 55.5ZM64.9019 55.5L64.0359 56L64.9019 55.5ZM62.8812 52L63.7472 51.5L63.4585 51H62.8812V52ZM63.4585 4V5H64.0359L64.3246 4.5L63.4585 4ZM70.9641 1C69.4245 -1.66666 65.5755 -1.66667 64.0359 0.999998L65.768 2C66.5378 0.666667 68.4622 0.666666 69.232 2L70.9641 1ZM72.4075 3.5L70.9641 1L69.232 2L70.6754 4.5L72.4075 3.5ZM122 3H71.5415V5H122V3ZM135 16C135 8.8203 129.18 3 122 3V5C128.075 5 133 9.92487 133 16H135ZM135 40V16H133V40H135ZM122 53C129.18 53 135 47.1797 135 40H133C133 46.0751 128.075 51 122 51V53ZM72.1188 53H122V51H72.1188V53ZM70.9641 56L72.9848 52.5L71.2528 51.5L69.232 55L70.9641 56ZM64.0359 56C65.5755 58.6667 69.4245 58.6667 70.9641 56L69.232 55C68.4622 56.3333 66.5378 56.3333 65.768 55L64.0359 56ZM62.0152 52.5L64.0359 56L65.768 55L63.7472 51.5L62.0152 52.5ZM12 53H62.8812V51H12V53ZM-1 40C-1 47.1797 4.8203 53 12 53V51C5.92487 51 1 46.0751 1 40H-1ZM-1 16V40H1V16H-1ZM12 3C4.8203 3 -1 8.8203 -1 16H1C1 9.92487 5.92487 5 12 5V3ZM63.4585 3H12V5H63.4585V3ZM64.0359 0.999998L62.5925 3.5L64.3246 4.5L65.768 2L64.0359 0.999998Z" fill="white" mask="url(#path-1-inside-1_223_2123)"/>
<path d="M46.7021 35.128C45.5927 35.128 44.7181 34.808 44.0781 34.168C43.4381 33.528 43.1181 32.6533 43.1181 31.544H44.9581C44.9581 32.1413 45.1127 32.616 45.4221 32.968C45.7421 33.3093 46.1794 33.48 46.7341 33.48H48.5101C49.0327 33.48 49.4541 33.368 49.7741 33.144C50.0941 32.9093 50.2541 32.6053 50.2541 32.232V31.528C50.2541 31.24 50.1421 31 49.9181 30.808C49.6941 30.616 49.3741 30.4827 48.9581 30.408L46.0461 29.912C45.1394 29.7627 44.4407 29.464 43.9501 29.016C43.4701 28.568 43.2301 27.9973 43.2301 27.304V26.424C43.2301 25.88 43.3741 25.4 43.6621 24.984C43.9607 24.568 44.3767 24.248 44.9101 24.024C45.4434 23.7893 46.0621 23.672 46.7661 23.672H48.5741C49.2354 23.672 49.8167 23.8107 50.3181 24.088C50.8301 24.3547 51.2247 24.7387 51.5021 25.24C51.7794 25.7413 51.9181 26.3173 51.9181 26.968H50.0941C50.0941 26.4773 49.9501 26.0827 49.6621 25.784C49.3847 25.4747 49.0221 25.32 48.5741 25.32H46.7661C46.2647 25.32 45.8594 25.432 45.5501 25.656C45.2514 25.8693 45.1021 26.1627 45.1021 26.536V27.112C45.1021 27.4107 45.2087 27.6613 45.4221 27.864C45.6354 28.056 45.9447 28.184 46.3501 28.248L49.2621 28.76C50.1794 28.92 50.8834 29.2187 51.3741 29.656C51.8754 30.0827 52.1261 30.632 52.1261 31.304V32.344C52.1261 32.888 51.9767 33.3733 51.6781 33.8C51.3794 34.216 50.9581 34.5413 50.4141 34.776C49.8701 35.0107 49.2461 35.128 48.5421 35.128H46.7021ZM56.3478 25.416H52.7958V23.8H61.7718V25.416H58.2198V35H56.3478V25.416ZM64.5187 35C64.1027 35 63.7667 34.8773 63.5107 34.632C63.2654 34.376 63.1427 34.0453 63.1427 33.64V23.8H71.3507V25.416H65.0147V28.456H70.8707V30.088H65.0147V33.384H71.3507V35H64.5187ZM73.0489 23.8H78.7929C79.7316 23.8 80.4889 24.0667 81.0649 24.6C81.6409 25.1227 81.9289 25.816 81.9289 26.68V28.216C81.9289 29.1227 81.6249 29.8533 81.0169 30.408C80.4196 30.952 79.6303 31.224 78.6489 31.224H74.9209V35H73.0489V23.8ZM78.6169 29.592C79.0543 29.592 79.4009 29.4587 79.6569 29.192C79.9236 28.9253 80.0569 28.5787 80.0569 28.152V26.728C80.0569 26.3333 79.9396 26.0187 79.7049 25.784C79.4703 25.5493 79.1556 25.432 78.7609 25.432H74.9209V29.592H78.6169ZM86.5302 35.128C85.4209 35.128 84.5462 34.808 83.9062 34.168C83.2662 33.528 82.9462 32.6533 82.9462 31.544H84.7862C84.7862 32.1413 84.9409 32.616 85.2502 32.968C85.5702 33.3093 86.0075 33.48 86.5622 33.48H88.3382C88.8609 33.48 89.2822 33.368 89.6022 33.144C89.9222 32.9093 90.0822 32.6053 90.0822 32.232V31.528C90.0822 31.24 89.9702 31 89.7462 30.808C89.5222 30.616 89.2022 30.4827 88.7862 30.408L85.8742 29.912C84.9675 29.7627 84.2689 29.464 83.7782 29.016C83.2982 28.568 83.0582 27.9973 83.0582 27.304V26.424C83.0582 25.88 83.2022 25.4 83.4902 24.984C83.7889 24.568 84.2049 24.248 84.7382 24.024C85.2715 23.7893 85.8902 23.672 86.5942 23.672H88.4022C89.0635 23.672 89.6449 23.8107 90.1462 24.088C90.6582 24.3547 91.0529 24.7387 91.3302 25.24C91.6075 25.7413 91.7462 26.3173 91.7462 26.968H89.9222C89.9222 26.4773 89.7782 26.0827 89.4902 25.784C89.2129 25.4747 88.8502 25.32 88.4022 25.32H86.5942C86.0929 25.32 85.6875 25.432 85.3782 25.656C85.0795 25.8693 84.9302 26.1627 84.9302 26.536V27.112C84.9302 27.4107 85.0369 27.6613 85.2502 27.864C85.4635 28.056 85.7729 28.184 86.1782 28.248L89.0902 28.76C90.0075 28.92 90.7115 29.2187 91.2022 29.656C91.7035 30.0827 91.9542 30.632 91.9542 31.304V32.344C91.9542 32.888 91.8049 33.3733 91.5062 33.8C91.2075 34.216 90.7862 34.5413 90.2422 34.776C89.6982 35.0107 89.0742 35.128 88.3702 35.128H86.5302Z" fill="#00F981"/>
</svg>
