<svg width="134" height="57" viewBox="0 0 134 57" fill="none" xmlns="http://www.w3.org/2000/svg">
<mask id="path-1-inside-1_278_3983" fill="white">
<path fill-rule="evenodd" clip-rule="evenodd" d="M64.9019 1.5C66.0566 -0.500002 68.9434 -0.499998 70.0981 1.5L71.5415 4H122C128.627 4 134 9.37258 134 16V40C134 46.6274 128.627 52 122 52H72.1188L70.0981 55.5C68.9434 57.5 66.0566 57.5 64.9019 55.5L62.8812 52H12C5.37258 52 0 46.6274 0 40V16C0 9.37258 5.37258 4 12 4H63.4585L64.9019 1.5Z"/>
</mask>
<path fill-rule="evenodd" clip-rule="evenodd" d="M64.9019 1.5C66.0566 -0.500002 68.9434 -0.499998 70.0981 1.5L71.5415 4H122C128.627 4 134 9.37258 134 16V40C134 46.6274 128.627 52 122 52H72.1188L70.0981 55.5C68.9434 57.5 66.0566 57.5 64.9019 55.5L62.8812 52H12C5.37258 52 0 46.6274 0 40V16C0 9.37258 5.37258 4 12 4H63.4585L64.9019 1.5Z" fill="#0A0A0A"/>
<path d="M70.0981 1.5L70.9641 1L70.9641 1L70.0981 1.5ZM64.9019 1.5L64.0359 0.999998L64.0359 0.999998L64.9019 1.5ZM71.5415 4L70.6754 4.5L70.9641 5H71.5415V4ZM72.1188 52V51H71.5414L71.2528 51.5L72.1188 52ZM70.0981 55.5L70.9641 56L70.9641 56L70.0981 55.5ZM64.9019 55.5L64.0359 56L64.0359 56L64.9019 55.5ZM62.8812 52L63.7472 51.5L63.4585 51H62.8812V52ZM63.4585 4V5H64.0359L64.3246 4.5L63.4585 4ZM70.9641 1C69.4245 -1.66666 65.5755 -1.66667 64.0359 0.999998L65.7679 2C66.5377 0.666667 68.4622 0.666666 69.2321 2L70.9641 1ZM72.4075 3.5L70.9641 1L69.2321 2L70.6754 4.5L72.4075 3.5ZM122 3H71.5415V5H122V3ZM135 16C135 8.8203 129.18 3 122 3V5C128.075 5 133 9.92487 133 16H135ZM135 40V16H133V40H135ZM122 53C129.18 53 135 47.1797 135 40H133C133 46.0751 128.075 51 122 51V53ZM72.1188 53H122V51H72.1188V53ZM70.9641 56L72.9848 52.5L71.2528 51.5L69.232 55L70.9641 56ZM64.0359 56C65.5755 58.6667 69.4245 58.6667 70.9641 56L69.2321 55C68.4622 56.3333 66.5377 56.3333 65.7679 55L64.0359 56ZM62.0152 52.5L64.0359 56L65.7679 55L63.7472 51.5L62.0152 52.5ZM12 53H62.8812V51H12V53ZM-1 40C-1 47.1797 4.8203 53 12 53V51C5.92487 51 1 46.0751 1 40H-1ZM-1 16V40H1V16H-1ZM12 3C4.8203 3 -1 8.8203 -1 16H1C1 9.92487 5.92487 5 12 5V3ZM63.4585 3H12V5H63.4585V3ZM64.0359 0.999998L62.5925 3.5L64.3246 4.5L65.7679 2L64.0359 0.999998Z" fill="white" mask="url(#path-1-inside-1_278_3983)"/>
<path d="M17.965 25.416H14.413V23.8H23.389V25.416H19.837V35H17.965V25.416ZM26.1359 35C25.7199 35 25.3839 34.8773 25.1279 34.632C24.8825 34.376 24.7599 34.0453 24.7599 33.64V23.8H32.9679V25.416H26.6319V28.456H32.4879V30.088H26.6319V33.384H32.9679V35H26.1359ZM38.2204 35.128C37.431 35.128 36.7377 34.9573 36.1404 34.616C35.543 34.264 35.079 33.7733 34.7484 33.144C34.4177 32.504 34.2524 31.768 34.2524 30.936V27.864C34.2524 27.032 34.4177 26.3013 34.7484 25.672C35.0897 25.032 35.5644 24.5413 36.1724 24.2C36.7804 23.848 37.4844 23.672 38.2844 23.672H39.9804C40.7377 23.672 41.4097 23.8373 41.9964 24.168C42.583 24.488 43.0364 24.9467 43.3564 25.544C43.6764 26.1307 43.8364 26.8133 43.8364 27.592H41.9964C41.9964 26.9093 41.8097 26.36 41.4364 25.944C41.063 25.528 40.5777 25.32 39.9804 25.32H38.2844C37.6337 25.32 37.111 25.56 36.7164 26.04C36.3217 26.52 36.1244 27.1493 36.1244 27.928V30.872C36.1244 31.6613 36.3164 32.296 36.7004 32.776C37.0844 33.2453 37.591 33.48 38.2204 33.48H39.9484C40.567 33.48 41.0684 33.2453 41.4524 32.776C41.8364 32.3067 42.0284 31.6987 42.0284 30.952H43.8684C43.8684 31.784 43.703 32.5147 43.3724 33.144C43.0524 33.7733 42.5937 34.264 41.9964 34.616C41.4097 34.9573 40.727 35.128 39.9484 35.128H38.2204ZM45.4318 23.8H47.3038V28.552H52.8398V23.8H54.6958V35H52.8398V30.184H47.3038V35H45.4318V23.8ZM56.8693 23.8H58.5493L64.2133 31.992V23.8H66.0373V35H64.3413L58.6933 26.84V35H56.8693V23.8ZM71.989 35.128C71.1783 35.128 70.4637 34.9573 69.845 34.616C69.2263 34.264 68.7463 33.7733 68.405 33.144C68.0637 32.504 67.893 31.768 67.893 30.936V27.864C67.893 27.032 68.0637 26.3013 68.405 25.672C68.7463 25.032 69.2263 24.5413 69.845 24.2C70.4637 23.848 71.1783 23.672 71.989 23.672H73.685C74.4957 23.672 75.2103 23.848 75.829 24.2C76.4583 24.5413 76.9437 25.032 77.285 25.672C77.6263 26.3013 77.797 27.032 77.797 27.864V30.936C77.797 31.768 77.6263 32.504 77.285 33.144C76.9437 33.7733 76.4583 34.264 75.829 34.616C75.2103 34.9573 74.4957 35.128 73.685 35.128H71.989ZM73.685 33.48C74.3463 33.48 74.885 33.24 75.301 32.76C75.717 32.28 75.925 31.6507 75.925 30.872V27.928C75.925 27.1493 75.717 26.52 75.301 26.04C74.8957 25.56 74.357 25.32 73.685 25.32H72.005C71.333 25.32 70.789 25.56 70.373 26.04C69.9677 26.52 69.765 27.1493 69.765 27.928V30.872C69.765 31.6507 69.9677 32.28 70.373 32.76C70.789 33.24 71.333 33.48 72.005 33.48H73.685ZM81.0265 35C80.5998 35 80.2638 34.8773 80.0185 34.632C79.7732 34.3867 79.6505 34.0613 79.6505 33.656V23.8H81.5225V33.368H87.6025V35H81.0265ZM92.2703 35.128C91.4596 35.128 90.7449 34.9573 90.1263 34.616C89.5076 34.264 89.0276 33.7733 88.6863 33.144C88.3449 32.504 88.1743 31.768 88.1743 30.936V27.864C88.1743 27.032 88.3449 26.3013 88.6863 25.672C89.0276 25.032 89.5076 24.5413 90.1263 24.2C90.7449 23.848 91.4596 23.672 92.2703 23.672H93.9663C94.7769 23.672 95.4916 23.848 96.1103 24.2C96.7396 24.5413 97.2249 25.032 97.5663 25.672C97.9076 26.3013 98.0783 27.032 98.0783 27.864V30.936C98.0783 31.768 97.9076 32.504 97.5663 33.144C97.2249 33.7733 96.7396 34.264 96.1103 34.616C95.4916 34.9573 94.7769 35.128 93.9663 35.128H92.2703ZM93.9663 33.48C94.6276 33.48 95.1663 33.24 95.5823 32.76C95.9983 32.28 96.2063 31.6507 96.2063 30.872V27.928C96.2063 27.1493 95.9983 26.52 95.5823 26.04C95.1769 25.56 94.6383 25.32 93.9663 25.32H92.2863C91.6143 25.32 91.0703 25.56 90.6543 26.04C90.2489 26.52 90.0463 27.1493 90.0463 27.928V30.872C90.0463 31.6507 90.2489 32.28 90.6543 32.76C91.0703 33.24 91.6143 33.48 92.2863 33.48H93.9663ZM103.612 35.128C102.812 35.128 102.108 34.9573 101.5 34.616C100.902 34.264 100.438 33.7733 100.108 33.144C99.7771 32.504 99.6118 31.768 99.6118 30.936V27.864C99.6118 27.032 99.7771 26.3013 100.108 25.672C100.449 25.032 100.924 24.5413 101.532 24.2C102.15 23.848 102.86 23.672 103.66 23.672H105.42C106.188 23.672 106.865 23.832 107.452 24.152C108.038 24.4613 108.492 24.904 108.812 25.48C109.132 26.0453 109.292 26.7013 109.292 27.448H107.452C107.452 26.808 107.265 26.296 106.892 25.912C106.518 25.5173 106.028 25.32 105.42 25.32H103.66C103.009 25.32 102.481 25.56 102.076 26.04C101.681 26.5093 101.484 27.1387 101.484 27.928V30.872C101.484 31.6613 101.676 32.296 102.06 32.776C102.454 33.2453 102.972 33.48 103.612 33.48H105.436C106.054 33.48 106.561 33.2613 106.956 32.824C107.35 32.3867 107.548 31.8267 107.548 31.144V30.6H104.444V28.968H109.388V31.144C109.388 31.9227 109.222 32.616 108.892 33.224C108.561 33.8213 108.097 34.2907 107.5 34.632C106.902 34.9627 106.214 35.128 105.436 35.128H103.612ZM113.817 30.664L109.673 23.8H111.705L114.745 28.952L117.785 23.8H119.817L115.673 30.664V35H113.817V30.664Z" fill="#00F981"/>
</svg>
