<svg width="679" height="493" viewBox="0 0 679 493" fill="none" xmlns="http://www.w3.org/2000/svg">
<path fill-rule="evenodd" clip-rule="evenodd" d="M630.584 164.276C630.619 164.188 630.639 164.093 630.639 163.993C630.639 163.579 630.303 163.243 629.889 163.243L508 163.243V164.743L629.286 164.743V233.582C627.436 233.933 626.036 235.559 626.036 237.511C626.036 239.72 627.827 241.511 630.036 241.511C632.245 241.511 634.036 239.72 634.036 237.511C634.036 235.559 632.637 233.933 630.786 233.582V164.276H630.584Z" fill="url(#paint0_linear_278_6605)"/>
<path fill-rule="evenodd" clip-rule="evenodd" d="M73 163.25C72.5858 163.25 72.25 163.586 72.25 164C72.25 164.101 72.2699 164.197 72.3061 164.285H72.25V234.259C70.3994 234.61 69 236.236 69 238.188C69 240.398 70.7909 242.188 73 242.188C75.2091 242.188 77 240.398 77 238.188C77 236.236 75.6006 234.61 73.75 234.259V164.75H178V163.25H73Z" fill="url(#paint1_linear_278_6605)"/>
<path fill-rule="evenodd" clip-rule="evenodd" d="M351.675 458.904C351.675 462.105 349.08 464.7 345.878 464.7C342.677 464.7 340.082 462.105 340.082 458.904C340.082 456.074 342.11 453.718 344.792 453.209L344.792 385L346.965 385L346.965 453.209C349.647 453.718 351.675 456.074 351.675 458.904Z" fill="url(#paint2_linear_278_6605)"/>
<path d="M294.498 58.364C340.86 44.9298 390.645 50.4133 432.902 73.6084C475.158 96.8035 506.425 135.81 519.823 182.047C533.221 228.284 527.653 277.964 504.344 320.158C481.036 362.352 441.895 393.603 395.534 407.038L345.016 232.701L294.498 58.364Z" fill="url(#paint3_linear_278_6605)"/>
<path d="M283.211 404.234C247.079 391.133 216.021 366.93 194.49 335.093C172.959 303.256 162.059 265.42 163.353 227.008C164.647 188.595 178.068 151.579 201.694 121.263C225.319 90.9472 257.935 68.8889 294.867 58.2496L345.248 233.135L283.211 404.234Z" fill="url(#paint4_linear_278_6605)"/>
<path d="M396.082 406.893C358.97 417.92 319.329 416.945 282.84 404.108L343.996 231.601L396.082 406.893Z" fill="url(#paint5_linear_278_6605)"/>
<path d="M184.674 215.856H180.114C179.666 215.856 179.319 215.76 179.074 215.568C178.829 215.376 178.706 215.099 178.706 214.736V214.288L184.658 206.8H186.882V213.904H188.29V215.856H186.882V218H184.674V215.856ZM184.738 214V209.568H184.722L181.218 214H184.738ZM193.091 218.128C192.345 218.128 191.683 217.968 191.107 217.648C190.531 217.317 190.083 216.853 189.763 216.256C189.443 215.659 189.283 214.971 189.283 214.192V210.608C189.283 209.829 189.438 209.141 189.747 208.544C190.067 207.947 190.515 207.488 191.091 207.168C191.667 206.837 192.334 206.672 193.091 206.672H194.787C195.523 206.672 196.174 206.837 196.739 207.168C197.305 207.488 197.742 207.947 198.051 208.544C198.371 209.141 198.531 209.829 198.531 210.608V214.192C198.531 214.971 198.377 215.659 198.067 216.256C197.758 216.853 197.321 217.317 196.755 217.648C196.19 217.968 195.534 218.128 194.787 218.128H193.091ZM194.755 216.176C195.225 216.176 195.598 216 195.875 215.648C196.163 215.285 196.307 214.811 196.307 214.224V210.576C196.307 209.989 196.163 209.52 195.875 209.168C195.598 208.805 195.225 208.624 194.755 208.624H193.123C192.633 208.624 192.238 208.805 191.939 209.168C191.641 209.52 191.491 209.989 191.491 210.576V214.224C191.491 214.811 191.641 215.285 191.939 215.648C192.238 216 192.633 216.176 193.123 216.176H194.755ZM209.729 206.448H212.001L205.665 218.4H203.393L209.729 206.448ZM202.593 213.84C201.782 213.84 201.131 213.6 200.641 213.12C200.15 212.629 199.905 211.989 199.905 211.2V209.312C199.905 208.523 200.15 207.888 200.641 207.408C201.131 206.917 201.782 206.672 202.593 206.672H203.489C204.299 206.672 204.95 206.917 205.441 207.408C205.931 207.888 206.177 208.523 206.177 209.312V211.2C206.177 211.989 205.931 212.629 205.441 213.12C204.95 213.6 204.299 213.84 203.489 213.84H202.593ZM203.441 212.096C203.665 212.096 203.841 212.005 203.969 211.824C204.107 211.632 204.177 211.381 204.177 211.072V209.44C204.177 209.131 204.107 208.885 203.969 208.704C203.841 208.512 203.665 208.416 203.441 208.416H202.641C202.417 208.416 202.235 208.512 202.097 208.704C201.969 208.885 201.905 209.131 201.905 209.44V211.072C201.905 211.381 201.969 211.632 202.097 211.824C202.235 212.005 202.417 212.096 202.641 212.096H203.441ZM211.921 218.128C211.11 218.128 210.459 217.888 209.969 217.408C209.478 216.917 209.233 216.277 209.233 215.488V213.6C209.233 212.811 209.478 212.176 209.969 211.696C210.459 211.205 211.11 210.96 211.921 210.96H212.817C213.627 210.96 214.278 211.205 214.769 211.696C215.259 212.176 215.505 212.811 215.505 213.6V215.488C215.505 216.277 215.259 216.917 214.769 217.408C214.278 217.888 213.627 218.128 212.817 218.128H211.921ZM212.769 216.384C212.993 216.384 213.169 216.293 213.297 216.112C213.435 215.92 213.505 215.669 213.505 215.36V213.728C213.505 213.419 213.435 213.173 213.297 212.992C213.169 212.8 212.993 212.704 212.769 212.704H211.969C211.745 212.704 211.563 212.8 211.425 212.992C211.297 213.173 211.233 213.419 211.233 213.728V215.36C211.233 215.669 211.297 215.92 211.425 216.112C211.563 216.293 211.745 216.384 211.969 216.384H212.769ZM192.947 235.856H188.387C187.939 235.856 187.593 235.76 187.347 235.568C187.102 235.376 186.979 235.099 186.979 234.736V234.288L192.931 226.8H195.155V233.904H196.563V235.856H195.155V238H192.947V235.856ZM193.011 234V229.568H192.995L189.491 234H193.011ZM199.333 238C198.874 238 198.501 237.861 198.213 237.584C197.925 237.307 197.781 236.944 197.781 236.496V226.8H203.349C204.362 226.8 205.173 227.04 205.781 227.52C206.399 228 206.709 228.645 206.709 229.456V230.256C206.709 230.608 206.618 230.944 206.437 231.264C206.266 231.584 206.021 231.845 205.701 232.048V232.064C206.213 232.245 206.623 232.539 206.933 232.944C207.253 233.349 207.413 233.803 207.413 234.304V235.136C207.413 236.011 207.093 236.709 206.453 237.232C205.823 237.744 204.97 238 203.893 238H199.333ZM203.349 231.44C203.69 231.44 203.967 231.333 204.181 231.12C204.394 230.896 204.501 230.603 204.501 230.24V229.696C204.501 229.397 204.389 229.163 204.165 228.992C203.941 228.811 203.642 228.72 203.269 228.72H199.989V231.44H203.349ZM203.733 236.08C204.202 236.08 204.565 235.989 204.821 235.808C205.077 235.616 205.205 235.349 205.205 235.008V234.304C205.205 233.995 205.093 233.744 204.869 233.552C204.645 233.36 204.346 233.264 203.973 233.264H199.989V236.08H203.733Z" fill="#F6EEF3"/>
<path d="M1.224 256.4H7.686C8.742 256.4 9.594 256.7 10.242 257.3C10.89 257.888 11.214 258.668 11.214 259.64V261.368C11.214 262.388 10.872 263.21 10.188 263.834C9.516 264.446 8.628 264.752 7.524 264.752H3.33V269H1.224V256.4ZM7.488 262.916C7.98 262.916 8.37 262.766 8.658 262.466C8.958 262.166 9.108 261.776 9.108 261.296V259.694C9.108 259.25 8.976 258.896 8.712 258.632C8.448 258.368 8.094 258.236 7.65 258.236H3.33V262.916H7.488ZM15.6344 269.144C14.7344 269.144 14.0024 268.838 13.4384 268.226C12.8864 267.602 12.6104 266.792 12.6104 265.796V260.018H14.6804V265.832C14.6804 266.288 14.7884 266.654 15.0044 266.93C15.2324 267.206 15.5264 267.344 15.8864 267.344H16.9664C17.4224 267.344 17.8304 267.164 18.1904 266.804C18.5624 266.432 18.8144 265.952 18.9464 265.364V260.018H21.0164V269H19.0724V267.776C18.8084 268.184 18.4604 268.514 18.0284 268.766C17.6084 269.018 17.2064 269.144 16.8224 269.144H15.6344ZM27.386 269.144C27.002 269.144 26.606 269.024 26.198 268.784C25.802 268.532 25.484 268.22 25.244 267.848V269H23.318V256.4H25.388V260.846C25.628 260.546 25.934 260.312 26.306 260.144C26.678 259.964 27.05 259.874 27.422 259.874H28.682C29.342 259.874 29.93 260.024 30.446 260.324C30.962 260.612 31.364 261.02 31.652 261.548C31.94 262.076 32.084 262.682 32.084 263.366V265.508C32.084 266.228 31.94 266.864 31.652 267.416C31.364 267.968 30.956 268.394 30.428 268.694C29.912 268.994 29.318 269.144 28.646 269.144H27.386ZM28.43 267.326C28.898 267.326 29.282 267.152 29.582 266.804C29.882 266.444 30.032 265.976 30.032 265.4V263.492C30.032 262.952 29.888 262.52 29.6 262.196C29.312 261.86 28.94 261.692 28.484 261.692H27.332C26.804 261.692 26.36 261.884 26 262.268C25.64 262.64 25.436 263.132 25.388 263.744V265.508C25.448 266.036 25.652 266.474 26 266.822C26.36 267.158 26.774 267.326 27.242 267.326H28.43ZM36.9211 269C35.9131 269 35.1751 268.79 34.7071 268.37C34.2511 267.938 34.0231 267.26 34.0231 266.336V256.4H36.0931V266.246C36.0931 266.594 36.1651 266.846 36.3091 267.002C36.4531 267.146 36.6931 267.218 37.0291 267.218H37.8931V269H36.9211ZM40.5411 259.01C40.1331 259.01 39.8031 258.89 39.5511 258.65C39.3111 258.398 39.1911 258.08 39.1911 257.696C39.1911 257.312 39.3111 257 39.5511 256.76C39.8031 256.508 40.1331 256.382 40.5411 256.382C40.9491 256.382 41.2791 256.508 41.5311 256.76C41.7831 257 41.9091 257.312 41.9091 257.696C41.9091 258.08 41.7831 258.398 41.5311 258.65C41.2791 258.89 40.9491 259.01 40.5411 259.01ZM39.5151 260.018H41.5851V269H39.5151V260.018ZM47.5124 269.144C46.4084 269.144 45.5204 268.826 44.8484 268.19C44.1884 267.554 43.8584 266.714 43.8584 265.67V263.402C43.8584 262.706 44.0084 262.094 44.3084 261.566C44.6084 261.026 45.0344 260.612 45.5864 260.324C46.1384 260.024 46.7744 259.874 47.4944 259.874H48.9344C49.9664 259.874 50.7944 260.174 51.4184 260.774C52.0544 261.362 52.3724 262.142 52.3724 263.114H50.3384C50.3384 262.682 50.2064 262.334 49.9424 262.07C49.6904 261.794 49.3544 261.656 48.9344 261.656H47.5124C47.0444 261.656 46.6604 261.83 46.3604 262.178C46.0724 262.526 45.9284 262.976 45.9284 263.528V265.544C45.9284 266.084 46.0724 266.522 46.3604 266.858C46.6604 267.194 47.0504 267.362 47.5304 267.362H48.9524C49.3964 267.362 49.7504 267.2 50.0144 266.876C50.2904 266.552 50.4284 266.132 50.4284 265.616H52.4624C52.4624 266.672 52.1384 267.524 51.4904 268.172C50.8544 268.82 50.0084 269.144 48.9524 269.144H47.5124ZM59.2494 256.4H65.7114C66.7674 256.4 67.6194 256.7 68.2674 257.3C68.9154 257.888 69.2394 258.668 69.2394 259.64V261.368C69.2394 262.388 68.8974 263.21 68.2134 263.834C67.5414 264.446 66.6534 264.752 65.5494 264.752H61.3554V269H59.2494V256.4ZM65.5134 262.916C66.0054 262.916 66.3954 262.766 66.6834 262.466C66.9834 262.166 67.1334 261.776 67.1334 261.296V259.694C67.1334 259.25 67.0014 258.896 66.7374 258.632C66.4734 258.368 66.1194 258.236 65.6754 258.236H61.3554V262.916H65.5134ZM70.7438 260.018H72.6698V261.242C72.9098 260.87 73.2518 260.57 73.6958 260.342C74.1518 260.102 74.6198 259.982 75.0998 259.982H76.1798V261.782H75.0998C74.4158 261.782 73.8638 261.992 73.4438 262.412C73.0238 262.832 72.8138 263.378 72.8138 264.05V269H70.7438V260.018ZM80.525 269.144C79.793 269.144 79.145 269.006 78.581 268.73C78.029 268.454 77.597 268.064 77.285 267.56C76.985 267.056 76.835 266.474 76.835 265.814V263.402C76.835 262.706 76.985 262.094 77.285 261.566C77.597 261.026 78.029 260.612 78.581 260.324C79.145 260.024 79.793 259.874 80.525 259.874H81.965C83.057 259.874 83.933 260.192 84.593 260.828C85.253 261.464 85.583 262.31 85.583 263.366V265.166H78.905V265.814C78.905 266.294 79.049 266.678 79.337 266.966C79.637 267.254 80.033 267.398 80.525 267.398H81.911C82.391 267.398 82.775 267.284 83.063 267.056C83.363 266.816 83.513 266.504 83.513 266.12H85.547C85.547 267.032 85.211 267.764 84.539 268.316C83.867 268.868 82.985 269.144 81.893 269.144H80.525ZM83.549 263.618V263.366C83.549 262.838 83.405 262.412 83.117 262.088C82.829 261.764 82.451 261.602 81.983 261.602H80.525C80.033 261.602 79.631 261.776 79.319 262.124C79.019 262.46 78.869 262.904 78.869 263.456V263.618H83.549ZM90.413 269.144C89.381 269.144 88.553 268.868 87.929 268.316C87.305 267.764 86.993 267.032 86.993 266.12H89.027C89.027 266.504 89.153 266.816 89.405 267.056C89.657 267.284 89.993 267.398 90.413 267.398H92.015C92.423 267.398 92.741 267.332 92.969 267.2C93.209 267.056 93.329 266.864 93.329 266.624V266.228C93.329 266.06 93.257 265.916 93.113 265.796C92.981 265.676 92.795 265.592 92.555 265.544L89.441 265.004C88.745 264.884 88.193 264.632 87.785 264.248C87.377 263.852 87.173 263.396 87.173 262.88V262.286C87.173 261.542 87.467 260.954 88.055 260.522C88.655 260.09 89.477 259.874 90.521 259.874H91.961C92.909 259.874 93.677 260.132 94.265 260.648C94.853 261.164 95.147 261.842 95.147 262.682H93.113C93.113 262.358 93.005 262.1 92.789 261.908C92.585 261.716 92.309 261.62 91.961 261.62H90.539C90.119 261.62 89.795 261.686 89.567 261.818C89.339 261.95 89.225 262.136 89.225 262.376V262.736C89.225 262.904 89.291 263.048 89.423 263.168C89.567 263.288 89.753 263.366 89.981 263.402L93.203 263.978C93.863 264.11 94.391 264.362 94.787 264.734C95.183 265.106 95.381 265.544 95.381 266.048V266.714C95.381 267.458 95.075 268.052 94.463 268.496C93.851 268.928 93.035 269.144 92.015 269.144H90.413ZM99.9001 269.144C98.9881 269.144 98.2501 268.916 97.6861 268.46C97.1341 267.992 96.8581 267.374 96.8581 266.606V265.958C96.8581 265.202 97.1461 264.596 97.7221 264.14C98.3101 263.684 99.0781 263.456 100.026 263.456H101.142C101.478 263.456 101.838 263.504 102.222 263.6C102.606 263.696 102.948 263.822 103.248 263.978V262.862C103.248 262.49 103.128 262.19 102.888 261.962C102.648 261.734 102.336 261.62 101.952 261.62H100.44C100.044 261.62 99.7261 261.716 99.4861 261.908C99.2461 262.088 99.1261 262.328 99.1261 262.628H97.1101C97.1101 261.8 97.4161 261.134 98.0281 260.63C98.6401 260.126 99.4441 259.874 100.44 259.874H101.952C102.96 259.874 103.77 260.15 104.382 260.702C104.994 261.242 105.3 261.962 105.3 262.862V269H103.374V267.866C103.086 268.25 102.726 268.562 102.294 268.802C101.862 269.03 101.436 269.144 101.016 269.144H99.9001ZM101.142 267.524C101.622 267.524 102.054 267.392 102.438 267.128C102.822 266.852 103.092 266.492 103.248 266.048V265.616C103.044 265.448 102.756 265.316 102.384 265.22C102.012 265.112 101.622 265.058 101.214 265.058H100.08C99.7201 265.058 99.4261 265.148 99.1981 265.328C98.9821 265.508 98.8741 265.742 98.8741 266.03V266.534C98.8741 266.834 98.9881 267.074 99.2161 267.254C99.4441 267.434 99.7441 267.524 100.116 267.524H101.142ZM110.398 269C109.39 269 108.652 268.79 108.184 268.37C107.728 267.938 107.5 267.26 107.5 266.336V256.4H109.57V266.246C109.57 266.594 109.642 266.846 109.786 267.002C109.93 267.146 110.17 267.218 110.506 267.218H111.37V269H110.398ZM115.998 269.144C115.266 269.144 114.618 269.006 114.054 268.73C113.502 268.454 113.07 268.064 112.758 267.56C112.458 267.056 112.308 266.474 112.308 265.814V263.402C112.308 262.706 112.458 262.094 112.758 261.566C113.07 261.026 113.502 260.612 114.054 260.324C114.618 260.024 115.266 259.874 115.998 259.874H117.438C118.53 259.874 119.406 260.192 120.066 260.828C120.726 261.464 121.056 262.31 121.056 263.366V265.166H114.378V265.814C114.378 266.294 114.522 266.678 114.81 266.966C115.11 267.254 115.506 267.398 115.998 267.398H117.384C117.864 267.398 118.248 267.284 118.536 267.056C118.836 266.816 118.986 266.504 118.986 266.12H121.02C121.02 267.032 120.684 267.764 120.012 268.316C119.34 268.868 118.458 269.144 117.366 269.144H115.998ZM119.022 263.618V263.366C119.022 262.838 118.878 262.412 118.59 262.088C118.302 261.764 117.924 261.602 117.456 261.602H115.998C115.506 261.602 115.104 261.776 114.792 262.124C114.492 262.46 114.342 262.904 114.342 263.456V263.618H119.022Z" fill="white"/>
<path d="M566.137 269.144C565.297 269.144 564.553 268.964 563.905 268.604C563.257 268.232 562.753 267.716 562.393 267.056C562.045 266.384 561.871 265.61 561.871 264.734V256.4H563.977V264.698C563.977 265.478 564.175 266.108 564.571 266.588C564.967 267.056 565.489 267.29 566.137 267.29H568.063C568.723 267.29 569.251 267.056 569.647 266.588C570.055 266.108 570.259 265.478 570.259 264.698V256.4H572.365V264.734C572.365 265.61 572.185 266.384 571.825 267.056C571.465 267.716 570.961 268.232 570.313 268.604C569.665 268.964 568.915 269.144 568.063 269.144H566.137ZM577.638 269.144C576.606 269.144 575.778 268.868 575.154 268.316C574.53 267.764 574.218 267.032 574.218 266.12H576.252C576.252 266.504 576.378 266.816 576.63 267.056C576.882 267.284 577.218 267.398 577.638 267.398H579.24C579.648 267.398 579.966 267.332 580.194 267.2C580.434 267.056 580.554 266.864 580.554 266.624V266.228C580.554 266.06 580.482 265.916 580.338 265.796C580.206 265.676 580.02 265.592 579.78 265.544L576.666 265.004C575.97 264.884 575.418 264.632 575.01 264.248C574.602 263.852 574.398 263.396 574.398 262.88V262.286C574.398 261.542 574.692 260.954 575.28 260.522C575.88 260.09 576.702 259.874 577.746 259.874H579.186C580.134 259.874 580.902 260.132 581.49 260.648C582.078 261.164 582.372 261.842 582.372 262.682H580.338C580.338 262.358 580.23 262.1 580.014 261.908C579.81 261.716 579.534 261.62 579.186 261.62H577.764C577.344 261.62 577.02 261.686 576.792 261.818C576.564 261.95 576.45 262.136 576.45 262.376V262.736C576.45 262.904 576.516 263.048 576.648 263.168C576.792 263.288 576.978 263.366 577.206 263.402L580.428 263.978C581.088 264.11 581.616 264.362 582.012 264.734C582.408 265.106 582.606 265.544 582.606 266.048V266.714C582.606 267.458 582.3 268.052 581.688 268.496C581.076 268.928 580.26 269.144 579.24 269.144H577.638ZM587.701 269.144C586.969 269.144 586.321 269.006 585.757 268.73C585.205 268.454 584.773 268.064 584.461 267.56C584.161 267.056 584.011 266.474 584.011 265.814V263.402C584.011 262.706 584.161 262.094 584.461 261.566C584.773 261.026 585.205 260.612 585.757 260.324C586.321 260.024 586.969 259.874 587.701 259.874H589.141C590.233 259.874 591.109 260.192 591.769 260.828C592.429 261.464 592.759 262.31 592.759 263.366V265.166H586.081V265.814C586.081 266.294 586.225 266.678 586.513 266.966C586.813 267.254 587.209 267.398 587.701 267.398H589.087C589.567 267.398 589.951 267.284 590.239 267.056C590.539 266.816 590.689 266.504 590.689 266.12H592.723C592.723 267.032 592.387 267.764 591.715 268.316C591.043 268.868 590.161 269.144 589.069 269.144H587.701ZM590.725 263.618V263.366C590.725 262.838 590.581 262.412 590.293 262.088C590.005 261.764 589.627 261.602 589.159 261.602H587.701C587.209 261.602 586.807 261.776 586.495 262.124C586.195 262.46 586.045 262.904 586.045 263.456V263.618H590.725ZM594.619 260.018H596.545V261.242C596.785 260.87 597.127 260.57 597.571 260.342C598.027 260.102 598.495 259.982 598.975 259.982H600.055V261.782H598.975C598.291 261.782 597.739 261.992 597.319 262.412C596.899 262.832 596.689 263.378 596.689 264.05V269H594.619V260.018ZM606.451 256.4H612.949C613.981 256.4 614.815 256.682 615.451 257.246C616.087 257.81 616.405 258.554 616.405 259.478V260.756C616.405 261.38 616.213 261.932 615.829 262.412C615.457 262.88 614.935 263.228 614.263 263.456V263.492C614.647 263.72 614.953 264.014 615.181 264.374C615.421 264.722 615.625 265.178 615.793 265.742L616.801 269H614.623L613.651 265.886C613.495 265.346 613.255 264.932 612.931 264.644C612.607 264.356 612.229 264.212 611.797 264.212H608.557V269H606.451V256.4ZM612.481 262.394C613.033 262.394 613.471 262.244 613.795 261.944C614.131 261.644 614.299 261.254 614.299 260.774V259.532C614.299 259.148 614.173 258.836 613.921 258.596C613.669 258.356 613.333 258.236 612.913 258.236H608.557V262.394H612.481ZM621.75 269.144C621.018 269.144 620.37 269.006 619.806 268.73C619.254 268.454 618.822 268.064 618.51 267.56C618.21 267.056 618.06 266.474 618.06 265.814V263.402C618.06 262.706 618.21 262.094 618.51 261.566C618.822 261.026 619.254 260.612 619.806 260.324C620.37 260.024 621.018 259.874 621.75 259.874H623.19C624.282 259.874 625.158 260.192 625.818 260.828C626.478 261.464 626.808 262.31 626.808 263.366V265.166H620.13V265.814C620.13 266.294 620.274 266.678 620.562 266.966C620.862 267.254 621.258 267.398 621.75 267.398H623.136C623.616 267.398 624 267.284 624.288 267.056C624.588 266.816 624.738 266.504 624.738 266.12H626.772C626.772 267.032 626.436 267.764 625.764 268.316C625.092 268.868 624.21 269.144 623.118 269.144H621.75ZM624.774 263.618V263.366C624.774 262.838 624.63 262.412 624.342 262.088C624.054 261.764 623.676 261.602 623.208 261.602H621.75C621.258 261.602 620.856 261.776 620.544 262.124C620.244 262.46 620.094 262.904 620.094 263.456V263.618H624.774ZM640.476 260.018L638.64 267.722C638.436 268.574 637.974 269 637.254 269H636.3L634.23 262.952L632.07 269H631.134C630.426 269 629.964 268.574 629.748 267.722L627.876 260.018H630.018L631.332 266.408L633.456 260.252H634.248C634.488 260.252 634.68 260.306 634.824 260.414C634.98 260.522 635.1 260.696 635.184 260.936L637.056 266.354L638.334 260.018H640.476ZM644.535 269.144C643.623 269.144 642.885 268.916 642.321 268.46C641.769 267.992 641.493 267.374 641.493 266.606V265.958C641.493 265.202 641.781 264.596 642.357 264.14C642.945 263.684 643.713 263.456 644.661 263.456H645.777C646.113 263.456 646.473 263.504 646.857 263.6C647.241 263.696 647.583 263.822 647.883 263.978V262.862C647.883 262.49 647.763 262.19 647.523 261.962C647.283 261.734 646.971 261.62 646.587 261.62H645.075C644.679 261.62 644.361 261.716 644.121 261.908C643.881 262.088 643.761 262.328 643.761 262.628H641.745C641.745 261.8 642.051 261.134 642.663 260.63C643.275 260.126 644.079 259.874 645.075 259.874H646.587C647.595 259.874 648.405 260.15 649.017 260.702C649.629 261.242 649.935 261.962 649.935 262.862V269H648.009V267.866C647.721 268.25 647.361 268.562 646.929 268.802C646.497 269.03 646.071 269.144 645.651 269.144H644.535ZM645.777 267.524C646.257 267.524 646.689 267.392 647.073 267.128C647.457 266.852 647.727 266.492 647.883 266.048V265.616C647.679 265.448 647.391 265.316 647.019 265.22C646.647 265.112 646.257 265.058 645.849 265.058H644.715C644.355 265.058 644.061 265.148 643.833 265.328C643.617 265.508 643.509 265.742 643.509 266.03V266.534C643.509 266.834 643.623 267.074 643.851 267.254C644.079 267.434 644.379 267.524 644.751 267.524H645.777ZM652.134 260.018H654.06V261.242C654.3 260.87 654.642 260.57 655.086 260.342C655.542 260.102 656.01 259.982 656.49 259.982H657.57V261.782H656.49C655.806 261.782 655.254 261.992 654.834 262.412C654.414 262.832 654.204 263.378 654.204 264.05V269H652.134V260.018ZM661.646 269.144C660.626 269.144 659.798 268.826 659.162 268.19C658.538 267.542 658.226 266.696 658.226 265.652V263.564C658.226 262.832 658.376 262.19 658.676 261.638C658.976 261.074 659.396 260.642 659.936 260.342C660.488 260.03 661.118 259.874 661.826 259.874H662.924C663.296 259.874 663.662 259.958 664.022 260.126C664.394 260.294 664.7 260.516 664.94 260.792V256.4H666.992V269H665.066V267.758C664.814 268.178 664.478 268.514 664.058 268.766C663.638 269.018 663.212 269.144 662.78 269.144H661.646ZM662.942 267.362C663.458 267.362 663.902 267.158 664.274 266.75C664.658 266.33 664.88 265.814 664.94 265.202V263.402C664.856 262.886 664.652 262.466 664.328 262.142C664.016 261.818 663.638 261.656 663.194 261.656H662.042C661.514 261.656 661.088 261.842 660.764 262.214C660.452 262.586 660.296 263.072 660.296 263.672V265.526C660.296 266.078 660.44 266.522 660.728 266.858C661.028 267.194 661.406 267.362 661.862 267.362H662.942ZM672.261 269.144C671.229 269.144 670.401 268.868 669.777 268.316C669.153 267.764 668.841 267.032 668.841 266.12H670.875C670.875 266.504 671.001 266.816 671.253 267.056C671.505 267.284 671.841 267.398 672.261 267.398H673.863C674.271 267.398 674.589 267.332 674.817 267.2C675.057 267.056 675.177 266.864 675.177 266.624V266.228C675.177 266.06 675.105 265.916 674.961 265.796C674.829 265.676 674.643 265.592 674.403 265.544L671.289 265.004C670.593 264.884 670.041 264.632 669.633 264.248C669.225 263.852 669.021 263.396 669.021 262.88V262.286C669.021 261.542 669.315 260.954 669.903 260.522C670.503 260.09 671.325 259.874 672.369 259.874H673.809C674.757 259.874 675.525 260.132 676.113 260.648C676.701 261.164 676.995 261.842 676.995 262.682H674.961C674.961 262.358 674.853 262.1 674.637 261.908C674.433 261.716 674.157 261.62 673.809 261.62H672.387C671.967 261.62 671.643 261.686 671.415 261.818C671.187 261.95 671.073 262.136 671.073 262.376V262.736C671.073 262.904 671.139 263.048 671.271 263.168C671.415 263.288 671.601 263.366 671.829 263.402L675.051 263.978C675.711 264.11 676.239 264.362 676.635 264.734C677.031 265.106 677.229 265.544 677.229 266.048V266.714C677.229 267.458 676.923 268.052 676.311 268.496C675.699 268.928 674.883 269.144 673.863 269.144H672.261Z" fill="white"/>
<path d="M272.916 484.337C272.448 484.337 272.07 484.199 271.782 483.923C271.506 483.647 271.368 483.281 271.368 482.825V471.737H277.11C278.046 471.737 278.868 471.917 279.576 472.277C280.296 472.625 280.848 473.123 281.232 473.771C281.628 474.419 281.826 475.169 281.826 476.021V479.693C281.826 481.217 281.43 482.375 280.638 483.167C279.858 483.947 278.706 484.337 277.182 484.337H272.916ZM277.128 482.483C277.98 482.483 278.622 482.243 279.054 481.763C279.498 481.271 279.72 480.557 279.72 479.621V476.093C279.72 475.349 279.474 474.749 278.982 474.293C278.49 473.825 277.848 473.591 277.056 473.591H273.474V482.483H277.128ZM287.106 484.481C286.374 484.481 285.726 484.343 285.162 484.067C284.61 483.791 284.178 483.401 283.866 482.897C283.566 482.393 283.416 481.811 283.416 481.151V478.739C283.416 478.043 283.566 477.431 283.866 476.903C284.178 476.363 284.61 475.949 285.162 475.661C285.726 475.361 286.374 475.211 287.106 475.211H288.546C289.638 475.211 290.514 475.529 291.174 476.165C291.834 476.801 292.164 477.647 292.164 478.703V480.503H285.486V481.151C285.486 481.631 285.63 482.015 285.918 482.303C286.218 482.591 286.614 482.735 287.106 482.735H288.492C288.972 482.735 289.356 482.621 289.644 482.393C289.944 482.153 290.094 481.841 290.094 481.457H292.128C292.128 482.369 291.792 483.101 291.12 483.653C290.448 484.205 289.566 484.481 288.474 484.481H287.106ZM290.13 478.955V478.703C290.13 478.175 289.986 477.749 289.698 477.425C289.41 477.101 289.032 476.939 288.564 476.939H287.106C286.614 476.939 286.212 477.113 285.9 477.461C285.6 477.797 285.45 478.241 285.45 478.793V478.955H290.13ZM297.39 484.337C296.766 484.337 296.316 483.977 296.04 483.257L292.944 475.355H295.122L297.462 481.997H297.48L299.838 475.355H302.016L298.434 484.337H297.39ZM306.354 484.481C305.622 484.481 304.974 484.343 304.41 484.067C303.858 483.791 303.426 483.401 303.114 482.897C302.814 482.393 302.664 481.811 302.664 481.151V478.739C302.664 478.043 302.814 477.431 303.114 476.903C303.426 476.363 303.858 475.949 304.41 475.661C304.974 475.361 305.622 475.211 306.354 475.211H307.794C308.886 475.211 309.762 475.529 310.422 476.165C311.082 476.801 311.412 477.647 311.412 478.703V480.503H304.734V481.151C304.734 481.631 304.878 482.015 305.166 482.303C305.466 482.591 305.862 482.735 306.354 482.735H307.74C308.22 482.735 308.604 482.621 308.892 482.393C309.192 482.153 309.342 481.841 309.342 481.457H311.376C311.376 482.369 311.04 483.101 310.368 483.653C309.696 484.205 308.814 484.481 307.722 484.481H306.354ZM309.378 478.955V478.703C309.378 478.175 309.234 477.749 308.946 477.425C308.658 477.101 308.28 476.939 307.812 476.939H306.354C305.862 476.939 305.46 477.113 305.148 477.461C304.848 477.797 304.698 478.241 304.698 478.793V478.955H309.378ZM316.17 484.337C315.162 484.337 314.424 484.127 313.956 483.707C313.5 483.275 313.272 482.597 313.272 481.673V471.737H315.342V481.583C315.342 481.931 315.414 482.183 315.558 482.339C315.702 482.483 315.942 482.555 316.278 482.555H317.142V484.337H316.17ZM321.752 484.481C320.648 484.481 319.76 484.163 319.088 483.527C318.416 482.879 318.08 482.027 318.08 480.971V478.739C318.08 478.043 318.23 477.431 318.53 476.903C318.842 476.363 319.274 475.949 319.826 475.661C320.39 475.361 321.038 475.211 321.77 475.211H323.354C324.086 475.211 324.728 475.361 325.28 475.661C325.844 475.949 326.276 476.363 326.576 476.903C326.888 477.431 327.044 478.043 327.044 478.739V480.971C327.044 482.027 326.702 482.879 326.018 483.527C325.346 484.163 324.446 484.481 323.318 484.481H321.752ZM323.3 482.699C323.804 482.699 324.206 482.531 324.506 482.195C324.818 481.847 324.974 481.397 324.974 480.845V478.847C324.974 478.295 324.824 477.851 324.524 477.515C324.224 477.167 323.822 476.993 323.318 476.993H321.806C321.302 476.993 320.9 477.167 320.6 477.515C320.3 477.851 320.15 478.295 320.15 478.847V480.845C320.15 481.397 320.3 481.847 320.6 482.195C320.9 482.531 321.29 482.699 321.77 482.699H323.3ZM328.987 475.355H330.913V476.417C331.165 476.057 331.489 475.769 331.885 475.553C332.293 475.325 332.689 475.211 333.073 475.211H334.261C335.305 475.211 336.145 475.529 336.781 476.165C337.429 476.789 337.753 477.617 337.753 478.649V480.737C337.753 481.865 337.435 482.771 336.799 483.455C336.163 484.139 335.317 484.481 334.261 484.481H333.055C332.707 484.481 332.347 484.397 331.975 484.229C331.603 484.049 331.297 483.815 331.057 483.527V487.937H328.987V475.355ZM334.045 482.699C334.537 482.699 334.933 482.507 335.233 482.123C335.545 481.739 335.701 481.235 335.701 480.611V478.775C335.701 478.247 335.551 477.821 335.251 477.497C334.951 477.161 334.555 476.993 334.063 476.993H332.911C332.503 476.993 332.125 477.155 331.777 477.479C331.441 477.791 331.201 478.199 331.057 478.703V480.791C331.117 481.355 331.315 481.817 331.651 482.177C331.999 482.525 332.413 482.699 332.893 482.699H334.045ZM349.808 475.211C350.684 475.211 351.38 475.493 351.896 476.057C352.424 476.621 352.688 477.377 352.688 478.325V484.337H350.618V478.307C350.618 477.911 350.528 477.599 350.348 477.371C350.168 477.131 349.928 477.011 349.628 477.011H348.764C348.368 477.011 348.032 477.155 347.756 477.443C347.48 477.719 347.3 478.097 347.216 478.577V484.337H345.164V478.361C345.164 477.953 345.074 477.629 344.894 477.389C344.714 477.137 344.474 477.011 344.174 477.011H343.364C342.968 477.011 342.62 477.191 342.32 477.551C342.032 477.899 341.846 478.355 341.762 478.919V484.337H339.692V475.355H341.618V476.489C341.846 476.093 342.134 475.781 342.482 475.553C342.83 475.325 343.184 475.211 343.544 475.211H344.57C345.026 475.211 345.434 475.331 345.794 475.571C346.154 475.799 346.436 476.123 346.64 476.543C346.904 476.123 347.222 475.799 347.594 475.571C347.966 475.331 348.362 475.211 348.782 475.211H349.808ZM358.21 484.481C357.478 484.481 356.83 484.343 356.266 484.067C355.714 483.791 355.282 483.401 354.97 482.897C354.67 482.393 354.52 481.811 354.52 481.151V478.739C354.52 478.043 354.67 477.431 354.97 476.903C355.282 476.363 355.714 475.949 356.266 475.661C356.83 475.361 357.478 475.211 358.21 475.211H359.65C360.742 475.211 361.618 475.529 362.278 476.165C362.938 476.801 363.268 477.647 363.268 478.703V480.503H356.59V481.151C356.59 481.631 356.734 482.015 357.022 482.303C357.322 482.591 357.718 482.735 358.21 482.735H359.596C360.076 482.735 360.46 482.621 360.748 482.393C361.048 482.153 361.198 481.841 361.198 481.457H363.232C363.232 482.369 362.896 483.101 362.224 483.653C361.552 484.205 360.67 484.481 359.578 484.481H358.21ZM361.234 478.955V478.703C361.234 478.175 361.09 477.749 360.802 477.425C360.514 477.101 360.136 476.939 359.668 476.939H358.21C357.718 476.939 357.316 477.113 357.004 477.461C356.704 477.797 356.554 478.241 356.554 478.793V478.955H361.234ZM365.128 475.355H367.054V476.525C367.318 476.129 367.666 475.811 368.098 475.571C368.53 475.331 368.962 475.211 369.394 475.211H370.51C371.434 475.211 372.172 475.505 372.724 476.093C373.288 476.681 373.57 477.455 373.57 478.415V484.337H371.5V478.469C371.5 478.037 371.386 477.689 371.158 477.425C370.942 477.149 370.654 477.011 370.294 477.011H369.178C368.71 477.011 368.29 477.191 367.918 477.551C367.546 477.899 367.306 478.349 367.198 478.901V484.337H365.128V475.355ZM379.56 484.337C378.54 484.337 377.796 484.109 377.328 483.653C376.86 483.197 376.626 482.477 376.626 481.493V477.137H375.042V475.355H376.68V472.637H378.696V475.355H381.036V477.137H378.696V481.421C378.696 481.817 378.774 482.105 378.93 482.285C379.086 482.465 379.332 482.555 379.668 482.555H381.036V484.337H379.56ZM388.086 471.737H397.14V473.573H390.192V477.371H396.474V479.207H390.192V484.337H388.086V471.737ZM400.985 484.481C400.085 484.481 399.353 484.175 398.789 483.563C398.237 482.939 397.961 482.129 397.961 481.133V475.355H400.031V481.169C400.031 481.625 400.139 481.991 400.355 482.267C400.583 482.543 400.877 482.681 401.237 482.681H402.317C402.773 482.681 403.181 482.501 403.541 482.141C403.913 481.769 404.165 481.289 404.297 480.701V475.355H406.367V484.337H404.423V483.113C404.159 483.521 403.811 483.851 403.379 484.103C402.959 484.355 402.557 484.481 402.173 484.481H400.985ZM408.669 475.355H410.595V476.525C410.859 476.129 411.207 475.811 411.639 475.571C412.071 475.331 412.503 475.211 412.935 475.211H414.051C414.975 475.211 415.713 475.505 416.265 476.093C416.829 476.681 417.111 477.455 417.111 478.415V484.337H415.041V478.469C415.041 478.037 414.927 477.689 414.699 477.425C414.483 477.149 414.195 477.011 413.835 477.011H412.719C412.251 477.011 411.831 477.191 411.459 477.551C411.087 477.899 410.847 478.349 410.739 478.901V484.337H408.669V475.355ZM422.363 484.481C421.343 484.481 420.515 484.163 419.879 483.527C419.255 482.879 418.943 482.033 418.943 480.989V478.901C418.943 478.169 419.093 477.527 419.393 476.975C419.693 476.411 420.113 475.979 420.653 475.679C421.205 475.367 421.835 475.211 422.543 475.211H423.641C424.013 475.211 424.379 475.295 424.739 475.463C425.111 475.631 425.417 475.853 425.657 476.129V471.737H427.709V484.337H425.783V483.095C425.531 483.515 425.195 483.851 424.775 484.103C424.355 484.355 423.929 484.481 423.497 484.481H422.363ZM423.659 482.699C424.175 482.699 424.619 482.495 424.991 482.087C425.375 481.667 425.597 481.151 425.657 480.539V478.739C425.573 478.223 425.369 477.803 425.045 477.479C424.733 477.155 424.355 476.993 423.911 476.993H422.759C422.231 476.993 421.805 477.179 421.481 477.551C421.169 477.923 421.013 478.409 421.013 479.009V480.863C421.013 481.415 421.157 481.859 421.445 482.195C421.745 482.531 422.123 482.699 422.579 482.699H423.659Z" fill="white"/>
<path d="M330.725 365.2L328.149 366.496V364.448L331.253 362.8H332.933V374H330.725V365.2ZM338.594 374.128C337.847 374.128 337.186 373.968 336.61 373.648C336.034 373.317 335.586 372.853 335.266 372.256C334.946 371.659 334.786 370.971 334.786 370.192V366.608C334.786 365.829 334.94 365.141 335.25 364.544C335.57 363.947 336.018 363.488 336.594 363.168C337.17 362.837 337.836 362.672 338.594 362.672H340.29C341.026 362.672 341.676 362.837 342.242 363.168C342.807 363.488 343.244 363.947 343.554 364.544C343.874 365.141 344.034 365.829 344.034 366.608V370.192C344.034 370.971 343.879 371.659 343.57 372.256C343.26 372.853 342.823 373.317 342.258 373.648C341.692 373.968 341.036 374.128 340.29 374.128H338.594ZM340.258 372.176C340.727 372.176 341.1 372 341.378 371.648C341.666 371.285 341.81 370.811 341.81 370.224V366.576C341.81 365.989 341.666 365.52 341.378 365.168C341.1 364.805 340.727 364.624 340.258 364.624H338.626C338.135 364.624 337.74 364.805 337.442 365.168C337.143 365.52 336.994 365.989 336.994 366.576V370.224C336.994 370.811 337.143 371.285 337.442 371.648C337.74 372 338.135 372.176 338.626 372.176H340.258ZM355.231 362.448H357.503L351.167 374.4H348.895L355.231 362.448ZM348.095 369.84C347.284 369.84 346.633 369.6 346.143 369.12C345.652 368.629 345.407 367.989 345.407 367.2V365.312C345.407 364.523 345.652 363.888 346.143 363.408C346.633 362.917 347.284 362.672 348.095 362.672H348.991C349.801 362.672 350.452 362.917 350.943 363.408C351.433 363.888 351.679 364.523 351.679 365.312V367.2C351.679 367.989 351.433 368.629 350.943 369.12C350.452 369.6 349.801 369.84 348.991 369.84H348.095ZM348.943 368.096C349.167 368.096 349.343 368.005 349.471 367.824C349.609 367.632 349.679 367.381 349.679 367.072V365.44C349.679 365.131 349.609 364.885 349.471 364.704C349.343 364.512 349.167 364.416 348.943 364.416H348.143C347.919 364.416 347.737 364.512 347.599 364.704C347.471 364.885 347.407 365.131 347.407 365.44V367.072C347.407 367.381 347.471 367.632 347.599 367.824C347.737 368.005 347.919 368.096 348.143 368.096H348.943ZM357.423 374.128C356.612 374.128 355.961 373.888 355.471 373.408C354.98 372.917 354.735 372.277 354.735 371.488V369.6C354.735 368.811 354.98 368.176 355.471 367.696C355.961 367.205 356.612 366.96 357.423 366.96H358.319C359.129 366.96 359.78 367.205 360.271 367.696C360.761 368.176 361.007 368.811 361.007 369.6V371.488C361.007 372.277 360.761 372.917 360.271 373.408C359.78 373.888 359.129 374.128 358.319 374.128H357.423ZM358.271 372.384C358.495 372.384 358.671 372.293 358.799 372.112C358.937 371.92 359.007 371.669 359.007 371.36V369.728C359.007 369.419 358.937 369.173 358.799 368.992C358.671 368.8 358.495 368.704 358.271 368.704H357.471C357.247 368.704 357.065 368.8 356.927 368.992C356.799 369.173 356.735 369.419 356.735 369.728V371.36C356.735 371.669 356.799 371.92 356.927 372.112C357.065 372.293 357.247 372.384 357.471 372.384H358.271ZM338.999 385.2L336.423 386.496V384.448L339.527 382.8H341.207V394H338.999V385.2ZM344.835 394C344.376 394 344.003 393.861 343.715 393.584C343.427 393.307 343.283 392.944 343.283 392.496V382.8H348.851C349.864 382.8 350.675 383.04 351.283 383.52C351.902 384 352.211 384.645 352.211 385.456V386.256C352.211 386.608 352.12 386.944 351.939 387.264C351.768 387.584 351.523 387.845 351.203 388.048V388.064C351.715 388.245 352.126 388.539 352.435 388.944C352.755 389.349 352.915 389.803 352.915 390.304V391.136C352.915 392.011 352.595 392.709 351.955 393.232C351.326 393.744 350.472 394 349.395 394H344.835ZM348.851 387.44C349.192 387.44 349.47 387.333 349.683 387.12C349.896 386.896 350.003 386.603 350.003 386.24V385.696C350.003 385.397 349.891 385.163 349.667 384.992C349.443 384.811 349.144 384.72 348.771 384.72H345.491V387.44H348.851ZM349.235 392.08C349.704 392.08 350.067 391.989 350.323 391.808C350.579 391.616 350.707 391.349 350.707 391.008V390.304C350.707 389.995 350.595 389.744 350.371 389.552C350.147 389.36 349.848 389.264 349.475 389.264H345.491V392.08H349.235Z" fill="white"/>
<path d="M476.843 218.128C475.733 218.128 474.869 217.813 474.251 217.184C473.632 216.555 473.323 215.68 473.323 214.56H475.499C475.499 215.061 475.616 215.456 475.851 215.744C476.085 216.032 476.416 216.176 476.843 216.176H478.379C478.848 216.176 479.221 216.048 479.499 215.792C479.787 215.536 479.931 215.195 479.931 214.768V213.904C479.931 213.531 479.781 213.227 479.483 212.992C479.195 212.757 478.811 212.64 478.331 212.64H473.707V206.8H481.723V208.752H475.915V210.688H478.331C479.088 210.688 479.755 210.821 480.331 211.088C480.907 211.355 481.349 211.733 481.659 212.224C481.979 212.704 482.139 213.264 482.139 213.904V214.768C482.139 215.429 481.979 216.016 481.659 216.528C481.349 217.04 480.912 217.435 480.347 217.712C479.781 217.989 479.125 218.128 478.379 218.128H476.843ZM487.291 218.128C486.544 218.128 485.883 217.968 485.307 217.648C484.731 217.317 484.283 216.853 483.963 216.256C483.643 215.659 483.483 214.971 483.483 214.192V210.608C483.483 209.829 483.637 209.141 483.947 208.544C484.267 207.947 484.715 207.488 485.291 207.168C485.867 206.837 486.533 206.672 487.291 206.672H488.987C489.723 206.672 490.373 206.837 490.939 207.168C491.504 207.488 491.941 207.947 492.251 208.544C492.571 209.141 492.731 209.829 492.731 210.608V214.192C492.731 214.971 492.576 215.659 492.267 216.256C491.957 216.853 491.52 217.317 490.955 217.648C490.389 217.968 489.733 218.128 488.987 218.128H487.291ZM488.955 216.176C489.424 216.176 489.797 216 490.075 215.648C490.363 215.285 490.507 214.811 490.507 214.224V210.576C490.507 209.989 490.363 209.52 490.075 209.168C489.797 208.805 489.424 208.624 488.955 208.624H487.323C486.832 208.624 486.437 208.805 486.139 209.168C485.84 209.52 485.691 209.989 485.691 210.576V214.224C485.691 214.811 485.84 215.285 486.139 215.648C486.437 216 486.832 216.176 487.323 216.176H488.955ZM503.928 206.448H506.2L499.864 218.4H497.592L503.928 206.448ZM496.792 213.84C495.981 213.84 495.331 213.6 494.84 213.12C494.349 212.629 494.104 211.989 494.104 211.2V209.312C494.104 208.523 494.349 207.888 494.84 207.408C495.331 206.917 495.981 206.672 496.792 206.672H497.688C498.499 206.672 499.149 206.917 499.64 207.408C500.131 207.888 500.376 208.523 500.376 209.312V211.2C500.376 211.989 500.131 212.629 499.64 213.12C499.149 213.6 498.499 213.84 497.688 213.84H496.792ZM497.64 212.096C497.864 212.096 498.04 212.005 498.168 211.824C498.307 211.632 498.376 211.381 498.376 211.072V209.44C498.376 209.131 498.307 208.885 498.168 208.704C498.04 208.512 497.864 208.416 497.64 208.416H496.84C496.616 208.416 496.435 208.512 496.296 208.704C496.168 208.885 496.104 209.131 496.104 209.44V211.072C496.104 211.381 496.168 211.632 496.296 211.824C496.435 212.005 496.616 212.096 496.84 212.096H497.64ZM506.12 218.128C505.309 218.128 504.659 217.888 504.168 217.408C503.677 216.917 503.432 216.277 503.432 215.488V213.6C503.432 212.811 503.677 212.176 504.168 211.696C504.659 211.205 505.309 210.96 506.12 210.96H507.016C507.827 210.96 508.477 211.205 508.968 211.696C509.459 212.176 509.704 212.811 509.704 213.6V215.488C509.704 216.277 509.459 216.917 508.968 217.408C508.477 217.888 507.827 218.128 507.016 218.128H506.12ZM506.968 216.384C507.192 216.384 507.368 216.293 507.496 216.112C507.635 215.92 507.704 215.669 507.704 215.36V213.728C507.704 213.419 507.635 213.173 507.496 212.992C507.368 212.8 507.192 212.704 506.968 212.704H506.168C505.944 212.704 505.763 212.8 505.624 212.992C505.496 213.173 505.432 213.419 505.432 213.728V215.36C505.432 215.669 505.496 215.92 505.624 216.112C505.763 216.293 505.944 216.384 506.168 216.384H506.968ZM485.116 238.128C484.007 238.128 483.143 237.813 482.524 237.184C481.905 236.555 481.596 235.68 481.596 234.56H483.772C483.772 235.061 483.889 235.456 484.124 235.744C484.359 236.032 484.689 236.176 485.116 236.176H486.652C487.121 236.176 487.495 236.048 487.772 235.792C488.06 235.536 488.204 235.195 488.204 234.768V233.904C488.204 233.531 488.055 233.227 487.756 232.992C487.468 232.757 487.084 232.64 486.604 232.64H481.98V226.8H489.996V228.752H484.188V230.688H486.604C487.361 230.688 488.028 230.821 488.604 231.088C489.18 231.355 489.623 231.733 489.932 232.224C490.252 232.704 490.412 233.264 490.412 233.904V234.768C490.412 235.429 490.252 236.016 489.932 236.528C489.623 237.04 489.185 237.435 488.62 237.712C488.055 237.989 487.399 238.128 486.652 238.128H485.116ZM493.532 238C493.073 238 492.7 237.861 492.412 237.584C492.124 237.307 491.98 236.944 491.98 236.496V226.8H497.548C498.561 226.8 499.372 227.04 499.98 227.52C500.599 228 500.908 228.645 500.908 229.456V230.256C500.908 230.608 500.817 230.944 500.636 231.264C500.465 231.584 500.22 231.845 499.9 232.048V232.064C500.412 232.245 500.823 232.539 501.132 232.944C501.452 233.349 501.612 233.803 501.612 234.304V235.136C501.612 236.011 501.292 236.709 500.652 237.232C500.023 237.744 499.169 238 498.092 238H493.532ZM497.548 231.44C497.889 231.44 498.167 231.333 498.38 231.12C498.593 230.896 498.7 230.603 498.7 230.24V229.696C498.7 229.397 498.588 229.163 498.364 228.992C498.14 228.811 497.841 228.72 497.468 228.72H494.188V231.44H497.548ZM497.932 236.08C498.401 236.08 498.764 235.989 499.02 235.808C499.276 235.616 499.404 235.349 499.404 235.008V234.304C499.404 233.995 499.292 233.744 499.068 233.552C498.844 233.36 498.545 233.264 498.172 233.264H494.188V236.08H497.932Z" fill="white"/>
<g filter="url(#filter0_d_278_6605)">
<circle cx="346.464" cy="232.447" r="110.029" transform="rotate(9.46861 346.464 232.447)" fill="#071A32"/>
</g>
<circle cx="346.749" cy="232.172" r="94.3102" transform="rotate(9.46861 346.749 232.172)" stroke="url(#paint6_linear_278_6605)" stroke-linecap="round" stroke-dasharray="0 1 14 0 1 14"/>
<path d="M365.785 209.122H352.242V222.665H365.785V209.122Z" fill="url(#paint7_linear_278_6605)"/>
<path d="M379.332 222.665H365.789V236.208H379.332V222.665Z" fill="url(#paint8_linear_278_6605)"/>
<path d="M326.09 236.211V222.665V209.123V195.577H352.244H365.79V182.034H352.244H326.09H312.547V195.577V209.123V222.665V236.211V249.754H326.09H352.244H365.79V236.211H352.244H326.09Z" fill="url(#paint9_linear_278_6605)"/>
<path d="M379.332 195.577H365.789V209.12H379.332V195.577Z" fill="url(#paint10_linear_278_6605)"/>
<path d="M311.391 274.73L308.815 276.026V273.978L311.919 272.33H313.599V283.53H311.391V274.73ZM319.259 283.658C318.512 283.658 317.851 283.498 317.275 283.178C316.699 282.848 316.251 282.384 315.931 281.786C315.611 281.189 315.451 280.501 315.451 279.722V276.138C315.451 275.36 315.606 274.672 315.915 274.074C316.235 273.477 316.683 273.018 317.259 272.698C317.835 272.368 318.502 272.202 319.259 272.202H320.955C321.691 272.202 322.342 272.368 322.907 272.698C323.472 273.018 323.91 273.477 324.219 274.074C324.539 274.672 324.699 275.36 324.699 276.138V279.722C324.699 280.501 324.544 281.189 324.235 281.786C323.926 282.384 323.488 282.848 322.923 283.178C322.358 283.498 321.702 283.658 320.955 283.658H319.259ZM320.923 281.706C321.392 281.706 321.766 281.53 322.043 281.178C322.331 280.816 322.475 280.341 322.475 279.754V276.106C322.475 275.52 322.331 275.05 322.043 274.698C321.766 274.336 321.392 274.154 320.923 274.154H319.291C318.8 274.154 318.406 274.336 318.107 274.698C317.808 275.05 317.659 275.52 317.659 276.106V279.754C317.659 280.341 317.808 280.816 318.107 281.178C318.406 281.53 318.8 281.706 319.291 281.706H320.923ZM328.008 283.53C327.55 283.53 327.176 283.392 326.888 283.114C326.6 282.837 326.456 282.474 326.456 282.026V272.33H332.024C333.038 272.33 333.848 272.57 334.456 273.05C335.075 273.53 335.384 274.176 335.384 274.986V275.786C335.384 276.138 335.294 276.474 335.112 276.794C334.942 277.114 334.696 277.376 334.376 277.578V277.594C334.888 277.776 335.299 278.069 335.608 278.474C335.928 278.88 336.088 279.333 336.088 279.834V280.666C336.088 281.541 335.768 282.24 335.128 282.762C334.499 283.274 333.646 283.53 332.568 283.53H328.008ZM332.024 276.97C332.366 276.97 332.643 276.864 332.856 276.65C333.07 276.426 333.176 276.133 333.176 275.77V275.226C333.176 274.928 333.064 274.693 332.84 274.522C332.616 274.341 332.318 274.25 331.944 274.25H328.664V276.97H332.024ZM332.408 281.61C332.878 281.61 333.24 281.52 333.496 281.338C333.752 281.146 333.88 280.88 333.88 280.538V279.834C333.88 279.525 333.768 279.274 333.544 279.082C333.32 278.89 333.022 278.794 332.648 278.794H328.664V281.61H332.408ZM348.081 277.146C349.051 277.317 349.793 277.621 350.305 278.058C350.817 278.485 351.073 279.04 351.073 279.722V280.778C351.073 281.61 350.753 282.288 350.113 282.81C349.473 283.333 348.619 283.616 347.553 283.658V285.162H345.377V283.658C344.235 283.648 343.339 283.312 342.689 282.65C342.049 281.989 341.729 281.082 341.729 279.93H343.905C343.905 280.485 344.043 280.922 344.321 281.242C344.609 281.552 345.003 281.706 345.505 281.706H347.281C347.75 281.706 348.129 281.61 348.417 281.418C348.715 281.216 348.865 280.949 348.865 280.618V280.074C348.865 279.552 348.481 279.226 347.713 279.098L344.769 278.602C343.809 278.442 343.078 278.138 342.577 277.69C342.086 277.232 341.841 276.65 341.841 275.946V275.05C341.841 274.506 341.985 274.021 342.273 273.594C342.571 273.168 342.987 272.832 343.521 272.586C344.054 272.341 344.673 272.213 345.377 272.202V270.698H347.553V272.202C348.555 272.256 349.355 272.592 349.953 273.21C350.561 273.829 350.865 274.64 350.865 275.642H348.689C348.689 275.194 348.566 274.837 348.321 274.57C348.075 274.293 347.75 274.154 347.345 274.154H345.537C345.089 274.154 344.726 274.25 344.449 274.442C344.182 274.634 344.049 274.89 344.049 275.21V275.642C344.049 276.176 344.417 276.506 345.153 276.634L348.081 277.146ZM354.165 283.53C353.706 283.53 353.333 283.392 353.045 283.114C352.757 282.837 352.613 282.474 352.613 282.026V272.33H358.181C359.194 272.33 360.005 272.57 360.613 273.05C361.231 273.53 361.541 274.176 361.541 274.986V275.786C361.541 276.138 361.45 276.474 361.269 276.794C361.098 277.114 360.853 277.376 360.533 277.578V277.594C361.045 277.776 361.455 278.069 361.765 278.474C362.085 278.88 362.245 279.333 362.245 279.834V280.666C362.245 281.541 361.925 282.24 361.285 282.762C360.655 283.274 359.802 283.53 358.725 283.53H354.165ZM358.181 276.97C358.522 276.97 358.799 276.864 359.013 276.65C359.226 276.426 359.333 276.133 359.333 275.77V275.226C359.333 274.928 359.221 274.693 358.997 274.522C358.773 274.341 358.474 274.25 358.101 274.25H354.821V276.97H358.181ZM358.565 281.61C359.034 281.61 359.397 281.52 359.653 281.338C359.909 281.146 360.037 280.88 360.037 280.538V279.834C360.037 279.525 359.925 279.274 359.701 279.082C359.477 278.89 359.178 278.794 358.805 278.794H354.821V281.61H358.565ZM365.211 283.53C364.742 283.53 364.363 283.397 364.075 283.13C363.798 282.853 363.659 282.49 363.659 282.042V272.33H365.867V281.61H371.947V283.53H365.211ZM376.61 283.658C375.821 283.658 375.128 283.493 374.53 283.162C373.933 282.821 373.469 282.346 373.138 281.738C372.808 281.13 372.642 280.426 372.642 279.626V272.33H374.85V279.562C374.85 280.202 375.01 280.72 375.33 281.114C375.661 281.509 376.088 281.706 376.61 281.706H378.306C378.84 281.706 379.272 281.509 379.602 281.114C379.933 280.72 380.098 280.202 380.098 279.562V272.33H382.306V279.626C382.306 280.426 382.141 281.13 381.81 281.738C381.48 282.346 381.01 282.821 380.402 283.162C379.794 283.493 379.096 283.658 378.306 283.658H376.61Z" fill="white"/>
<defs>
<filter id="filter0_d_278_6605" x="226.418" y="116.401" width="240.094" height="240.092" filterUnits="userSpaceOnUse" color-interpolation-filters="sRGB">
<feFlood flood-opacity="0" result="BackgroundImageFix"/>
<feColorMatrix in="SourceAlpha" type="matrix" values="0 0 0 0 0 0 0 0 0 0 0 0 0 0 0 0 0 0 127 0" result="hardAlpha"/>
<feOffset dy="4"/>
<feGaussianBlur stdDeviation="5"/>
<feColorMatrix type="matrix" values="0 0 0 0 0 0 0 0 0 0 0 0 0 0 0 0 0 0 0.1 0"/>
<feBlend mode="normal" in2="BackgroundImageFix" result="effect1_dropShadow_278_6605"/>
<feBlend mode="normal" in="SourceGraphic" in2="effect1_dropShadow_278_6605" result="shape"/>
</filter>
<linearGradient id="paint0_linear_278_6605" x1="634.036" y1="202.519" x2="527.547" y2="223.522" gradientUnits="userSpaceOnUse">
<stop stop-color="#0056FB"/>
<stop offset="1" stop-color="#6E6AFF"/>
</linearGradient>
<linearGradient id="paint1_linear_278_6605" x1="156.381" y1="264.52" x2="70.5297" y2="208.065" gradientUnits="userSpaceOnUse">
<stop stop-color="#00F981"/>
<stop offset="1" stop-color="#1A9D5E"/>
</linearGradient>
<linearGradient id="paint2_linear_278_6605" x1="345.23" y1="447.063" x2="352.802" y2="371.581" gradientUnits="userSpaceOnUse">
<stop offset="0.254305" stop-color="#5D30DC"/>
<stop offset="1" stop-color="#243971"/>
</linearGradient>
<linearGradient id="paint3_linear_278_6605" x1="294.498" y1="58.364" x2="503.101" y2="477.474" gradientUnits="userSpaceOnUse">
<stop stop-color="#0056FB"/>
<stop offset="1" stop-color="#6E6AFF"/>
</linearGradient>
<linearGradient id="paint4_linear_278_6605" x1="142.28" y1="-44.1968" x2="230.674" y2="396.325" gradientUnits="userSpaceOnUse">
<stop stop-color="#00F981"/>
<stop offset="1" stop-color="#1A9D5E"/>
</linearGradient>
<linearGradient id="paint5_linear_278_6605" x1="309.651" y1="284.021" x2="355.297" y2="452.84" gradientUnits="userSpaceOnUse">
<stop stop-color="#243971"/>
<stop offset="1" stop-color="#5D30DC"/>
</linearGradient>
<linearGradient id="paint6_linear_278_6605" x1="346.749" y1="137.862" x2="346.749" y2="326.482" gradientUnits="userSpaceOnUse">
<stop stop-color="#00F981"/>
<stop offset="1" stop-color="#0056FB"/>
</linearGradient>
<linearGradient id="paint7_linear_278_6605" x1="354.381" y1="209.122" x2="364.456" y2="211.657" gradientUnits="userSpaceOnUse">
<stop stop-color="#0056FB"/>
<stop offset="1" stop-color="#00F981"/>
</linearGradient>
<linearGradient id="paint8_linear_278_6605" x1="367.927" y1="222.665" x2="378.003" y2="225.2" gradientUnits="userSpaceOnUse">
<stop stop-color="#0056FB"/>
<stop offset="1" stop-color="#00F981"/>
</linearGradient>
<linearGradient id="paint9_linear_278_6605" x1="320.954" y1="182.034" x2="361.487" y2="190.052" gradientUnits="userSpaceOnUse">
<stop stop-color="#0056FB"/>
<stop offset="1" stop-color="#00F981"/>
</linearGradient>
<linearGradient id="paint10_linear_278_6605" x1="367.927" y1="195.577" x2="378.003" y2="198.112" gradientUnits="userSpaceOnUse">
<stop stop-color="#0056FB"/>
<stop offset="1" stop-color="#00F981"/>
</linearGradient>
</defs>
</svg>
