<svg width="144" height="68" viewBox="0 0 144 68" fill="none" xmlns="http://www.w3.org/2000/svg">
<path d="M29.5393 2.56038L31.092 0.545113C30.167 -0.181704 28.8785 -0.181704 27.9535 0.545113L29.5393 2.56038ZM56.2993 10.4232L58.8432 10.4562C58.8432 9.76247 58.5789 9.10173 58.1164 8.63921C57.6208 8.14365 56.9931 7.87935 56.2993 7.87935V10.4232ZM29.5393 65.0666L28.1187 67.181C28.9776 67.7426 30.1009 67.7426 30.9599 67.181L29.5393 65.0666ZM2.81225 10.4232V7.87935C2.11847 7.87935 1.45773 8.14365 0.995206 8.63921C0.49965 9.13476 0.235352 9.79551 0.26839 10.4562L2.81225 10.4232ZM27.9865 4.57564C39.5826 13.5617 52.8304 12.9671 56.2993 12.9671V7.84632C52.6983 7.84632 41.1353 8.30883 31.092 0.512073L27.9865 4.57564ZM53.7555 10.3571C53.5573 22.2175 53.0617 30.5759 52.1036 36.7868C51.1456 42.9317 49.791 46.5989 48.0401 49.1758C46.2561 51.8518 44.0426 53.4375 40.7719 55.4198C37.4682 57.402 33.2725 59.5494 28.1187 62.9522L30.9599 67.214C35.8494 63.9434 39.946 61.862 43.4149 59.8137C46.9168 57.7324 49.9893 55.4198 52.3019 52.05C54.6475 48.5811 56.1672 44.088 57.1583 37.5797C58.1494 31.1375 58.678 22.4487 58.8762 10.4562L53.7555 10.3571ZM30.9599 62.9522C25.8061 59.5494 21.6434 57.402 18.3067 55.4198C15.036 53.4706 12.8225 51.8518 11.0385 49.1758C9.28752 46.5989 7.933 42.9317 7.00796 36.7868C6.04989 30.5759 5.55433 22.2175 5.35611 10.3571L0.26839 10.4562C0.466612 22.4157 0.995205 31.1375 1.98632 37.5797C2.97743 44.088 4.49714 48.5811 6.84278 52.05C9.15538 55.4198 12.2278 57.6993 15.6967 59.8137C19.1656 61.8951 23.2292 63.9764 28.1187 67.214L30.9599 62.9522ZM2.81225 12.9671C6.24811 12.9671 19.529 13.5287 31.092 4.57564L27.9535 0.545113C17.9433 8.30884 6.38026 7.84632 2.81225 7.84632V12.9671Z" fill="white"/>
<path d="M83.5229 17.2455H78.3691V31.2202H74.9002V17.2455H69.8125V14.4373H83.4899V17.2455H83.5229ZM91.7161 25.0753H88.974V31.2202H85.5051V14.4373H91.7492C93.7314 14.4373 95.2511 14.8668 96.3413 15.7588C97.4315 16.6508 97.9601 17.9062 97.9601 19.492C97.9601 20.6483 97.6958 21.6064 97.2003 22.3662C96.7047 23.1261 95.9449 23.7207 94.9537 24.1833L98.5878 31.055V31.2202H94.8877L91.7161 25.0753ZM88.974 22.2671H91.7492C92.6081 22.2671 93.3019 22.0359 93.7644 21.6064C94.2269 21.1769 94.4912 20.5492 94.4912 19.7563C94.4912 18.9634 94.26 18.3357 93.7974 17.8732C93.368 17.4107 92.6742 17.1794 91.7492 17.1794H88.974V22.2671ZM113.289 14.4373V25.5047C113.289 27.3548 112.728 28.8085 111.571 29.8656C110.415 30.9228 108.862 31.4845 106.88 31.4845C104.931 31.4845 103.378 30.9559 102.222 29.9317C101.066 28.9076 100.471 27.4539 100.471 25.6369V14.4373H103.94V25.5047C103.94 26.595 104.204 27.4209 104.733 27.9165C105.261 28.412 105.988 28.6763 106.913 28.6763C108.862 28.6763 109.853 27.6522 109.887 25.6039V14.4373H113.289ZM124.852 26.8262C124.852 26.1655 124.621 25.6699 124.159 25.3396C123.696 24.9762 122.87 24.6128 121.681 24.2163C120.491 23.8199 119.533 23.4234 118.84 23.06C116.923 22.0359 115.965 20.6483 115.965 18.8973C115.965 18.0053 116.23 17.1794 116.725 16.4856C117.254 15.7588 117.981 15.1972 118.939 14.8007C119.897 14.4043 120.987 14.2061 122.176 14.2061C123.366 14.2061 124.456 14.4373 125.381 14.8668C126.306 15.2963 127.033 15.924 127.561 16.7169C128.09 17.5098 128.354 18.4018 128.354 19.4259H124.885C124.885 18.6661 124.654 18.0714 124.159 17.6419C123.663 17.2124 123.002 16.9812 122.11 16.9812C121.251 16.9812 120.591 17.1464 120.128 17.5098C119.666 17.8732 119.434 18.3357 119.434 18.9304C119.434 19.492 119.699 19.9215 120.26 20.3179C120.822 20.6813 121.615 21.0447 122.705 21.3421C124.687 21.9367 126.108 22.6636 127 23.5556C127.892 24.4476 128.354 25.5378 128.354 26.8262C128.354 28.2799 127.793 29.4362 126.702 30.2621C125.612 31.088 124.126 31.4845 122.275 31.4845C120.987 31.4845 119.798 31.2532 118.74 30.7907C117.683 30.3282 116.857 29.6674 116.296 28.8415C115.734 28.0156 115.47 27.0575 115.47 25.9673H118.939C118.939 27.8174 120.062 28.7424 122.275 28.7424C123.101 28.7424 123.729 28.5772 124.192 28.2468C124.621 27.8834 124.852 27.4209 124.852 26.8262ZM143.32 17.2455H138.166V31.2202H134.697V17.2455H129.61V14.4373H143.287V17.2455H143.32Z" fill="white"/>
<path d="M76.3201 49.5884L76.7166 51.6367L77.2121 49.6875L80.0533 40.0077H81.0444L83.8526 49.6875L84.3481 51.6367L84.7776 49.5884L87.1563 40.0077H88.2796L84.9098 53.1234H83.8526L80.8793 42.8488L80.5489 41.5604L80.2185 42.8488L77.1791 53.1234H76.1219L72.7852 40.0077H73.9084L76.3201 49.5884ZM97.1335 49.4232H91.1868L89.8323 53.0904H88.643L93.5985 39.9746H94.6557L99.6113 53.0904H98.455L97.1335 49.4232ZM91.5172 48.4982H96.7701L94.1271 41.3622L91.5172 48.4982ZM102.684 52.1653H109.159V53.0904H101.56V39.9746H102.684V52.1653ZM112.43 52.1653H118.905V53.0904H111.306V39.9746H112.43V52.1653ZM128.288 46.8133H122.143V52.1653H129.213V53.0904H121.019V39.9746H129.146V40.9327H122.143V45.8883H128.288V46.8133ZM140.61 40.9327H136.117V53.0904H134.994V40.9327H130.501V39.9746H140.577V40.9327H140.61Z" fill="#F8FCFF"/>
</svg>
