<svg width="134" height="57" viewBox="0 0 134 57" fill="none" xmlns="http://www.w3.org/2000/svg">
<mask id="path-1-inside-1_278_3736" fill="white">
<path fill-rule="evenodd" clip-rule="evenodd" d="M64.9019 1.5C66.0566 -0.500002 68.9434 -0.499998 70.0981 1.5L71.5415 4H122C128.627 4 134 9.37258 134 16V40C134 46.6274 128.627 52 122 52H72.1188L70.0981 55.5C68.9434 57.5 66.0566 57.5 64.9019 55.5L62.8812 52H12C5.37258 52 0 46.6274 0 40V16C0 9.37258 5.37258 4 12 4H63.4585L64.9019 1.5Z"/>
</mask>
<path fill-rule="evenodd" clip-rule="evenodd" d="M64.9019 1.5C66.0566 -0.500002 68.9434 -0.499998 70.0981 1.5L71.5415 4H122C128.627 4 134 9.37258 134 16V40C134 46.6274 128.627 52 122 52H72.1188L70.0981 55.5C68.9434 57.5 66.0566 57.5 64.9019 55.5L62.8812 52H12C5.37258 52 0 46.6274 0 40V16C0 9.37258 5.37258 4 12 4H63.4585L64.9019 1.5Z" fill="#0A0A0A"/>
<path d="M70.0981 1.5L70.9641 1L70.9641 1L70.0981 1.5ZM64.9019 1.5L64.0359 0.999998L64.0359 0.999998L64.9019 1.5ZM71.5415 4L70.6754 4.5L70.9641 5H71.5415V4ZM72.1188 52V51H71.5414L71.2528 51.5L72.1188 52ZM70.0981 55.5L70.9641 56L70.9641 56L70.0981 55.5ZM64.9019 55.5L64.0359 56L64.0359 56L64.9019 55.5ZM62.8812 52L63.7472 51.5L63.4585 51H62.8812V52ZM63.4585 4V5H64.0359L64.3246 4.5L63.4585 4ZM70.9641 1C69.4245 -1.66666 65.5755 -1.66667 64.0359 0.999998L65.7679 2C66.5377 0.666667 68.4622 0.666666 69.2321 2L70.9641 1ZM72.4075 3.5L70.9641 1L69.2321 2L70.6754 4.5L72.4075 3.5ZM122 3H71.5415V5H122V3ZM135 16C135 8.8203 129.18 3 122 3V5C128.075 5 133 9.92487 133 16H135ZM135 40V16H133V40H135ZM122 53C129.18 53 135 47.1797 135 40H133C133 46.0751 128.075 51 122 51V53ZM72.1188 53H122V51H72.1188V53ZM70.9641 56L72.9848 52.5L71.2528 51.5L69.232 55L70.9641 56ZM64.0359 56C65.5755 58.6667 69.4245 58.6667 70.9641 56L69.2321 55C68.4622 56.3333 66.5377 56.3333 65.7679 55L64.0359 56ZM62.0152 52.5L64.0359 56L65.7679 55L63.7472 51.5L62.0152 52.5ZM12 53H62.8812V51H12V53ZM-1 40C-1 47.1797 4.8203 53 12 53V51C5.92487 51 1 46.0751 1 40H-1ZM-1 16V40H1V16H-1ZM12 3C4.8203 3 -1 8.8203 -1 16H1C1 9.92487 5.92487 5 12 5V3ZM63.4585 3H12V5H63.4585V3ZM64.0359 0.999998L62.5925 3.5L64.3246 4.5L65.7679 2L64.0359 0.999998Z" fill="white" mask="url(#path-1-inside-1_278_3736)"/>
<path d="M21.1676 34.128C20.4209 34.128 19.7596 33.968 19.1836 33.648C18.6076 33.3173 18.1596 32.8587 17.8396 32.272C17.5302 31.6747 17.3756 30.9867 17.3756 30.208V22.8H19.2476V30.176C19.2476 30.8693 19.4236 31.4293 19.7756 31.856C20.1276 32.272 20.5916 32.48 21.1676 32.48H22.8796C23.4662 32.48 23.9356 32.272 24.2876 31.856C24.6502 31.4293 24.8316 30.8693 24.8316 30.176V22.8H26.7036V30.208C26.7036 30.9867 26.5436 31.6747 26.2236 32.272C25.9036 32.8587 25.4556 33.3173 24.8796 33.648C24.3036 33.968 23.6369 34.128 22.8796 34.128H21.1676ZM28.7506 26.016H30.4626V26.96C30.6866 26.64 30.9746 26.384 31.3266 26.192C31.6892 25.9893 32.0412 25.888 32.3826 25.888H33.4386C34.3666 25.888 35.1132 26.1707 35.6786 26.736C36.2546 27.2907 36.5426 28.0267 36.5426 28.944V30.8C36.5426 31.8027 36.2599 32.608 35.6946 33.216C35.1292 33.824 34.3772 34.128 33.4386 34.128H32.3666C32.0572 34.128 31.7372 34.0533 31.4066 33.904C31.0759 33.744 30.8039 33.536 30.5906 33.28V37.2H28.7506V26.016ZM33.2466 32.544C33.6839 32.544 34.0359 32.3733 34.3026 32.032C34.5799 31.6907 34.7186 31.2427 34.7186 30.688V29.056C34.7186 28.5867 34.5852 28.208 34.3186 27.92C34.0519 27.6213 33.6999 27.472 33.2626 27.472H32.2386C31.8759 27.472 31.5399 27.616 31.2306 27.904C30.9319 28.1813 30.7186 28.544 30.5906 28.992V30.848C30.6439 31.3493 30.8199 31.76 31.1186 32.08C31.4279 32.3893 31.7959 32.544 32.2226 32.544H33.2466ZM50.3829 34L49.4709 32.96C49.0656 33.3333 48.6069 33.6213 48.0949 33.824C47.5936 34.0267 47.0656 34.128 46.5109 34.128H45.8069C44.7616 34.128 43.9349 33.8827 43.3269 33.392C42.7189 32.9013 42.4149 32.2293 42.4149 31.376V30.768C42.4149 30.256 42.5163 29.824 42.7189 29.472C42.9323 29.12 43.1989 28.8267 43.5189 28.592C43.8389 28.3573 44.2923 28.064 44.8789 27.712L44.6389 27.408C44.0949 26.736 43.8229 26.096 43.8229 25.488V25.152C43.8229 24.4053 44.0843 23.808 44.6069 23.36C45.1296 22.9013 45.8229 22.672 46.6869 22.672H47.2949C48.0949 22.672 48.7349 22.896 49.2149 23.344C49.7056 23.7813 49.9509 24.3627 49.9509 25.088V25.408C49.9509 25.76 49.8763 26.0693 49.7269 26.336C49.5883 26.592 49.3536 26.8533 49.0229 27.12C48.6923 27.376 48.2229 27.6853 47.6149 28.048L47.3109 28.224L49.2949 30.464C49.5189 29.952 49.6629 29.3707 49.7269 28.72H51.3109C51.2469 29.84 50.9536 30.848 50.4309 31.744L52.4309 34H50.3829ZM45.5349 25.488C45.5349 25.872 45.7109 26.2667 46.0629 26.672L46.4309 27.152L46.7189 26.976C47.3483 26.5707 47.7589 26.272 47.9509 26.08C48.1536 25.888 48.2549 25.664 48.2549 25.408V25.088C48.2549 24.8107 48.1589 24.5867 47.9669 24.416C47.7856 24.2453 47.5509 24.16 47.2629 24.16H46.6709C46.3189 24.16 46.0416 24.2507 45.8389 24.432C45.6363 24.6027 45.5349 24.848 45.5349 25.168V25.488ZM46.5269 32.576C47.2629 32.576 47.8976 32.3093 48.4309 31.776L45.8869 28.88C45.2576 29.232 44.8203 29.536 44.5749 29.792C44.3403 30.0373 44.2229 30.3573 44.2229 30.752V31.328C44.2229 31.7013 44.3669 32.0053 44.6549 32.24C44.9429 32.464 45.3163 32.576 45.7749 32.576H46.5269ZM61.8707 34.128C61.124 34.128 60.4627 33.968 59.8867 33.648C59.3107 33.3173 58.8627 32.8587 58.5427 32.272C58.2334 31.6747 58.0787 30.9867 58.0787 30.208V22.8H59.9507V30.176C59.9507 30.8693 60.1267 31.4293 60.4787 31.856C60.8307 32.272 61.2947 32.48 61.8707 32.48H63.5827C64.1694 32.48 64.6387 32.272 64.9907 31.856C65.3534 31.4293 65.5347 30.8693 65.5347 30.176V22.8H67.4067V30.208C67.4067 30.9867 67.2467 31.6747 66.9267 32.272C66.6067 32.8587 66.1587 33.3173 65.5827 33.648C65.0067 33.968 64.34 34.128 63.5827 34.128H61.8707ZM69.4537 26.016H71.1657V26.96C71.3897 26.64 71.6777 26.384 72.0297 26.192C72.3924 25.9893 72.7444 25.888 73.0857 25.888H74.1417C75.0697 25.888 75.8164 26.1707 76.3817 26.736C76.9577 27.2907 77.2457 28.0267 77.2457 28.944V30.8C77.2457 31.8027 76.963 32.608 76.3977 33.216C75.8324 33.824 75.0804 34.128 74.1417 34.128H73.0697C72.7604 34.128 72.4404 34.0533 72.1097 33.904C71.779 33.744 71.507 33.536 71.2937 33.28V37.2H69.4537V26.016ZM73.9497 32.544C74.387 32.544 74.739 32.3733 75.0057 32.032C75.283 31.6907 75.4217 31.2427 75.4217 30.688V29.056C75.4217 28.5867 75.2884 28.208 75.0217 27.92C74.755 27.6213 74.403 27.472 73.9657 27.472H72.9417C72.579 27.472 72.243 27.616 71.9337 27.904C71.635 28.1813 71.4217 28.544 71.2937 28.992V30.848C71.347 31.3493 71.523 31.76 71.8217 32.08C72.131 32.3893 72.499 32.544 72.9257 32.544H73.9497ZM91.0861 34L90.1741 32.96C89.7687 33.3333 89.3101 33.6213 88.7981 33.824C88.2967 34.0267 87.7687 34.128 87.2141 34.128H86.5101C85.4647 34.128 84.6381 33.8827 84.0301 33.392C83.4221 32.9013 83.1181 32.2293 83.1181 31.376V30.768C83.1181 30.256 83.2194 29.824 83.4221 29.472C83.6354 29.12 83.9021 28.8267 84.2221 28.592C84.5421 28.3573 84.9954 28.064 85.5821 27.712L85.3421 27.408C84.7981 26.736 84.5261 26.096 84.5261 25.488V25.152C84.5261 24.4053 84.7874 23.808 85.3101 23.36C85.8327 22.9013 86.5261 22.672 87.3901 22.672H87.9981C88.7981 22.672 89.4381 22.896 89.9181 23.344C90.4087 23.7813 90.6541 24.3627 90.6541 25.088V25.408C90.6541 25.76 90.5794 26.0693 90.4301 26.336C90.2914 26.592 90.0567 26.8533 89.7261 27.12C89.3954 27.376 88.9261 27.6853 88.3181 28.048L88.0141 28.224L89.9981 30.464C90.2221 29.952 90.3661 29.3707 90.4301 28.72H92.0141C91.9501 29.84 91.6567 30.848 91.1341 31.744L93.1341 34H91.0861ZM86.2381 25.488C86.2381 25.872 86.4141 26.2667 86.7661 26.672L87.1341 27.152L87.4221 26.976C88.0514 26.5707 88.4621 26.272 88.6541 26.08C88.8567 25.888 88.9581 25.664 88.9581 25.408V25.088C88.9581 24.8107 88.8621 24.5867 88.6701 24.416C88.4887 24.2453 88.2541 24.16 87.9661 24.16H87.3741C87.0221 24.16 86.7447 24.2507 86.5421 24.432C86.3394 24.6027 86.2381 24.848 86.2381 25.168V25.488ZM87.2301 32.576C87.9661 32.576 88.6007 32.3093 89.1341 31.776L86.5901 28.88C85.9607 29.232 85.5234 29.536 85.2781 29.792C85.0434 30.0373 84.9261 30.3573 84.9261 30.752V31.328C84.9261 31.7013 85.0701 32.0053 85.3581 32.24C85.6461 32.464 86.0194 32.576 86.4781 32.576H87.2301ZM102.574 34.128C101.827 34.128 101.166 33.968 100.59 33.648C100.014 33.3173 99.5658 32.8587 99.2458 32.272C98.9365 31.6747 98.7818 30.9867 98.7818 30.208V22.8H100.654V30.176C100.654 30.8693 100.83 31.4293 101.182 31.856C101.534 32.272 101.998 32.48 102.574 32.48H104.286C104.872 32.48 105.342 32.272 105.694 31.856C106.056 31.4293 106.238 30.8693 106.238 30.176V22.8H108.11V30.208C108.11 30.9867 107.95 31.6747 107.63 32.272C107.31 32.8587 106.862 33.3173 106.286 33.648C105.71 33.968 105.043 34.128 104.286 34.128H102.574ZM110.157 26.016H111.869V26.96C112.093 26.64 112.381 26.384 112.733 26.192C113.095 25.9893 113.447 25.888 113.789 25.888H114.845C115.773 25.888 116.519 26.1707 117.085 26.736C117.661 27.2907 117.949 28.0267 117.949 28.944V30.8C117.949 31.8027 117.666 32.608 117.101 33.216C116.535 33.824 115.783 34.128 114.845 34.128H113.773C113.463 34.128 113.143 34.0533 112.813 33.904C112.482 33.744 112.21 33.536 111.997 33.28V37.2H110.157V26.016ZM114.653 32.544C115.09 32.544 115.442 32.3733 115.709 32.032C115.986 31.6907 116.125 31.2427 116.125 30.688V29.056C116.125 28.5867 115.991 28.208 115.725 27.92C115.458 27.6213 115.106 27.472 114.669 27.472H113.645C113.282 27.472 112.946 27.616 112.637 27.904C112.338 28.1813 112.125 28.544 111.997 28.992V30.848C112.05 31.3493 112.226 31.76 112.525 32.08C112.834 32.3893 113.202 32.544 113.629 32.544H114.653Z" fill="#00F981"/>
</svg>
