<svg width="265" height="45" viewBox="0 0 265 45" fill="none" xmlns="http://www.w3.org/2000/svg">
<path fill-rule="evenodd" clip-rule="evenodd" d="M92.8218 19.1238L89.1308 32.4296H85.2923L80.125 12.96H84.3511L87.4146 27.0593H87.5253L91.1608 12.96H94.5934L98.229 27.0593H98.3397L101.422 12.96H105.648L100.48 32.4296H96.6419L92.9509 19.1238H92.8218ZM111.258 29.7906C112.974 29.7906 114.395 28.6649 114.395 27.1147V26.0628L111.35 26.2473C109.874 26.358 109.043 27.0224 109.043 28.0374C109.025 29.1262 109.929 29.7906 111.258 29.7906ZM109.966 32.6511C107.216 32.6511 105.131 30.8794 105.131 28.2589C105.131 25.6199 107.161 24.1066 110.76 23.8851L114.395 23.6637V22.7225C114.395 21.3753 113.454 20.6002 111.959 20.6002C110.483 20.6002 109.56 21.3199 109.376 22.3903H105.777C105.925 19.5852 108.305 17.6475 112.144 17.6475C115.853 17.6475 118.271 19.5668 118.271 22.4826V32.4296H114.469V30.2151H114.395C113.565 31.7468 111.775 32.6511 109.966 32.6511ZM120.891 32.4112V12.96H124.822V32.4296H120.891V32.4112ZM127.572 32.4112V12.96H131.503V32.4296H127.572V32.4112ZM140.656 20.5633C138.921 20.5633 137.685 21.8736 137.556 23.6821H143.701C143.609 21.8367 142.409 20.5633 140.656 20.5633ZM143.738 28.0005H147.355C146.931 30.8241 144.329 32.7433 140.767 32.7433C136.319 32.7433 133.643 29.9013 133.643 25.2692C133.643 20.6556 136.338 17.6659 140.619 17.6659C144.827 17.6659 147.484 20.5079 147.484 24.9001V26.0997H137.519V26.3396C137.519 28.4065 138.829 29.8275 140.841 29.8275C142.28 29.8091 143.387 29.0893 143.738 28.0005ZM150.548 14.6209H154.479V17.9612H157.154V20.9324H154.479V27.8529C154.479 28.9601 155.014 29.4769 156.176 29.4769C156.527 29.4769 156.896 29.4584 157.136 29.4031V32.3004C156.73 32.3927 156.066 32.4665 155.254 32.4665C151.858 32.4665 150.529 31.3408 150.529 28.5172V20.9324H148.499V17.9612H150.529V14.6209H150.548ZM168.264 32.7433C162.599 32.7433 159.055 28.9601 159.055 22.6671C159.055 16.3926 162.635 12.6094 168.264 12.6094C172.952 12.6094 176.513 15.5806 176.809 19.9358H172.841C172.472 17.5552 170.626 15.9866 168.264 15.9866C165.182 15.9866 163.208 18.5702 163.208 22.6671C163.208 26.8194 165.164 29.3846 168.283 29.3846C170.7 29.3846 172.435 27.9636 172.859 25.6568H176.827C176.366 29.9936 173.044 32.7433 168.264 32.7433ZM185.63 32.7249C181.256 32.7249 178.47 29.9198 178.47 25.177C178.47 20.4895 181.293 17.6475 185.63 17.6475C189.967 17.6475 192.79 20.471 192.79 25.177C192.79 29.9382 190.004 32.7249 185.63 32.7249ZM185.63 29.7168C187.568 29.7168 188.786 28.0928 188.786 25.177C188.786 22.298 187.549 20.6371 185.63 20.6371C183.711 20.6371 182.456 22.298 182.456 25.177C182.474 28.0928 183.692 29.7168 185.63 29.7168ZM194.82 32.4112V17.9612H198.622V20.5448H198.696C199.471 18.7548 200.984 17.7028 203.217 17.7028C206.428 17.7028 208.237 19.7328 208.237 23.11V32.4296H204.306V23.9405C204.306 22.0581 203.42 20.9693 201.648 20.9693C199.877 20.9693 198.77 22.2611 198.77 24.1435V32.4296H194.82V32.4112ZM210.728 32.4112V17.9612H214.53V20.5448H214.604C215.379 18.7548 216.892 17.7028 219.125 17.7028C222.336 17.7028 224.145 19.7328 224.145 23.11V32.4296H220.214V23.9405C220.214 22.0581 219.328 20.9693 217.556 20.9693C215.785 20.9693 214.677 22.2611 214.677 24.1435V32.4296H210.728V32.4112ZM233.132 20.5633C231.397 20.5633 230.161 21.8736 230.032 23.6821H236.177C236.085 21.8367 234.885 20.5633 233.132 20.5633ZM236.214 28.0005H239.831C239.407 30.8241 236.804 32.7433 233.243 32.7433C228.795 32.7433 226.119 29.9013 226.119 25.2692C226.119 20.6556 228.814 17.6659 233.095 17.6659C237.303 17.6659 239.96 20.5079 239.96 24.9001V26.0997H229.995V26.3396C229.995 28.4065 231.305 29.8275 233.317 29.8275C234.756 29.8091 235.863 29.0893 236.214 28.0005ZM255.111 23.3315H251.457C251.236 21.7998 250.221 20.7294 248.597 20.7294C246.659 20.7294 245.441 22.3719 245.441 25.1585C245.441 28.0005 246.659 29.6245 248.615 29.6245C250.202 29.6245 251.217 28.6833 251.457 27.0962H255.13C254.927 30.5103 252.38 32.7064 248.578 32.7064C244.223 32.7064 241.455 29.8829 241.455 25.1585C241.455 20.5264 244.223 17.629 248.542 17.629C252.454 17.6475 254.945 20.065 255.111 23.3315ZM258.083 14.6209H262.013V17.9612H264.689V20.9324H262.013V27.8529C262.013 28.9601 262.549 29.4769 263.711 29.4769C264.062 29.4769 264.431 29.4584 264.671 29.4031V32.3004C264.265 32.3927 263.601 32.4665 262.789 32.4665C259.393 32.4665 258.064 31.3408 258.064 28.5172V20.9324H256.034V17.9612H258.064V14.6209H258.083Z" fill="white"/>
<path d="M14.7584 9.32438C26.4217 -2.09901 45.3377 -2.09901 57.001 9.32438L58.4035 10.69C58.9941 11.2621 58.9941 12.1848 58.4035 12.7569L53.6053 17.4629C53.31 17.7397 52.8487 17.7397 52.5534 17.4629L50.6157 15.562C42.4772 7.58965 29.2822 7.58965 21.1437 15.562L19.0768 17.592C18.7815 17.8689 18.3201 17.8689 18.0249 17.592L13.2082 12.9046C12.6177 12.3325 12.6177 11.4097 13.2082 10.8377L14.7584 9.32438ZM66.9295 19.0499L71.211 23.2391C71.8015 23.8112 71.8015 24.734 71.211 25.3061L51.926 44.1851C51.3354 44.7572 50.3942 44.7572 49.8221 44.1851L36.1473 30.7871C35.9996 30.6394 35.7597 30.6394 35.6121 30.7871L21.9372 44.1851C21.3467 44.7572 20.4055 44.7572 19.8334 44.1851L0.548379 25.3061C-0.042168 24.734 -0.042168 23.8112 0.548379 23.2391L4.82984 19.0499C5.42039 18.4779 6.36157 18.4779 6.93367 19.0499L20.6085 32.448C20.7562 32.5956 20.9961 32.5956 21.1437 32.448L34.8186 19.0499C35.4091 18.4779 36.3503 18.4779 36.9224 19.0499L50.5972 32.448C50.7449 32.5956 50.9848 32.5956 51.1324 32.448L64.8073 19.0499C65.3978 18.4779 66.339 18.4779 66.9295 19.0499Z" fill="white"/>
</svg>
