<svg width="211" height="35" viewBox="0 0 211 35" fill="none" xmlns="http://www.w3.org/2000/svg">
<path d="M76.222 18.8321L73.3227 29.258H70.305L66.2695 13.9919H69.5831L71.9854 25.045H72.0683L74.9203 13.9919H77.6185L80.4705 25.045H80.5533L82.9675 13.9919H86.2811L82.2338 29.258H79.2161L76.3167 18.8321H76.222ZM90.6834 27.1988C92.0206 27.1988 93.133 26.3231 93.133 25.0923V24.2639L90.7425 24.406C89.5946 24.4888 88.9319 25.0095 88.9319 25.8142C88.9319 26.6781 89.6301 27.1988 90.6834 27.1988ZM89.6656 29.4355C87.5118 29.4355 85.8669 28.039 85.8669 26.0036C85.8669 23.9444 87.4526 22.7492 90.281 22.5717L93.133 22.406V21.6604C93.133 20.6072 92.3875 19.9918 91.2277 19.9918C90.0798 19.9918 89.3461 20.5599 89.1923 21.4001H86.3639C86.4822 19.1989 88.352 17.6842 91.3579 17.6842C94.2691 17.6842 96.1626 19.1871 96.1626 21.4711V29.2698H93.1804V27.5302H93.1212C92.4822 28.7254 91.0857 29.4355 89.6656 29.4355ZM98.2335 13.9919H101.322V29.258H98.2335V13.9919ZM103.476 13.9919H106.565V29.258H103.476V13.9919ZM113.736 19.9563C112.387 19.9563 111.405 20.9859 111.298 22.3942H116.115C116.056 20.9504 115.109 19.9563 113.736 19.9563ZM116.162 25.7905H119.002C118.659 28.0154 116.636 29.5065 113.831 29.5065C110.34 29.5065 108.245 27.2698 108.245 23.6486C108.245 20.0273 110.364 17.6842 113.713 17.6842C117.014 17.6842 119.097 19.9208 119.097 23.3646V24.3113H111.287V24.5006C111.287 26.1219 112.316 27.2343 113.89 27.2343C115.003 27.2106 115.866 26.6544 116.162 25.7905ZM121.499 15.3055H124.588V17.9208H126.683V20.2522H124.588V25.6722C124.588 26.5361 125.014 26.9503 125.925 26.9503C126.198 26.9503 126.482 26.9266 126.671 26.903V29.1751C126.351 29.2461 125.819 29.3053 125.204 29.3053C122.541 29.3053 121.499 28.4177 121.499 26.2047V20.2522H119.902V17.9208H121.499V15.3055ZM135.381 29.5183C130.943 29.5183 128.162 26.5479 128.162 21.6131C128.162 16.6901 130.967 13.7197 135.381 13.7197C139.049 13.7197 141.842 16.0511 142.091 19.4593H138.978C138.683 17.5895 137.239 16.3587 135.381 16.3587C132.967 16.3587 131.416 18.3824 131.416 21.5894C131.416 24.8438 132.955 26.8556 135.393 26.8556C137.286 26.8556 138.647 25.7432 138.99 23.9326H142.103C141.736 27.3645 139.132 29.5183 135.381 29.5183ZM149.002 29.4946C145.57 29.4946 143.381 27.2935 143.381 23.5776C143.381 19.909 145.606 17.6723 149.002 17.6723C152.398 17.6723 154.623 19.8971 154.623 23.5776C154.623 27.3053 152.434 29.4946 149.002 29.4946ZM149.002 27.1396C150.517 27.1396 151.475 25.8616 151.475 23.5894C151.475 21.3409 150.505 20.0392 149.002 20.0392C147.499 20.0392 146.517 21.3409 146.517 23.5894C146.517 25.8616 147.487 27.1396 149.002 27.1396ZM156.209 29.258V17.9208H159.191V19.9445H159.25C159.854 18.5362 161.049 17.7078 162.801 17.7078C165.321 17.7078 166.73 19.2936 166.73 21.9445V29.258H163.641V22.5953C163.641 21.1161 162.943 20.264 161.558 20.264C160.173 20.264 159.298 21.2817 159.298 22.7492V29.258H156.209ZM168.682 29.258V17.9208H171.664V19.9445H171.724C172.327 18.5362 173.522 17.7078 175.262 17.7078C177.783 17.7078 179.191 19.2936 179.191 21.9445V29.258H176.102V22.5953C176.102 21.1161 175.404 20.264 174.019 20.264C172.635 20.264 171.759 21.2817 171.759 22.7492V29.258H168.682ZM186.256 19.9563C184.907 19.9563 183.925 20.9859 183.818 22.3942H188.635C188.575 20.9504 187.629 19.9563 186.256 19.9563ZM188.67 25.7905H191.51C191.167 28.0154 189.143 29.5065 186.339 29.5065C182.848 29.5065 180.753 27.2698 180.753 23.6486C180.753 20.0273 182.871 17.6842 186.22 17.6842C189.522 17.6842 191.605 19.9208 191.605 23.3646V24.3113H183.794V24.5006C183.794 26.1219 184.824 27.2343 186.398 27.2343C187.522 27.2106 188.386 26.6544 188.67 25.7905ZM203.486 22.1338H200.623C200.445 20.9386 199.652 20.0983 198.386 20.0983C196.859 20.0983 195.913 21.3882 195.913 23.5776C195.913 25.8142 196.859 27.0805 198.398 27.0805C199.64 27.0805 200.433 26.3349 200.634 25.1042H203.51C203.356 27.7787 201.356 29.5065 198.374 29.5065C194.954 29.5065 192.788 27.2817 192.788 23.5894C192.788 19.9563 194.954 17.6842 198.35 17.6842C201.404 17.6723 203.356 19.5658 203.486 22.1338ZM205.818 15.3055H208.906V17.9208H211.001V20.2522H208.906V25.6722C208.906 26.5361 209.332 26.9503 210.244 26.9503C210.516 26.9503 210.8 26.9266 210.989 26.903V29.1751C210.67 29.2461 210.149 29.3053 209.522 29.3053C206.859 29.3053 205.818 28.4177 205.818 26.2047V20.2522H204.22V17.9208H205.818V15.3055Z" fill="#3999FA"/>
<path d="M11.4939 6.71883C20.6417 -2.23961 35.4699 -2.23961 44.6295 6.71883L45.7301 7.79574C46.1916 8.24544 46.1916 8.96732 45.7301 9.41702L41.9668 13.1093C41.742 13.3341 41.3633 13.3341 41.1384 13.1093L39.6237 11.63C33.2451 5.38157 22.8902 5.38157 16.5116 11.63L14.8903 13.2158C14.6655 13.4406 14.2868 13.4406 14.0619 13.2158L10.2868 9.52352C9.82529 9.07383 9.82529 8.35194 10.2868 7.90225L11.4939 6.71883ZM52.4164 14.34L55.7654 17.6181C56.227 18.0678 56.227 18.7897 55.7654 19.2394L40.6532 34.0439C40.1917 34.4936 39.458 34.4936 38.9964 34.0439L28.2629 23.5351C28.1445 23.4286 27.967 23.4286 27.8487 23.5351L17.127 34.0439C16.6654 34.4936 15.9317 34.4936 15.4702 34.0439L0.346149 19.2512C-0.115383 18.8015 -0.115383 18.0796 0.346149 17.6299L3.69521 14.3519C4.15674 13.9022 4.89046 13.9022 5.35199 14.3519L16.0856 24.8606C16.2039 24.9671 16.3814 24.9671 16.4998 24.8606L27.2215 14.3519C27.683 13.9022 28.4167 13.9022 28.8783 14.3519L39.6118 24.8606C39.7302 24.9671 39.9077 24.9671 40.026 24.8606L50.7596 14.3519C51.2093 13.8903 51.9548 13.8903 52.4164 14.34Z" fill="#3A99FB"/>
</svg>
